M48
; DRILL file {KiCad 9.0.6} date 2026-06-07T16:31:38-0700
; FORMAT={-:-/ absolute / metric / decimal}
; #@! TF.CreationDate,2026-06-07T16:31:38-07:00
; #@! TF.GenerationSoftware,Kicad,Pcbnew,9.0.6
; #@! TF.FileFunction,Plated,1,2,PTH
FMAT,2
METRIC
; #@! TA.AperFunction,Plated,PTH,ViaDrill
T1C0.300
; #@! TA.AperFunction,Plated,PTH,ComponentDrill
T2C0.750
; #@! TA.AperFunction,Plated,PTH,ComponentDrill
T3C0.800
; #@! TA.AperFunction,Plated,PTH,ComponentDrill
T4C0.889
; #@! TA.AperFunction,Plated,PTH,ComponentDrill
T5C1.000
; #@! TA.AperFunction,Plated,PTH,ComponentDrill
T6C1.100
%
G90
G05
T1
X105.0Y-90.0
X105.0Y-92.0
X111.0Y-93.0
X116.0Y-85.0
X117.0Y-88.0
X138.0Y-96.055
T2
X161.0Y-102.0
X161.0Y-104.0
T3
X155.19Y-95.0
X162.81Y-95.0
X166.38Y-95.0
X172.0Y-102.0
X174.0Y-95.0
X174.54Y-102.0
X177.08Y-102.0
T4
X134.38Y-75.38
X134.38Y-77.92
X134.38Y-80.46
X134.38Y-83.0
X134.38Y-85.54
X134.38Y-88.08
X134.38Y-90.62
X149.62Y-75.38
X149.62Y-77.92
X149.62Y-80.46
X149.62Y-83.0
X149.62Y-85.54
X149.62Y-88.08
X149.62Y-90.62
T5
X99.102Y-87.4
X99.102Y-89.94
X99.102Y-92.48
X99.102Y-95.02
X101.642Y-87.4
X101.642Y-89.94
X101.642Y-92.48
X101.642Y-95.02
T6
X121.75Y-111.75
X121.75Y-116.25
X128.25Y-111.75
X128.25Y-116.25
X138.75Y-111.75
X138.75Y-116.25
X145.25Y-111.75
X145.25Y-116.25
X155.75Y-111.75
X155.75Y-116.25
X162.25Y-111.75
X162.25Y-116.25
M30
