%TF.GenerationSoftware,KiCad,Pcbnew,9.0.6*%
%TF.CreationDate,2026-06-07T16:31:36-07:00*%
%TF.ProjectId,convention_badge_pcb,636f6e76-656e-4746-996f-6e5f62616467,rev?*%
%TF.SameCoordinates,Original*%
%TF.FileFunction,Soldermask,Top*%
%TF.FilePolarity,Negative*%
%FSLAX46Y46*%
G04 Gerber Fmt 4.6, Leading zero omitted, Abs format (unit mm)*
G04 Created by KiCad (PCBNEW 9.0.6) date 2026-06-07 16:31:36*
%MOMM*%
%LPD*%
G01*
G04 APERTURE LIST*
G04 Aperture macros list*
%AMRoundRect*
0 Rectangle with rounded corners*
0 $1 Rounding radius*
0 $2 $3 $4 $5 $6 $7 $8 $9 X,Y pos of 4 corners*
0 Add a 4 corners polygon primitive as box body*
4,1,4,$2,$3,$4,$5,$6,$7,$8,$9,$2,$3,0*
0 Add four circle primitives for the rounded corners*
1,1,$1+$1,$2,$3*
1,1,$1+$1,$4,$5*
1,1,$1+$1,$6,$7*
1,1,$1+$1,$8,$9*
0 Add four rect primitives between the rounded corners*
20,1,$1+$1,$2,$3,$4,$5,0*
20,1,$1+$1,$4,$5,$6,$7,0*
20,1,$1+$1,$6,$7,$8,$9,0*
20,1,$1+$1,$8,$9,$2,$3,0*%
G04 Aperture macros list end*
%ADD10C,4.000000*%
%ADD11C,2.100000*%
%ADD12O,15.000000X5.000000*%
%ADD13C,2.000000*%
%ADD14R,1.700000X1.700000*%
%ADD15C,1.700000*%
%ADD16C,1.600000*%
%ADD17R,1.500000X1.500000*%
%ADD18C,1.524000*%
%ADD19RoundRect,0.250000X0.625000X-0.350000X0.625000X0.350000X-0.625000X0.350000X-0.625000X-0.350000X0*%
%ADD20O,1.750000X1.200000*%
G04 APERTURE END LIST*
D10*
%TO.C,*%
X142000000Y-53000000D03*
%TD*%
D11*
%TO.C,REF\u002A\u002A*%
X185000000Y-115000000D03*
%TD*%
%TO.C,REF\u002A\u002A*%
X185000000Y-51000000D03*
%TD*%
D12*
%TO.C,*%
X117500000Y-52000000D03*
%TD*%
D11*
%TO.C,REF\u002A\u002A*%
X99000000Y-51000000D03*
%TD*%
D13*
%TO.C,SW1*%
X121750000Y-111750000D03*
X128250000Y-111750000D03*
X121750000Y-116250000D03*
X128250000Y-116250000D03*
%TD*%
D12*
%TO.C,REF\u002A\u002A*%
X117500000Y-52000000D03*
%TD*%
%TO.C,REF\u002A\u002A*%
X166500000Y-52000000D03*
%TD*%
D11*
%TO.C,REF\u002A\u002A*%
X99000000Y-115000000D03*
%TD*%
D14*
%TO.C,J1*%
X99102500Y-95020000D03*
D15*
X101642500Y-95020000D03*
X99102500Y-92480000D03*
X101642500Y-92480000D03*
X99102500Y-89940000D03*
X101642500Y-89940000D03*
X99102500Y-87400000D03*
X101642500Y-87400000D03*
%TD*%
D13*
%TO.C,SW3*%
X155750000Y-111750000D03*
X162250000Y-111750000D03*
X155750000Y-116250000D03*
X162250000Y-116250000D03*
%TD*%
%TO.C,SW2*%
X138750000Y-111750000D03*
X145250000Y-111750000D03*
X138750000Y-116250000D03*
X145250000Y-116250000D03*
%TD*%
D16*
%TO.C,R2*%
X174000000Y-95000000D03*
X166380000Y-95000000D03*
%TD*%
D17*
%TO.C,SW4*%
X174540000Y-102000000D03*
D16*
X172000000Y-102000000D03*
X177080000Y-102000000D03*
%TD*%
D18*
%TO.C,U1*%
X149620000Y-75380000D03*
X149620000Y-77920000D03*
X149620000Y-80460000D03*
X149620000Y-83000000D03*
X149620000Y-85540000D03*
X149620000Y-88080000D03*
X149620000Y-90620000D03*
X134380000Y-90620000D03*
X134380000Y-88080000D03*
X134380000Y-85540000D03*
X134380000Y-83000000D03*
X134380000Y-80460000D03*
X134380000Y-77920000D03*
X134380000Y-75380000D03*
%TD*%
D19*
%TO.C,J2*%
X161000000Y-104000000D03*
D20*
X161000000Y-102000000D03*
%TD*%
D16*
%TO.C,R1*%
X162810000Y-95000000D03*
X155190000Y-95000000D03*
%TD*%
M02*
