%TF.GenerationSoftware,KiCad,Pcbnew,9.0.6*%
%TF.CreationDate,2026-06-26T23:27:14-07:00*%
%TF.ProjectId,convention_badge_pcb_v2,636f6e76-656e-4746-996f-6e5f62616467,rev?*%
%TF.SameCoordinates,Original*%
%TF.FileFunction,Profile,NP*%
%FSLAX46Y46*%
G04 Gerber Fmt 4.6, Leading zero omitted, Abs format (unit mm)*
G04 Created by KiCad (PCBNEW 9.0.6) date 2026-06-26 23:27:14*
%MOMM*%
%LPD*%
G01*
G04 APERTURE LIST*
%TA.AperFunction,Profile*%
%ADD10C,0.050000*%
%TD*%
G04 APERTURE END LIST*
D10*
X158600000Y-58200000D02*
G75*
G02*
X150600000Y-58200000I-4000000J0D01*
G01*
X150600000Y-58200000D02*
G75*
G02*
X158600000Y-58200000I4000000J0D01*
G01*
X170100000Y-130000000D02*
X139100000Y-130000000D01*
X196600000Y-51000000D02*
G75*
G02*
X199600000Y-54000000I0J-3000000D01*
G01*
X139100000Y-127000000D02*
X170100000Y-127000000D01*
X139100000Y-130000000D02*
G75*
G02*
X137600000Y-128500000I0J1500000D01*
G01*
X188100000Y-130000000D02*
X196600000Y-130000000D01*
X170100000Y-70000000D02*
G75*
G02*
X171600000Y-71500000I0J-1500000D01*
G01*
X121100000Y-70000000D02*
X112600000Y-70000000D01*
X137600000Y-71500000D02*
G75*
G02*
X139100000Y-70000000I1500000J0D01*
G01*
X199600000Y-76000000D02*
X199600000Y-124000000D01*
X137600000Y-128500000D02*
G75*
G02*
X139100000Y-127000000I1500000J0D01*
G01*
X170100000Y-127000000D02*
G75*
G02*
X171600000Y-128500000I0J-1500000D01*
G01*
X186600000Y-71500000D02*
G75*
G02*
X188100000Y-70000000I1500000J0D01*
G01*
X112600000Y-130000000D02*
X121100000Y-130000000D01*
X109600000Y-76000000D02*
G75*
G02*
X112600000Y-73000000I3000000J0D01*
G01*
X196600000Y-130000000D02*
G75*
G02*
X199600000Y-133000000I0J-3000000D01*
G01*
X139100000Y-73000000D02*
G75*
G02*
X137600000Y-71500000I0J1500000D01*
G01*
X112600000Y-51000000D02*
X196600000Y-51000000D01*
X170100000Y-70000000D02*
X139100000Y-70000000D01*
X171600000Y-71500000D02*
G75*
G02*
X170100000Y-73000000I-1500000J0D01*
G01*
X109600000Y-146000000D02*
X109600000Y-133000000D01*
X188100000Y-73000000D02*
G75*
G02*
X186600000Y-71500000I0J1500000D01*
G01*
X199600000Y-67000000D02*
G75*
G02*
X196600000Y-70000000I-3000000J0D01*
G01*
X199600000Y-124000000D02*
G75*
G02*
X196600000Y-127000000I-3000000J0D01*
G01*
X122600000Y-71500000D02*
G75*
G02*
X121100000Y-73000000I-1500000J0D01*
G01*
X121100000Y-70000000D02*
G75*
G02*
X122600000Y-71500000I0J-1500000D01*
G01*
X109600000Y-54000000D02*
G75*
G02*
X112600000Y-51000000I3000000J0D01*
G01*
X109600000Y-124000000D02*
X109600000Y-76000000D01*
X188100000Y-73000000D02*
X196600000Y-73000000D01*
X122600000Y-128500000D02*
G75*
G02*
X121100000Y-130000000I-1500000J0D01*
G01*
X112600000Y-127000000D02*
G75*
G02*
X109600000Y-124000000I0J3000000D01*
G01*
X196600000Y-149000000D02*
X112600000Y-149000000D01*
X199600000Y-54000000D02*
X199600000Y-67000000D01*
X170100000Y-73000000D02*
X139100000Y-73000000D01*
X196600000Y-70000000D02*
X188100000Y-70000000D01*
X171600000Y-128500000D02*
G75*
G02*
X170100000Y-130000000I-1500000J0D01*
G01*
X196600000Y-73000000D02*
G75*
G02*
X199600000Y-76000000I0J-3000000D01*
G01*
X186600000Y-128500000D02*
G75*
G02*
X188100000Y-127000000I1500000J0D01*
G01*
X121100000Y-127000000D02*
X112600000Y-127000000D01*
X196600000Y-127000000D02*
X188100000Y-127000000D01*
X112600000Y-149000000D02*
G75*
G02*
X109600000Y-146000000I0J3000000D01*
G01*
X112600000Y-70000000D02*
G75*
G02*
X109600000Y-67000000I0J3000000D01*
G01*
X112600000Y-73000000D02*
X121100000Y-73000000D01*
X121100000Y-127000000D02*
G75*
G02*
X122600000Y-128500000I0J-1500000D01*
G01*
X109600000Y-133000000D02*
G75*
G02*
X112600000Y-130000000I3000000J0D01*
G01*
X199600000Y-133000000D02*
X199600000Y-146000000D01*
X199600000Y-146000000D02*
G75*
G02*
X196600000Y-149000000I-3000000J0D01*
G01*
X188100000Y-130000000D02*
G75*
G02*
X186600000Y-128500000I0J1500000D01*
G01*
X109600000Y-67000000D02*
X109600000Y-54000000D01*
M02*
