%TF.GenerationSoftware,KiCad,Pcbnew,9.0.6*%
%TF.CreationDate,2026-06-26T23:27:14-07:00*%
%TF.ProjectId,convention_badge_pcb_v2,636f6e76-656e-4746-996f-6e5f62616467,rev?*%
%TF.SameCoordinates,Original*%
%TF.FileFunction,Legend,Bot*%
%TF.FilePolarity,Positive*%
%FSLAX46Y46*%
G04 Gerber Fmt 4.6, Leading zero omitted, Abs format (unit mm)*
G04 Created by KiCad (PCBNEW 9.0.6) date 2026-06-26 23:27:14*
%MOMM*%
%LPD*%
G01*
G04 APERTURE LIST*
%ADD10C,0.100000*%
%ADD11C,0.150000*%
%ADD12C,0.120000*%
G04 APERTURE END LIST*
D10*
X195924687Y-123572072D02*
X195972306Y-123619692D01*
X195972306Y-123619692D02*
X196115163Y-123667311D01*
X196115163Y-123667311D02*
X196210401Y-123667311D01*
X196210401Y-123667311D02*
X196353258Y-123619692D01*
X196353258Y-123619692D02*
X196448496Y-123524453D01*
X196448496Y-123524453D02*
X196496115Y-123429215D01*
X196496115Y-123429215D02*
X196543734Y-123238739D01*
X196543734Y-123238739D02*
X196543734Y-123095882D01*
X196543734Y-123095882D02*
X196496115Y-122905406D01*
X196496115Y-122905406D02*
X196448496Y-122810168D01*
X196448496Y-122810168D02*
X196353258Y-122714930D01*
X196353258Y-122714930D02*
X196210401Y-122667311D01*
X196210401Y-122667311D02*
X196115163Y-122667311D01*
X196115163Y-122667311D02*
X195972306Y-122714930D01*
X195972306Y-122714930D02*
X195924687Y-122762549D01*
X195353258Y-123667311D02*
X195448496Y-123619692D01*
X195448496Y-123619692D02*
X195496115Y-123572072D01*
X195496115Y-123572072D02*
X195543734Y-123476834D01*
X195543734Y-123476834D02*
X195543734Y-123191120D01*
X195543734Y-123191120D02*
X195496115Y-123095882D01*
X195496115Y-123095882D02*
X195448496Y-123048263D01*
X195448496Y-123048263D02*
X195353258Y-123000644D01*
X195353258Y-123000644D02*
X195210401Y-123000644D01*
X195210401Y-123000644D02*
X195115163Y-123048263D01*
X195115163Y-123048263D02*
X195067544Y-123095882D01*
X195067544Y-123095882D02*
X195019925Y-123191120D01*
X195019925Y-123191120D02*
X195019925Y-123476834D01*
X195019925Y-123476834D02*
X195067544Y-123572072D01*
X195067544Y-123572072D02*
X195115163Y-123619692D01*
X195115163Y-123619692D02*
X195210401Y-123667311D01*
X195210401Y-123667311D02*
X195353258Y-123667311D01*
X194591353Y-123000644D02*
X194591353Y-123667311D01*
X194591353Y-123095882D02*
X194543734Y-123048263D01*
X194543734Y-123048263D02*
X194448496Y-123000644D01*
X194448496Y-123000644D02*
X194305639Y-123000644D01*
X194305639Y-123000644D02*
X194210401Y-123048263D01*
X194210401Y-123048263D02*
X194162782Y-123143501D01*
X194162782Y-123143501D02*
X194162782Y-123667311D01*
X193781829Y-123000644D02*
X193543734Y-123667311D01*
X193543734Y-123667311D02*
X193305639Y-123000644D01*
X192543734Y-123619692D02*
X192638972Y-123667311D01*
X192638972Y-123667311D02*
X192829448Y-123667311D01*
X192829448Y-123667311D02*
X192924686Y-123619692D01*
X192924686Y-123619692D02*
X192972305Y-123524453D01*
X192972305Y-123524453D02*
X192972305Y-123143501D01*
X192972305Y-123143501D02*
X192924686Y-123048263D01*
X192924686Y-123048263D02*
X192829448Y-123000644D01*
X192829448Y-123000644D02*
X192638972Y-123000644D01*
X192638972Y-123000644D02*
X192543734Y-123048263D01*
X192543734Y-123048263D02*
X192496115Y-123143501D01*
X192496115Y-123143501D02*
X192496115Y-123238739D01*
X192496115Y-123238739D02*
X192972305Y-123333977D01*
X192067543Y-123000644D02*
X192067543Y-123667311D01*
X192067543Y-123095882D02*
X192019924Y-123048263D01*
X192019924Y-123048263D02*
X191924686Y-123000644D01*
X191924686Y-123000644D02*
X191781829Y-123000644D01*
X191781829Y-123000644D02*
X191686591Y-123048263D01*
X191686591Y-123048263D02*
X191638972Y-123143501D01*
X191638972Y-123143501D02*
X191638972Y-123667311D01*
X191305638Y-123000644D02*
X190924686Y-123000644D01*
X191162781Y-122667311D02*
X191162781Y-123524453D01*
X191162781Y-123524453D02*
X191115162Y-123619692D01*
X191115162Y-123619692D02*
X191019924Y-123667311D01*
X191019924Y-123667311D02*
X190924686Y-123667311D01*
X190591352Y-123667311D02*
X190591352Y-123000644D01*
X190591352Y-122667311D02*
X190638971Y-122714930D01*
X190638971Y-122714930D02*
X190591352Y-122762549D01*
X190591352Y-122762549D02*
X190543733Y-122714930D01*
X190543733Y-122714930D02*
X190591352Y-122667311D01*
X190591352Y-122667311D02*
X190591352Y-122762549D01*
X189972305Y-123667311D02*
X190067543Y-123619692D01*
X190067543Y-123619692D02*
X190115162Y-123572072D01*
X190115162Y-123572072D02*
X190162781Y-123476834D01*
X190162781Y-123476834D02*
X190162781Y-123191120D01*
X190162781Y-123191120D02*
X190115162Y-123095882D01*
X190115162Y-123095882D02*
X190067543Y-123048263D01*
X190067543Y-123048263D02*
X189972305Y-123000644D01*
X189972305Y-123000644D02*
X189829448Y-123000644D01*
X189829448Y-123000644D02*
X189734210Y-123048263D01*
X189734210Y-123048263D02*
X189686591Y-123095882D01*
X189686591Y-123095882D02*
X189638972Y-123191120D01*
X189638972Y-123191120D02*
X189638972Y-123476834D01*
X189638972Y-123476834D02*
X189686591Y-123572072D01*
X189686591Y-123572072D02*
X189734210Y-123619692D01*
X189734210Y-123619692D02*
X189829448Y-123667311D01*
X189829448Y-123667311D02*
X189972305Y-123667311D01*
X189210400Y-123000644D02*
X189210400Y-123667311D01*
X189210400Y-123095882D02*
X189162781Y-123048263D01*
X189162781Y-123048263D02*
X189067543Y-123000644D01*
X189067543Y-123000644D02*
X188924686Y-123000644D01*
X188924686Y-123000644D02*
X188829448Y-123048263D01*
X188829448Y-123048263D02*
X188781829Y-123143501D01*
X188781829Y-123143501D02*
X188781829Y-123667311D01*
X187543733Y-123667311D02*
X187543733Y-122667311D01*
X187543733Y-122667311D02*
X187162781Y-122667311D01*
X187162781Y-122667311D02*
X187067543Y-122714930D01*
X187067543Y-122714930D02*
X187019924Y-122762549D01*
X187019924Y-122762549D02*
X186972305Y-122857787D01*
X186972305Y-122857787D02*
X186972305Y-123000644D01*
X186972305Y-123000644D02*
X187019924Y-123095882D01*
X187019924Y-123095882D02*
X187067543Y-123143501D01*
X187067543Y-123143501D02*
X187162781Y-123191120D01*
X187162781Y-123191120D02*
X187543733Y-123191120D01*
X185972305Y-123572072D02*
X186019924Y-123619692D01*
X186019924Y-123619692D02*
X186162781Y-123667311D01*
X186162781Y-123667311D02*
X186258019Y-123667311D01*
X186258019Y-123667311D02*
X186400876Y-123619692D01*
X186400876Y-123619692D02*
X186496114Y-123524453D01*
X186496114Y-123524453D02*
X186543733Y-123429215D01*
X186543733Y-123429215D02*
X186591352Y-123238739D01*
X186591352Y-123238739D02*
X186591352Y-123095882D01*
X186591352Y-123095882D02*
X186543733Y-122905406D01*
X186543733Y-122905406D02*
X186496114Y-122810168D01*
X186496114Y-122810168D02*
X186400876Y-122714930D01*
X186400876Y-122714930D02*
X186258019Y-122667311D01*
X186258019Y-122667311D02*
X186162781Y-122667311D01*
X186162781Y-122667311D02*
X186019924Y-122714930D01*
X186019924Y-122714930D02*
X185972305Y-122762549D01*
X185210400Y-123143501D02*
X185067543Y-123191120D01*
X185067543Y-123191120D02*
X185019924Y-123238739D01*
X185019924Y-123238739D02*
X184972305Y-123333977D01*
X184972305Y-123333977D02*
X184972305Y-123476834D01*
X184972305Y-123476834D02*
X185019924Y-123572072D01*
X185019924Y-123572072D02*
X185067543Y-123619692D01*
X185067543Y-123619692D02*
X185162781Y-123667311D01*
X185162781Y-123667311D02*
X185543733Y-123667311D01*
X185543733Y-123667311D02*
X185543733Y-122667311D01*
X185543733Y-122667311D02*
X185210400Y-122667311D01*
X185210400Y-122667311D02*
X185115162Y-122714930D01*
X185115162Y-122714930D02*
X185067543Y-122762549D01*
X185067543Y-122762549D02*
X185019924Y-122857787D01*
X185019924Y-122857787D02*
X185019924Y-122953025D01*
X185019924Y-122953025D02*
X185067543Y-123048263D01*
X185067543Y-123048263D02*
X185115162Y-123095882D01*
X185115162Y-123095882D02*
X185210400Y-123143501D01*
X185210400Y-123143501D02*
X185543733Y-123143501D01*
X183448495Y-123143501D02*
X183305638Y-123191120D01*
X183305638Y-123191120D02*
X183258019Y-123238739D01*
X183258019Y-123238739D02*
X183210400Y-123333977D01*
X183210400Y-123333977D02*
X183210400Y-123476834D01*
X183210400Y-123476834D02*
X183258019Y-123572072D01*
X183258019Y-123572072D02*
X183305638Y-123619692D01*
X183305638Y-123619692D02*
X183400876Y-123667311D01*
X183400876Y-123667311D02*
X183781828Y-123667311D01*
X183781828Y-123667311D02*
X183781828Y-122667311D01*
X183781828Y-122667311D02*
X183448495Y-122667311D01*
X183448495Y-122667311D02*
X183353257Y-122714930D01*
X183353257Y-122714930D02*
X183305638Y-122762549D01*
X183305638Y-122762549D02*
X183258019Y-122857787D01*
X183258019Y-122857787D02*
X183258019Y-122953025D01*
X183258019Y-122953025D02*
X183305638Y-123048263D01*
X183305638Y-123048263D02*
X183353257Y-123095882D01*
X183353257Y-123095882D02*
X183448495Y-123143501D01*
X183448495Y-123143501D02*
X183781828Y-123143501D01*
X182353257Y-123667311D02*
X182353257Y-123143501D01*
X182353257Y-123143501D02*
X182400876Y-123048263D01*
X182400876Y-123048263D02*
X182496114Y-123000644D01*
X182496114Y-123000644D02*
X182686590Y-123000644D01*
X182686590Y-123000644D02*
X182781828Y-123048263D01*
X182353257Y-123619692D02*
X182448495Y-123667311D01*
X182448495Y-123667311D02*
X182686590Y-123667311D01*
X182686590Y-123667311D02*
X182781828Y-123619692D01*
X182781828Y-123619692D02*
X182829447Y-123524453D01*
X182829447Y-123524453D02*
X182829447Y-123429215D01*
X182829447Y-123429215D02*
X182781828Y-123333977D01*
X182781828Y-123333977D02*
X182686590Y-123286358D01*
X182686590Y-123286358D02*
X182448495Y-123286358D01*
X182448495Y-123286358D02*
X182353257Y-123238739D01*
X181448495Y-123667311D02*
X181448495Y-122667311D01*
X181448495Y-123619692D02*
X181543733Y-123667311D01*
X181543733Y-123667311D02*
X181734209Y-123667311D01*
X181734209Y-123667311D02*
X181829447Y-123619692D01*
X181829447Y-123619692D02*
X181877066Y-123572072D01*
X181877066Y-123572072D02*
X181924685Y-123476834D01*
X181924685Y-123476834D02*
X181924685Y-123191120D01*
X181924685Y-123191120D02*
X181877066Y-123095882D01*
X181877066Y-123095882D02*
X181829447Y-123048263D01*
X181829447Y-123048263D02*
X181734209Y-123000644D01*
X181734209Y-123000644D02*
X181543733Y-123000644D01*
X181543733Y-123000644D02*
X181448495Y-123048263D01*
X180543733Y-123000644D02*
X180543733Y-123810168D01*
X180543733Y-123810168D02*
X180591352Y-123905406D01*
X180591352Y-123905406D02*
X180638971Y-123953025D01*
X180638971Y-123953025D02*
X180734209Y-124000644D01*
X180734209Y-124000644D02*
X180877066Y-124000644D01*
X180877066Y-124000644D02*
X180972304Y-123953025D01*
X180543733Y-123619692D02*
X180638971Y-123667311D01*
X180638971Y-123667311D02*
X180829447Y-123667311D01*
X180829447Y-123667311D02*
X180924685Y-123619692D01*
X180924685Y-123619692D02*
X180972304Y-123572072D01*
X180972304Y-123572072D02*
X181019923Y-123476834D01*
X181019923Y-123476834D02*
X181019923Y-123191120D01*
X181019923Y-123191120D02*
X180972304Y-123095882D01*
X180972304Y-123095882D02*
X180924685Y-123048263D01*
X180924685Y-123048263D02*
X180829447Y-123000644D01*
X180829447Y-123000644D02*
X180638971Y-123000644D01*
X180638971Y-123000644D02*
X180543733Y-123048263D01*
X179686590Y-123619692D02*
X179781828Y-123667311D01*
X179781828Y-123667311D02*
X179972304Y-123667311D01*
X179972304Y-123667311D02*
X180067542Y-123619692D01*
X180067542Y-123619692D02*
X180115161Y-123524453D01*
X180115161Y-123524453D02*
X180115161Y-123143501D01*
X180115161Y-123143501D02*
X180067542Y-123048263D01*
X180067542Y-123048263D02*
X179972304Y-123000644D01*
X179972304Y-123000644D02*
X179781828Y-123000644D01*
X179781828Y-123000644D02*
X179686590Y-123048263D01*
X179686590Y-123048263D02*
X179638971Y-123143501D01*
X179638971Y-123143501D02*
X179638971Y-123238739D01*
X179638971Y-123238739D02*
X180115161Y-123333977D01*
X178591351Y-122667311D02*
X178258018Y-123667311D01*
X178258018Y-123667311D02*
X177924685Y-122667311D01*
X177638970Y-122762549D02*
X177591351Y-122714930D01*
X177591351Y-122714930D02*
X177496113Y-122667311D01*
X177496113Y-122667311D02*
X177258018Y-122667311D01*
X177258018Y-122667311D02*
X177162780Y-122714930D01*
X177162780Y-122714930D02*
X177115161Y-122762549D01*
X177115161Y-122762549D02*
X177067542Y-122857787D01*
X177067542Y-122857787D02*
X177067542Y-122953025D01*
X177067542Y-122953025D02*
X177115161Y-123095882D01*
X177115161Y-123095882D02*
X177686589Y-123667311D01*
X177686589Y-123667311D02*
X177067542Y-123667311D01*
X133143734Y-86624800D02*
X133000877Y-86672419D01*
X133000877Y-86672419D02*
X132762782Y-86672419D01*
X132762782Y-86672419D02*
X132667544Y-86624800D01*
X132667544Y-86624800D02*
X132619925Y-86577180D01*
X132619925Y-86577180D02*
X132572306Y-86481942D01*
X132572306Y-86481942D02*
X132572306Y-86386704D01*
X132572306Y-86386704D02*
X132619925Y-86291466D01*
X132619925Y-86291466D02*
X132667544Y-86243847D01*
X132667544Y-86243847D02*
X132762782Y-86196228D01*
X132762782Y-86196228D02*
X132953258Y-86148609D01*
X132953258Y-86148609D02*
X133048496Y-86100990D01*
X133048496Y-86100990D02*
X133096115Y-86053371D01*
X133096115Y-86053371D02*
X133143734Y-85958133D01*
X133143734Y-85958133D02*
X133143734Y-85862895D01*
X133143734Y-85862895D02*
X133096115Y-85767657D01*
X133096115Y-85767657D02*
X133048496Y-85720038D01*
X133048496Y-85720038D02*
X132953258Y-85672419D01*
X132953258Y-85672419D02*
X132715163Y-85672419D01*
X132715163Y-85672419D02*
X132572306Y-85720038D01*
X132286591Y-85672419D02*
X131715163Y-85672419D01*
X132000877Y-86672419D02*
X132000877Y-85672419D01*
X131381829Y-86672419D02*
X131381829Y-85672419D01*
X131381829Y-85672419D02*
X131143734Y-85672419D01*
X131143734Y-85672419D02*
X131000877Y-85720038D01*
X131000877Y-85720038D02*
X130905639Y-85815276D01*
X130905639Y-85815276D02*
X130858020Y-85910514D01*
X130858020Y-85910514D02*
X130810401Y-86100990D01*
X130810401Y-86100990D02*
X130810401Y-86243847D01*
X130810401Y-86243847D02*
X130858020Y-86434323D01*
X130858020Y-86434323D02*
X130905639Y-86529561D01*
X130905639Y-86529561D02*
X131000877Y-86624800D01*
X131000877Y-86624800D02*
X131143734Y-86672419D01*
X131143734Y-86672419D02*
X131381829Y-86672419D01*
X130048496Y-86148609D02*
X129905639Y-86196228D01*
X129905639Y-86196228D02*
X129858020Y-86243847D01*
X129858020Y-86243847D02*
X129810401Y-86339085D01*
X129810401Y-86339085D02*
X129810401Y-86481942D01*
X129810401Y-86481942D02*
X129858020Y-86577180D01*
X129858020Y-86577180D02*
X129905639Y-86624800D01*
X129905639Y-86624800D02*
X130000877Y-86672419D01*
X130000877Y-86672419D02*
X130381829Y-86672419D01*
X130381829Y-86672419D02*
X130381829Y-85672419D01*
X130381829Y-85672419D02*
X130048496Y-85672419D01*
X130048496Y-85672419D02*
X129953258Y-85720038D01*
X129953258Y-85720038D02*
X129905639Y-85767657D01*
X129905639Y-85767657D02*
X129858020Y-85862895D01*
X129858020Y-85862895D02*
X129858020Y-85958133D01*
X129858020Y-85958133D02*
X129905639Y-86053371D01*
X129905639Y-86053371D02*
X129953258Y-86100990D01*
X129953258Y-86100990D02*
X130048496Y-86148609D01*
X130048496Y-86148609D02*
X130381829Y-86148609D01*
X129191353Y-86196228D02*
X129191353Y-86672419D01*
X129524686Y-85672419D02*
X129191353Y-86196228D01*
X129191353Y-86196228D02*
X128858020Y-85672419D01*
X132524687Y-93177180D02*
X132572306Y-93224800D01*
X132572306Y-93224800D02*
X132715163Y-93272419D01*
X132715163Y-93272419D02*
X132810401Y-93272419D01*
X132810401Y-93272419D02*
X132953258Y-93224800D01*
X132953258Y-93224800D02*
X133048496Y-93129561D01*
X133048496Y-93129561D02*
X133096115Y-93034323D01*
X133096115Y-93034323D02*
X133143734Y-92843847D01*
X133143734Y-92843847D02*
X133143734Y-92700990D01*
X133143734Y-92700990D02*
X133096115Y-92510514D01*
X133096115Y-92510514D02*
X133048496Y-92415276D01*
X133048496Y-92415276D02*
X132953258Y-92320038D01*
X132953258Y-92320038D02*
X132810401Y-92272419D01*
X132810401Y-92272419D02*
X132715163Y-92272419D01*
X132715163Y-92272419D02*
X132572306Y-92320038D01*
X132572306Y-92320038D02*
X132524687Y-92367657D01*
X132096115Y-93272419D02*
X132096115Y-92272419D01*
X132096115Y-92748609D02*
X131524687Y-92748609D01*
X131524687Y-93272419D02*
X131524687Y-92272419D01*
X130477068Y-93272419D02*
X130810401Y-92796228D01*
X131048496Y-93272419D02*
X131048496Y-92272419D01*
X131048496Y-92272419D02*
X130667544Y-92272419D01*
X130667544Y-92272419D02*
X130572306Y-92320038D01*
X130572306Y-92320038D02*
X130524687Y-92367657D01*
X130524687Y-92367657D02*
X130477068Y-92462895D01*
X130477068Y-92462895D02*
X130477068Y-92605752D01*
X130477068Y-92605752D02*
X130524687Y-92700990D01*
X130524687Y-92700990D02*
X130572306Y-92748609D01*
X130572306Y-92748609D02*
X130667544Y-92796228D01*
X130667544Y-92796228D02*
X131048496Y-92796228D01*
X129524687Y-92320038D02*
X129619925Y-92272419D01*
X129619925Y-92272419D02*
X129762782Y-92272419D01*
X129762782Y-92272419D02*
X129905639Y-92320038D01*
X129905639Y-92320038D02*
X130000877Y-92415276D01*
X130000877Y-92415276D02*
X130048496Y-92510514D01*
X130048496Y-92510514D02*
X130096115Y-92700990D01*
X130096115Y-92700990D02*
X130096115Y-92843847D01*
X130096115Y-92843847D02*
X130048496Y-93034323D01*
X130048496Y-93034323D02*
X130000877Y-93129561D01*
X130000877Y-93129561D02*
X129905639Y-93224800D01*
X129905639Y-93224800D02*
X129762782Y-93272419D01*
X129762782Y-93272419D02*
X129667544Y-93272419D01*
X129667544Y-93272419D02*
X129524687Y-93224800D01*
X129524687Y-93224800D02*
X129477068Y-93177180D01*
X129477068Y-93177180D02*
X129477068Y-92843847D01*
X129477068Y-92843847D02*
X129667544Y-92843847D01*
X139772306Y-92720038D02*
X139867544Y-92672419D01*
X139867544Y-92672419D02*
X140010401Y-92672419D01*
X140010401Y-92672419D02*
X140153258Y-92720038D01*
X140153258Y-92720038D02*
X140248496Y-92815276D01*
X140248496Y-92815276D02*
X140296115Y-92910514D01*
X140296115Y-92910514D02*
X140343734Y-93100990D01*
X140343734Y-93100990D02*
X140343734Y-93243847D01*
X140343734Y-93243847D02*
X140296115Y-93434323D01*
X140296115Y-93434323D02*
X140248496Y-93529561D01*
X140248496Y-93529561D02*
X140153258Y-93624800D01*
X140153258Y-93624800D02*
X140010401Y-93672419D01*
X140010401Y-93672419D02*
X139915163Y-93672419D01*
X139915163Y-93672419D02*
X139772306Y-93624800D01*
X139772306Y-93624800D02*
X139724687Y-93577180D01*
X139724687Y-93577180D02*
X139724687Y-93243847D01*
X139724687Y-93243847D02*
X139915163Y-93243847D01*
X139296115Y-93672419D02*
X139296115Y-92672419D01*
X139296115Y-92672419D02*
X138724687Y-93672419D01*
X138724687Y-93672419D02*
X138724687Y-92672419D01*
X138248496Y-93672419D02*
X138248496Y-92672419D01*
X138248496Y-92672419D02*
X138010401Y-92672419D01*
X138010401Y-92672419D02*
X137867544Y-92720038D01*
X137867544Y-92720038D02*
X137772306Y-92815276D01*
X137772306Y-92815276D02*
X137724687Y-92910514D01*
X137724687Y-92910514D02*
X137677068Y-93100990D01*
X137677068Y-93100990D02*
X137677068Y-93243847D01*
X137677068Y-93243847D02*
X137724687Y-93434323D01*
X137724687Y-93434323D02*
X137772306Y-93529561D01*
X137772306Y-93529561D02*
X137867544Y-93624800D01*
X137867544Y-93624800D02*
X138010401Y-93672419D01*
X138010401Y-93672419D02*
X138248496Y-93672419D01*
X140391353Y-90072419D02*
X139772306Y-90072419D01*
X139772306Y-90072419D02*
X140105639Y-90453371D01*
X140105639Y-90453371D02*
X139962782Y-90453371D01*
X139962782Y-90453371D02*
X139867544Y-90500990D01*
X139867544Y-90500990D02*
X139819925Y-90548609D01*
X139819925Y-90548609D02*
X139772306Y-90643847D01*
X139772306Y-90643847D02*
X139772306Y-90881942D01*
X139772306Y-90881942D02*
X139819925Y-90977180D01*
X139819925Y-90977180D02*
X139867544Y-91024800D01*
X139867544Y-91024800D02*
X139962782Y-91072419D01*
X139962782Y-91072419D02*
X140248496Y-91072419D01*
X140248496Y-91072419D02*
X140343734Y-91024800D01*
X140343734Y-91024800D02*
X140391353Y-90977180D01*
X139343734Y-90977180D02*
X139296115Y-91024800D01*
X139296115Y-91024800D02*
X139343734Y-91072419D01*
X139343734Y-91072419D02*
X139391353Y-91024800D01*
X139391353Y-91024800D02*
X139343734Y-90977180D01*
X139343734Y-90977180D02*
X139343734Y-91072419D01*
X138962782Y-90072419D02*
X138343735Y-90072419D01*
X138343735Y-90072419D02*
X138677068Y-90453371D01*
X138677068Y-90453371D02*
X138534211Y-90453371D01*
X138534211Y-90453371D02*
X138438973Y-90500990D01*
X138438973Y-90500990D02*
X138391354Y-90548609D01*
X138391354Y-90548609D02*
X138343735Y-90643847D01*
X138343735Y-90643847D02*
X138343735Y-90881942D01*
X138343735Y-90881942D02*
X138391354Y-90977180D01*
X138391354Y-90977180D02*
X138438973Y-91024800D01*
X138438973Y-91024800D02*
X138534211Y-91072419D01*
X138534211Y-91072419D02*
X138819925Y-91072419D01*
X138819925Y-91072419D02*
X138915163Y-91024800D01*
X138915163Y-91024800D02*
X138962782Y-90977180D01*
X138058020Y-90072419D02*
X137724687Y-91072419D01*
X137724687Y-91072419D02*
X137391354Y-90072419D01*
X138419925Y-87272419D02*
X138896115Y-87272419D01*
X138896115Y-87272419D02*
X138943734Y-87748609D01*
X138943734Y-87748609D02*
X138896115Y-87700990D01*
X138896115Y-87700990D02*
X138800877Y-87653371D01*
X138800877Y-87653371D02*
X138562782Y-87653371D01*
X138562782Y-87653371D02*
X138467544Y-87700990D01*
X138467544Y-87700990D02*
X138419925Y-87748609D01*
X138419925Y-87748609D02*
X138372306Y-87843847D01*
X138372306Y-87843847D02*
X138372306Y-88081942D01*
X138372306Y-88081942D02*
X138419925Y-88177180D01*
X138419925Y-88177180D02*
X138467544Y-88224800D01*
X138467544Y-88224800D02*
X138562782Y-88272419D01*
X138562782Y-88272419D02*
X138800877Y-88272419D01*
X138800877Y-88272419D02*
X138896115Y-88224800D01*
X138896115Y-88224800D02*
X138943734Y-88177180D01*
X138086591Y-87272419D02*
X137753258Y-88272419D01*
X137753258Y-88272419D02*
X137419925Y-87272419D01*
X169448496Y-103672419D02*
X169258020Y-103672419D01*
X169258020Y-103672419D02*
X169162782Y-103624800D01*
X169162782Y-103624800D02*
X169115163Y-103577180D01*
X169115163Y-103577180D02*
X169019925Y-103434323D01*
X169019925Y-103434323D02*
X168972306Y-103243847D01*
X168972306Y-103243847D02*
X168972306Y-102862895D01*
X168972306Y-102862895D02*
X169019925Y-102767657D01*
X169019925Y-102767657D02*
X169067544Y-102720038D01*
X169067544Y-102720038D02*
X169162782Y-102672419D01*
X169162782Y-102672419D02*
X169353258Y-102672419D01*
X169353258Y-102672419D02*
X169448496Y-102720038D01*
X169448496Y-102720038D02*
X169496115Y-102767657D01*
X169496115Y-102767657D02*
X169543734Y-102862895D01*
X169543734Y-102862895D02*
X169543734Y-103100990D01*
X169543734Y-103100990D02*
X169496115Y-103196228D01*
X169496115Y-103196228D02*
X169448496Y-103243847D01*
X169448496Y-103243847D02*
X169353258Y-103291466D01*
X169353258Y-103291466D02*
X169162782Y-103291466D01*
X169162782Y-103291466D02*
X169067544Y-103243847D01*
X169067544Y-103243847D02*
X169019925Y-103196228D01*
X169019925Y-103196228D02*
X168972306Y-103100990D01*
X169353258Y-100700990D02*
X169448496Y-100653371D01*
X169448496Y-100653371D02*
X169496115Y-100605752D01*
X169496115Y-100605752D02*
X169543734Y-100510514D01*
X169543734Y-100510514D02*
X169543734Y-100462895D01*
X169543734Y-100462895D02*
X169496115Y-100367657D01*
X169496115Y-100367657D02*
X169448496Y-100320038D01*
X169448496Y-100320038D02*
X169353258Y-100272419D01*
X169353258Y-100272419D02*
X169162782Y-100272419D01*
X169162782Y-100272419D02*
X169067544Y-100320038D01*
X169067544Y-100320038D02*
X169019925Y-100367657D01*
X169019925Y-100367657D02*
X168972306Y-100462895D01*
X168972306Y-100462895D02*
X168972306Y-100510514D01*
X168972306Y-100510514D02*
X169019925Y-100605752D01*
X169019925Y-100605752D02*
X169067544Y-100653371D01*
X169067544Y-100653371D02*
X169162782Y-100700990D01*
X169162782Y-100700990D02*
X169353258Y-100700990D01*
X169353258Y-100700990D02*
X169448496Y-100748609D01*
X169448496Y-100748609D02*
X169496115Y-100796228D01*
X169496115Y-100796228D02*
X169543734Y-100891466D01*
X169543734Y-100891466D02*
X169543734Y-101081942D01*
X169543734Y-101081942D02*
X169496115Y-101177180D01*
X169496115Y-101177180D02*
X169448496Y-101224800D01*
X169448496Y-101224800D02*
X169353258Y-101272419D01*
X169353258Y-101272419D02*
X169162782Y-101272419D01*
X169162782Y-101272419D02*
X169067544Y-101224800D01*
X169067544Y-101224800D02*
X169019925Y-101177180D01*
X169019925Y-101177180D02*
X168972306Y-101081942D01*
X168972306Y-101081942D02*
X168972306Y-100891466D01*
X168972306Y-100891466D02*
X169019925Y-100796228D01*
X169019925Y-100796228D02*
X169067544Y-100748609D01*
X169067544Y-100748609D02*
X169162782Y-100700990D01*
X169791353Y-97472419D02*
X169124687Y-97472419D01*
X169124687Y-97472419D02*
X169553258Y-98472419D01*
X169267544Y-95072419D02*
X169458020Y-95072419D01*
X169458020Y-95072419D02*
X169553258Y-95120038D01*
X169553258Y-95120038D02*
X169600877Y-95167657D01*
X169600877Y-95167657D02*
X169696115Y-95310514D01*
X169696115Y-95310514D02*
X169743734Y-95500990D01*
X169743734Y-95500990D02*
X169743734Y-95881942D01*
X169743734Y-95881942D02*
X169696115Y-95977180D01*
X169696115Y-95977180D02*
X169648496Y-96024800D01*
X169648496Y-96024800D02*
X169553258Y-96072419D01*
X169553258Y-96072419D02*
X169362782Y-96072419D01*
X169362782Y-96072419D02*
X169267544Y-96024800D01*
X169267544Y-96024800D02*
X169219925Y-95977180D01*
X169219925Y-95977180D02*
X169172306Y-95881942D01*
X169172306Y-95881942D02*
X169172306Y-95643847D01*
X169172306Y-95643847D02*
X169219925Y-95548609D01*
X169219925Y-95548609D02*
X169267544Y-95500990D01*
X169267544Y-95500990D02*
X169362782Y-95453371D01*
X169362782Y-95453371D02*
X169553258Y-95453371D01*
X169553258Y-95453371D02*
X169648496Y-95500990D01*
X169648496Y-95500990D02*
X169696115Y-95548609D01*
X169696115Y-95548609D02*
X169743734Y-95643847D01*
X169019925Y-92672419D02*
X169496115Y-92672419D01*
X169496115Y-92672419D02*
X169543734Y-93148609D01*
X169543734Y-93148609D02*
X169496115Y-93100990D01*
X169496115Y-93100990D02*
X169400877Y-93053371D01*
X169400877Y-93053371D02*
X169162782Y-93053371D01*
X169162782Y-93053371D02*
X169067544Y-93100990D01*
X169067544Y-93100990D02*
X169019925Y-93148609D01*
X169019925Y-93148609D02*
X168972306Y-93243847D01*
X168972306Y-93243847D02*
X168972306Y-93481942D01*
X168972306Y-93481942D02*
X169019925Y-93577180D01*
X169019925Y-93577180D02*
X169067544Y-93624800D01*
X169067544Y-93624800D02*
X169162782Y-93672419D01*
X169162782Y-93672419D02*
X169400877Y-93672419D01*
X169400877Y-93672419D02*
X169496115Y-93624800D01*
X169496115Y-93624800D02*
X169543734Y-93577180D01*
X169067544Y-90405752D02*
X169067544Y-91072419D01*
X169305639Y-90024800D02*
X169543734Y-90739085D01*
X169543734Y-90739085D02*
X168924687Y-90739085D01*
X169391353Y-112472419D02*
X169153258Y-113472419D01*
X169153258Y-113472419D02*
X168962782Y-112758133D01*
X168962782Y-112758133D02*
X168772306Y-113472419D01*
X168772306Y-113472419D02*
X168534211Y-112472419D01*
X168200877Y-113186704D02*
X167724687Y-113186704D01*
X168296115Y-113472419D02*
X167962782Y-112472419D01*
X167962782Y-112472419D02*
X167629449Y-113472419D01*
X167296115Y-113472419D02*
X167296115Y-112472419D01*
X166724687Y-113472419D02*
X167153258Y-112900990D01*
X166724687Y-112472419D02*
X167296115Y-113043847D01*
X166296115Y-112948609D02*
X165962782Y-112948609D01*
X165819925Y-113472419D02*
X166296115Y-113472419D01*
X166296115Y-113472419D02*
X166296115Y-112472419D01*
X166296115Y-112472419D02*
X165819925Y-112472419D01*
X158105639Y-115272419D02*
X158010401Y-115272419D01*
X158010401Y-115272419D02*
X157915163Y-115320038D01*
X157915163Y-115320038D02*
X157867544Y-115367657D01*
X157867544Y-115367657D02*
X157819925Y-115462895D01*
X157819925Y-115462895D02*
X157772306Y-115653371D01*
X157772306Y-115653371D02*
X157772306Y-115891466D01*
X157772306Y-115891466D02*
X157819925Y-116081942D01*
X157819925Y-116081942D02*
X157867544Y-116177180D01*
X157867544Y-116177180D02*
X157915163Y-116224800D01*
X157915163Y-116224800D02*
X158010401Y-116272419D01*
X158010401Y-116272419D02*
X158105639Y-116272419D01*
X158105639Y-116272419D02*
X158200877Y-116224800D01*
X158200877Y-116224800D02*
X158248496Y-116177180D01*
X158248496Y-116177180D02*
X158296115Y-116081942D01*
X158296115Y-116081942D02*
X158343734Y-115891466D01*
X158343734Y-115891466D02*
X158343734Y-115653371D01*
X158343734Y-115653371D02*
X158296115Y-115462895D01*
X158296115Y-115462895D02*
X158248496Y-115367657D01*
X158248496Y-115367657D02*
X158200877Y-115320038D01*
X158200877Y-115320038D02*
X158105639Y-115272419D01*
X155172306Y-116272419D02*
X155743734Y-116272419D01*
X155458020Y-116272419D02*
X155458020Y-115272419D01*
X155458020Y-115272419D02*
X155553258Y-115415276D01*
X155553258Y-115415276D02*
X155648496Y-115510514D01*
X155648496Y-115510514D02*
X155743734Y-115558133D01*
X153143734Y-115367657D02*
X153096115Y-115320038D01*
X153096115Y-115320038D02*
X153000877Y-115272419D01*
X153000877Y-115272419D02*
X152762782Y-115272419D01*
X152762782Y-115272419D02*
X152667544Y-115320038D01*
X152667544Y-115320038D02*
X152619925Y-115367657D01*
X152619925Y-115367657D02*
X152572306Y-115462895D01*
X152572306Y-115462895D02*
X152572306Y-115558133D01*
X152572306Y-115558133D02*
X152619925Y-115700990D01*
X152619925Y-115700990D02*
X153191353Y-116272419D01*
X153191353Y-116272419D02*
X152572306Y-116272419D01*
X150591353Y-115472419D02*
X149972306Y-115472419D01*
X149972306Y-115472419D02*
X150305639Y-115853371D01*
X150305639Y-115853371D02*
X150162782Y-115853371D01*
X150162782Y-115853371D02*
X150067544Y-115900990D01*
X150067544Y-115900990D02*
X150019925Y-115948609D01*
X150019925Y-115948609D02*
X149972306Y-116043847D01*
X149972306Y-116043847D02*
X149972306Y-116281942D01*
X149972306Y-116281942D02*
X150019925Y-116377180D01*
X150019925Y-116377180D02*
X150067544Y-116424800D01*
X150067544Y-116424800D02*
X150162782Y-116472419D01*
X150162782Y-116472419D02*
X150448496Y-116472419D01*
X150448496Y-116472419D02*
X150543734Y-116424800D01*
X150543734Y-116424800D02*
X150591353Y-116377180D01*
X147972306Y-116272419D02*
X148543734Y-116272419D01*
X148258020Y-116272419D02*
X148258020Y-115272419D01*
X148258020Y-115272419D02*
X148353258Y-115415276D01*
X148353258Y-115415276D02*
X148448496Y-115510514D01*
X148448496Y-115510514D02*
X148543734Y-115558133D01*
X147353258Y-115272419D02*
X147258020Y-115272419D01*
X147258020Y-115272419D02*
X147162782Y-115320038D01*
X147162782Y-115320038D02*
X147115163Y-115367657D01*
X147115163Y-115367657D02*
X147067544Y-115462895D01*
X147067544Y-115462895D02*
X147019925Y-115653371D01*
X147019925Y-115653371D02*
X147019925Y-115891466D01*
X147019925Y-115891466D02*
X147067544Y-116081942D01*
X147067544Y-116081942D02*
X147115163Y-116177180D01*
X147115163Y-116177180D02*
X147162782Y-116224800D01*
X147162782Y-116224800D02*
X147258020Y-116272419D01*
X147258020Y-116272419D02*
X147353258Y-116272419D01*
X147353258Y-116272419D02*
X147448496Y-116224800D01*
X147448496Y-116224800D02*
X147496115Y-116177180D01*
X147496115Y-116177180D02*
X147543734Y-116081942D01*
X147543734Y-116081942D02*
X147591353Y-115891466D01*
X147591353Y-115891466D02*
X147591353Y-115653371D01*
X147591353Y-115653371D02*
X147543734Y-115462895D01*
X147543734Y-115462895D02*
X147496115Y-115367657D01*
X147496115Y-115367657D02*
X147448496Y-115320038D01*
X147448496Y-115320038D02*
X147353258Y-115272419D01*
X145743734Y-115367657D02*
X145696115Y-115320038D01*
X145696115Y-115320038D02*
X145600877Y-115272419D01*
X145600877Y-115272419D02*
X145362782Y-115272419D01*
X145362782Y-115272419D02*
X145267544Y-115320038D01*
X145267544Y-115320038D02*
X145219925Y-115367657D01*
X145219925Y-115367657D02*
X145172306Y-115462895D01*
X145172306Y-115462895D02*
X145172306Y-115558133D01*
X145172306Y-115558133D02*
X145219925Y-115700990D01*
X145219925Y-115700990D02*
X145791353Y-116272419D01*
X145791353Y-116272419D02*
X145172306Y-116272419D01*
X144553258Y-115272419D02*
X144458020Y-115272419D01*
X144458020Y-115272419D02*
X144362782Y-115320038D01*
X144362782Y-115320038D02*
X144315163Y-115367657D01*
X144315163Y-115367657D02*
X144267544Y-115462895D01*
X144267544Y-115462895D02*
X144219925Y-115653371D01*
X144219925Y-115653371D02*
X144219925Y-115891466D01*
X144219925Y-115891466D02*
X144267544Y-116081942D01*
X144267544Y-116081942D02*
X144315163Y-116177180D01*
X144315163Y-116177180D02*
X144362782Y-116224800D01*
X144362782Y-116224800D02*
X144458020Y-116272419D01*
X144458020Y-116272419D02*
X144553258Y-116272419D01*
X144553258Y-116272419D02*
X144648496Y-116224800D01*
X144648496Y-116224800D02*
X144696115Y-116177180D01*
X144696115Y-116177180D02*
X144743734Y-116081942D01*
X144743734Y-116081942D02*
X144791353Y-115891466D01*
X144791353Y-115891466D02*
X144791353Y-115653371D01*
X144791353Y-115653371D02*
X144743734Y-115462895D01*
X144743734Y-115462895D02*
X144696115Y-115367657D01*
X144696115Y-115367657D02*
X144648496Y-115320038D01*
X144648496Y-115320038D02*
X144553258Y-115272419D01*
X143143734Y-115367657D02*
X143096115Y-115320038D01*
X143096115Y-115320038D02*
X143000877Y-115272419D01*
X143000877Y-115272419D02*
X142762782Y-115272419D01*
X142762782Y-115272419D02*
X142667544Y-115320038D01*
X142667544Y-115320038D02*
X142619925Y-115367657D01*
X142619925Y-115367657D02*
X142572306Y-115462895D01*
X142572306Y-115462895D02*
X142572306Y-115558133D01*
X142572306Y-115558133D02*
X142619925Y-115700990D01*
X142619925Y-115700990D02*
X143191353Y-116272419D01*
X143191353Y-116272419D02*
X142572306Y-116272419D01*
X141619925Y-116272419D02*
X142191353Y-116272419D01*
X141905639Y-116272419D02*
X141905639Y-115272419D01*
X141905639Y-115272419D02*
X142000877Y-115415276D01*
X142000877Y-115415276D02*
X142096115Y-115510514D01*
X142096115Y-115510514D02*
X142191353Y-115558133D01*
D11*
X125572857Y-84254819D02*
X125906190Y-83778628D01*
X126144285Y-84254819D02*
X126144285Y-83254819D01*
X126144285Y-83254819D02*
X125763333Y-83254819D01*
X125763333Y-83254819D02*
X125668095Y-83302438D01*
X125668095Y-83302438D02*
X125620476Y-83350057D01*
X125620476Y-83350057D02*
X125572857Y-83445295D01*
X125572857Y-83445295D02*
X125572857Y-83588152D01*
X125572857Y-83588152D02*
X125620476Y-83683390D01*
X125620476Y-83683390D02*
X125668095Y-83731009D01*
X125668095Y-83731009D02*
X125763333Y-83778628D01*
X125763333Y-83778628D02*
X126144285Y-83778628D01*
X124620476Y-84254819D02*
X125191904Y-84254819D01*
X124906190Y-84254819D02*
X124906190Y-83254819D01*
X124906190Y-83254819D02*
X125001428Y-83397676D01*
X125001428Y-83397676D02*
X125096666Y-83492914D01*
X125096666Y-83492914D02*
X125191904Y-83540533D01*
X124001428Y-83254819D02*
X123906190Y-83254819D01*
X123906190Y-83254819D02*
X123810952Y-83302438D01*
X123810952Y-83302438D02*
X123763333Y-83350057D01*
X123763333Y-83350057D02*
X123715714Y-83445295D01*
X123715714Y-83445295D02*
X123668095Y-83635771D01*
X123668095Y-83635771D02*
X123668095Y-83873866D01*
X123668095Y-83873866D02*
X123715714Y-84064342D01*
X123715714Y-84064342D02*
X123763333Y-84159580D01*
X123763333Y-84159580D02*
X123810952Y-84207200D01*
X123810952Y-84207200D02*
X123906190Y-84254819D01*
X123906190Y-84254819D02*
X124001428Y-84254819D01*
X124001428Y-84254819D02*
X124096666Y-84207200D01*
X124096666Y-84207200D02*
X124144285Y-84159580D01*
X124144285Y-84159580D02*
X124191904Y-84064342D01*
X124191904Y-84064342D02*
X124239523Y-83873866D01*
X124239523Y-83873866D02*
X124239523Y-83635771D01*
X124239523Y-83635771D02*
X124191904Y-83445295D01*
X124191904Y-83445295D02*
X124144285Y-83350057D01*
X124144285Y-83350057D02*
X124096666Y-83302438D01*
X124096666Y-83302438D02*
X124001428Y-83254819D01*
X140804819Y-84833333D02*
X140328628Y-84500000D01*
X140804819Y-84261905D02*
X139804819Y-84261905D01*
X139804819Y-84261905D02*
X139804819Y-84642857D01*
X139804819Y-84642857D02*
X139852438Y-84738095D01*
X139852438Y-84738095D02*
X139900057Y-84785714D01*
X139900057Y-84785714D02*
X139995295Y-84833333D01*
X139995295Y-84833333D02*
X140138152Y-84833333D01*
X140138152Y-84833333D02*
X140233390Y-84785714D01*
X140233390Y-84785714D02*
X140281009Y-84738095D01*
X140281009Y-84738095D02*
X140328628Y-84642857D01*
X140328628Y-84642857D02*
X140328628Y-84261905D01*
X140138152Y-85690476D02*
X140804819Y-85690476D01*
X139757200Y-85452381D02*
X140471485Y-85214286D01*
X140471485Y-85214286D02*
X140471485Y-85833333D01*
X180966666Y-84054819D02*
X181299999Y-83578628D01*
X181538094Y-84054819D02*
X181538094Y-83054819D01*
X181538094Y-83054819D02*
X181157142Y-83054819D01*
X181157142Y-83054819D02*
X181061904Y-83102438D01*
X181061904Y-83102438D02*
X181014285Y-83150057D01*
X181014285Y-83150057D02*
X180966666Y-83245295D01*
X180966666Y-83245295D02*
X180966666Y-83388152D01*
X180966666Y-83388152D02*
X181014285Y-83483390D01*
X181014285Y-83483390D02*
X181061904Y-83531009D01*
X181061904Y-83531009D02*
X181157142Y-83578628D01*
X181157142Y-83578628D02*
X181538094Y-83578628D01*
X180633332Y-83054819D02*
X180014285Y-83054819D01*
X180014285Y-83054819D02*
X180347618Y-83435771D01*
X180347618Y-83435771D02*
X180204761Y-83435771D01*
X180204761Y-83435771D02*
X180109523Y-83483390D01*
X180109523Y-83483390D02*
X180061904Y-83531009D01*
X180061904Y-83531009D02*
X180014285Y-83626247D01*
X180014285Y-83626247D02*
X180014285Y-83864342D01*
X180014285Y-83864342D02*
X180061904Y-83959580D01*
X180061904Y-83959580D02*
X180109523Y-84007200D01*
X180109523Y-84007200D02*
X180204761Y-84054819D01*
X180204761Y-84054819D02*
X180490475Y-84054819D01*
X180490475Y-84054819D02*
X180585713Y-84007200D01*
X180585713Y-84007200D02*
X180633332Y-83959580D01*
X172129580Y-108957142D02*
X172177200Y-108909523D01*
X172177200Y-108909523D02*
X172224819Y-108766666D01*
X172224819Y-108766666D02*
X172224819Y-108671428D01*
X172224819Y-108671428D02*
X172177200Y-108528571D01*
X172177200Y-108528571D02*
X172081961Y-108433333D01*
X172081961Y-108433333D02*
X171986723Y-108385714D01*
X171986723Y-108385714D02*
X171796247Y-108338095D01*
X171796247Y-108338095D02*
X171653390Y-108338095D01*
X171653390Y-108338095D02*
X171462914Y-108385714D01*
X171462914Y-108385714D02*
X171367676Y-108433333D01*
X171367676Y-108433333D02*
X171272438Y-108528571D01*
X171272438Y-108528571D02*
X171224819Y-108671428D01*
X171224819Y-108671428D02*
X171224819Y-108766666D01*
X171224819Y-108766666D02*
X171272438Y-108909523D01*
X171272438Y-108909523D02*
X171320057Y-108957142D01*
X172224819Y-109909523D02*
X172224819Y-109338095D01*
X172224819Y-109623809D02*
X171224819Y-109623809D01*
X171224819Y-109623809D02*
X171367676Y-109528571D01*
X171367676Y-109528571D02*
X171462914Y-109433333D01*
X171462914Y-109433333D02*
X171510533Y-109338095D01*
X172224819Y-110861904D02*
X172224819Y-110290476D01*
X172224819Y-110576190D02*
X171224819Y-110576190D01*
X171224819Y-110576190D02*
X171367676Y-110480952D01*
X171367676Y-110480952D02*
X171462914Y-110385714D01*
X171462914Y-110385714D02*
X171510533Y-110290476D01*
X167941666Y-85359580D02*
X167989285Y-85407200D01*
X167989285Y-85407200D02*
X168132142Y-85454819D01*
X168132142Y-85454819D02*
X168227380Y-85454819D01*
X168227380Y-85454819D02*
X168370237Y-85407200D01*
X168370237Y-85407200D02*
X168465475Y-85311961D01*
X168465475Y-85311961D02*
X168513094Y-85216723D01*
X168513094Y-85216723D02*
X168560713Y-85026247D01*
X168560713Y-85026247D02*
X168560713Y-84883390D01*
X168560713Y-84883390D02*
X168513094Y-84692914D01*
X168513094Y-84692914D02*
X168465475Y-84597676D01*
X168465475Y-84597676D02*
X168370237Y-84502438D01*
X168370237Y-84502438D02*
X168227380Y-84454819D01*
X168227380Y-84454819D02*
X168132142Y-84454819D01*
X168132142Y-84454819D02*
X167989285Y-84502438D01*
X167989285Y-84502438D02*
X167941666Y-84550057D01*
X167465475Y-85454819D02*
X167274999Y-85454819D01*
X167274999Y-85454819D02*
X167179761Y-85407200D01*
X167179761Y-85407200D02*
X167132142Y-85359580D01*
X167132142Y-85359580D02*
X167036904Y-85216723D01*
X167036904Y-85216723D02*
X166989285Y-85026247D01*
X166989285Y-85026247D02*
X166989285Y-84645295D01*
X166989285Y-84645295D02*
X167036904Y-84550057D01*
X167036904Y-84550057D02*
X167084523Y-84502438D01*
X167084523Y-84502438D02*
X167179761Y-84454819D01*
X167179761Y-84454819D02*
X167370237Y-84454819D01*
X167370237Y-84454819D02*
X167465475Y-84502438D01*
X167465475Y-84502438D02*
X167513094Y-84550057D01*
X167513094Y-84550057D02*
X167560713Y-84645295D01*
X167560713Y-84645295D02*
X167560713Y-84883390D01*
X167560713Y-84883390D02*
X167513094Y-84978628D01*
X167513094Y-84978628D02*
X167465475Y-85026247D01*
X167465475Y-85026247D02*
X167370237Y-85073866D01*
X167370237Y-85073866D02*
X167179761Y-85073866D01*
X167179761Y-85073866D02*
X167084523Y-85026247D01*
X167084523Y-85026247D02*
X167036904Y-84978628D01*
X167036904Y-84978628D02*
X166989285Y-84883390D01*
X119559580Y-106833333D02*
X119607200Y-106785714D01*
X119607200Y-106785714D02*
X119654819Y-106642857D01*
X119654819Y-106642857D02*
X119654819Y-106547619D01*
X119654819Y-106547619D02*
X119607200Y-106404762D01*
X119607200Y-106404762D02*
X119511961Y-106309524D01*
X119511961Y-106309524D02*
X119416723Y-106261905D01*
X119416723Y-106261905D02*
X119226247Y-106214286D01*
X119226247Y-106214286D02*
X119083390Y-106214286D01*
X119083390Y-106214286D02*
X118892914Y-106261905D01*
X118892914Y-106261905D02*
X118797676Y-106309524D01*
X118797676Y-106309524D02*
X118702438Y-106404762D01*
X118702438Y-106404762D02*
X118654819Y-106547619D01*
X118654819Y-106547619D02*
X118654819Y-106642857D01*
X118654819Y-106642857D02*
X118702438Y-106785714D01*
X118702438Y-106785714D02*
X118750057Y-106833333D01*
X119083390Y-107404762D02*
X119035771Y-107309524D01*
X119035771Y-107309524D02*
X118988152Y-107261905D01*
X118988152Y-107261905D02*
X118892914Y-107214286D01*
X118892914Y-107214286D02*
X118845295Y-107214286D01*
X118845295Y-107214286D02*
X118750057Y-107261905D01*
X118750057Y-107261905D02*
X118702438Y-107309524D01*
X118702438Y-107309524D02*
X118654819Y-107404762D01*
X118654819Y-107404762D02*
X118654819Y-107595238D01*
X118654819Y-107595238D02*
X118702438Y-107690476D01*
X118702438Y-107690476D02*
X118750057Y-107738095D01*
X118750057Y-107738095D02*
X118845295Y-107785714D01*
X118845295Y-107785714D02*
X118892914Y-107785714D01*
X118892914Y-107785714D02*
X118988152Y-107738095D01*
X118988152Y-107738095D02*
X119035771Y-107690476D01*
X119035771Y-107690476D02*
X119083390Y-107595238D01*
X119083390Y-107595238D02*
X119083390Y-107404762D01*
X119083390Y-107404762D02*
X119131009Y-107309524D01*
X119131009Y-107309524D02*
X119178628Y-107261905D01*
X119178628Y-107261905D02*
X119273866Y-107214286D01*
X119273866Y-107214286D02*
X119464342Y-107214286D01*
X119464342Y-107214286D02*
X119559580Y-107261905D01*
X119559580Y-107261905D02*
X119607200Y-107309524D01*
X119607200Y-107309524D02*
X119654819Y-107404762D01*
X119654819Y-107404762D02*
X119654819Y-107595238D01*
X119654819Y-107595238D02*
X119607200Y-107690476D01*
X119607200Y-107690476D02*
X119559580Y-107738095D01*
X119559580Y-107738095D02*
X119464342Y-107785714D01*
X119464342Y-107785714D02*
X119273866Y-107785714D01*
X119273866Y-107785714D02*
X119178628Y-107738095D01*
X119178628Y-107738095D02*
X119131009Y-107690476D01*
X119131009Y-107690476D02*
X119083390Y-107595238D01*
X128789580Y-108733333D02*
X128837200Y-108685714D01*
X128837200Y-108685714D02*
X128884819Y-108542857D01*
X128884819Y-108542857D02*
X128884819Y-108447619D01*
X128884819Y-108447619D02*
X128837200Y-108304762D01*
X128837200Y-108304762D02*
X128741961Y-108209524D01*
X128741961Y-108209524D02*
X128646723Y-108161905D01*
X128646723Y-108161905D02*
X128456247Y-108114286D01*
X128456247Y-108114286D02*
X128313390Y-108114286D01*
X128313390Y-108114286D02*
X128122914Y-108161905D01*
X128122914Y-108161905D02*
X128027676Y-108209524D01*
X128027676Y-108209524D02*
X127932438Y-108304762D01*
X127932438Y-108304762D02*
X127884819Y-108447619D01*
X127884819Y-108447619D02*
X127884819Y-108542857D01*
X127884819Y-108542857D02*
X127932438Y-108685714D01*
X127932438Y-108685714D02*
X127980057Y-108733333D01*
X127884819Y-109590476D02*
X127884819Y-109400000D01*
X127884819Y-109400000D02*
X127932438Y-109304762D01*
X127932438Y-109304762D02*
X127980057Y-109257143D01*
X127980057Y-109257143D02*
X128122914Y-109161905D01*
X128122914Y-109161905D02*
X128313390Y-109114286D01*
X128313390Y-109114286D02*
X128694342Y-109114286D01*
X128694342Y-109114286D02*
X128789580Y-109161905D01*
X128789580Y-109161905D02*
X128837200Y-109209524D01*
X128837200Y-109209524D02*
X128884819Y-109304762D01*
X128884819Y-109304762D02*
X128884819Y-109495238D01*
X128884819Y-109495238D02*
X128837200Y-109590476D01*
X128837200Y-109590476D02*
X128789580Y-109638095D01*
X128789580Y-109638095D02*
X128694342Y-109685714D01*
X128694342Y-109685714D02*
X128456247Y-109685714D01*
X128456247Y-109685714D02*
X128361009Y-109638095D01*
X128361009Y-109638095D02*
X128313390Y-109590476D01*
X128313390Y-109590476D02*
X128265771Y-109495238D01*
X128265771Y-109495238D02*
X128265771Y-109304762D01*
X128265771Y-109304762D02*
X128313390Y-109209524D01*
X128313390Y-109209524D02*
X128361009Y-109161905D01*
X128361009Y-109161905D02*
X128456247Y-109114286D01*
X127859580Y-96433333D02*
X127907200Y-96385714D01*
X127907200Y-96385714D02*
X127954819Y-96242857D01*
X127954819Y-96242857D02*
X127954819Y-96147619D01*
X127954819Y-96147619D02*
X127907200Y-96004762D01*
X127907200Y-96004762D02*
X127811961Y-95909524D01*
X127811961Y-95909524D02*
X127716723Y-95861905D01*
X127716723Y-95861905D02*
X127526247Y-95814286D01*
X127526247Y-95814286D02*
X127383390Y-95814286D01*
X127383390Y-95814286D02*
X127192914Y-95861905D01*
X127192914Y-95861905D02*
X127097676Y-95909524D01*
X127097676Y-95909524D02*
X127002438Y-96004762D01*
X127002438Y-96004762D02*
X126954819Y-96147619D01*
X126954819Y-96147619D02*
X126954819Y-96242857D01*
X126954819Y-96242857D02*
X127002438Y-96385714D01*
X127002438Y-96385714D02*
X127050057Y-96433333D01*
X126954819Y-97338095D02*
X126954819Y-96861905D01*
X126954819Y-96861905D02*
X127431009Y-96814286D01*
X127431009Y-96814286D02*
X127383390Y-96861905D01*
X127383390Y-96861905D02*
X127335771Y-96957143D01*
X127335771Y-96957143D02*
X127335771Y-97195238D01*
X127335771Y-97195238D02*
X127383390Y-97290476D01*
X127383390Y-97290476D02*
X127431009Y-97338095D01*
X127431009Y-97338095D02*
X127526247Y-97385714D01*
X127526247Y-97385714D02*
X127764342Y-97385714D01*
X127764342Y-97385714D02*
X127859580Y-97338095D01*
X127859580Y-97338095D02*
X127907200Y-97290476D01*
X127907200Y-97290476D02*
X127954819Y-97195238D01*
X127954819Y-97195238D02*
X127954819Y-96957143D01*
X127954819Y-96957143D02*
X127907200Y-96861905D01*
X127907200Y-96861905D02*
X127859580Y-96814286D01*
X181929580Y-93633333D02*
X181977200Y-93585714D01*
X181977200Y-93585714D02*
X182024819Y-93442857D01*
X182024819Y-93442857D02*
X182024819Y-93347619D01*
X182024819Y-93347619D02*
X181977200Y-93204762D01*
X181977200Y-93204762D02*
X181881961Y-93109524D01*
X181881961Y-93109524D02*
X181786723Y-93061905D01*
X181786723Y-93061905D02*
X181596247Y-93014286D01*
X181596247Y-93014286D02*
X181453390Y-93014286D01*
X181453390Y-93014286D02*
X181262914Y-93061905D01*
X181262914Y-93061905D02*
X181167676Y-93109524D01*
X181167676Y-93109524D02*
X181072438Y-93204762D01*
X181072438Y-93204762D02*
X181024819Y-93347619D01*
X181024819Y-93347619D02*
X181024819Y-93442857D01*
X181024819Y-93442857D02*
X181072438Y-93585714D01*
X181072438Y-93585714D02*
X181120057Y-93633333D01*
X181120057Y-94014286D02*
X181072438Y-94061905D01*
X181072438Y-94061905D02*
X181024819Y-94157143D01*
X181024819Y-94157143D02*
X181024819Y-94395238D01*
X181024819Y-94395238D02*
X181072438Y-94490476D01*
X181072438Y-94490476D02*
X181120057Y-94538095D01*
X181120057Y-94538095D02*
X181215295Y-94585714D01*
X181215295Y-94585714D02*
X181310533Y-94585714D01*
X181310533Y-94585714D02*
X181453390Y-94538095D01*
X181453390Y-94538095D02*
X182024819Y-93966667D01*
X182024819Y-93966667D02*
X182024819Y-94585714D01*
X181929580Y-87633333D02*
X181977200Y-87585714D01*
X181977200Y-87585714D02*
X182024819Y-87442857D01*
X182024819Y-87442857D02*
X182024819Y-87347619D01*
X182024819Y-87347619D02*
X181977200Y-87204762D01*
X181977200Y-87204762D02*
X181881961Y-87109524D01*
X181881961Y-87109524D02*
X181786723Y-87061905D01*
X181786723Y-87061905D02*
X181596247Y-87014286D01*
X181596247Y-87014286D02*
X181453390Y-87014286D01*
X181453390Y-87014286D02*
X181262914Y-87061905D01*
X181262914Y-87061905D02*
X181167676Y-87109524D01*
X181167676Y-87109524D02*
X181072438Y-87204762D01*
X181072438Y-87204762D02*
X181024819Y-87347619D01*
X181024819Y-87347619D02*
X181024819Y-87442857D01*
X181024819Y-87442857D02*
X181072438Y-87585714D01*
X181072438Y-87585714D02*
X181120057Y-87633333D01*
X182024819Y-88585714D02*
X182024819Y-88014286D01*
X182024819Y-88300000D02*
X181024819Y-88300000D01*
X181024819Y-88300000D02*
X181167676Y-88204762D01*
X181167676Y-88204762D02*
X181262914Y-88109524D01*
X181262914Y-88109524D02*
X181310533Y-88014286D01*
X119665180Y-81283333D02*
X118950895Y-81283333D01*
X118950895Y-81283333D02*
X118808038Y-81330952D01*
X118808038Y-81330952D02*
X118712800Y-81426190D01*
X118712800Y-81426190D02*
X118665180Y-81569047D01*
X118665180Y-81569047D02*
X118665180Y-81664285D01*
X118665180Y-80283333D02*
X118665180Y-80854761D01*
X118665180Y-80569047D02*
X119665180Y-80569047D01*
X119665180Y-80569047D02*
X119522323Y-80664285D01*
X119522323Y-80664285D02*
X119427085Y-80759523D01*
X119427085Y-80759523D02*
X119379466Y-80854761D01*
X153661904Y-84654819D02*
X153661904Y-85464342D01*
X153661904Y-85464342D02*
X153614285Y-85559580D01*
X153614285Y-85559580D02*
X153566666Y-85607200D01*
X153566666Y-85607200D02*
X153471428Y-85654819D01*
X153471428Y-85654819D02*
X153280952Y-85654819D01*
X153280952Y-85654819D02*
X153185714Y-85607200D01*
X153185714Y-85607200D02*
X153138095Y-85559580D01*
X153138095Y-85559580D02*
X153090476Y-85464342D01*
X153090476Y-85464342D02*
X153090476Y-84654819D01*
X152090476Y-85654819D02*
X152661904Y-85654819D01*
X152376190Y-85654819D02*
X152376190Y-84654819D01*
X152376190Y-84654819D02*
X152471428Y-84797676D01*
X152471428Y-84797676D02*
X152566666Y-84892914D01*
X152566666Y-84892914D02*
X152661904Y-84940533D01*
X125750057Y-103104761D02*
X125702438Y-103009523D01*
X125702438Y-103009523D02*
X125607200Y-102914285D01*
X125607200Y-102914285D02*
X125464342Y-102771428D01*
X125464342Y-102771428D02*
X125416723Y-102676190D01*
X125416723Y-102676190D02*
X125416723Y-102580952D01*
X125654819Y-102628571D02*
X125607200Y-102533333D01*
X125607200Y-102533333D02*
X125511961Y-102438095D01*
X125511961Y-102438095D02*
X125321485Y-102390476D01*
X125321485Y-102390476D02*
X124988152Y-102390476D01*
X124988152Y-102390476D02*
X124797676Y-102438095D01*
X124797676Y-102438095D02*
X124702438Y-102533333D01*
X124702438Y-102533333D02*
X124654819Y-102628571D01*
X124654819Y-102628571D02*
X124654819Y-102819047D01*
X124654819Y-102819047D02*
X124702438Y-102914285D01*
X124702438Y-102914285D02*
X124797676Y-103009523D01*
X124797676Y-103009523D02*
X124988152Y-103057142D01*
X124988152Y-103057142D02*
X125321485Y-103057142D01*
X125321485Y-103057142D02*
X125511961Y-103009523D01*
X125511961Y-103009523D02*
X125607200Y-102914285D01*
X125607200Y-102914285D02*
X125654819Y-102819047D01*
X125654819Y-102819047D02*
X125654819Y-102628571D01*
X125654819Y-104009523D02*
X125654819Y-103438095D01*
X125654819Y-103723809D02*
X124654819Y-103723809D01*
X124654819Y-103723809D02*
X124797676Y-103628571D01*
X124797676Y-103628571D02*
X124892914Y-103533333D01*
X124892914Y-103533333D02*
X124940533Y-103438095D01*
X124899404Y-104004819D02*
X124899404Y-104814342D01*
X124899404Y-104814342D02*
X124851785Y-104909580D01*
X124851785Y-104909580D02*
X124804166Y-104957200D01*
X124804166Y-104957200D02*
X124708928Y-105004819D01*
X124708928Y-105004819D02*
X124518452Y-105004819D01*
X124518452Y-105004819D02*
X124423214Y-104957200D01*
X124423214Y-104957200D02*
X124375595Y-104909580D01*
X124375595Y-104909580D02*
X124327976Y-104814342D01*
X124327976Y-104814342D02*
X124327976Y-104004819D01*
X123375595Y-104004819D02*
X123851785Y-104004819D01*
X123851785Y-104004819D02*
X123899404Y-104481009D01*
X123899404Y-104481009D02*
X123851785Y-104433390D01*
X123851785Y-104433390D02*
X123756547Y-104385771D01*
X123756547Y-104385771D02*
X123518452Y-104385771D01*
X123518452Y-104385771D02*
X123423214Y-104433390D01*
X123423214Y-104433390D02*
X123375595Y-104481009D01*
X123375595Y-104481009D02*
X123327976Y-104576247D01*
X123327976Y-104576247D02*
X123327976Y-104814342D01*
X123327976Y-104814342D02*
X123375595Y-104909580D01*
X123375595Y-104909580D02*
X123423214Y-104957200D01*
X123423214Y-104957200D02*
X123518452Y-105004819D01*
X123518452Y-105004819D02*
X123756547Y-105004819D01*
X123756547Y-105004819D02*
X123851785Y-104957200D01*
X123851785Y-104957200D02*
X123899404Y-104909580D01*
X119654819Y-99038095D02*
X120464342Y-99038095D01*
X120464342Y-99038095D02*
X120559580Y-99085714D01*
X120559580Y-99085714D02*
X120607200Y-99133333D01*
X120607200Y-99133333D02*
X120654819Y-99228571D01*
X120654819Y-99228571D02*
X120654819Y-99419047D01*
X120654819Y-99419047D02*
X120607200Y-99514285D01*
X120607200Y-99514285D02*
X120559580Y-99561904D01*
X120559580Y-99561904D02*
X120464342Y-99609523D01*
X120464342Y-99609523D02*
X119654819Y-99609523D01*
X119750057Y-100038095D02*
X119702438Y-100085714D01*
X119702438Y-100085714D02*
X119654819Y-100180952D01*
X119654819Y-100180952D02*
X119654819Y-100419047D01*
X119654819Y-100419047D02*
X119702438Y-100514285D01*
X119702438Y-100514285D02*
X119750057Y-100561904D01*
X119750057Y-100561904D02*
X119845295Y-100609523D01*
X119845295Y-100609523D02*
X119940533Y-100609523D01*
X119940533Y-100609523D02*
X120083390Y-100561904D01*
X120083390Y-100561904D02*
X120654819Y-99990476D01*
X120654819Y-99990476D02*
X120654819Y-100609523D01*
X123899404Y-96804819D02*
X123899404Y-97614342D01*
X123899404Y-97614342D02*
X123851785Y-97709580D01*
X123851785Y-97709580D02*
X123804166Y-97757200D01*
X123804166Y-97757200D02*
X123708928Y-97804819D01*
X123708928Y-97804819D02*
X123518452Y-97804819D01*
X123518452Y-97804819D02*
X123423214Y-97757200D01*
X123423214Y-97757200D02*
X123375595Y-97709580D01*
X123375595Y-97709580D02*
X123327976Y-97614342D01*
X123327976Y-97614342D02*
X123327976Y-96804819D01*
X122423214Y-97138152D02*
X122423214Y-97804819D01*
X122661309Y-96757200D02*
X122899404Y-97471485D01*
X122899404Y-97471485D02*
X122280357Y-97471485D01*
X124054819Y-113366666D02*
X124769104Y-113366666D01*
X124769104Y-113366666D02*
X124911961Y-113319047D01*
X124911961Y-113319047D02*
X125007200Y-113223809D01*
X125007200Y-113223809D02*
X125054819Y-113080952D01*
X125054819Y-113080952D02*
X125054819Y-112985714D01*
X124054819Y-113747619D02*
X124054819Y-114366666D01*
X124054819Y-114366666D02*
X124435771Y-114033333D01*
X124435771Y-114033333D02*
X124435771Y-114176190D01*
X124435771Y-114176190D02*
X124483390Y-114271428D01*
X124483390Y-114271428D02*
X124531009Y-114319047D01*
X124531009Y-114319047D02*
X124626247Y-114366666D01*
X124626247Y-114366666D02*
X124864342Y-114366666D01*
X124864342Y-114366666D02*
X124959580Y-114319047D01*
X124959580Y-114319047D02*
X125007200Y-114271428D01*
X125007200Y-114271428D02*
X125054819Y-114176190D01*
X125054819Y-114176190D02*
X125054819Y-113890476D01*
X125054819Y-113890476D02*
X125007200Y-113795238D01*
X125007200Y-113795238D02*
X124959580Y-113747619D01*
%TO.C,C7*%
X119240000Y-81790000D02*
X122260000Y-81790000D01*
X122260000Y-81790000D02*
X122260000Y-86000000D01*
X119240000Y-86000000D02*
X119240000Y-81790000D01*
%TO.C,C10*%
X163690000Y-83940000D02*
X163690000Y-82060000D01*
X163690000Y-82060000D02*
X167600000Y-82060000D01*
X167600000Y-83940000D02*
X163690000Y-83940000D01*
%TO.C,C4*%
X128740000Y-102110000D02*
X126860000Y-102110000D01*
X126860000Y-102110000D02*
X126860000Y-98200000D01*
X128740000Y-98200000D02*
X128740000Y-102110000D01*
%TO.C,C3*%
X116860000Y-86440000D02*
X118740000Y-86440000D01*
X118740000Y-86440000D02*
X118740000Y-90350000D01*
X116860000Y-90350000D02*
X116860000Y-86440000D01*
D12*
%TO.C,R10*%
X124702936Y-86335000D02*
X125157064Y-86335000D01*
X124702936Y-84865000D02*
X125157064Y-84865000D01*
%TO.C,R4*%
X141265000Y-84772936D02*
X141265000Y-85227064D01*
X142735000Y-84772936D02*
X142735000Y-85227064D01*
%TO.C,R3*%
X177772936Y-84535000D02*
X178227064Y-84535000D01*
X177772936Y-83065000D02*
X178227064Y-83065000D01*
%TO.C,C11*%
X172690000Y-109459420D02*
X172690000Y-109740580D01*
X173710000Y-109459420D02*
X173710000Y-109740580D01*
%TO.C,C9*%
X165034420Y-85510000D02*
X165315580Y-85510000D01*
X165034420Y-84490000D02*
X165315580Y-84490000D01*
%TO.C,C8*%
X121110000Y-106820580D02*
X121110000Y-106539420D01*
X120090000Y-106820580D02*
X120090000Y-106539420D01*
%TO.C,C6*%
X127510000Y-109040580D02*
X127510000Y-108759420D01*
X126490000Y-109040580D02*
X126490000Y-108759420D01*
%TO.C,C5*%
X125490000Y-96859420D02*
X125490000Y-97140580D01*
X126510000Y-96859420D02*
X126510000Y-97140580D01*
%TO.C,C2*%
X182490000Y-93659420D02*
X182490000Y-93940580D01*
X183510000Y-93659420D02*
X183510000Y-93940580D01*
%TO.C,C1*%
X182490000Y-87659420D02*
X182490000Y-87940580D01*
X183510000Y-87659420D02*
X183510000Y-87940580D01*
%TO.C,J1*%
X113720000Y-85620000D02*
X115420000Y-85620000D01*
X113720000Y-76280000D02*
X115420000Y-76280000D01*
%TO.C,U1*%
X162460000Y-82000000D02*
X161960000Y-82000000D01*
X161960000Y-81500000D01*
X162460000Y-82000000D01*
G36*
X162460000Y-82000000D02*
G01*
X161960000Y-82000000D01*
X161960000Y-81500000D01*
X162460000Y-82000000D01*
G37*
X161970000Y-95710000D02*
X143750000Y-95710000D01*
X161970000Y-95410000D02*
X161970000Y-95710000D01*
X161970000Y-75490000D02*
X161970000Y-81300000D01*
X161970000Y-75490000D02*
X143750000Y-75490000D01*
X143750000Y-95410000D02*
X143750000Y-95710000D01*
X143750000Y-75490000D02*
X143750000Y-81990000D01*
%TO.C,Q1*%
X125890000Y-103427500D02*
X125890000Y-104947500D01*
X125940000Y-103427500D02*
X125890000Y-103427500D01*
X127840000Y-103427500D02*
X127060000Y-103427500D01*
X129010000Y-103427500D02*
X128960000Y-103427500D01*
X125890000Y-104947500D02*
X126890000Y-104947500D01*
X128010000Y-104947500D02*
X129010000Y-104947500D01*
X129010000Y-104947500D02*
X129010000Y-103427500D01*
X127400000Y-103127500D02*
X127070000Y-102887500D01*
X127400000Y-102647500D01*
X127400000Y-103127500D01*
G36*
X127400000Y-103127500D02*
G01*
X127070000Y-102887500D01*
X127400000Y-102647500D01*
X127400000Y-103127500D01*
G37*
D11*
%TO.C,SW2*%
X175450000Y-94970000D02*
X175450000Y-92630000D01*
X175830000Y-92140000D02*
X176720000Y-91250000D01*
X176200000Y-92800000D02*
X176200000Y-94800000D01*
X176200000Y-94800000D02*
X177000000Y-95600000D01*
X176720000Y-91250000D02*
X179280000Y-91250000D01*
X176720000Y-96350000D02*
X175830000Y-95460000D01*
X176720000Y-96350000D02*
X179280000Y-96350000D01*
X177000000Y-95600000D02*
X178900000Y-95600000D01*
X177100000Y-91900000D02*
X176200000Y-92800000D01*
X178800000Y-91900000D02*
X177100000Y-91900000D01*
X178900000Y-95600000D02*
X179800000Y-94700000D01*
X179280000Y-96350000D02*
X180170000Y-95460000D01*
X179800000Y-92900000D02*
X178800000Y-91900000D01*
X179800000Y-94700000D02*
X179800000Y-92900000D01*
X180170000Y-92140000D02*
X179280000Y-91250000D01*
X180550000Y-94970000D02*
X180550000Y-92630000D01*
X174780000Y-96300000D02*
G75*
G02*
X174720000Y-96300000I-30000J0D01*
G01*
X174720000Y-96300000D02*
G75*
G02*
X174780000Y-96300000I30000J0D01*
G01*
X179280000Y-93800000D02*
G75*
G02*
X176720000Y-93800000I-1280000J0D01*
G01*
X176720000Y-93800000D02*
G75*
G02*
X179280000Y-93800000I1280000J0D01*
G01*
D12*
%TO.C,U5*%
X123227500Y-105390000D02*
X123227500Y-105440000D01*
X123227500Y-106560000D02*
X123227500Y-107340000D01*
X123227500Y-108460000D02*
X123227500Y-108510000D01*
X123227500Y-108510000D02*
X125047500Y-108510000D01*
X125047500Y-105390000D02*
X123227500Y-105390000D01*
X125047500Y-105440000D02*
X125047500Y-105390000D01*
X125047500Y-108510000D02*
X125047500Y-108460000D01*
X125587500Y-105440000D02*
X125347500Y-105110000D01*
X125827500Y-105110000D01*
X125587500Y-105440000D01*
G36*
X125587500Y-105440000D02*
G01*
X125347500Y-105110000D01*
X125827500Y-105110000D01*
X125587500Y-105440000D01*
G37*
D11*
%TO.C,D1*%
X130720000Y-90170000D02*
X133010000Y-90170000D01*
X130720000Y-91630000D02*
X130720000Y-90170000D01*
X133010000Y-91630000D02*
X130720000Y-91630000D01*
D12*
%TO.C,U2*%
X122090000Y-98440000D02*
X122090000Y-98490000D01*
X122090000Y-101510000D02*
X122090000Y-101560000D01*
X122090000Y-101560000D02*
X123910000Y-101560000D01*
X123910000Y-98440000D02*
X122090000Y-98440000D01*
X123910000Y-98490000D02*
X123910000Y-98440000D01*
X123910000Y-101560000D02*
X123910000Y-101510000D01*
X121790000Y-101840000D02*
X121310000Y-101840000D01*
X121550000Y-101510000D01*
X121790000Y-101840000D01*
G36*
X121790000Y-101840000D02*
G01*
X121310000Y-101840000D01*
X121550000Y-101510000D01*
X121790000Y-101840000D01*
G37*
D11*
%TO.C,U3*%
X121040000Y-86990000D02*
X121040000Y-92090000D01*
X125140000Y-86990000D02*
X121040000Y-86990000D01*
X125140000Y-92090000D02*
X121040000Y-92090000D01*
X125140000Y-92090000D02*
X125140000Y-86990000D01*
X120650000Y-92040000D02*
G75*
G02*
X120590000Y-92040000I-30000J0D01*
G01*
X120590000Y-92040000D02*
G75*
G02*
X120650000Y-92040000I30000J0D01*
G01*
%TO.C,D7*%
X121010000Y-78870000D02*
X123300000Y-78870000D01*
X123300000Y-78870000D02*
X123300000Y-80330000D01*
X123300000Y-80330000D02*
X121010000Y-80330000D01*
D12*
%TO.C,U4*%
X122227500Y-93390000D02*
X122227500Y-93440000D01*
X122227500Y-96460000D02*
X122227500Y-96510000D01*
X122227500Y-96510000D02*
X124047500Y-96510000D01*
X124047500Y-93390000D02*
X122227500Y-93390000D01*
X124047500Y-93440000D02*
X124047500Y-93390000D01*
X124047500Y-96510000D02*
X124047500Y-96460000D01*
X121927500Y-96790000D02*
X121447500Y-96790000D01*
X121687500Y-96460000D01*
X121927500Y-96790000D01*
G36*
X121927500Y-96790000D02*
G01*
X121447500Y-96790000D01*
X121687500Y-96460000D01*
X121927500Y-96790000D01*
G37*
D11*
%TO.C,SW1*%
X175450000Y-88970000D02*
X175450000Y-86630000D01*
X175830000Y-86140000D02*
X176720000Y-85250000D01*
X176200000Y-86800000D02*
X176200000Y-88800000D01*
X176200000Y-88800000D02*
X177000000Y-89600000D01*
X176720000Y-85250000D02*
X179280000Y-85250000D01*
X176720000Y-90350000D02*
X175830000Y-89460000D01*
X176720000Y-90350000D02*
X179280000Y-90350000D01*
X177000000Y-89600000D02*
X178900000Y-89600000D01*
X177100000Y-85900000D02*
X176200000Y-86800000D01*
X178800000Y-85900000D02*
X177100000Y-85900000D01*
X178900000Y-89600000D02*
X179800000Y-88700000D01*
X179280000Y-90350000D02*
X180170000Y-89460000D01*
X179800000Y-86900000D02*
X178800000Y-85900000D01*
X179800000Y-88700000D02*
X179800000Y-86900000D01*
X180170000Y-86140000D02*
X179280000Y-85250000D01*
X180550000Y-88970000D02*
X180550000Y-86630000D01*
X174780000Y-90300000D02*
G75*
G02*
X174720000Y-90300000I-30000J0D01*
G01*
X174720000Y-90300000D02*
G75*
G02*
X174780000Y-90300000I30000J0D01*
G01*
X179280000Y-87800000D02*
G75*
G02*
X176720000Y-87800000I-1280000J0D01*
G01*
X176720000Y-87800000D02*
G75*
G02*
X179280000Y-87800000I1280000J0D01*
G01*
D12*
%TO.C,J3*%
X115690000Y-110640000D02*
X123510000Y-110640000D01*
X115690000Y-114200000D02*
X120050000Y-114200000D01*
X115690000Y-116760000D02*
X115690000Y-110640000D01*
X117950000Y-111400000D02*
X117950000Y-112400000D01*
X117950000Y-112400000D02*
X119550000Y-112400000D01*
X117950000Y-115000000D02*
X115690000Y-115000000D01*
X117950000Y-115000000D02*
X119550000Y-115000000D01*
X117950000Y-115500000D02*
X115690000Y-115500000D01*
X117950000Y-116000000D02*
X117950000Y-115000000D01*
X119550000Y-111400000D02*
X117950000Y-111400000D01*
X119550000Y-112400000D02*
X119550000Y-111400000D01*
X119550000Y-115000000D02*
X119550000Y-116000000D01*
X119550000Y-116000000D02*
X117950000Y-116000000D01*
X120050000Y-113200000D02*
X115690000Y-113200000D01*
X120050000Y-114200000D02*
X120050000Y-113200000D01*
X121910000Y-110640000D02*
X121910000Y-111560000D01*
X121910000Y-111560000D02*
X121910000Y-111840000D01*
X121910000Y-115560000D02*
X121910000Y-115840000D01*
X121910000Y-115560000D02*
X123125000Y-115560000D01*
X121910000Y-115840000D02*
X123510000Y-115840000D01*
X121910000Y-116760000D02*
X121910000Y-115840000D01*
X123510000Y-110640000D02*
X123510000Y-111560000D01*
X123510000Y-111560000D02*
X121910000Y-111560000D01*
X123510000Y-115840000D02*
X123510000Y-116760000D01*
X123510000Y-116760000D02*
X115690000Y-116760000D01*
D11*
%TO.C,D2*%
X130700000Y-87170000D02*
X132990000Y-87170000D01*
X130700000Y-88630000D02*
X130700000Y-87170000D01*
X132990000Y-88630000D02*
X130700000Y-88630000D01*
%TO.C,SW6*%
X165350000Y-110670000D02*
X165350000Y-108330000D01*
X165730000Y-107840000D02*
X166620000Y-106950000D01*
X166100000Y-108500000D02*
X166100000Y-110500000D01*
X166100000Y-110500000D02*
X166900000Y-111300000D01*
X166620000Y-106950000D02*
X169180000Y-106950000D01*
X166620000Y-112050000D02*
X165730000Y-111160000D01*
X166620000Y-112050000D02*
X169180000Y-112050000D01*
X166900000Y-111300000D02*
X168800000Y-111300000D01*
X167000000Y-107600000D02*
X166100000Y-108500000D01*
X168700000Y-107600000D02*
X167000000Y-107600000D01*
X168800000Y-111300000D02*
X169700000Y-110400000D01*
X169180000Y-112050000D02*
X170070000Y-111160000D01*
X169700000Y-108600000D02*
X168700000Y-107600000D01*
X169700000Y-110400000D02*
X169700000Y-108600000D01*
X170070000Y-107840000D02*
X169180000Y-106950000D01*
X170450000Y-110670000D02*
X170450000Y-108330000D01*
X164680000Y-112000000D02*
G75*
G02*
X164620000Y-112000000I-30000J0D01*
G01*
X164620000Y-112000000D02*
G75*
G02*
X164680000Y-112000000I30000J0D01*
G01*
X169180000Y-109500000D02*
G75*
G02*
X166620000Y-109500000I-1280000J0D01*
G01*
X166620000Y-109500000D02*
G75*
G02*
X169180000Y-109500000I1280000J0D01*
G01*
%TO.C,D3*%
X130100000Y-103790000D02*
X132900000Y-103790000D01*
X130100000Y-105230000D02*
X130100000Y-100630000D01*
X130270000Y-100630000D02*
X130100000Y-100630000D01*
X130270000Y-105230000D02*
X130100000Y-105230000D01*
X132900000Y-100630000D02*
X132730000Y-100630000D01*
X132900000Y-105230000D02*
X132730000Y-105230000D01*
X132900000Y-105230000D02*
X132900000Y-100630000D01*
%TD*%
M02*
