%TF.GenerationSoftware,KiCad,Pcbnew,9.0.6*%
%TF.CreationDate,2026-06-26T23:27:14-07:00*%
%TF.ProjectId,convention_badge_pcb_v2,636f6e76-656e-4746-996f-6e5f62616467,rev?*%
%TF.SameCoordinates,Original*%
%TF.FileFunction,Copper,L3,Inr*%
%TF.FilePolarity,Positive*%
%FSLAX46Y46*%
G04 Gerber Fmt 4.6, Leading zero omitted, Abs format (unit mm)*
G04 Created by KiCad (PCBNEW 9.0.6) date 2026-06-26 23:27:14*
%MOMM*%
%LPD*%
G01*
G04 APERTURE LIST*
G04 Aperture macros list*
%AMRoundRect*
0 Rectangle with rounded corners*
0 $1 Rounding radius*
0 $2 $3 $4 $5 $6 $7 $8 $9 X,Y pos of 4 corners*
0 Add a 4 corners polygon primitive as box body*
4,1,4,$2,$3,$4,$5,$6,$7,$8,$9,$2,$3,0*
0 Add four circle primitives for the rounded corners*
1,1,$1+$1,$2,$3*
1,1,$1+$1,$4,$5*
1,1,$1+$1,$6,$7*
1,1,$1+$1,$8,$9*
0 Add four rect primitives between the rounded corners*
20,1,$1+$1,$2,$3,$4,$5,0*
20,1,$1+$1,$4,$5,$6,$7,0*
20,1,$1+$1,$6,$7,$8,$9,0*
20,1,$1+$1,$8,$9,$2,$3,0*%
G04 Aperture macros list end*
%TA.AperFunction,ComponentPad*%
%ADD10C,1.700000*%
%TD*%
%TA.AperFunction,ComponentPad*%
%ADD11R,1.700000X1.700000*%
%TD*%
%TA.AperFunction,HeatsinkPad*%
%ADD12O,2.100000X1.000000*%
%TD*%
%TA.AperFunction,HeatsinkPad*%
%ADD13O,1.800000X1.000000*%
%TD*%
%TA.AperFunction,HeatsinkPad*%
%ADD14C,0.600000*%
%TD*%
%TA.AperFunction,ComponentPad*%
%ADD15C,2.000000*%
%TD*%
%TA.AperFunction,ComponentPad*%
%ADD16R,1.800000X1.800000*%
%TD*%
%TA.AperFunction,ComponentPad*%
%ADD17C,1.800000*%
%TD*%
%TA.AperFunction,ComponentPad*%
%ADD18C,0.500000*%
%TD*%
%TA.AperFunction,ComponentPad*%
%ADD19RoundRect,0.250000X0.625000X-0.350000X0.625000X0.350000X-0.625000X0.350000X-0.625000X-0.350000X0*%
%TD*%
%TA.AperFunction,ComponentPad*%
%ADD20O,1.750000X1.200000*%
%TD*%
%TA.AperFunction,ViaPad*%
%ADD21C,0.600000*%
%TD*%
G04 APERTURE END LIST*
D10*
%TO.N,/GPIO5*%
%TO.C,DISP1*%
X114100000Y-96780000D03*
%TO.N,/GPIO4*%
X111560000Y-96780000D03*
%TO.N,/GPIO6*%
X114100000Y-99320000D03*
%TO.N,/GPIO9*%
X111560000Y-99320000D03*
%TO.N,/GPIO8*%
X114100000Y-101860000D03*
%TO.N,/GPIO7*%
X111560000Y-101860000D03*
%TO.N,GND*%
X114100000Y-104400000D03*
D11*
%TO.N,+3.3V*%
X111560000Y-104400000D03*
%TD*%
D12*
%TO.N,GND*%
%TO.C,J1*%
X116725000Y-76630000D03*
D13*
X112545000Y-76630000D03*
D12*
X116725000Y-85270000D03*
D13*
X112545000Y-85270000D03*
%TD*%
D14*
%TO.N,GND*%
%TO.C,U1*%
X150800000Y-88350000D03*
X150800000Y-89450000D03*
X151350000Y-87800000D03*
X151350000Y-88900000D03*
X151350000Y-90000000D03*
X151900000Y-88350000D03*
X151900000Y-89450000D03*
X152450000Y-87800000D03*
X152450000Y-88900000D03*
X152450000Y-90000000D03*
X153000000Y-88350000D03*
X153000000Y-89450000D03*
%TD*%
D15*
%TO.N,GND*%
%TO.C,SW4*%
X157750000Y-125250000D03*
X151250000Y-125250000D03*
%TO.N,/GPIO20*%
X157750000Y-120750000D03*
X151250000Y-120750000D03*
%TD*%
%TO.N,/GPIO10*%
%TO.C,SW5*%
X173200000Y-120750000D03*
X179700000Y-120750000D03*
%TO.N,GND*%
X173200000Y-125250000D03*
X179700000Y-125250000D03*
%TD*%
%TO.N,/GPIO21*%
%TO.C,SW3*%
X129500000Y-120750000D03*
X136000000Y-120750000D03*
%TO.N,GND*%
X129500000Y-125250000D03*
X136000000Y-125250000D03*
%TD*%
D11*
%TO.N,/VUSB*%
%TO.C,J2*%
X135700000Y-87860000D03*
D10*
%TO.N,+3.3V*%
X135700000Y-90400000D03*
%TO.N,GND*%
X135700000Y-92940000D03*
%TD*%
D16*
%TO.N,Net-(D5-K)*%
%TO.C,D5*%
X190000000Y-77000000D03*
D17*
%TO.N,/GPIO1*%
X187460000Y-77000000D03*
%TD*%
D11*
%TO.N,/EN*%
%TO.C,J4*%
X166700000Y-87820000D03*
D10*
%TO.N,/GPIO4*%
X166700000Y-90360000D03*
%TO.N,/GPIO5*%
X166700000Y-92900000D03*
%TO.N,/GPIO6*%
X166700000Y-95440000D03*
%TO.N,/GPIO7*%
X166700000Y-97980000D03*
%TO.N,/GPIO8*%
X166700000Y-100520000D03*
%TO.N,/GPIO9*%
X166700000Y-103060000D03*
%TD*%
D16*
%TO.N,Net-(D4-K)*%
%TO.C,D4*%
X179540000Y-77000000D03*
D17*
%TO.N,/GPIO0*%
X177000000Y-77000000D03*
%TD*%
D11*
%TO.N,/GPIO0*%
%TO.C,J5*%
X158040000Y-113700000D03*
D10*
%TO.N,/GPIO1*%
X155500000Y-113700000D03*
%TO.N,/GPIO2*%
X152960000Y-113700000D03*
%TO.N,/GPIO3*%
X150420000Y-113700000D03*
%TO.N,/GPIO10*%
X147880000Y-113700000D03*
%TO.N,/GPIO20*%
X145340000Y-113700000D03*
%TO.N,/GPIO21*%
X142800000Y-113700000D03*
%TD*%
D18*
%TO.N,GND*%
%TO.C,U3*%
X122340000Y-90640000D03*
X123840000Y-90640000D03*
X122340000Y-89540000D03*
X123840000Y-89540000D03*
X122340000Y-88540000D03*
X123840000Y-88540000D03*
%TD*%
D19*
%TO.N,Net-(J3-Pin_1)*%
%TO.C,J3*%
X122050000Y-114700000D03*
D20*
%TO.N,/VBAT*%
X122050000Y-112700000D03*
%TD*%
D21*
%TO.N,GND*%
X119600000Y-92600000D03*
X119000000Y-88900000D03*
X128200000Y-97000000D03*
X127400000Y-97000000D03*
%TO.N,+3.3V*%
X175600000Y-83800000D03*
%TO.N,GND*%
X167000000Y-85000000D03*
X167500000Y-84400000D03*
%TO.N,+3.3V*%
X163200000Y-84200000D03*
X121540000Y-107460000D03*
%TO.N,Net-(U2-S1)*%
X117895396Y-98364641D03*
%TO.N,GND*%
X119000000Y-85750000D03*
X161600000Y-96200000D03*
X128100000Y-108000000D03*
X194800000Y-78200000D03*
X126730000Y-85900000D03*
X116245000Y-87130000D03*
X172500000Y-111300000D03*
X151900000Y-86900000D03*
X149900000Y-88900000D03*
X153900000Y-88900000D03*
X182175000Y-94775000D03*
X151900000Y-90900000D03*
X182050000Y-88850000D03*
X118645000Y-77750000D03*
X127200000Y-79600000D03*
X119400000Y-105900000D03*
X183800000Y-78200000D03*
%TO.N,/GPIO5*%
X136200000Y-96600000D03*
%TO.N,+3.3V*%
X122200000Y-106800000D03*
X142000000Y-83200000D03*
X163120000Y-83280000D03*
%TO.N,/VUSB*%
X119145000Y-79530000D03*
X119145000Y-82405000D03*
%TO.N,/GPIO8*%
X137800000Y-100700000D03*
%TO.N,/GPIO6*%
X136300000Y-98200000D03*
%TO.N,/GPIO4*%
X135800000Y-95700000D03*
%TO.N,/GPIO7*%
X140150000Y-99550000D03*
%TO.N,/GPIO10*%
X145800000Y-94700000D03*
%TO.N,/GPIO9*%
X162803573Y-94019252D03*
X135600000Y-101900000D03*
X170200000Y-92000000D03*
%TO.N,/GPIO2*%
X146100000Y-87300000D03*
%TO.N,Net-(U2-S1)*%
X120800000Y-100950000D03*
%TO.N,/GPIO1*%
X145500000Y-84200000D03*
%TO.N,/GPIO20*%
X142700000Y-93800000D03*
%TO.N,/GPIO21*%
X141900000Y-92400000D03*
%TO.N,/GPIO0*%
X151800000Y-93200000D03*
%TO.N,/GPIO3*%
X146600000Y-89500000D03*
X149300000Y-108900000D03*
%TO.N,Net-(U2-G2)*%
X122187500Y-97100000D03*
X125300000Y-98800000D03*
%TO.N,Net-(U2-G1)*%
X120600000Y-94200000D03*
X125400000Y-101000000D03*
%TO.N,/VBAT*%
X127200000Y-93200000D03*
X126925000Y-88275000D03*
%TD*%
%TA.AperFunction,Conductor*%
%TO.N,GND*%
G36*
X186763844Y-72996603D02*
G01*
X186774868Y-73004889D01*
X186774929Y-73004811D01*
X186986196Y-73166924D01*
X187213299Y-73298041D01*
X187213309Y-73298046D01*
X187455571Y-73398394D01*
X187455581Y-73398398D01*
X187708884Y-73466270D01*
X187968880Y-73500500D01*
X188034108Y-73500500D01*
X196534108Y-73500500D01*
X196596249Y-73500500D01*
X196603736Y-73500726D01*
X196893796Y-73518271D01*
X196908659Y-73520076D01*
X197190798Y-73571780D01*
X197205335Y-73575363D01*
X197479172Y-73660695D01*
X197493163Y-73666000D01*
X197754743Y-73783727D01*
X197767989Y-73790680D01*
X198013465Y-73939075D01*
X198025776Y-73947573D01*
X198251573Y-74124473D01*
X198262781Y-74134403D01*
X198465596Y-74337218D01*
X198475526Y-74348426D01*
X198595481Y-74501538D01*
X198652422Y-74574217D01*
X198660928Y-74586540D01*
X198809316Y-74832004D01*
X198816275Y-74845263D01*
X198933997Y-75106831D01*
X198939306Y-75120832D01*
X199024635Y-75394663D01*
X199028219Y-75409201D01*
X199079923Y-75691340D01*
X199081728Y-75706205D01*
X199099274Y-75996263D01*
X199099500Y-76003750D01*
X199099500Y-123996249D01*
X199099274Y-124003736D01*
X199081728Y-124293794D01*
X199079923Y-124308659D01*
X199028219Y-124590798D01*
X199024635Y-124605336D01*
X198939306Y-124879167D01*
X198933997Y-124893168D01*
X198816275Y-125154736D01*
X198809316Y-125167995D01*
X198660928Y-125413459D01*
X198652422Y-125425782D01*
X198475526Y-125651573D01*
X198465596Y-125662781D01*
X198262781Y-125865596D01*
X198251573Y-125875526D01*
X198025782Y-126052422D01*
X198013459Y-126060928D01*
X197767995Y-126209316D01*
X197754736Y-126216275D01*
X197493168Y-126333997D01*
X197479167Y-126339306D01*
X197205336Y-126424635D01*
X197190798Y-126428219D01*
X196908659Y-126479923D01*
X196893794Y-126481728D01*
X196603736Y-126499274D01*
X196596249Y-126499500D01*
X187968872Y-126499500D01*
X187737772Y-126529926D01*
X187708884Y-126533730D01*
X187473398Y-126596828D01*
X187455581Y-126601602D01*
X187455571Y-126601605D01*
X187213309Y-126701953D01*
X187213299Y-126701958D01*
X186986196Y-126833075D01*
X186802054Y-126974375D01*
X186736885Y-126999570D01*
X186726567Y-127000000D01*
X171473433Y-127000000D01*
X171406394Y-126980315D01*
X171397946Y-126974375D01*
X171213803Y-126833075D01*
X170986700Y-126701958D01*
X170986690Y-126701953D01*
X170744428Y-126601605D01*
X170744421Y-126601603D01*
X170744419Y-126601602D01*
X170491116Y-126533730D01*
X170491115Y-126533729D01*
X170491112Y-126533729D01*
X170231127Y-126499500D01*
X170231120Y-126499500D01*
X170165892Y-126499500D01*
X158697308Y-126499500D01*
X158630269Y-126479815D01*
X158609627Y-126463181D01*
X157920233Y-125773787D01*
X157962292Y-125762518D01*
X158087708Y-125690110D01*
X158190110Y-125587708D01*
X158262518Y-125462292D01*
X158273787Y-125420234D01*
X158972658Y-126119105D01*
X158972658Y-126119104D01*
X159032914Y-126036169D01*
X159032918Y-126036163D01*
X159140102Y-125825802D01*
X159213065Y-125601247D01*
X159250000Y-125368052D01*
X159250000Y-125131947D01*
X171700000Y-125131947D01*
X171700000Y-125368052D01*
X171736934Y-125601247D01*
X171809897Y-125825802D01*
X171917087Y-126036174D01*
X171977338Y-126119104D01*
X171977340Y-126119105D01*
X172676212Y-125420233D01*
X172687482Y-125462292D01*
X172759890Y-125587708D01*
X172862292Y-125690110D01*
X172987708Y-125762518D01*
X173029765Y-125773787D01*
X172330893Y-126472658D01*
X172413828Y-126532914D01*
X172624197Y-126640102D01*
X172848752Y-126713065D01*
X172848751Y-126713065D01*
X173081948Y-126750000D01*
X173318052Y-126750000D01*
X173551247Y-126713065D01*
X173775802Y-126640102D01*
X173986163Y-126532918D01*
X173986169Y-126532914D01*
X174069104Y-126472658D01*
X174069105Y-126472658D01*
X173370233Y-125773787D01*
X173412292Y-125762518D01*
X173537708Y-125690110D01*
X173640110Y-125587708D01*
X173712518Y-125462292D01*
X173723787Y-125420234D01*
X174422658Y-126119105D01*
X174422658Y-126119104D01*
X174482914Y-126036169D01*
X174482918Y-126036163D01*
X174590102Y-125825802D01*
X174663065Y-125601247D01*
X174700000Y-125368052D01*
X174700000Y-125131947D01*
X178200000Y-125131947D01*
X178200000Y-125368052D01*
X178236934Y-125601247D01*
X178309897Y-125825802D01*
X178417087Y-126036174D01*
X178477338Y-126119104D01*
X178477340Y-126119105D01*
X179176212Y-125420233D01*
X179187482Y-125462292D01*
X179259890Y-125587708D01*
X179362292Y-125690110D01*
X179487708Y-125762518D01*
X179529765Y-125773787D01*
X178830893Y-126472658D01*
X178913828Y-126532914D01*
X179124197Y-126640102D01*
X179348752Y-126713065D01*
X179348751Y-126713065D01*
X179581948Y-126750000D01*
X179818052Y-126750000D01*
X180051247Y-126713065D01*
X180275802Y-126640102D01*
X180486163Y-126532918D01*
X180486169Y-126532914D01*
X180569104Y-126472658D01*
X180569105Y-126472658D01*
X179870233Y-125773787D01*
X179912292Y-125762518D01*
X180037708Y-125690110D01*
X180140110Y-125587708D01*
X180212518Y-125462292D01*
X180223787Y-125420233D01*
X180922658Y-126119105D01*
X180922658Y-126119104D01*
X180982914Y-126036169D01*
X180982918Y-126036163D01*
X181090102Y-125825802D01*
X181163065Y-125601247D01*
X181200000Y-125368052D01*
X181200000Y-125131947D01*
X181163065Y-124898752D01*
X181090102Y-124674197D01*
X180982914Y-124463828D01*
X180922658Y-124380894D01*
X180922658Y-124380893D01*
X180223787Y-125079765D01*
X180212518Y-125037708D01*
X180140110Y-124912292D01*
X180037708Y-124809890D01*
X179912292Y-124737482D01*
X179870234Y-124726212D01*
X180569105Y-124027340D01*
X180569104Y-124027338D01*
X180486174Y-123967087D01*
X180275802Y-123859897D01*
X180051247Y-123786934D01*
X180051248Y-123786934D01*
X179818052Y-123750000D01*
X179581948Y-123750000D01*
X179348752Y-123786934D01*
X179124197Y-123859897D01*
X178913830Y-123967084D01*
X178830894Y-124027340D01*
X179529766Y-124726212D01*
X179487708Y-124737482D01*
X179362292Y-124809890D01*
X179259890Y-124912292D01*
X179187482Y-125037708D01*
X179176212Y-125079766D01*
X178477340Y-124380894D01*
X178417084Y-124463830D01*
X178309897Y-124674197D01*
X178236934Y-124898752D01*
X178200000Y-125131947D01*
X174700000Y-125131947D01*
X174663065Y-124898752D01*
X174590102Y-124674197D01*
X174482914Y-124463828D01*
X174422658Y-124380894D01*
X174422658Y-124380893D01*
X173723787Y-125079765D01*
X173712518Y-125037708D01*
X173640110Y-124912292D01*
X173537708Y-124809890D01*
X173412292Y-124737482D01*
X173370234Y-124726212D01*
X174069105Y-124027340D01*
X174069104Y-124027339D01*
X173986174Y-123967087D01*
X173775802Y-123859897D01*
X173551247Y-123786934D01*
X173551248Y-123786934D01*
X173318052Y-123750000D01*
X173081948Y-123750000D01*
X172848752Y-123786934D01*
X172624197Y-123859897D01*
X172413830Y-123967084D01*
X172330894Y-124027340D01*
X173029766Y-124726212D01*
X172987708Y-124737482D01*
X172862292Y-124809890D01*
X172759890Y-124912292D01*
X172687482Y-125037708D01*
X172676212Y-125079765D01*
X171977340Y-124380894D01*
X171917084Y-124463830D01*
X171809897Y-124674197D01*
X171736934Y-124898752D01*
X171700000Y-125131947D01*
X159250000Y-125131947D01*
X159213065Y-124898752D01*
X159140102Y-124674197D01*
X159032914Y-124463828D01*
X158972658Y-124380894D01*
X158972658Y-124380893D01*
X158273787Y-125079765D01*
X158262518Y-125037708D01*
X158190110Y-124912292D01*
X158087708Y-124809890D01*
X157962292Y-124737482D01*
X157920234Y-124726212D01*
X158619105Y-124027340D01*
X158619104Y-124027339D01*
X158536174Y-123967087D01*
X158325802Y-123859897D01*
X158101247Y-123786934D01*
X158101248Y-123786934D01*
X157868052Y-123750000D01*
X157631948Y-123750000D01*
X157398752Y-123786934D01*
X157174197Y-123859897D01*
X156963830Y-123967084D01*
X156880894Y-124027340D01*
X157579766Y-124726212D01*
X157537708Y-124737482D01*
X157412292Y-124809890D01*
X157309890Y-124912292D01*
X157237482Y-125037708D01*
X157226212Y-125079766D01*
X156527340Y-124380894D01*
X156467084Y-124463830D01*
X156359897Y-124674197D01*
X156286934Y-124898752D01*
X156250000Y-125131947D01*
X156250000Y-125368052D01*
X156286934Y-125601247D01*
X156359897Y-125825802D01*
X156467087Y-126036174D01*
X156527338Y-126119104D01*
X156527340Y-126119105D01*
X157226212Y-125420233D01*
X157237482Y-125462292D01*
X157309890Y-125587708D01*
X157412292Y-125690110D01*
X157537708Y-125762518D01*
X157579766Y-125773787D01*
X156890371Y-126463181D01*
X156829048Y-126496666D01*
X156802690Y-126499500D01*
X152197308Y-126499500D01*
X152130269Y-126479815D01*
X152109627Y-126463181D01*
X151420233Y-125773787D01*
X151462292Y-125762518D01*
X151587708Y-125690110D01*
X151690110Y-125587708D01*
X151762518Y-125462292D01*
X151773787Y-125420233D01*
X152472658Y-126119105D01*
X152472658Y-126119104D01*
X152532914Y-126036169D01*
X152532918Y-126036163D01*
X152640102Y-125825802D01*
X152713065Y-125601247D01*
X152750000Y-125368052D01*
X152750000Y-125131947D01*
X152713065Y-124898752D01*
X152640102Y-124674197D01*
X152532914Y-124463828D01*
X152472658Y-124380894D01*
X152472658Y-124380893D01*
X151773787Y-125079765D01*
X151762518Y-125037708D01*
X151690110Y-124912292D01*
X151587708Y-124809890D01*
X151462292Y-124737482D01*
X151420234Y-124726212D01*
X152119105Y-124027340D01*
X152119104Y-124027339D01*
X152036174Y-123967087D01*
X151825802Y-123859897D01*
X151601247Y-123786934D01*
X151601248Y-123786934D01*
X151368052Y-123750000D01*
X151131948Y-123750000D01*
X150898752Y-123786934D01*
X150674197Y-123859897D01*
X150463830Y-123967084D01*
X150380894Y-124027340D01*
X151079766Y-124726212D01*
X151037708Y-124737482D01*
X150912292Y-124809890D01*
X150809890Y-124912292D01*
X150737482Y-125037708D01*
X150726212Y-125079766D01*
X150027340Y-124380894D01*
X149967084Y-124463830D01*
X149859897Y-124674197D01*
X149786934Y-124898752D01*
X149750000Y-125131947D01*
X149750000Y-125368052D01*
X149786934Y-125601247D01*
X149859897Y-125825802D01*
X149967087Y-126036174D01*
X150027338Y-126119104D01*
X150027340Y-126119105D01*
X150726212Y-125420233D01*
X150737482Y-125462292D01*
X150809890Y-125587708D01*
X150912292Y-125690110D01*
X151037708Y-125762518D01*
X151079766Y-125773787D01*
X150390371Y-126463181D01*
X150329048Y-126496666D01*
X150302690Y-126499500D01*
X138968872Y-126499500D01*
X138737772Y-126529926D01*
X138708884Y-126533730D01*
X138473398Y-126596828D01*
X138455581Y-126601602D01*
X138455571Y-126601605D01*
X138213309Y-126701953D01*
X138213299Y-126701958D01*
X137986196Y-126833075D01*
X137802054Y-126974375D01*
X137736885Y-126999570D01*
X137726567Y-127000000D01*
X122473433Y-127000000D01*
X122406394Y-126980315D01*
X122397946Y-126974375D01*
X122213803Y-126833075D01*
X121986700Y-126701958D01*
X121986690Y-126701953D01*
X121744428Y-126601605D01*
X121744421Y-126601603D01*
X121744419Y-126601602D01*
X121491116Y-126533730D01*
X121491115Y-126533729D01*
X121491112Y-126533729D01*
X121231127Y-126499500D01*
X121231120Y-126499500D01*
X121165892Y-126499500D01*
X112603751Y-126499500D01*
X112596264Y-126499274D01*
X112306205Y-126481728D01*
X112291340Y-126479923D01*
X112009201Y-126428219D01*
X111994663Y-126424635D01*
X111720832Y-126339306D01*
X111706831Y-126333997D01*
X111445263Y-126216275D01*
X111432004Y-126209316D01*
X111186540Y-126060928D01*
X111174217Y-126052422D01*
X110948426Y-125875526D01*
X110937218Y-125865596D01*
X110734403Y-125662781D01*
X110724473Y-125651573D01*
X110674438Y-125587708D01*
X110547573Y-125425776D01*
X110539075Y-125413465D01*
X110390680Y-125167989D01*
X110383727Y-125154743D01*
X110373467Y-125131947D01*
X128000000Y-125131947D01*
X128000000Y-125368052D01*
X128036934Y-125601247D01*
X128109897Y-125825802D01*
X128217087Y-126036174D01*
X128277338Y-126119104D01*
X128277340Y-126119105D01*
X128976212Y-125420233D01*
X128987482Y-125462292D01*
X129059890Y-125587708D01*
X129162292Y-125690110D01*
X129287708Y-125762518D01*
X129329765Y-125773787D01*
X128630893Y-126472658D01*
X128713828Y-126532914D01*
X128924197Y-126640102D01*
X129148752Y-126713065D01*
X129148751Y-126713065D01*
X129381948Y-126750000D01*
X129618052Y-126750000D01*
X129851247Y-126713065D01*
X130075802Y-126640102D01*
X130286163Y-126532918D01*
X130286169Y-126532914D01*
X130369104Y-126472658D01*
X130369105Y-126472658D01*
X129670233Y-125773787D01*
X129712292Y-125762518D01*
X129837708Y-125690110D01*
X129940110Y-125587708D01*
X130012518Y-125462292D01*
X130023787Y-125420234D01*
X130722658Y-126119105D01*
X130722658Y-126119104D01*
X130782914Y-126036169D01*
X130782918Y-126036163D01*
X130890102Y-125825802D01*
X130963065Y-125601247D01*
X131000000Y-125368052D01*
X131000000Y-125131947D01*
X134500000Y-125131947D01*
X134500000Y-125368052D01*
X134536934Y-125601247D01*
X134609897Y-125825802D01*
X134717087Y-126036174D01*
X134777338Y-126119104D01*
X134777340Y-126119105D01*
X135476212Y-125420233D01*
X135487482Y-125462292D01*
X135559890Y-125587708D01*
X135662292Y-125690110D01*
X135787708Y-125762518D01*
X135829765Y-125773787D01*
X135130893Y-126472658D01*
X135213828Y-126532914D01*
X135424197Y-126640102D01*
X135648752Y-126713065D01*
X135648751Y-126713065D01*
X135881948Y-126750000D01*
X136118052Y-126750000D01*
X136351247Y-126713065D01*
X136575802Y-126640102D01*
X136786163Y-126532918D01*
X136786169Y-126532914D01*
X136869104Y-126472658D01*
X136869105Y-126472658D01*
X136170233Y-125773787D01*
X136212292Y-125762518D01*
X136337708Y-125690110D01*
X136440110Y-125587708D01*
X136512518Y-125462292D01*
X136523787Y-125420234D01*
X137222658Y-126119105D01*
X137222658Y-126119104D01*
X137282914Y-126036169D01*
X137282918Y-126036163D01*
X137390102Y-125825802D01*
X137463065Y-125601247D01*
X137500000Y-125368052D01*
X137500000Y-125131947D01*
X137463065Y-124898752D01*
X137390102Y-124674197D01*
X137282914Y-124463828D01*
X137222658Y-124380894D01*
X137222658Y-124380893D01*
X136523787Y-125079765D01*
X136512518Y-125037708D01*
X136440110Y-124912292D01*
X136337708Y-124809890D01*
X136212292Y-124737482D01*
X136170234Y-124726212D01*
X136869105Y-124027340D01*
X136869104Y-124027339D01*
X136786174Y-123967087D01*
X136575802Y-123859897D01*
X136351247Y-123786934D01*
X136351248Y-123786934D01*
X136118052Y-123750000D01*
X135881948Y-123750000D01*
X135648752Y-123786934D01*
X135424197Y-123859897D01*
X135213830Y-123967084D01*
X135130894Y-124027340D01*
X135829766Y-124726212D01*
X135787708Y-124737482D01*
X135662292Y-124809890D01*
X135559890Y-124912292D01*
X135487482Y-125037708D01*
X135476212Y-125079766D01*
X134777340Y-124380894D01*
X134717084Y-124463830D01*
X134609897Y-124674197D01*
X134536934Y-124898752D01*
X134500000Y-125131947D01*
X131000000Y-125131947D01*
X130963065Y-124898752D01*
X130890102Y-124674197D01*
X130782914Y-124463828D01*
X130722658Y-124380894D01*
X130722658Y-124380893D01*
X130023787Y-125079765D01*
X130012518Y-125037708D01*
X129940110Y-124912292D01*
X129837708Y-124809890D01*
X129712292Y-124737482D01*
X129670234Y-124726212D01*
X130369105Y-124027340D01*
X130369104Y-124027339D01*
X130286174Y-123967087D01*
X130075802Y-123859897D01*
X129851247Y-123786934D01*
X129851248Y-123786934D01*
X129618052Y-123750000D01*
X129381948Y-123750000D01*
X129148752Y-123786934D01*
X128924197Y-123859897D01*
X128713830Y-123967084D01*
X128630894Y-124027340D01*
X129329766Y-124726212D01*
X129287708Y-124737482D01*
X129162292Y-124809890D01*
X129059890Y-124912292D01*
X128987482Y-125037708D01*
X128976212Y-125079766D01*
X128277340Y-124380894D01*
X128217084Y-124463830D01*
X128109897Y-124674197D01*
X128036934Y-124898752D01*
X128000000Y-125131947D01*
X110373467Y-125131947D01*
X110266000Y-124893163D01*
X110260693Y-124879167D01*
X110239105Y-124809890D01*
X110175363Y-124605335D01*
X110171780Y-124590798D01*
X110120076Y-124308659D01*
X110118271Y-124293794D01*
X110105465Y-124082086D01*
X110105465Y-124082085D01*
X110100726Y-124003735D01*
X110100500Y-123996249D01*
X110100500Y-120631902D01*
X127999500Y-120631902D01*
X127999500Y-120868097D01*
X128036446Y-121101368D01*
X128109433Y-121325996D01*
X128216657Y-121536433D01*
X128355483Y-121727510D01*
X128522490Y-121894517D01*
X128713567Y-122033343D01*
X128812991Y-122084002D01*
X128924003Y-122140566D01*
X128924005Y-122140566D01*
X128924008Y-122140568D01*
X129044412Y-122179689D01*
X129148631Y-122213553D01*
X129381903Y-122250500D01*
X129381908Y-122250500D01*
X129618097Y-122250500D01*
X129851368Y-122213553D01*
X130075992Y-122140568D01*
X130286433Y-122033343D01*
X130477510Y-121894517D01*
X130644517Y-121727510D01*
X130783343Y-121536433D01*
X130890568Y-121325992D01*
X130963553Y-121101368D01*
X131000500Y-120868097D01*
X131000500Y-120631902D01*
X134499500Y-120631902D01*
X134499500Y-120868097D01*
X134536446Y-121101368D01*
X134609433Y-121325996D01*
X134716657Y-121536433D01*
X134855483Y-121727510D01*
X135022490Y-121894517D01*
X135213567Y-122033343D01*
X135312991Y-122084002D01*
X135424003Y-122140566D01*
X135424005Y-122140566D01*
X135424008Y-122140568D01*
X135544412Y-122179689D01*
X135648631Y-122213553D01*
X135881903Y-122250500D01*
X135881908Y-122250500D01*
X136118097Y-122250500D01*
X136351368Y-122213553D01*
X136575992Y-122140568D01*
X136786433Y-122033343D01*
X136977510Y-121894517D01*
X137144517Y-121727510D01*
X137283343Y-121536433D01*
X137390568Y-121325992D01*
X137463553Y-121101368D01*
X137500500Y-120868097D01*
X137500500Y-120631902D01*
X149749500Y-120631902D01*
X149749500Y-120868097D01*
X149786446Y-121101368D01*
X149859433Y-121325996D01*
X149966657Y-121536433D01*
X150105483Y-121727510D01*
X150272490Y-121894517D01*
X150463567Y-122033343D01*
X150562991Y-122084002D01*
X150674003Y-122140566D01*
X150674005Y-122140566D01*
X150674008Y-122140568D01*
X150794412Y-122179689D01*
X150898631Y-122213553D01*
X151131903Y-122250500D01*
X151131908Y-122250500D01*
X151368097Y-122250500D01*
X151601368Y-122213553D01*
X151825992Y-122140568D01*
X152036433Y-122033343D01*
X152227510Y-121894517D01*
X152394517Y-121727510D01*
X152533343Y-121536433D01*
X152640568Y-121325992D01*
X152713553Y-121101368D01*
X152750500Y-120868097D01*
X152750500Y-120631902D01*
X156249500Y-120631902D01*
X156249500Y-120868097D01*
X156286446Y-121101368D01*
X156359433Y-121325996D01*
X156466657Y-121536433D01*
X156605483Y-121727510D01*
X156772490Y-121894517D01*
X156963567Y-122033343D01*
X157062991Y-122084002D01*
X157174003Y-122140566D01*
X157174005Y-122140566D01*
X157174008Y-122140568D01*
X157294412Y-122179689D01*
X157398631Y-122213553D01*
X157631903Y-122250500D01*
X157631908Y-122250500D01*
X157868097Y-122250500D01*
X158101368Y-122213553D01*
X158325992Y-122140568D01*
X158536433Y-122033343D01*
X158727510Y-121894517D01*
X158894517Y-121727510D01*
X159033343Y-121536433D01*
X159140568Y-121325992D01*
X159213553Y-121101368D01*
X159250500Y-120868097D01*
X159250500Y-120631902D01*
X171699500Y-120631902D01*
X171699500Y-120868097D01*
X171736446Y-121101368D01*
X171809433Y-121325996D01*
X171916657Y-121536433D01*
X172055483Y-121727510D01*
X172222490Y-121894517D01*
X172413567Y-122033343D01*
X172512991Y-122084002D01*
X172624003Y-122140566D01*
X172624005Y-122140566D01*
X172624008Y-122140568D01*
X172744412Y-122179689D01*
X172848631Y-122213553D01*
X173081903Y-122250500D01*
X173081908Y-122250500D01*
X173318097Y-122250500D01*
X173551368Y-122213553D01*
X173775992Y-122140568D01*
X173986433Y-122033343D01*
X174177510Y-121894517D01*
X174344517Y-121727510D01*
X174483343Y-121536433D01*
X174590568Y-121325992D01*
X174663553Y-121101368D01*
X174700500Y-120868097D01*
X174700500Y-120631902D01*
X178199500Y-120631902D01*
X178199500Y-120868097D01*
X178236446Y-121101368D01*
X178309433Y-121325996D01*
X178416657Y-121536433D01*
X178555483Y-121727510D01*
X178722490Y-121894517D01*
X178913567Y-122033343D01*
X179012991Y-122084002D01*
X179124003Y-122140566D01*
X179124005Y-122140566D01*
X179124008Y-122140568D01*
X179244412Y-122179689D01*
X179348631Y-122213553D01*
X179581903Y-122250500D01*
X179581908Y-122250500D01*
X179818097Y-122250500D01*
X180051368Y-122213553D01*
X180275992Y-122140568D01*
X180486433Y-122033343D01*
X180677510Y-121894517D01*
X180844517Y-121727510D01*
X180983343Y-121536433D01*
X181090568Y-121325992D01*
X181163553Y-121101368D01*
X181200500Y-120868097D01*
X181200500Y-120631902D01*
X181163553Y-120398631D01*
X181090566Y-120174003D01*
X180983342Y-119963566D01*
X180844517Y-119772490D01*
X180677510Y-119605483D01*
X180486433Y-119466657D01*
X180275996Y-119359433D01*
X180051368Y-119286446D01*
X179818097Y-119249500D01*
X179818092Y-119249500D01*
X179581908Y-119249500D01*
X179581903Y-119249500D01*
X179348631Y-119286446D01*
X179124003Y-119359433D01*
X178913566Y-119466657D01*
X178804550Y-119545862D01*
X178722490Y-119605483D01*
X178722488Y-119605485D01*
X178722487Y-119605485D01*
X178555485Y-119772487D01*
X178555485Y-119772488D01*
X178555483Y-119772490D01*
X178495862Y-119854550D01*
X178416657Y-119963566D01*
X178309433Y-120174003D01*
X178236446Y-120398631D01*
X178199500Y-120631902D01*
X174700500Y-120631902D01*
X174663553Y-120398631D01*
X174590566Y-120174003D01*
X174483342Y-119963566D01*
X174344517Y-119772490D01*
X174177510Y-119605483D01*
X173986433Y-119466657D01*
X173775996Y-119359433D01*
X173551368Y-119286446D01*
X173318097Y-119249500D01*
X173318092Y-119249500D01*
X173081908Y-119249500D01*
X173081903Y-119249500D01*
X172848631Y-119286446D01*
X172624003Y-119359433D01*
X172413566Y-119466657D01*
X172304550Y-119545862D01*
X172222490Y-119605483D01*
X172222488Y-119605485D01*
X172222487Y-119605485D01*
X172055485Y-119772487D01*
X172055485Y-119772488D01*
X172055483Y-119772490D01*
X171995862Y-119854550D01*
X171916657Y-119963566D01*
X171809433Y-120174003D01*
X171736446Y-120398631D01*
X171699500Y-120631902D01*
X159250500Y-120631902D01*
X159213553Y-120398631D01*
X159140566Y-120174003D01*
X159033342Y-119963566D01*
X158894517Y-119772490D01*
X158727510Y-119605483D01*
X158536433Y-119466657D01*
X158325996Y-119359433D01*
X158101368Y-119286446D01*
X157868097Y-119249500D01*
X157868092Y-119249500D01*
X157631908Y-119249500D01*
X157631903Y-119249500D01*
X157398631Y-119286446D01*
X157174003Y-119359433D01*
X156963566Y-119466657D01*
X156854550Y-119545862D01*
X156772490Y-119605483D01*
X156772488Y-119605485D01*
X156772487Y-119605485D01*
X156605485Y-119772487D01*
X156605485Y-119772488D01*
X156605483Y-119772490D01*
X156545862Y-119854550D01*
X156466657Y-119963566D01*
X156359433Y-120174003D01*
X156286446Y-120398631D01*
X156249500Y-120631902D01*
X152750500Y-120631902D01*
X152713553Y-120398631D01*
X152640566Y-120174003D01*
X152533342Y-119963566D01*
X152394517Y-119772490D01*
X152227510Y-119605483D01*
X152036433Y-119466657D01*
X151825996Y-119359433D01*
X151601368Y-119286446D01*
X151368097Y-119249500D01*
X151368092Y-119249500D01*
X151131908Y-119249500D01*
X151131903Y-119249500D01*
X150898631Y-119286446D01*
X150674003Y-119359433D01*
X150463566Y-119466657D01*
X150354550Y-119545862D01*
X150272490Y-119605483D01*
X150272488Y-119605485D01*
X150272487Y-119605485D01*
X150105485Y-119772487D01*
X150105485Y-119772488D01*
X150105483Y-119772490D01*
X150045862Y-119854550D01*
X149966657Y-119963566D01*
X149859433Y-120174003D01*
X149786446Y-120398631D01*
X149749500Y-120631902D01*
X137500500Y-120631902D01*
X137463553Y-120398631D01*
X137390566Y-120174003D01*
X137283342Y-119963566D01*
X137144517Y-119772490D01*
X136977510Y-119605483D01*
X136786433Y-119466657D01*
X136575996Y-119359433D01*
X136351368Y-119286446D01*
X136118097Y-119249500D01*
X136118092Y-119249500D01*
X135881908Y-119249500D01*
X135881903Y-119249500D01*
X135648631Y-119286446D01*
X135424003Y-119359433D01*
X135213566Y-119466657D01*
X135104550Y-119545862D01*
X135022490Y-119605483D01*
X135022488Y-119605485D01*
X135022487Y-119605485D01*
X134855485Y-119772487D01*
X134855485Y-119772488D01*
X134855483Y-119772490D01*
X134795862Y-119854550D01*
X134716657Y-119963566D01*
X134609433Y-120174003D01*
X134536446Y-120398631D01*
X134499500Y-120631902D01*
X131000500Y-120631902D01*
X130963553Y-120398631D01*
X130890566Y-120174003D01*
X130783342Y-119963566D01*
X130644517Y-119772490D01*
X130477510Y-119605483D01*
X130286433Y-119466657D01*
X130075996Y-119359433D01*
X129851368Y-119286446D01*
X129618097Y-119249500D01*
X129618092Y-119249500D01*
X129381908Y-119249500D01*
X129381903Y-119249500D01*
X129148631Y-119286446D01*
X128924003Y-119359433D01*
X128713566Y-119466657D01*
X128604550Y-119545862D01*
X128522490Y-119605483D01*
X128522488Y-119605485D01*
X128522487Y-119605485D01*
X128355485Y-119772487D01*
X128355485Y-119772488D01*
X128355483Y-119772490D01*
X128295862Y-119854550D01*
X128216657Y-119963566D01*
X128109433Y-120174003D01*
X128036446Y-120398631D01*
X127999500Y-120631902D01*
X110100500Y-120631902D01*
X110100500Y-112613389D01*
X120674500Y-112613389D01*
X120674500Y-112786611D01*
X120701598Y-112957701D01*
X120755127Y-113122445D01*
X120833768Y-113276788D01*
X120935586Y-113416928D01*
X120935588Y-113416930D01*
X121043127Y-113524469D01*
X121076612Y-113585792D01*
X121071628Y-113655484D01*
X121029756Y-113711417D01*
X121020544Y-113717688D01*
X120956344Y-113757287D01*
X120832289Y-113881342D01*
X120740187Y-114030663D01*
X120740186Y-114030666D01*
X120685001Y-114197203D01*
X120685001Y-114197204D01*
X120685000Y-114197204D01*
X120674500Y-114299983D01*
X120674500Y-115100001D01*
X120674501Y-115100019D01*
X120685000Y-115202796D01*
X120685001Y-115202799D01*
X120740185Y-115369331D01*
X120740186Y-115369334D01*
X120832288Y-115518656D01*
X120956344Y-115642712D01*
X121105666Y-115734814D01*
X121272203Y-115789999D01*
X121374991Y-115800500D01*
X122725008Y-115800499D01*
X122827797Y-115789999D01*
X122994334Y-115734814D01*
X123143656Y-115642712D01*
X123267712Y-115518656D01*
X123359814Y-115369334D01*
X123414999Y-115202797D01*
X123425500Y-115100009D01*
X123425499Y-114299992D01*
X123414999Y-114197203D01*
X123359814Y-114030666D01*
X123267712Y-113881344D01*
X123143656Y-113757288D01*
X123143652Y-113757285D01*
X123079456Y-113717688D01*
X123063904Y-113700397D01*
X123045286Y-113686460D01*
X123040977Y-113674908D01*
X123032731Y-113665740D01*
X123028996Y-113642785D01*
X123020869Y-113620996D01*
X123023490Y-113608946D01*
X123021510Y-113596777D01*
X123022841Y-113593713D01*
X141449500Y-113593713D01*
X141449500Y-113806287D01*
X141482754Y-114016243D01*
X141487440Y-114030666D01*
X141548444Y-114218414D01*
X141644951Y-114407820D01*
X141769890Y-114579786D01*
X141920213Y-114730109D01*
X142092179Y-114855048D01*
X142092181Y-114855049D01*
X142092184Y-114855051D01*
X142281588Y-114951557D01*
X142483757Y-115017246D01*
X142693713Y-115050500D01*
X142693714Y-115050500D01*
X142906286Y-115050500D01*
X142906287Y-115050500D01*
X143116243Y-115017246D01*
X143318412Y-114951557D01*
X143507816Y-114855051D01*
X143594138Y-114792335D01*
X143679786Y-114730109D01*
X143679788Y-114730106D01*
X143679792Y-114730104D01*
X143830104Y-114579792D01*
X143830106Y-114579788D01*
X143830109Y-114579786D01*
X143955048Y-114407820D01*
X143955047Y-114407820D01*
X143955051Y-114407816D01*
X143959514Y-114399054D01*
X144007488Y-114348259D01*
X144075308Y-114331463D01*
X144141444Y-114353999D01*
X144180486Y-114399056D01*
X144184951Y-114407820D01*
X144309890Y-114579786D01*
X144460213Y-114730109D01*
X144632179Y-114855048D01*
X144632181Y-114855049D01*
X144632184Y-114855051D01*
X144821588Y-114951557D01*
X145023757Y-115017246D01*
X145233713Y-115050500D01*
X145233714Y-115050500D01*
X145446286Y-115050500D01*
X145446287Y-115050500D01*
X145656243Y-115017246D01*
X145858412Y-114951557D01*
X146047816Y-114855051D01*
X146134138Y-114792335D01*
X146219786Y-114730109D01*
X146219788Y-114730106D01*
X146219792Y-114730104D01*
X146370104Y-114579792D01*
X146370106Y-114579788D01*
X146370109Y-114579786D01*
X146495048Y-114407820D01*
X146495047Y-114407820D01*
X146495051Y-114407816D01*
X146499514Y-114399054D01*
X146547488Y-114348259D01*
X146615308Y-114331463D01*
X146681444Y-114353999D01*
X146720486Y-114399056D01*
X146724951Y-114407820D01*
X146849890Y-114579786D01*
X147000213Y-114730109D01*
X147172179Y-114855048D01*
X147172181Y-114855049D01*
X147172184Y-114855051D01*
X147361588Y-114951557D01*
X147563757Y-115017246D01*
X147773713Y-115050500D01*
X147773714Y-115050500D01*
X147986286Y-115050500D01*
X147986287Y-115050500D01*
X148196243Y-115017246D01*
X148398412Y-114951557D01*
X148587816Y-114855051D01*
X148674138Y-114792335D01*
X148759786Y-114730109D01*
X148759788Y-114730106D01*
X148759792Y-114730104D01*
X148910104Y-114579792D01*
X148910106Y-114579788D01*
X148910109Y-114579786D01*
X149035048Y-114407820D01*
X149035047Y-114407820D01*
X149035051Y-114407816D01*
X149039514Y-114399054D01*
X149087488Y-114348259D01*
X149155308Y-114331463D01*
X149221444Y-114353999D01*
X149260486Y-114399056D01*
X149264951Y-114407820D01*
X149389890Y-114579786D01*
X149540213Y-114730109D01*
X149712179Y-114855048D01*
X149712181Y-114855049D01*
X149712184Y-114855051D01*
X149901588Y-114951557D01*
X150103757Y-115017246D01*
X150313713Y-115050500D01*
X150313714Y-115050500D01*
X150526286Y-115050500D01*
X150526287Y-115050500D01*
X150736243Y-115017246D01*
X150938412Y-114951557D01*
X151127816Y-114855051D01*
X151214138Y-114792335D01*
X151299786Y-114730109D01*
X151299788Y-114730106D01*
X151299792Y-114730104D01*
X151450104Y-114579792D01*
X151450106Y-114579788D01*
X151450109Y-114579786D01*
X151575048Y-114407820D01*
X151575047Y-114407820D01*
X151575051Y-114407816D01*
X151579514Y-114399054D01*
X151627488Y-114348259D01*
X151695308Y-114331463D01*
X151761444Y-114353999D01*
X151800486Y-114399056D01*
X151804951Y-114407820D01*
X151929890Y-114579786D01*
X152080213Y-114730109D01*
X152252179Y-114855048D01*
X152252181Y-114855049D01*
X152252184Y-114855051D01*
X152441588Y-114951557D01*
X152643757Y-115017246D01*
X152853713Y-115050500D01*
X152853714Y-115050500D01*
X153066286Y-115050500D01*
X153066287Y-115050500D01*
X153276243Y-115017246D01*
X153478412Y-114951557D01*
X153667816Y-114855051D01*
X153754138Y-114792335D01*
X153839786Y-114730109D01*
X153839788Y-114730106D01*
X153839792Y-114730104D01*
X153990104Y-114579792D01*
X153990106Y-114579788D01*
X153990109Y-114579786D01*
X154115048Y-114407820D01*
X154115047Y-114407820D01*
X154115051Y-114407816D01*
X154119514Y-114399054D01*
X154167488Y-114348259D01*
X154235308Y-114331463D01*
X154301444Y-114353999D01*
X154340486Y-114399056D01*
X154344951Y-114407820D01*
X154469890Y-114579786D01*
X154620213Y-114730109D01*
X154792179Y-114855048D01*
X154792181Y-114855049D01*
X154792184Y-114855051D01*
X154981588Y-114951557D01*
X155183757Y-115017246D01*
X155393713Y-115050500D01*
X155393714Y-115050500D01*
X155606286Y-115050500D01*
X155606287Y-115050500D01*
X155816243Y-115017246D01*
X156018412Y-114951557D01*
X156207816Y-114855051D01*
X156379792Y-114730104D01*
X156493329Y-114616566D01*
X156554648Y-114583084D01*
X156624340Y-114588068D01*
X156680274Y-114629939D01*
X156697189Y-114660917D01*
X156746202Y-114792328D01*
X156746206Y-114792335D01*
X156832452Y-114907544D01*
X156832455Y-114907547D01*
X156947664Y-114993793D01*
X156947671Y-114993797D01*
X157082517Y-115044091D01*
X157082516Y-115044091D01*
X157089444Y-115044835D01*
X157142127Y-115050500D01*
X158937872Y-115050499D01*
X158997483Y-115044091D01*
X159132331Y-114993796D01*
X159247546Y-114907546D01*
X159333796Y-114792331D01*
X159384091Y-114657483D01*
X159390500Y-114597873D01*
X159390499Y-112802128D01*
X159384091Y-112742517D01*
X159382810Y-112739083D01*
X159333797Y-112607671D01*
X159333793Y-112607664D01*
X159247547Y-112492455D01*
X159247544Y-112492452D01*
X159132335Y-112406206D01*
X159132328Y-112406202D01*
X158997482Y-112355908D01*
X158997483Y-112355908D01*
X158937883Y-112349501D01*
X158937881Y-112349500D01*
X158937873Y-112349500D01*
X158937864Y-112349500D01*
X157142129Y-112349500D01*
X157142123Y-112349501D01*
X157082516Y-112355908D01*
X156947671Y-112406202D01*
X156947664Y-112406206D01*
X156832455Y-112492452D01*
X156832452Y-112492455D01*
X156746206Y-112607664D01*
X156746203Y-112607669D01*
X156697189Y-112739083D01*
X156655317Y-112795016D01*
X156589853Y-112819433D01*
X156521580Y-112804581D01*
X156493326Y-112783430D01*
X156379786Y-112669890D01*
X156207820Y-112544951D01*
X156018414Y-112448444D01*
X156018413Y-112448443D01*
X156018412Y-112448443D01*
X155816243Y-112382754D01*
X155816241Y-112382753D01*
X155816240Y-112382753D01*
X155654957Y-112357208D01*
X155606287Y-112349500D01*
X155393713Y-112349500D01*
X155345042Y-112357208D01*
X155183760Y-112382753D01*
X154981585Y-112448444D01*
X154792179Y-112544951D01*
X154620213Y-112669890D01*
X154469890Y-112820213D01*
X154344949Y-112992182D01*
X154340484Y-113000946D01*
X154292509Y-113051742D01*
X154224688Y-113068536D01*
X154158553Y-113045998D01*
X154119516Y-113000946D01*
X154115050Y-112992182D01*
X153990109Y-112820213D01*
X153839786Y-112669890D01*
X153667820Y-112544951D01*
X153478414Y-112448444D01*
X153478413Y-112448443D01*
X153478412Y-112448443D01*
X153276243Y-112382754D01*
X153276241Y-112382753D01*
X153276240Y-112382753D01*
X153114957Y-112357208D01*
X153066287Y-112349500D01*
X152853713Y-112349500D01*
X152805042Y-112357208D01*
X152643760Y-112382753D01*
X152441585Y-112448444D01*
X152252179Y-112544951D01*
X152080213Y-112669890D01*
X151929890Y-112820213D01*
X151804949Y-112992182D01*
X151800484Y-113000946D01*
X151752509Y-113051742D01*
X151684688Y-113068536D01*
X151618553Y-113045998D01*
X151579516Y-113000946D01*
X151575050Y-112992182D01*
X151450109Y-112820213D01*
X151299786Y-112669890D01*
X151127820Y-112544951D01*
X150938414Y-112448444D01*
X150938413Y-112448443D01*
X150938412Y-112448443D01*
X150736243Y-112382754D01*
X150736241Y-112382753D01*
X150736240Y-112382753D01*
X150574957Y-112357208D01*
X150526287Y-112349500D01*
X150313713Y-112349500D01*
X150265042Y-112357208D01*
X150103760Y-112382753D01*
X149901585Y-112448444D01*
X149712179Y-112544951D01*
X149540213Y-112669890D01*
X149389890Y-112820213D01*
X149264949Y-112992182D01*
X149260484Y-113000946D01*
X149212509Y-113051742D01*
X149144688Y-113068536D01*
X149078553Y-113045998D01*
X149039516Y-113000946D01*
X149035050Y-112992182D01*
X148910109Y-112820213D01*
X148759786Y-112669890D01*
X148587820Y-112544951D01*
X148398414Y-112448444D01*
X148398413Y-112448443D01*
X148398412Y-112448443D01*
X148196243Y-112382754D01*
X148196241Y-112382753D01*
X148196240Y-112382753D01*
X148034957Y-112357208D01*
X147986287Y-112349500D01*
X147773713Y-112349500D01*
X147725042Y-112357208D01*
X147563760Y-112382753D01*
X147361585Y-112448444D01*
X147172179Y-112544951D01*
X147000213Y-112669890D01*
X146849890Y-112820213D01*
X146724949Y-112992182D01*
X146720484Y-113000946D01*
X146672509Y-113051742D01*
X146604688Y-113068536D01*
X146538553Y-113045998D01*
X146499516Y-113000946D01*
X146495050Y-112992182D01*
X146370109Y-112820213D01*
X146219786Y-112669890D01*
X146047820Y-112544951D01*
X145858414Y-112448444D01*
X145858413Y-112448443D01*
X145858412Y-112448443D01*
X145656243Y-112382754D01*
X145656241Y-112382753D01*
X145656240Y-112382753D01*
X145494957Y-112357208D01*
X145446287Y-112349500D01*
X145233713Y-112349500D01*
X145185042Y-112357208D01*
X145023760Y-112382753D01*
X144821585Y-112448444D01*
X144632179Y-112544951D01*
X144460213Y-112669890D01*
X144309890Y-112820213D01*
X144184949Y-112992182D01*
X144180484Y-113000946D01*
X144132509Y-113051742D01*
X144064688Y-113068536D01*
X143998553Y-113045998D01*
X143959516Y-113000946D01*
X143955050Y-112992182D01*
X143830109Y-112820213D01*
X143679786Y-112669890D01*
X143507820Y-112544951D01*
X143318414Y-112448444D01*
X143318413Y-112448443D01*
X143318412Y-112448443D01*
X143116243Y-112382754D01*
X143116241Y-112382753D01*
X143116240Y-112382753D01*
X142954957Y-112357208D01*
X142906287Y-112349500D01*
X142693713Y-112349500D01*
X142645042Y-112357208D01*
X142483760Y-112382753D01*
X142281585Y-112448444D01*
X142092179Y-112544951D01*
X141920213Y-112669890D01*
X141769890Y-112820213D01*
X141644951Y-112992179D01*
X141548444Y-113181585D01*
X141548443Y-113181587D01*
X141548443Y-113181588D01*
X141515598Y-113282672D01*
X141482753Y-113383760D01*
X141464157Y-113501173D01*
X141449500Y-113593713D01*
X123022841Y-113593713D01*
X123030777Y-113575447D01*
X123035721Y-113552723D01*
X123047470Y-113537027D01*
X123049353Y-113532695D01*
X123056861Y-113524480D01*
X123164414Y-113416928D01*
X123266232Y-113276788D01*
X123344873Y-113122445D01*
X123398402Y-112957701D01*
X123425500Y-112786611D01*
X123425500Y-112613389D01*
X123398402Y-112442299D01*
X123344873Y-112277555D01*
X123266232Y-112123212D01*
X123164414Y-111983072D01*
X123041928Y-111860586D01*
X122901788Y-111758768D01*
X122747445Y-111680127D01*
X122582701Y-111626598D01*
X122582699Y-111626597D01*
X122582698Y-111626597D01*
X122451271Y-111605781D01*
X122411611Y-111599500D01*
X121688389Y-111599500D01*
X121648728Y-111605781D01*
X121517302Y-111626597D01*
X121352552Y-111680128D01*
X121198211Y-111758768D01*
X121118256Y-111816859D01*
X121058072Y-111860586D01*
X121058070Y-111860588D01*
X121058069Y-111860588D01*
X120935588Y-111983069D01*
X120935588Y-111983070D01*
X120935586Y-111983072D01*
X120891859Y-112043256D01*
X120833768Y-112123211D01*
X120755128Y-112277552D01*
X120701597Y-112442302D01*
X120675407Y-112607664D01*
X120674500Y-112613389D01*
X110100500Y-112613389D01*
X110100500Y-108821153D01*
X148499500Y-108821153D01*
X148499500Y-108978846D01*
X148530261Y-109133489D01*
X148530264Y-109133501D01*
X148590602Y-109279172D01*
X148590609Y-109279185D01*
X148678210Y-109410288D01*
X148678213Y-109410292D01*
X148789707Y-109521786D01*
X148789711Y-109521789D01*
X148920814Y-109609390D01*
X148920827Y-109609397D01*
X149066498Y-109669735D01*
X149066503Y-109669737D01*
X149221153Y-109700499D01*
X149221156Y-109700500D01*
X149221158Y-109700500D01*
X149378844Y-109700500D01*
X149378845Y-109700499D01*
X149533497Y-109669737D01*
X149679179Y-109609394D01*
X149810289Y-109521789D01*
X149921789Y-109410289D01*
X150009394Y-109279179D01*
X150069737Y-109133497D01*
X150100500Y-108978842D01*
X150100500Y-108821158D01*
X150100500Y-108821155D01*
X150100499Y-108821153D01*
X150069738Y-108666510D01*
X150069737Y-108666503D01*
X150069735Y-108666498D01*
X150009397Y-108520827D01*
X150009390Y-108520814D01*
X149921789Y-108389711D01*
X149921786Y-108389707D01*
X149810292Y-108278213D01*
X149810288Y-108278210D01*
X149679185Y-108190609D01*
X149679172Y-108190602D01*
X149533501Y-108130264D01*
X149533489Y-108130261D01*
X149378845Y-108099500D01*
X149378842Y-108099500D01*
X149221158Y-108099500D01*
X149221155Y-108099500D01*
X149066510Y-108130261D01*
X149066498Y-108130264D01*
X148920827Y-108190602D01*
X148920814Y-108190609D01*
X148789711Y-108278210D01*
X148789707Y-108278213D01*
X148678213Y-108389707D01*
X148678210Y-108389711D01*
X148590609Y-108520814D01*
X148590602Y-108520827D01*
X148530264Y-108666498D01*
X148530261Y-108666510D01*
X148499500Y-108821153D01*
X110100500Y-108821153D01*
X110100500Y-107381153D01*
X120739500Y-107381153D01*
X120739500Y-107538846D01*
X120770261Y-107693489D01*
X120770264Y-107693501D01*
X120830602Y-107839172D01*
X120830609Y-107839185D01*
X120918210Y-107970288D01*
X120918213Y-107970292D01*
X121029707Y-108081786D01*
X121029711Y-108081789D01*
X121160814Y-108169390D01*
X121160827Y-108169397D01*
X121306498Y-108229735D01*
X121306503Y-108229737D01*
X121461153Y-108260499D01*
X121461156Y-108260500D01*
X121461158Y-108260500D01*
X121618844Y-108260500D01*
X121618845Y-108260499D01*
X121773497Y-108229737D01*
X121919179Y-108169394D01*
X122050289Y-108081789D01*
X122161789Y-107970289D01*
X122249394Y-107839179D01*
X122309737Y-107693497D01*
X122314106Y-107671531D01*
X122346489Y-107609623D01*
X122407204Y-107575047D01*
X122411497Y-107574112D01*
X122433497Y-107569737D01*
X122579179Y-107509394D01*
X122710289Y-107421789D01*
X122821789Y-107310289D01*
X122909394Y-107179179D01*
X122969737Y-107033497D01*
X123000500Y-106878842D01*
X123000500Y-106721158D01*
X123000500Y-106721155D01*
X123000499Y-106721153D01*
X122969737Y-106566503D01*
X122969735Y-106566498D01*
X122909397Y-106420827D01*
X122909390Y-106420814D01*
X122821789Y-106289711D01*
X122821786Y-106289707D01*
X122710292Y-106178213D01*
X122710288Y-106178210D01*
X122579185Y-106090609D01*
X122579172Y-106090602D01*
X122433501Y-106030264D01*
X122433489Y-106030261D01*
X122278845Y-105999500D01*
X122278842Y-105999500D01*
X122121158Y-105999500D01*
X122121155Y-105999500D01*
X121966510Y-106030261D01*
X121966498Y-106030264D01*
X121820827Y-106090602D01*
X121820814Y-106090609D01*
X121689711Y-106178210D01*
X121689707Y-106178213D01*
X121578213Y-106289707D01*
X121578210Y-106289711D01*
X121490609Y-106420814D01*
X121490602Y-106420827D01*
X121430263Y-106566500D01*
X121430261Y-106566506D01*
X121425893Y-106588469D01*
X121393507Y-106650379D01*
X121332791Y-106684953D01*
X121328469Y-106685893D01*
X121306506Y-106690261D01*
X121306500Y-106690263D01*
X121160827Y-106750602D01*
X121160814Y-106750609D01*
X121029711Y-106838210D01*
X121029707Y-106838213D01*
X120918213Y-106949707D01*
X120918210Y-106949711D01*
X120830609Y-107080814D01*
X120830602Y-107080827D01*
X120770264Y-107226498D01*
X120770261Y-107226510D01*
X120739500Y-107381153D01*
X110100500Y-107381153D01*
X110100500Y-105643535D01*
X110120185Y-105576496D01*
X110172989Y-105530741D01*
X110242147Y-105520797D01*
X110305703Y-105549822D01*
X110323762Y-105569219D01*
X110352454Y-105607546D01*
X110352455Y-105607546D01*
X110352456Y-105607548D01*
X110467664Y-105693793D01*
X110467671Y-105693797D01*
X110602517Y-105744091D01*
X110602516Y-105744091D01*
X110609444Y-105744835D01*
X110662127Y-105750500D01*
X112457872Y-105750499D01*
X112517483Y-105744091D01*
X112652331Y-105693796D01*
X112767546Y-105607546D01*
X112853796Y-105492331D01*
X112904091Y-105357483D01*
X112910500Y-105297873D01*
X112910499Y-105273979D01*
X112913330Y-105260963D01*
X112923940Y-105241525D01*
X112930179Y-105220275D01*
X112946803Y-105199643D01*
X112946808Y-105199636D01*
X112946811Y-105199634D01*
X112946818Y-105199626D01*
X113617037Y-104529408D01*
X113634075Y-104592993D01*
X113699901Y-104707007D01*
X113792993Y-104800099D01*
X113907007Y-104865925D01*
X113970590Y-104882962D01*
X113338282Y-105515269D01*
X113338282Y-105515270D01*
X113392449Y-105554624D01*
X113581782Y-105651095D01*
X113783870Y-105716757D01*
X113993754Y-105750000D01*
X114206246Y-105750000D01*
X114416127Y-105716757D01*
X114416130Y-105716757D01*
X114618217Y-105651095D01*
X114807554Y-105554622D01*
X114861716Y-105515270D01*
X114861717Y-105515270D01*
X114229408Y-104882962D01*
X114292993Y-104865925D01*
X114407007Y-104800099D01*
X114500099Y-104707007D01*
X114565925Y-104592993D01*
X114582962Y-104529408D01*
X115215270Y-105161717D01*
X115215270Y-105161716D01*
X115254622Y-105107554D01*
X115351095Y-104918217D01*
X115416757Y-104716130D01*
X115416757Y-104716127D01*
X115450000Y-104506246D01*
X115450000Y-104293753D01*
X115416757Y-104083872D01*
X115416757Y-104083869D01*
X115351095Y-103881782D01*
X115254624Y-103692449D01*
X115215270Y-103638282D01*
X115215269Y-103638282D01*
X114582962Y-104270590D01*
X114565925Y-104207007D01*
X114500099Y-104092993D01*
X114407007Y-103999901D01*
X114292993Y-103934075D01*
X114229409Y-103917037D01*
X114861716Y-103284728D01*
X114807547Y-103245373D01*
X114807547Y-103245372D01*
X114798500Y-103240763D01*
X114747706Y-103192788D01*
X114730912Y-103124966D01*
X114753451Y-103058832D01*
X114798508Y-103019793D01*
X114807816Y-103015051D01*
X114897554Y-102949853D01*
X114979786Y-102890109D01*
X114979788Y-102890106D01*
X114979792Y-102890104D01*
X115130104Y-102739792D01*
X115130106Y-102739788D01*
X115130109Y-102739786D01*
X115255048Y-102567820D01*
X115255047Y-102567820D01*
X115255051Y-102567816D01*
X115351557Y-102378412D01*
X115417246Y-102176243D01*
X115450500Y-101966287D01*
X115450500Y-101821153D01*
X134799500Y-101821153D01*
X134799500Y-101978846D01*
X134830261Y-102133489D01*
X134830264Y-102133501D01*
X134890602Y-102279172D01*
X134890609Y-102279185D01*
X134978210Y-102410288D01*
X134978213Y-102410292D01*
X135089707Y-102521786D01*
X135089711Y-102521789D01*
X135220814Y-102609390D01*
X135220827Y-102609397D01*
X135366498Y-102669735D01*
X135366503Y-102669737D01*
X135521153Y-102700499D01*
X135521156Y-102700500D01*
X135521158Y-102700500D01*
X135678844Y-102700500D01*
X135678845Y-102700499D01*
X135833497Y-102669737D01*
X135979179Y-102609394D01*
X136110289Y-102521789D01*
X136221789Y-102410289D01*
X136309394Y-102279179D01*
X136369737Y-102133497D01*
X136400500Y-101978842D01*
X136400500Y-101821158D01*
X136400500Y-101821155D01*
X136400499Y-101821153D01*
X136380326Y-101719737D01*
X136369737Y-101666503D01*
X136351215Y-101621786D01*
X136309397Y-101520827D01*
X136309390Y-101520814D01*
X136221789Y-101389711D01*
X136221786Y-101389707D01*
X136110292Y-101278213D01*
X136110288Y-101278210D01*
X135979185Y-101190609D01*
X135979172Y-101190602D01*
X135833501Y-101130264D01*
X135833489Y-101130261D01*
X135678845Y-101099500D01*
X135678842Y-101099500D01*
X135521158Y-101099500D01*
X135521155Y-101099500D01*
X135366510Y-101130261D01*
X135366498Y-101130264D01*
X135220827Y-101190602D01*
X135220814Y-101190609D01*
X135089711Y-101278210D01*
X135089707Y-101278213D01*
X134978213Y-101389707D01*
X134978210Y-101389711D01*
X134890609Y-101520814D01*
X134890602Y-101520827D01*
X134830264Y-101666498D01*
X134830261Y-101666510D01*
X134799500Y-101821153D01*
X115450500Y-101821153D01*
X115450500Y-101753713D01*
X115417246Y-101543757D01*
X115351557Y-101341588D01*
X115255051Y-101152184D01*
X115255049Y-101152181D01*
X115255048Y-101152179D01*
X115130109Y-100980213D01*
X115021049Y-100871153D01*
X119999500Y-100871153D01*
X119999500Y-101028846D01*
X120030261Y-101183489D01*
X120030264Y-101183501D01*
X120090602Y-101329172D01*
X120090609Y-101329185D01*
X120178210Y-101460288D01*
X120178213Y-101460292D01*
X120289707Y-101571786D01*
X120289711Y-101571789D01*
X120420814Y-101659390D01*
X120420827Y-101659397D01*
X120563652Y-101718556D01*
X120566503Y-101719737D01*
X120721153Y-101750499D01*
X120721156Y-101750500D01*
X120721158Y-101750500D01*
X120878844Y-101750500D01*
X120878845Y-101750499D01*
X121033497Y-101719737D01*
X121179179Y-101659394D01*
X121310289Y-101571789D01*
X121421789Y-101460289D01*
X121509394Y-101329179D01*
X121569737Y-101183497D01*
X121600500Y-101028842D01*
X121600500Y-100921153D01*
X124599500Y-100921153D01*
X124599500Y-101078846D01*
X124630261Y-101233489D01*
X124630264Y-101233501D01*
X124690602Y-101379172D01*
X124690609Y-101379185D01*
X124778210Y-101510288D01*
X124778213Y-101510292D01*
X124889707Y-101621786D01*
X124889711Y-101621789D01*
X125020814Y-101709390D01*
X125020827Y-101709397D01*
X125120060Y-101750500D01*
X125166503Y-101769737D01*
X125321153Y-101800499D01*
X125321156Y-101800500D01*
X125321158Y-101800500D01*
X125478844Y-101800500D01*
X125478845Y-101800499D01*
X125633497Y-101769737D01*
X125779179Y-101709394D01*
X125910289Y-101621789D01*
X126021789Y-101510289D01*
X126109394Y-101379179D01*
X126169737Y-101233497D01*
X126200500Y-101078842D01*
X126200500Y-100921158D01*
X126200500Y-100921155D01*
X126200499Y-100921153D01*
X126182347Y-100829896D01*
X126169737Y-100766503D01*
X126169735Y-100766498D01*
X126126666Y-100662518D01*
X126109532Y-100621153D01*
X136999500Y-100621153D01*
X136999500Y-100778846D01*
X137030261Y-100933489D01*
X137030264Y-100933501D01*
X137090602Y-101079172D01*
X137090609Y-101079185D01*
X137178210Y-101210288D01*
X137178213Y-101210292D01*
X137289707Y-101321786D01*
X137289711Y-101321789D01*
X137420814Y-101409390D01*
X137420827Y-101409397D01*
X137566498Y-101469735D01*
X137566503Y-101469737D01*
X137721153Y-101500499D01*
X137721156Y-101500500D01*
X137721158Y-101500500D01*
X137878844Y-101500500D01*
X137878845Y-101500499D01*
X138033497Y-101469737D01*
X138179179Y-101409394D01*
X138310289Y-101321789D01*
X138421789Y-101210289D01*
X138509394Y-101079179D01*
X138569737Y-100933497D01*
X138600500Y-100778842D01*
X138600500Y-100621158D01*
X138600500Y-100621155D01*
X138600499Y-100621153D01*
X138574353Y-100489711D01*
X138569737Y-100466503D01*
X138569735Y-100466498D01*
X138509397Y-100320827D01*
X138509390Y-100320814D01*
X138421789Y-100189711D01*
X138421786Y-100189707D01*
X138310292Y-100078213D01*
X138310288Y-100078210D01*
X138179185Y-99990609D01*
X138179172Y-99990602D01*
X138033501Y-99930264D01*
X138033489Y-99930261D01*
X137878845Y-99899500D01*
X137878842Y-99899500D01*
X137721158Y-99899500D01*
X137721155Y-99899500D01*
X137566510Y-99930261D01*
X137566498Y-99930264D01*
X137420827Y-99990602D01*
X137420814Y-99990609D01*
X137289711Y-100078210D01*
X137289707Y-100078213D01*
X137178213Y-100189707D01*
X137178210Y-100189711D01*
X137090609Y-100320814D01*
X137090602Y-100320827D01*
X137030264Y-100466498D01*
X137030261Y-100466510D01*
X136999500Y-100621153D01*
X126109532Y-100621153D01*
X126109395Y-100620823D01*
X126109390Y-100620814D01*
X126021789Y-100489711D01*
X126021786Y-100489707D01*
X125910292Y-100378213D01*
X125910288Y-100378210D01*
X125779185Y-100290609D01*
X125779172Y-100290602D01*
X125633501Y-100230264D01*
X125633489Y-100230261D01*
X125478845Y-100199500D01*
X125478842Y-100199500D01*
X125321158Y-100199500D01*
X125321155Y-100199500D01*
X125166510Y-100230261D01*
X125166498Y-100230264D01*
X125020827Y-100290602D01*
X125020814Y-100290609D01*
X124889711Y-100378210D01*
X124889707Y-100378213D01*
X124778213Y-100489707D01*
X124778210Y-100489711D01*
X124690609Y-100620814D01*
X124690602Y-100620827D01*
X124630264Y-100766498D01*
X124630261Y-100766510D01*
X124599500Y-100921153D01*
X121600500Y-100921153D01*
X121600500Y-100871158D01*
X121600500Y-100871155D01*
X121600499Y-100871153D01*
X121579684Y-100766510D01*
X121569737Y-100716503D01*
X121546932Y-100661447D01*
X121509397Y-100570827D01*
X121509390Y-100570814D01*
X121421789Y-100439711D01*
X121421786Y-100439707D01*
X121310292Y-100328213D01*
X121310288Y-100328210D01*
X121179185Y-100240609D01*
X121179172Y-100240602D01*
X121033501Y-100180264D01*
X121033489Y-100180261D01*
X120878845Y-100149500D01*
X120878842Y-100149500D01*
X120721158Y-100149500D01*
X120721155Y-100149500D01*
X120566510Y-100180261D01*
X120566498Y-100180264D01*
X120420827Y-100240602D01*
X120420814Y-100240609D01*
X120289711Y-100328210D01*
X120289707Y-100328213D01*
X120178213Y-100439707D01*
X120178210Y-100439711D01*
X120090609Y-100570814D01*
X120090602Y-100570827D01*
X120030264Y-100716498D01*
X120030261Y-100716510D01*
X119999500Y-100871153D01*
X115021049Y-100871153D01*
X114979786Y-100829890D01*
X114807820Y-100704951D01*
X114807115Y-100704591D01*
X114799054Y-100700485D01*
X114748259Y-100652512D01*
X114731463Y-100584692D01*
X114753999Y-100518556D01*
X114799054Y-100479515D01*
X114807816Y-100475051D01*
X114892241Y-100413713D01*
X114979786Y-100350109D01*
X114979788Y-100350106D01*
X114979792Y-100350104D01*
X115130104Y-100199792D01*
X115130106Y-100199788D01*
X115130109Y-100199786D01*
X115255048Y-100027820D01*
X115255047Y-100027820D01*
X115255051Y-100027816D01*
X115351557Y-99838412D01*
X115417246Y-99636243D01*
X115450500Y-99426287D01*
X115450500Y-99213713D01*
X115417246Y-99003757D01*
X115351557Y-98801588D01*
X115255051Y-98612184D01*
X115255049Y-98612181D01*
X115255048Y-98612179D01*
X115130109Y-98440213D01*
X114979786Y-98289890D01*
X114974148Y-98285794D01*
X117094896Y-98285794D01*
X117094896Y-98443487D01*
X117125657Y-98598130D01*
X117125660Y-98598142D01*
X117185998Y-98743813D01*
X117186005Y-98743826D01*
X117273606Y-98874929D01*
X117273609Y-98874933D01*
X117385103Y-98986427D01*
X117385107Y-98986430D01*
X117516210Y-99074031D01*
X117516223Y-99074038D01*
X117661894Y-99134376D01*
X117661899Y-99134378D01*
X117816549Y-99165140D01*
X117816552Y-99165141D01*
X117816554Y-99165141D01*
X117974240Y-99165141D01*
X117974241Y-99165140D01*
X118128893Y-99134378D01*
X118274575Y-99074035D01*
X118405685Y-98986430D01*
X118517185Y-98874930D01*
X118604790Y-98743820D01*
X118614179Y-98721153D01*
X124499500Y-98721153D01*
X124499500Y-98878846D01*
X124530261Y-99033489D01*
X124530264Y-99033501D01*
X124590602Y-99179172D01*
X124590609Y-99179185D01*
X124678210Y-99310288D01*
X124678213Y-99310292D01*
X124789707Y-99421786D01*
X124789711Y-99421789D01*
X124920814Y-99509390D01*
X124920827Y-99509397D01*
X125066498Y-99569735D01*
X125066503Y-99569737D01*
X125221153Y-99600499D01*
X125221156Y-99600500D01*
X125221158Y-99600500D01*
X125378844Y-99600500D01*
X125378845Y-99600499D01*
X125533497Y-99569737D01*
X125679179Y-99509394D01*
X125736411Y-99471153D01*
X139349500Y-99471153D01*
X139349500Y-99628846D01*
X139380261Y-99783489D01*
X139380264Y-99783501D01*
X139440602Y-99929172D01*
X139440609Y-99929185D01*
X139528210Y-100060288D01*
X139528213Y-100060292D01*
X139639707Y-100171786D01*
X139639711Y-100171789D01*
X139770814Y-100259390D01*
X139770827Y-100259397D01*
X139846181Y-100290609D01*
X139916503Y-100319737D01*
X140069167Y-100350104D01*
X140071153Y-100350499D01*
X140071156Y-100350500D01*
X140071158Y-100350500D01*
X140228844Y-100350500D01*
X140228845Y-100350499D01*
X140383497Y-100319737D01*
X140529179Y-100259394D01*
X140660289Y-100171789D01*
X140771789Y-100060289D01*
X140859394Y-99929179D01*
X140919737Y-99783497D01*
X140950500Y-99628842D01*
X140950500Y-99471158D01*
X140950500Y-99471155D01*
X140950499Y-99471153D01*
X140919737Y-99316503D01*
X140889992Y-99244692D01*
X140859397Y-99170827D01*
X140859390Y-99170814D01*
X140771789Y-99039711D01*
X140771786Y-99039707D01*
X140660292Y-98928213D01*
X140660288Y-98928210D01*
X140529185Y-98840609D01*
X140529172Y-98840602D01*
X140383501Y-98780264D01*
X140383489Y-98780261D01*
X140228845Y-98749500D01*
X140228842Y-98749500D01*
X140071158Y-98749500D01*
X140071155Y-98749500D01*
X139916510Y-98780261D01*
X139916498Y-98780264D01*
X139770827Y-98840602D01*
X139770814Y-98840609D01*
X139639711Y-98928210D01*
X139639707Y-98928213D01*
X139528213Y-99039707D01*
X139528210Y-99039711D01*
X139440609Y-99170814D01*
X139440602Y-99170827D01*
X139380264Y-99316498D01*
X139380261Y-99316510D01*
X139349500Y-99471153D01*
X125736411Y-99471153D01*
X125810289Y-99421789D01*
X125810292Y-99421786D01*
X125854694Y-99377385D01*
X125921786Y-99310292D01*
X125921789Y-99310289D01*
X126009394Y-99179179D01*
X126012854Y-99170827D01*
X126027673Y-99135050D01*
X126069737Y-99033497D01*
X126100500Y-98878842D01*
X126100500Y-98721158D01*
X126100500Y-98721155D01*
X126100499Y-98721153D01*
X126080566Y-98620946D01*
X126069737Y-98566503D01*
X126041533Y-98498412D01*
X126009397Y-98420827D01*
X126009390Y-98420814D01*
X125921789Y-98289711D01*
X125921786Y-98289707D01*
X125810292Y-98178213D01*
X125810288Y-98178210D01*
X125679185Y-98090609D01*
X125679172Y-98090602D01*
X125533501Y-98030264D01*
X125533489Y-98030261D01*
X125378845Y-97999500D01*
X125378842Y-97999500D01*
X125221158Y-97999500D01*
X125221155Y-97999500D01*
X125066510Y-98030261D01*
X125066498Y-98030264D01*
X124920827Y-98090602D01*
X124920814Y-98090609D01*
X124789711Y-98178210D01*
X124789707Y-98178213D01*
X124678213Y-98289707D01*
X124678210Y-98289711D01*
X124590609Y-98420814D01*
X124590602Y-98420827D01*
X124530264Y-98566498D01*
X124530261Y-98566510D01*
X124499500Y-98721153D01*
X118614179Y-98721153D01*
X118627986Y-98687820D01*
X118636356Y-98667613D01*
X118636356Y-98667612D01*
X118665133Y-98598138D01*
X118695896Y-98443483D01*
X118695896Y-98285799D01*
X118695896Y-98285796D01*
X118695895Y-98285794D01*
X118694512Y-98278842D01*
X118665133Y-98131144D01*
X118665131Y-98131139D01*
X118604793Y-97985468D01*
X118604786Y-97985455D01*
X118517185Y-97854352D01*
X118517182Y-97854348D01*
X118405688Y-97742854D01*
X118405684Y-97742851D01*
X118274581Y-97655250D01*
X118274568Y-97655243D01*
X118128897Y-97594905D01*
X118128885Y-97594902D01*
X117974241Y-97564141D01*
X117974238Y-97564141D01*
X117816554Y-97564141D01*
X117816551Y-97564141D01*
X117661906Y-97594902D01*
X117661894Y-97594905D01*
X117516223Y-97655243D01*
X117516210Y-97655250D01*
X117385107Y-97742851D01*
X117385103Y-97742854D01*
X117273609Y-97854348D01*
X117273606Y-97854352D01*
X117186005Y-97985455D01*
X117185998Y-97985468D01*
X117125660Y-98131139D01*
X117125657Y-98131151D01*
X117094896Y-98285794D01*
X114974148Y-98285794D01*
X114807820Y-98164951D01*
X114807115Y-98164591D01*
X114799054Y-98160485D01*
X114748259Y-98112512D01*
X114731463Y-98044692D01*
X114753999Y-97978556D01*
X114799054Y-97939515D01*
X114807816Y-97935051D01*
X114892241Y-97873713D01*
X114979786Y-97810109D01*
X114979788Y-97810106D01*
X114979792Y-97810104D01*
X115130104Y-97659792D01*
X115130106Y-97659788D01*
X115130109Y-97659786D01*
X115255048Y-97487820D01*
X115255047Y-97487820D01*
X115255051Y-97487816D01*
X115351557Y-97298412D01*
X115417246Y-97096243D01*
X115429140Y-97021153D01*
X121387000Y-97021153D01*
X121387000Y-97178846D01*
X121417761Y-97333489D01*
X121417764Y-97333501D01*
X121478102Y-97479172D01*
X121478109Y-97479185D01*
X121565710Y-97610288D01*
X121565713Y-97610292D01*
X121677207Y-97721786D01*
X121677211Y-97721789D01*
X121808314Y-97809390D01*
X121808327Y-97809397D01*
X121916850Y-97854348D01*
X121954003Y-97869737D01*
X122108653Y-97900499D01*
X122108656Y-97900500D01*
X122108658Y-97900500D01*
X122266344Y-97900500D01*
X122266345Y-97900499D01*
X122420997Y-97869737D01*
X122539092Y-97820821D01*
X122566672Y-97809397D01*
X122566672Y-97809396D01*
X122566679Y-97809394D01*
X122697789Y-97721789D01*
X122809289Y-97610289D01*
X122896894Y-97479179D01*
X122957237Y-97333497D01*
X122988000Y-97178842D01*
X122988000Y-97021158D01*
X122988000Y-97021155D01*
X122987999Y-97021153D01*
X122957238Y-96866510D01*
X122957237Y-96866503D01*
X122938176Y-96820486D01*
X122896897Y-96720827D01*
X122896890Y-96720814D01*
X122809289Y-96589711D01*
X122809286Y-96589707D01*
X122697792Y-96478213D01*
X122697788Y-96478210D01*
X122566685Y-96390609D01*
X122566672Y-96390602D01*
X122421001Y-96330264D01*
X122420989Y-96330261D01*
X122266345Y-96299500D01*
X122266342Y-96299500D01*
X122108658Y-96299500D01*
X122108655Y-96299500D01*
X121954010Y-96330261D01*
X121953998Y-96330264D01*
X121808327Y-96390602D01*
X121808314Y-96390609D01*
X121677211Y-96478210D01*
X121677207Y-96478213D01*
X121565713Y-96589707D01*
X121565710Y-96589711D01*
X121478109Y-96720814D01*
X121478102Y-96720827D01*
X121417764Y-96866498D01*
X121417761Y-96866510D01*
X121387000Y-97021153D01*
X115429140Y-97021153D01*
X115435789Y-96979172D01*
X115450500Y-96886287D01*
X115450500Y-96673713D01*
X115438041Y-96595050D01*
X115417246Y-96463757D01*
X115351557Y-96261588D01*
X115255051Y-96072184D01*
X115255049Y-96072181D01*
X115255048Y-96072179D01*
X115130109Y-95900213D01*
X114979792Y-95749896D01*
X114932291Y-95715385D01*
X114932289Y-95715382D01*
X114807819Y-95624951D01*
X114807818Y-95624950D01*
X114807816Y-95624949D01*
X114800366Y-95621153D01*
X134999500Y-95621153D01*
X134999500Y-95778846D01*
X135030261Y-95933489D01*
X135030264Y-95933501D01*
X135090602Y-96079172D01*
X135090609Y-96079185D01*
X135178210Y-96210288D01*
X135178213Y-96210292D01*
X135289707Y-96321786D01*
X135289715Y-96321792D01*
X135352732Y-96363899D01*
X135397538Y-96417511D01*
X135406245Y-96486836D01*
X135405460Y-96491189D01*
X135399500Y-96521155D01*
X135399500Y-96678846D01*
X135430261Y-96833489D01*
X135430264Y-96833501D01*
X135490602Y-96979172D01*
X135490609Y-96979185D01*
X135578210Y-97110288D01*
X135578213Y-97110292D01*
X135689707Y-97221786D01*
X135689711Y-97221789D01*
X135820814Y-97309390D01*
X135820818Y-97309392D01*
X135820821Y-97309394D01*
X135835642Y-97315533D01*
X135890045Y-97359375D01*
X135912109Y-97425669D01*
X135894829Y-97493368D01*
X135857080Y-97533196D01*
X135789707Y-97578213D01*
X135678213Y-97689707D01*
X135678210Y-97689711D01*
X135590609Y-97820814D01*
X135590602Y-97820827D01*
X135530264Y-97966498D01*
X135530261Y-97966510D01*
X135499500Y-98121153D01*
X135499500Y-98278846D01*
X135530261Y-98433489D01*
X135530264Y-98433501D01*
X135590602Y-98579172D01*
X135590609Y-98579185D01*
X135678210Y-98710288D01*
X135678213Y-98710292D01*
X135789707Y-98821786D01*
X135789711Y-98821789D01*
X135920814Y-98909390D01*
X135920827Y-98909397D01*
X135966254Y-98928213D01*
X136066503Y-98969737D01*
X136221153Y-99000499D01*
X136221156Y-99000500D01*
X136221158Y-99000500D01*
X136378844Y-99000500D01*
X136378845Y-99000499D01*
X136533497Y-98969737D01*
X136679179Y-98909394D01*
X136810289Y-98821789D01*
X136921789Y-98710289D01*
X137009394Y-98579179D01*
X137069737Y-98433497D01*
X137100500Y-98278842D01*
X137100500Y-98121158D01*
X137100500Y-98121155D01*
X137100499Y-98121153D01*
X137082419Y-98030261D01*
X137069737Y-97966503D01*
X137042398Y-97900500D01*
X137009397Y-97820827D01*
X137009390Y-97820814D01*
X136921789Y-97689711D01*
X136921786Y-97689707D01*
X136810292Y-97578213D01*
X136810288Y-97578210D01*
X136679185Y-97490609D01*
X136679176Y-97490604D01*
X136664355Y-97484465D01*
X136609953Y-97440622D01*
X136587890Y-97374327D01*
X136605171Y-97306628D01*
X136642918Y-97266804D01*
X136710289Y-97221789D01*
X136821789Y-97110289D01*
X136909394Y-96979179D01*
X136969737Y-96833497D01*
X137000500Y-96678842D01*
X137000500Y-96521158D01*
X137000500Y-96521155D01*
X137000499Y-96521153D01*
X136978338Y-96409742D01*
X136969737Y-96366503D01*
X136968658Y-96363899D01*
X136909397Y-96220827D01*
X136909390Y-96220814D01*
X136821789Y-96089711D01*
X136821786Y-96089707D01*
X136710292Y-95978213D01*
X136710288Y-95978210D01*
X136647265Y-95936099D01*
X136602460Y-95882487D01*
X136593753Y-95813162D01*
X136594540Y-95808801D01*
X136600500Y-95778844D01*
X136600500Y-95621155D01*
X136600499Y-95621153D01*
X136582058Y-95528444D01*
X136569737Y-95466503D01*
X136509794Y-95321786D01*
X136509397Y-95320827D01*
X136509390Y-95320814D01*
X136421789Y-95189711D01*
X136421786Y-95189707D01*
X136310292Y-95078213D01*
X136310288Y-95078210D01*
X136179185Y-94990609D01*
X136179172Y-94990602D01*
X136033501Y-94930264D01*
X136033489Y-94930261D01*
X135878845Y-94899500D01*
X135878842Y-94899500D01*
X135721158Y-94899500D01*
X135721155Y-94899500D01*
X135566510Y-94930261D01*
X135566498Y-94930264D01*
X135420827Y-94990602D01*
X135420814Y-94990609D01*
X135289711Y-95078210D01*
X135289707Y-95078213D01*
X135178213Y-95189707D01*
X135178210Y-95189711D01*
X135090609Y-95320814D01*
X135090602Y-95320827D01*
X135030264Y-95466498D01*
X135030261Y-95466510D01*
X134999500Y-95621153D01*
X114800366Y-95621153D01*
X114618412Y-95528443D01*
X114416243Y-95462754D01*
X114416241Y-95462753D01*
X114416240Y-95462753D01*
X114254957Y-95437208D01*
X114206287Y-95429500D01*
X113993713Y-95429500D01*
X113945042Y-95437208D01*
X113783760Y-95462753D01*
X113581585Y-95528444D01*
X113392179Y-95624951D01*
X113220213Y-95749890D01*
X113069890Y-95900213D01*
X112944949Y-96072182D01*
X112940484Y-96080946D01*
X112892509Y-96131742D01*
X112824688Y-96148536D01*
X112758553Y-96125998D01*
X112719516Y-96080946D01*
X112715050Y-96072182D01*
X112590109Y-95900213D01*
X112439786Y-95749890D01*
X112267820Y-95624951D01*
X112078414Y-95528444D01*
X112078413Y-95528443D01*
X112078412Y-95528443D01*
X111876243Y-95462754D01*
X111876241Y-95462753D01*
X111876240Y-95462753D01*
X111714957Y-95437208D01*
X111666287Y-95429500D01*
X111453713Y-95429500D01*
X111405042Y-95437208D01*
X111243760Y-95462753D01*
X111041585Y-95528444D01*
X110852179Y-95624951D01*
X110680213Y-95749890D01*
X110529890Y-95900213D01*
X110404951Y-96072180D01*
X110334985Y-96209496D01*
X110287010Y-96260292D01*
X110219189Y-96277087D01*
X110153054Y-96254550D01*
X110109603Y-96199834D01*
X110100500Y-96153201D01*
X110100500Y-94121153D01*
X119799500Y-94121153D01*
X119799500Y-94278846D01*
X119830261Y-94433489D01*
X119830264Y-94433501D01*
X119890602Y-94579172D01*
X119890609Y-94579185D01*
X119978210Y-94710288D01*
X119978213Y-94710292D01*
X120089707Y-94821786D01*
X120089711Y-94821789D01*
X120220814Y-94909390D01*
X120220827Y-94909397D01*
X120366498Y-94969735D01*
X120366503Y-94969737D01*
X120521153Y-95000499D01*
X120521156Y-95000500D01*
X120521158Y-95000500D01*
X120678844Y-95000500D01*
X120678845Y-95000499D01*
X120833497Y-94969737D01*
X120979179Y-94909394D01*
X121110289Y-94821789D01*
X121221789Y-94710289D01*
X121281348Y-94621153D01*
X144999500Y-94621153D01*
X144999500Y-94778846D01*
X145030261Y-94933489D01*
X145030264Y-94933501D01*
X145090602Y-95079172D01*
X145090609Y-95079185D01*
X145178210Y-95210288D01*
X145178213Y-95210292D01*
X145289707Y-95321786D01*
X145289711Y-95321789D01*
X145420814Y-95409390D01*
X145420827Y-95409397D01*
X145549642Y-95462753D01*
X145566503Y-95469737D01*
X145721153Y-95500499D01*
X145721156Y-95500500D01*
X145721158Y-95500500D01*
X145878844Y-95500500D01*
X145878845Y-95500499D01*
X146033497Y-95469737D01*
X146179179Y-95409394D01*
X146310289Y-95321789D01*
X146421789Y-95210289D01*
X146509394Y-95079179D01*
X146569737Y-94933497D01*
X146600500Y-94778842D01*
X146600500Y-94621158D01*
X146600500Y-94621155D01*
X146600499Y-94621153D01*
X146588376Y-94560208D01*
X146569737Y-94466503D01*
X146546290Y-94409896D01*
X146509397Y-94320827D01*
X146509390Y-94320814D01*
X146421789Y-94189711D01*
X146421786Y-94189707D01*
X146310292Y-94078213D01*
X146310288Y-94078210D01*
X146179185Y-93990609D01*
X146179172Y-93990602D01*
X146033501Y-93930264D01*
X146033489Y-93930261D01*
X145878845Y-93899500D01*
X145878842Y-93899500D01*
X145721158Y-93899500D01*
X145721155Y-93899500D01*
X145566510Y-93930261D01*
X145566498Y-93930264D01*
X145420827Y-93990602D01*
X145420814Y-93990609D01*
X145289711Y-94078210D01*
X145289707Y-94078213D01*
X145178213Y-94189707D01*
X145178210Y-94189711D01*
X145090609Y-94320814D01*
X145090602Y-94320827D01*
X145030264Y-94466498D01*
X145030261Y-94466510D01*
X144999500Y-94621153D01*
X121281348Y-94621153D01*
X121309394Y-94579179D01*
X121369737Y-94433497D01*
X121400500Y-94278842D01*
X121400500Y-94121158D01*
X121400500Y-94121155D01*
X121400499Y-94121153D01*
X121391957Y-94078210D01*
X121369737Y-93966503D01*
X121358927Y-93940405D01*
X121309397Y-93820827D01*
X121309390Y-93820814D01*
X121221789Y-93689711D01*
X121221786Y-93689707D01*
X121110292Y-93578213D01*
X121110288Y-93578210D01*
X120979185Y-93490609D01*
X120979172Y-93490602D01*
X120833501Y-93430264D01*
X120833489Y-93430261D01*
X120678845Y-93399500D01*
X120678842Y-93399500D01*
X120521158Y-93399500D01*
X120521155Y-93399500D01*
X120366510Y-93430261D01*
X120366498Y-93430264D01*
X120220827Y-93490602D01*
X120220814Y-93490609D01*
X120089711Y-93578210D01*
X120089707Y-93578213D01*
X119978213Y-93689707D01*
X119978210Y-93689711D01*
X119890609Y-93820814D01*
X119890602Y-93820827D01*
X119830264Y-93966498D01*
X119830261Y-93966510D01*
X119799500Y-94121153D01*
X110100500Y-94121153D01*
X110100500Y-93121153D01*
X126399500Y-93121153D01*
X126399500Y-93278846D01*
X126430261Y-93433489D01*
X126430264Y-93433501D01*
X126490602Y-93579172D01*
X126490609Y-93579185D01*
X126578210Y-93710288D01*
X126578213Y-93710292D01*
X126689707Y-93821786D01*
X126689711Y-93821789D01*
X126820814Y-93909390D01*
X126820827Y-93909397D01*
X126958683Y-93966498D01*
X126966503Y-93969737D01*
X127121153Y-94000499D01*
X127121156Y-94000500D01*
X127121158Y-94000500D01*
X127278844Y-94000500D01*
X127278845Y-94000499D01*
X127433497Y-93969737D01*
X127579179Y-93909394D01*
X127579184Y-93909390D01*
X127579187Y-93909389D01*
X127585891Y-93904910D01*
X127585892Y-93904909D01*
X127638412Y-93869815D01*
X127710289Y-93821789D01*
X127821789Y-93710289D01*
X127909394Y-93579179D01*
X127969737Y-93433497D01*
X128000500Y-93278842D01*
X128000500Y-93121158D01*
X128000500Y-93121155D01*
X128000499Y-93121153D01*
X127980734Y-93021789D01*
X127969737Y-92966503D01*
X127932388Y-92876333D01*
X127909397Y-92820827D01*
X127909390Y-92820814D01*
X127821789Y-92689711D01*
X127821786Y-92689707D01*
X127710292Y-92578213D01*
X127710288Y-92578210D01*
X127579185Y-92490609D01*
X127579172Y-92490602D01*
X127433501Y-92430264D01*
X127433489Y-92430261D01*
X127278845Y-92399500D01*
X127278842Y-92399500D01*
X127121158Y-92399500D01*
X127121155Y-92399500D01*
X126966510Y-92430261D01*
X126966498Y-92430264D01*
X126820827Y-92490602D01*
X126820814Y-92490609D01*
X126689711Y-92578210D01*
X126689707Y-92578213D01*
X126578213Y-92689707D01*
X126578210Y-92689711D01*
X126490609Y-92820814D01*
X126490602Y-92820827D01*
X126430264Y-92966498D01*
X126430261Y-92966510D01*
X126399500Y-93121153D01*
X110100500Y-93121153D01*
X110100500Y-88196153D01*
X126124500Y-88196153D01*
X126124500Y-88353846D01*
X126155261Y-88508489D01*
X126155264Y-88508501D01*
X126215602Y-88654172D01*
X126215609Y-88654185D01*
X126303210Y-88785288D01*
X126303213Y-88785292D01*
X126414707Y-88896786D01*
X126414711Y-88896789D01*
X126545814Y-88984390D01*
X126545827Y-88984397D01*
X126650002Y-89027547D01*
X126691503Y-89044737D01*
X126806161Y-89067544D01*
X126846153Y-89075499D01*
X126846156Y-89075500D01*
X126846158Y-89075500D01*
X127003844Y-89075500D01*
X127003845Y-89075499D01*
X127158497Y-89044737D01*
X127304179Y-88984394D01*
X127435289Y-88896789D01*
X127546789Y-88785289D01*
X127634394Y-88654179D01*
X127694737Y-88508497D01*
X127725500Y-88353842D01*
X127725500Y-88196158D01*
X127725500Y-88196155D01*
X127725499Y-88196153D01*
X127700353Y-88069737D01*
X127694737Y-88041503D01*
X127694735Y-88041498D01*
X127634397Y-87895827D01*
X127634390Y-87895814D01*
X127546789Y-87764711D01*
X127546786Y-87764707D01*
X127435292Y-87653213D01*
X127435288Y-87653210D01*
X127304185Y-87565609D01*
X127304172Y-87565602D01*
X127158501Y-87505264D01*
X127158489Y-87505261D01*
X127003845Y-87474500D01*
X127003842Y-87474500D01*
X126846158Y-87474500D01*
X126846155Y-87474500D01*
X126691510Y-87505261D01*
X126691498Y-87505264D01*
X126545827Y-87565602D01*
X126545814Y-87565609D01*
X126414711Y-87653210D01*
X126414707Y-87653213D01*
X126303213Y-87764707D01*
X126303210Y-87764711D01*
X126215609Y-87895814D01*
X126215602Y-87895827D01*
X126155264Y-88041498D01*
X126155261Y-88041510D01*
X126124500Y-88196153D01*
X110100500Y-88196153D01*
X110100500Y-86962135D01*
X134349500Y-86962135D01*
X134349500Y-88757870D01*
X134349501Y-88757876D01*
X134355908Y-88817483D01*
X134406202Y-88952328D01*
X134406206Y-88952335D01*
X134492452Y-89067544D01*
X134492455Y-89067547D01*
X134607664Y-89153793D01*
X134607671Y-89153797D01*
X134739082Y-89202810D01*
X134795016Y-89244681D01*
X134819433Y-89310145D01*
X134804582Y-89378418D01*
X134783431Y-89406673D01*
X134669889Y-89520215D01*
X134544951Y-89692179D01*
X134448444Y-89881585D01*
X134382753Y-90083760D01*
X134349500Y-90293713D01*
X134349500Y-90506286D01*
X134382753Y-90716239D01*
X134448444Y-90918414D01*
X134544951Y-91107820D01*
X134669890Y-91279786D01*
X134820213Y-91430109D01*
X134992179Y-91555048D01*
X134992181Y-91555049D01*
X134992184Y-91555051D01*
X135001493Y-91559794D01*
X135052290Y-91607766D01*
X135069087Y-91675587D01*
X135046552Y-91741722D01*
X135001505Y-91780760D01*
X134992446Y-91785376D01*
X134992440Y-91785380D01*
X134938282Y-91824727D01*
X134938282Y-91824728D01*
X135570591Y-92457037D01*
X135507007Y-92474075D01*
X135392993Y-92539901D01*
X135299901Y-92632993D01*
X135234075Y-92747007D01*
X135217037Y-92810591D01*
X134584728Y-92178282D01*
X134584727Y-92178282D01*
X134545380Y-92232439D01*
X134448904Y-92421782D01*
X134383242Y-92623869D01*
X134383242Y-92623872D01*
X134350000Y-92833753D01*
X134350000Y-93046246D01*
X134383242Y-93256127D01*
X134383242Y-93256130D01*
X134448904Y-93458217D01*
X134545375Y-93647550D01*
X134584728Y-93701716D01*
X135217037Y-93069408D01*
X135234075Y-93132993D01*
X135299901Y-93247007D01*
X135392993Y-93340099D01*
X135507007Y-93405925D01*
X135570590Y-93422962D01*
X134938282Y-94055269D01*
X134938282Y-94055270D01*
X134992449Y-94094624D01*
X135181782Y-94191095D01*
X135383870Y-94256757D01*
X135593754Y-94290000D01*
X135806246Y-94290000D01*
X136016127Y-94256757D01*
X136016130Y-94256757D01*
X136218217Y-94191095D01*
X136407554Y-94094622D01*
X136461716Y-94055270D01*
X136461717Y-94055270D01*
X135829408Y-93422962D01*
X135892993Y-93405925D01*
X136007007Y-93340099D01*
X136100099Y-93247007D01*
X136165925Y-93132993D01*
X136182962Y-93069408D01*
X136815270Y-93701717D01*
X136815270Y-93701716D01*
X136854622Y-93647554D01*
X136951095Y-93458217D01*
X137016757Y-93256130D01*
X137016757Y-93256127D01*
X137050000Y-93046246D01*
X137050000Y-92833753D01*
X137016757Y-92623872D01*
X137016757Y-92623869D01*
X136951094Y-92421779D01*
X136951092Y-92421775D01*
X136925406Y-92371363D01*
X136925404Y-92371361D01*
X136899821Y-92321153D01*
X141099500Y-92321153D01*
X141099500Y-92478846D01*
X141130261Y-92633489D01*
X141130264Y-92633501D01*
X141190602Y-92779172D01*
X141190609Y-92779185D01*
X141278210Y-92910288D01*
X141278213Y-92910292D01*
X141389707Y-93021786D01*
X141389711Y-93021789D01*
X141520814Y-93109390D01*
X141520827Y-93109397D01*
X141577794Y-93132993D01*
X141666503Y-93169737D01*
X141821153Y-93200499D01*
X141821156Y-93200500D01*
X141905832Y-93200500D01*
X141972871Y-93220185D01*
X142018626Y-93272989D01*
X142028570Y-93342147D01*
X142008933Y-93393392D01*
X141990610Y-93420812D01*
X141990602Y-93420827D01*
X141930264Y-93566498D01*
X141930261Y-93566510D01*
X141899500Y-93721153D01*
X141899500Y-93878846D01*
X141930261Y-94033489D01*
X141930264Y-94033501D01*
X141990602Y-94179172D01*
X141990609Y-94179185D01*
X142078210Y-94310288D01*
X142078213Y-94310292D01*
X142189707Y-94421786D01*
X142189711Y-94421789D01*
X142320814Y-94509390D01*
X142320827Y-94509397D01*
X142443510Y-94560213D01*
X142466503Y-94569737D01*
X142621153Y-94600499D01*
X142621156Y-94600500D01*
X142621158Y-94600500D01*
X142778844Y-94600500D01*
X142778845Y-94600499D01*
X142933497Y-94569737D01*
X143079179Y-94509394D01*
X143210289Y-94421789D01*
X143321789Y-94310289D01*
X143409394Y-94179179D01*
X143469737Y-94033497D01*
X143500500Y-93878842D01*
X143500500Y-93721158D01*
X143500500Y-93721155D01*
X143500499Y-93721153D01*
X143484371Y-93640073D01*
X143469737Y-93566503D01*
X143469735Y-93566498D01*
X143409397Y-93420827D01*
X143409390Y-93420814D01*
X143321789Y-93289711D01*
X143321786Y-93289707D01*
X143210292Y-93178213D01*
X143210288Y-93178210D01*
X143124897Y-93121153D01*
X150999500Y-93121153D01*
X150999500Y-93278846D01*
X151030261Y-93433489D01*
X151030264Y-93433501D01*
X151090602Y-93579172D01*
X151090609Y-93579185D01*
X151178210Y-93710288D01*
X151178213Y-93710292D01*
X151289707Y-93821786D01*
X151289711Y-93821789D01*
X151420814Y-93909390D01*
X151420827Y-93909397D01*
X151558683Y-93966498D01*
X151566503Y-93969737D01*
X151721153Y-94000499D01*
X151721156Y-94000500D01*
X151721158Y-94000500D01*
X151878844Y-94000500D01*
X151878845Y-94000499D01*
X152033497Y-93969737D01*
X152104311Y-93940405D01*
X162003073Y-93940405D01*
X162003073Y-94098098D01*
X162033834Y-94252741D01*
X162033837Y-94252753D01*
X162094175Y-94398424D01*
X162094182Y-94398437D01*
X162181783Y-94529540D01*
X162181786Y-94529544D01*
X162293280Y-94641038D01*
X162293284Y-94641041D01*
X162424387Y-94728642D01*
X162424400Y-94728649D01*
X162545588Y-94778846D01*
X162570076Y-94788989D01*
X162724726Y-94819751D01*
X162724729Y-94819752D01*
X162724731Y-94819752D01*
X162882417Y-94819752D01*
X162882418Y-94819751D01*
X163037070Y-94788989D01*
X163149739Y-94742319D01*
X163182745Y-94728649D01*
X163182745Y-94728648D01*
X163182752Y-94728646D01*
X163313862Y-94641041D01*
X163425362Y-94529541D01*
X163512967Y-94398431D01*
X163573310Y-94252749D01*
X163604073Y-94098094D01*
X163604073Y-93940410D01*
X163604073Y-93940407D01*
X163604072Y-93940405D01*
X163597902Y-93909389D01*
X163573310Y-93785755D01*
X163570835Y-93779780D01*
X163512970Y-93640079D01*
X163512963Y-93640066D01*
X163425362Y-93508963D01*
X163425359Y-93508959D01*
X163313865Y-93397465D01*
X163313861Y-93397462D01*
X163182758Y-93309861D01*
X163182745Y-93309854D01*
X163037074Y-93249516D01*
X163037062Y-93249513D01*
X162882418Y-93218752D01*
X162882415Y-93218752D01*
X162724731Y-93218752D01*
X162724728Y-93218752D01*
X162570083Y-93249513D01*
X162570071Y-93249516D01*
X162424400Y-93309854D01*
X162424387Y-93309861D01*
X162293284Y-93397462D01*
X162293280Y-93397465D01*
X162181786Y-93508959D01*
X162181783Y-93508963D01*
X162094182Y-93640066D01*
X162094175Y-93640079D01*
X162033837Y-93785750D01*
X162033834Y-93785762D01*
X162003073Y-93940405D01*
X152104311Y-93940405D01*
X152179179Y-93909394D01*
X152310289Y-93821789D01*
X152421789Y-93710289D01*
X152509394Y-93579179D01*
X152569737Y-93433497D01*
X152600500Y-93278842D01*
X152600500Y-93121158D01*
X152600500Y-93121155D01*
X152600499Y-93121153D01*
X152580734Y-93021789D01*
X152569737Y-92966503D01*
X152532388Y-92876333D01*
X152509397Y-92820827D01*
X152509390Y-92820814D01*
X152421789Y-92689711D01*
X152421786Y-92689707D01*
X152310292Y-92578213D01*
X152310288Y-92578210D01*
X152179185Y-92490609D01*
X152179172Y-92490602D01*
X152033501Y-92430264D01*
X152033489Y-92430261D01*
X151878845Y-92399500D01*
X151878842Y-92399500D01*
X151721158Y-92399500D01*
X151721155Y-92399500D01*
X151566510Y-92430261D01*
X151566498Y-92430264D01*
X151420827Y-92490602D01*
X151420814Y-92490609D01*
X151289711Y-92578210D01*
X151289707Y-92578213D01*
X151178213Y-92689707D01*
X151178210Y-92689711D01*
X151090609Y-92820814D01*
X151090602Y-92820827D01*
X151030264Y-92966498D01*
X151030261Y-92966510D01*
X150999500Y-93121153D01*
X143124897Y-93121153D01*
X143079185Y-93090609D01*
X143079172Y-93090602D01*
X142933501Y-93030264D01*
X142933489Y-93030261D01*
X142778845Y-92999500D01*
X142778842Y-92999500D01*
X142694168Y-92999500D01*
X142627129Y-92979815D01*
X142581374Y-92927011D01*
X142571430Y-92857853D01*
X142591067Y-92806608D01*
X142609389Y-92779187D01*
X142609390Y-92779184D01*
X142609394Y-92779179D01*
X142669737Y-92633497D01*
X142700500Y-92478842D01*
X142700500Y-92321158D01*
X142700500Y-92321155D01*
X142700499Y-92321153D01*
X142683061Y-92233489D01*
X142669737Y-92166503D01*
X142633427Y-92078842D01*
X142609397Y-92020827D01*
X142609390Y-92020814D01*
X142521789Y-91889711D01*
X142521786Y-91889707D01*
X142410292Y-91778213D01*
X142410288Y-91778210D01*
X142279185Y-91690609D01*
X142279172Y-91690602D01*
X142133501Y-91630264D01*
X142133489Y-91630261D01*
X141978845Y-91599500D01*
X141978842Y-91599500D01*
X141821158Y-91599500D01*
X141821155Y-91599500D01*
X141666510Y-91630261D01*
X141666498Y-91630264D01*
X141520827Y-91690602D01*
X141520814Y-91690609D01*
X141389711Y-91778210D01*
X141389707Y-91778213D01*
X141278213Y-91889707D01*
X141278210Y-91889711D01*
X141190609Y-92020814D01*
X141190602Y-92020827D01*
X141130264Y-92166498D01*
X141130261Y-92166510D01*
X141099500Y-92321153D01*
X136899821Y-92321153D01*
X136854624Y-92232449D01*
X136815270Y-92178282D01*
X136815269Y-92178282D01*
X136182962Y-92810590D01*
X136165925Y-92747007D01*
X136100099Y-92632993D01*
X136007007Y-92539901D01*
X135892993Y-92474075D01*
X135829409Y-92457037D01*
X136461716Y-91824728D01*
X136407547Y-91785373D01*
X136407547Y-91785372D01*
X136398500Y-91780763D01*
X136347706Y-91732788D01*
X136330912Y-91664966D01*
X136353451Y-91598832D01*
X136398508Y-91559793D01*
X136407816Y-91555051D01*
X136487007Y-91497515D01*
X136579786Y-91430109D01*
X136579788Y-91430106D01*
X136579792Y-91430104D01*
X136730104Y-91279792D01*
X136730106Y-91279788D01*
X136730109Y-91279786D01*
X136855048Y-91107820D01*
X136855047Y-91107820D01*
X136855051Y-91107816D01*
X136951557Y-90918412D01*
X137017246Y-90716243D01*
X137050500Y-90506287D01*
X137050500Y-90293713D01*
X137017246Y-90083757D01*
X136951557Y-89881588D01*
X136855051Y-89692184D01*
X136855049Y-89692181D01*
X136855048Y-89692179D01*
X136730109Y-89520213D01*
X136631049Y-89421153D01*
X145799500Y-89421153D01*
X145799500Y-89578846D01*
X145830261Y-89733489D01*
X145830264Y-89733501D01*
X145890602Y-89879172D01*
X145890609Y-89879185D01*
X145978210Y-90010288D01*
X145978213Y-90010292D01*
X146089707Y-90121786D01*
X146089711Y-90121789D01*
X146220814Y-90209390D01*
X146220827Y-90209397D01*
X146327817Y-90253713D01*
X146366503Y-90269737D01*
X146487038Y-90293713D01*
X146521153Y-90300499D01*
X146521156Y-90300500D01*
X146521158Y-90300500D01*
X146678844Y-90300500D01*
X146678845Y-90300499D01*
X146833497Y-90269737D01*
X146979179Y-90209394D01*
X147110289Y-90121789D01*
X147221789Y-90010289D01*
X147309394Y-89879179D01*
X147369737Y-89733497D01*
X147400500Y-89578842D01*
X147400500Y-89421158D01*
X147400500Y-89421155D01*
X147400499Y-89421153D01*
X147369738Y-89266510D01*
X147369737Y-89266503D01*
X147344130Y-89204681D01*
X147309397Y-89120827D01*
X147309390Y-89120814D01*
X147221789Y-88989711D01*
X147221786Y-88989707D01*
X147110292Y-88878213D01*
X147110288Y-88878210D01*
X146979185Y-88790609D01*
X146979172Y-88790602D01*
X146833501Y-88730264D01*
X146833489Y-88730261D01*
X146678845Y-88699500D01*
X146678842Y-88699500D01*
X146521158Y-88699500D01*
X146521155Y-88699500D01*
X146366510Y-88730261D01*
X146366498Y-88730264D01*
X146220827Y-88790602D01*
X146220814Y-88790609D01*
X146089711Y-88878210D01*
X146089707Y-88878213D01*
X145978213Y-88989707D01*
X145978210Y-88989711D01*
X145890609Y-89120814D01*
X145890602Y-89120827D01*
X145830264Y-89266498D01*
X145830261Y-89266510D01*
X145799500Y-89421153D01*
X136631049Y-89421153D01*
X136616569Y-89406673D01*
X136583084Y-89345350D01*
X136588068Y-89275658D01*
X136629940Y-89219725D01*
X136660915Y-89202810D01*
X136792331Y-89153796D01*
X136907546Y-89067546D01*
X136993796Y-88952331D01*
X137044091Y-88817483D01*
X137050500Y-88757873D01*
X137050499Y-87221153D01*
X145299500Y-87221153D01*
X145299500Y-87378846D01*
X145330261Y-87533489D01*
X145330264Y-87533501D01*
X145390602Y-87679172D01*
X145390609Y-87679185D01*
X145478210Y-87810288D01*
X145478213Y-87810292D01*
X145589707Y-87921786D01*
X145589711Y-87921789D01*
X145720814Y-88009390D01*
X145720827Y-88009397D01*
X145798356Y-88041510D01*
X145866503Y-88069737D01*
X146021153Y-88100499D01*
X146021156Y-88100500D01*
X146021158Y-88100500D01*
X146178844Y-88100500D01*
X146178845Y-88100499D01*
X146333497Y-88069737D01*
X146479179Y-88009394D01*
X146610289Y-87921789D01*
X146721789Y-87810289D01*
X146809394Y-87679179D01*
X146869737Y-87533497D01*
X146900500Y-87378842D01*
X146900500Y-87221158D01*
X146900500Y-87221155D01*
X146900499Y-87221153D01*
X146869738Y-87066510D01*
X146869737Y-87066503D01*
X146869735Y-87066498D01*
X146828215Y-86966258D01*
X146809939Y-86922135D01*
X165349500Y-86922135D01*
X165349500Y-88717870D01*
X165349501Y-88717876D01*
X165355908Y-88777483D01*
X165406202Y-88912328D01*
X165406206Y-88912335D01*
X165492452Y-89027544D01*
X165492455Y-89027547D01*
X165607664Y-89113793D01*
X165607671Y-89113797D01*
X165739082Y-89162810D01*
X165795016Y-89204681D01*
X165819433Y-89270145D01*
X165804582Y-89338418D01*
X165783431Y-89366673D01*
X165669889Y-89480215D01*
X165544951Y-89652179D01*
X165448444Y-89841585D01*
X165382753Y-90043760D01*
X165349500Y-90253713D01*
X165349500Y-90466286D01*
X165382753Y-90676239D01*
X165448444Y-90878414D01*
X165544951Y-91067820D01*
X165669890Y-91239786D01*
X165820213Y-91390109D01*
X165992182Y-91515050D01*
X166000946Y-91519516D01*
X166051742Y-91567491D01*
X166068536Y-91635312D01*
X166045998Y-91701447D01*
X166000946Y-91740484D01*
X165992182Y-91744949D01*
X165820213Y-91869890D01*
X165669890Y-92020213D01*
X165544951Y-92192179D01*
X165448444Y-92381585D01*
X165382753Y-92583760D01*
X165353298Y-92769735D01*
X165349500Y-92793713D01*
X165349500Y-93006287D01*
X165353298Y-93030264D01*
X165380260Y-93200500D01*
X165382754Y-93216243D01*
X165441636Y-93397463D01*
X165448444Y-93418414D01*
X165544951Y-93607820D01*
X165669886Y-93779780D01*
X165669894Y-93779790D01*
X165820213Y-93930109D01*
X165992182Y-94055050D01*
X166000946Y-94059516D01*
X166051742Y-94107491D01*
X166068536Y-94175312D01*
X166045998Y-94241447D01*
X166000946Y-94280484D01*
X165992182Y-94284949D01*
X165820213Y-94409890D01*
X165669890Y-94560213D01*
X165544951Y-94732179D01*
X165448444Y-94921585D01*
X165382753Y-95123760D01*
X165349500Y-95333713D01*
X165349500Y-95546286D01*
X165381748Y-95749896D01*
X165382754Y-95756243D01*
X165429531Y-95900208D01*
X165448444Y-95958414D01*
X165544951Y-96147820D01*
X165669890Y-96319786D01*
X165820213Y-96470109D01*
X165992182Y-96595050D01*
X166000946Y-96599516D01*
X166051742Y-96647491D01*
X166068536Y-96715312D01*
X166045998Y-96781447D01*
X166000946Y-96820484D01*
X165992182Y-96824949D01*
X165820213Y-96949890D01*
X165669890Y-97100213D01*
X165544951Y-97272179D01*
X165448444Y-97461585D01*
X165382753Y-97663760D01*
X165350130Y-97869735D01*
X165349500Y-97873713D01*
X165349500Y-98086287D01*
X165350184Y-98090606D01*
X165381748Y-98289896D01*
X165382754Y-98296243D01*
X165430595Y-98443483D01*
X165448444Y-98498414D01*
X165544951Y-98687820D01*
X165669890Y-98859786D01*
X165820213Y-99010109D01*
X165992182Y-99135050D01*
X166000946Y-99139516D01*
X166051742Y-99187491D01*
X166068536Y-99255312D01*
X166045998Y-99321447D01*
X166000946Y-99360484D01*
X165992182Y-99364949D01*
X165820213Y-99489890D01*
X165669890Y-99640213D01*
X165544951Y-99812179D01*
X165448444Y-100001585D01*
X165382753Y-100203760D01*
X165373942Y-100259394D01*
X165349500Y-100413713D01*
X165349500Y-100626287D01*
X165359534Y-100689644D01*
X165381748Y-100829896D01*
X165382754Y-100836243D01*
X165445334Y-101028844D01*
X165448444Y-101038414D01*
X165544951Y-101227820D01*
X165669890Y-101399786D01*
X165820213Y-101550109D01*
X165992182Y-101675050D01*
X166000946Y-101679516D01*
X166051742Y-101727491D01*
X166068536Y-101795312D01*
X166045998Y-101861447D01*
X166000946Y-101900484D01*
X165992182Y-101904949D01*
X165820213Y-102029890D01*
X165669890Y-102180213D01*
X165544951Y-102352179D01*
X165448444Y-102541585D01*
X165382753Y-102743760D01*
X165365400Y-102853325D01*
X165349500Y-102953713D01*
X165349500Y-103166287D01*
X165382754Y-103376243D01*
X165423656Y-103502127D01*
X165448444Y-103578414D01*
X165544951Y-103767820D01*
X165669890Y-103939786D01*
X165820213Y-104090109D01*
X165992179Y-104215048D01*
X165992181Y-104215049D01*
X165992184Y-104215051D01*
X166181588Y-104311557D01*
X166383757Y-104377246D01*
X166593713Y-104410500D01*
X166593714Y-104410500D01*
X166806286Y-104410500D01*
X166806287Y-104410500D01*
X167016243Y-104377246D01*
X167218412Y-104311557D01*
X167407816Y-104215051D01*
X167575816Y-104092993D01*
X167579786Y-104090109D01*
X167579788Y-104090106D01*
X167579792Y-104090104D01*
X167730104Y-103939792D01*
X167730106Y-103939788D01*
X167730109Y-103939786D01*
X167855048Y-103767820D01*
X167855047Y-103767820D01*
X167855051Y-103767816D01*
X167951557Y-103578412D01*
X168017246Y-103376243D01*
X168050500Y-103166287D01*
X168050500Y-102953713D01*
X168017246Y-102743757D01*
X167951557Y-102541588D01*
X167855051Y-102352184D01*
X167855049Y-102352181D01*
X167855048Y-102352179D01*
X167730109Y-102180213D01*
X167579786Y-102029890D01*
X167407820Y-101904951D01*
X167407115Y-101904591D01*
X167399054Y-101900485D01*
X167348259Y-101852512D01*
X167331463Y-101784692D01*
X167353999Y-101718556D01*
X167399054Y-101679515D01*
X167407816Y-101675051D01*
X167429789Y-101659086D01*
X167579786Y-101550109D01*
X167579788Y-101550106D01*
X167579792Y-101550104D01*
X167730104Y-101399792D01*
X167730106Y-101399788D01*
X167730109Y-101399786D01*
X167850921Y-101233501D01*
X167855051Y-101227816D01*
X167951557Y-101038412D01*
X168017246Y-100836243D01*
X168050500Y-100626287D01*
X168050500Y-100413713D01*
X168017246Y-100203757D01*
X167951557Y-100001588D01*
X167855051Y-99812184D01*
X167855049Y-99812181D01*
X167855048Y-99812179D01*
X167730109Y-99640213D01*
X167579786Y-99489890D01*
X167407820Y-99364951D01*
X167407115Y-99364591D01*
X167399054Y-99360485D01*
X167348259Y-99312512D01*
X167331463Y-99244692D01*
X167353999Y-99178556D01*
X167399054Y-99139515D01*
X167407816Y-99135051D01*
X167491798Y-99074035D01*
X167579786Y-99010109D01*
X167579788Y-99010106D01*
X167579792Y-99010104D01*
X167730104Y-98859792D01*
X167730106Y-98859788D01*
X167730109Y-98859786D01*
X167855048Y-98687820D01*
X167855047Y-98687820D01*
X167855051Y-98687816D01*
X167951557Y-98498412D01*
X168017246Y-98296243D01*
X168050500Y-98086287D01*
X168050500Y-97873713D01*
X168017246Y-97663757D01*
X167951557Y-97461588D01*
X167855051Y-97272184D01*
X167855049Y-97272181D01*
X167855048Y-97272179D01*
X167730109Y-97100213D01*
X167579786Y-96949890D01*
X167407820Y-96824951D01*
X167407115Y-96824591D01*
X167399054Y-96820485D01*
X167348259Y-96772512D01*
X167331463Y-96704692D01*
X167353999Y-96638556D01*
X167399054Y-96599515D01*
X167407816Y-96595051D01*
X167550771Y-96491189D01*
X167579786Y-96470109D01*
X167579788Y-96470106D01*
X167579792Y-96470104D01*
X167730104Y-96319792D01*
X167730106Y-96319788D01*
X167730109Y-96319786D01*
X167855048Y-96147820D01*
X167855047Y-96147820D01*
X167855051Y-96147816D01*
X167951557Y-95958412D01*
X168017246Y-95756243D01*
X168050500Y-95546287D01*
X168050500Y-95333713D01*
X168017246Y-95123757D01*
X167951557Y-94921588D01*
X167855051Y-94732184D01*
X167855049Y-94732181D01*
X167855048Y-94732179D01*
X167730109Y-94560213D01*
X167579786Y-94409890D01*
X167407820Y-94284951D01*
X167407115Y-94284591D01*
X167399054Y-94280485D01*
X167348259Y-94232512D01*
X167331463Y-94164692D01*
X167353999Y-94098556D01*
X167399054Y-94059515D01*
X167407816Y-94055051D01*
X167482901Y-94000499D01*
X167579786Y-93930109D01*
X167579788Y-93930106D01*
X167579792Y-93930104D01*
X167730104Y-93779792D01*
X167730107Y-93779787D01*
X167730114Y-93779780D01*
X167855048Y-93607820D01*
X167855047Y-93607820D01*
X167855051Y-93607816D01*
X167951557Y-93418412D01*
X168017246Y-93216243D01*
X168050500Y-93006287D01*
X168050500Y-92793713D01*
X168017246Y-92583757D01*
X167951557Y-92381588D01*
X167855051Y-92192184D01*
X167855049Y-92192181D01*
X167855048Y-92192179D01*
X167730109Y-92020213D01*
X167631049Y-91921153D01*
X169399500Y-91921153D01*
X169399500Y-92078846D01*
X169430261Y-92233489D01*
X169430264Y-92233501D01*
X169490602Y-92379172D01*
X169490609Y-92379185D01*
X169578210Y-92510288D01*
X169578213Y-92510292D01*
X169689707Y-92621786D01*
X169689711Y-92621789D01*
X169820814Y-92709390D01*
X169820827Y-92709397D01*
X169966498Y-92769735D01*
X169966503Y-92769737D01*
X170087038Y-92793713D01*
X170121153Y-92800499D01*
X170121156Y-92800500D01*
X170121158Y-92800500D01*
X170278844Y-92800500D01*
X170278845Y-92800499D01*
X170433497Y-92769737D01*
X170579179Y-92709394D01*
X170710289Y-92621789D01*
X170821789Y-92510289D01*
X170909394Y-92379179D01*
X170912632Y-92371363D01*
X170969735Y-92233501D01*
X170969737Y-92233497D01*
X171000500Y-92078842D01*
X171000500Y-91921158D01*
X171000500Y-91921155D01*
X171000499Y-91921153D01*
X170981319Y-91824728D01*
X170969737Y-91766503D01*
X170969735Y-91766498D01*
X170909397Y-91620827D01*
X170909390Y-91620814D01*
X170821789Y-91489711D01*
X170821786Y-91489707D01*
X170710292Y-91378213D01*
X170710288Y-91378210D01*
X170579185Y-91290609D01*
X170579172Y-91290602D01*
X170433501Y-91230264D01*
X170433489Y-91230261D01*
X170278845Y-91199500D01*
X170278842Y-91199500D01*
X170121158Y-91199500D01*
X170121155Y-91199500D01*
X169966510Y-91230261D01*
X169966498Y-91230264D01*
X169820827Y-91290602D01*
X169820814Y-91290609D01*
X169689711Y-91378210D01*
X169689707Y-91378213D01*
X169578213Y-91489707D01*
X169578210Y-91489711D01*
X169490609Y-91620814D01*
X169490602Y-91620827D01*
X169430264Y-91766498D01*
X169430261Y-91766510D01*
X169399500Y-91921153D01*
X167631049Y-91921153D01*
X167579786Y-91869890D01*
X167407820Y-91744951D01*
X167407115Y-91744591D01*
X167399054Y-91740485D01*
X167348259Y-91692512D01*
X167331463Y-91624692D01*
X167353999Y-91558556D01*
X167399054Y-91519515D01*
X167407816Y-91515051D01*
X167442699Y-91489707D01*
X167579786Y-91390109D01*
X167579788Y-91390106D01*
X167579792Y-91390104D01*
X167730104Y-91239792D01*
X167730106Y-91239788D01*
X167730109Y-91239786D01*
X167855048Y-91067820D01*
X167855047Y-91067820D01*
X167855051Y-91067816D01*
X167951557Y-90878412D01*
X168017246Y-90676243D01*
X168050500Y-90466287D01*
X168050500Y-90253713D01*
X168017246Y-90043757D01*
X167951557Y-89841588D01*
X167855051Y-89652184D01*
X167855049Y-89652181D01*
X167855048Y-89652179D01*
X167730109Y-89480213D01*
X167616569Y-89366673D01*
X167583084Y-89305350D01*
X167588068Y-89235658D01*
X167629940Y-89179725D01*
X167660915Y-89162810D01*
X167792331Y-89113796D01*
X167907546Y-89027546D01*
X167993796Y-88912331D01*
X168044091Y-88777483D01*
X168050500Y-88717873D01*
X168050499Y-86922128D01*
X168044091Y-86862517D01*
X167993796Y-86727669D01*
X167993795Y-86727668D01*
X167993793Y-86727664D01*
X167907547Y-86612455D01*
X167907544Y-86612452D01*
X167792335Y-86526206D01*
X167792328Y-86526202D01*
X167657482Y-86475908D01*
X167657483Y-86475908D01*
X167597883Y-86469501D01*
X167597881Y-86469500D01*
X167597873Y-86469500D01*
X167597864Y-86469500D01*
X165802129Y-86469500D01*
X165802123Y-86469501D01*
X165742516Y-86475908D01*
X165607671Y-86526202D01*
X165607664Y-86526206D01*
X165492455Y-86612452D01*
X165492452Y-86612455D01*
X165406206Y-86727664D01*
X165406202Y-86727671D01*
X165355908Y-86862517D01*
X165351608Y-86902516D01*
X165349501Y-86922123D01*
X165349500Y-86922135D01*
X146809939Y-86922135D01*
X146809397Y-86920827D01*
X146809390Y-86920814D01*
X146721789Y-86789711D01*
X146721786Y-86789707D01*
X146610292Y-86678213D01*
X146610288Y-86678210D01*
X146479185Y-86590609D01*
X146479172Y-86590602D01*
X146333501Y-86530264D01*
X146333489Y-86530261D01*
X146178845Y-86499500D01*
X146178842Y-86499500D01*
X146021158Y-86499500D01*
X146021155Y-86499500D01*
X145866510Y-86530261D01*
X145866498Y-86530264D01*
X145720827Y-86590602D01*
X145720814Y-86590609D01*
X145589711Y-86678210D01*
X145589707Y-86678213D01*
X145478213Y-86789707D01*
X145478210Y-86789711D01*
X145390609Y-86920814D01*
X145390602Y-86920827D01*
X145330264Y-87066498D01*
X145330261Y-87066510D01*
X145299500Y-87221153D01*
X137050499Y-87221153D01*
X137050499Y-86962128D01*
X137044091Y-86902517D01*
X136993796Y-86767669D01*
X136993795Y-86767668D01*
X136993793Y-86767664D01*
X136907547Y-86652455D01*
X136907544Y-86652452D01*
X136792335Y-86566206D01*
X136792328Y-86566202D01*
X136657482Y-86515908D01*
X136657483Y-86515908D01*
X136597883Y-86509501D01*
X136597881Y-86509500D01*
X136597873Y-86509500D01*
X136597864Y-86509500D01*
X134802129Y-86509500D01*
X134802123Y-86509501D01*
X134742516Y-86515908D01*
X134607671Y-86566202D01*
X134607664Y-86566206D01*
X134492455Y-86652452D01*
X134492452Y-86652455D01*
X134406206Y-86767664D01*
X134406202Y-86767671D01*
X134355908Y-86902517D01*
X134349501Y-86962116D01*
X134349501Y-86962123D01*
X134349500Y-86962135D01*
X110100500Y-86962135D01*
X110100500Y-85020000D01*
X111175138Y-85020000D01*
X111978012Y-85020000D01*
X111960795Y-85029940D01*
X111904940Y-85085795D01*
X111865444Y-85154204D01*
X111845000Y-85230504D01*
X111845000Y-85309496D01*
X111865444Y-85385796D01*
X111904940Y-85454205D01*
X111960795Y-85510060D01*
X111978012Y-85520000D01*
X111175138Y-85520000D01*
X111183430Y-85561690D01*
X111183430Y-85561692D01*
X111258807Y-85743671D01*
X111258814Y-85743684D01*
X111368248Y-85907462D01*
X111368251Y-85907466D01*
X111507533Y-86046748D01*
X111507537Y-86046751D01*
X111671315Y-86156185D01*
X111671328Y-86156192D01*
X111853306Y-86231569D01*
X111853318Y-86231572D01*
X112046504Y-86269999D01*
X112046508Y-86270000D01*
X112295000Y-86270000D01*
X112295000Y-85570000D01*
X112795000Y-85570000D01*
X112795000Y-86270000D01*
X113043492Y-86270000D01*
X113043495Y-86269999D01*
X113236681Y-86231572D01*
X113236693Y-86231569D01*
X113418671Y-86156192D01*
X113418684Y-86156185D01*
X113582462Y-86046751D01*
X113582466Y-86046748D01*
X113721748Y-85907466D01*
X113721751Y-85907462D01*
X113831185Y-85743684D01*
X113831192Y-85743671D01*
X113906569Y-85561692D01*
X113906569Y-85561690D01*
X113914862Y-85520000D01*
X113111988Y-85520000D01*
X113129205Y-85510060D01*
X113185060Y-85454205D01*
X113224556Y-85385796D01*
X113245000Y-85309496D01*
X113245000Y-85230504D01*
X113224556Y-85154204D01*
X113185060Y-85085795D01*
X113129205Y-85029940D01*
X113111988Y-85020000D01*
X113914862Y-85020000D01*
X115205138Y-85020000D01*
X116008012Y-85020000D01*
X115990795Y-85029940D01*
X115934940Y-85085795D01*
X115895444Y-85154204D01*
X115875000Y-85230504D01*
X115875000Y-85309496D01*
X115895444Y-85385796D01*
X115934940Y-85454205D01*
X115990795Y-85510060D01*
X116008012Y-85520000D01*
X115205138Y-85520000D01*
X115213430Y-85561690D01*
X115213430Y-85561692D01*
X115288807Y-85743671D01*
X115288814Y-85743684D01*
X115398248Y-85907462D01*
X115398251Y-85907466D01*
X115537533Y-86046748D01*
X115537537Y-86046751D01*
X115701315Y-86156185D01*
X115701328Y-86156192D01*
X115883306Y-86231569D01*
X115883318Y-86231572D01*
X116076504Y-86269999D01*
X116076508Y-86270000D01*
X116475000Y-86270000D01*
X116475000Y-85570000D01*
X116975000Y-85570000D01*
X116975000Y-86270000D01*
X117373492Y-86270000D01*
X117373495Y-86269999D01*
X117566681Y-86231572D01*
X117566693Y-86231569D01*
X117748671Y-86156192D01*
X117748684Y-86156185D01*
X117912462Y-86046751D01*
X117912466Y-86046748D01*
X118051748Y-85907466D01*
X118051751Y-85907462D01*
X118161185Y-85743684D01*
X118161192Y-85743671D01*
X118236569Y-85561692D01*
X118236569Y-85561690D01*
X118244862Y-85520000D01*
X117441988Y-85520000D01*
X117459205Y-85510060D01*
X117515060Y-85454205D01*
X117554556Y-85385796D01*
X117575000Y-85309496D01*
X117575000Y-85230504D01*
X117554556Y-85154204D01*
X117515060Y-85085795D01*
X117459205Y-85029940D01*
X117441988Y-85020000D01*
X118244862Y-85020000D01*
X118236569Y-84978309D01*
X118236569Y-84978307D01*
X118161192Y-84796328D01*
X118161185Y-84796315D01*
X118051751Y-84632537D01*
X118051748Y-84632533D01*
X117912466Y-84493251D01*
X117912462Y-84493248D01*
X117748684Y-84383814D01*
X117748671Y-84383807D01*
X117566693Y-84308430D01*
X117566681Y-84308427D01*
X117373495Y-84270000D01*
X116975000Y-84270000D01*
X116975000Y-84970000D01*
X116475000Y-84970000D01*
X116475000Y-84374049D01*
X116494685Y-84307010D01*
X116511870Y-84285820D01*
X116523203Y-84274627D01*
X116547665Y-84260505D01*
X116645505Y-84162665D01*
X116669472Y-84121153D01*
X144699500Y-84121153D01*
X144699500Y-84278846D01*
X144730261Y-84433489D01*
X144730264Y-84433501D01*
X144790602Y-84579172D01*
X144790609Y-84579185D01*
X144878210Y-84710288D01*
X144878213Y-84710292D01*
X144989707Y-84821786D01*
X144989711Y-84821789D01*
X145120814Y-84909390D01*
X145120827Y-84909397D01*
X145266498Y-84969735D01*
X145266503Y-84969737D01*
X145421153Y-85000499D01*
X145421156Y-85000500D01*
X145421158Y-85000500D01*
X145578844Y-85000500D01*
X145578845Y-85000499D01*
X145733497Y-84969737D01*
X145879179Y-84909394D01*
X146010289Y-84821789D01*
X146121789Y-84710289D01*
X146209394Y-84579179D01*
X146269737Y-84433497D01*
X146300500Y-84278842D01*
X146300500Y-84121158D01*
X146300500Y-84121155D01*
X146300499Y-84121153D01*
X146284921Y-84042838D01*
X146269737Y-83966503D01*
X146246080Y-83909390D01*
X146209397Y-83820827D01*
X146209390Y-83820814D01*
X146121789Y-83689711D01*
X146121786Y-83689707D01*
X146010292Y-83578213D01*
X146010288Y-83578210D01*
X145879185Y-83490609D01*
X145879172Y-83490602D01*
X145733501Y-83430264D01*
X145733489Y-83430261D01*
X145578845Y-83399500D01*
X145578842Y-83399500D01*
X145421158Y-83399500D01*
X145421155Y-83399500D01*
X145266510Y-83430261D01*
X145266498Y-83430264D01*
X145120827Y-83490602D01*
X145120814Y-83490609D01*
X144989711Y-83578210D01*
X144989707Y-83578213D01*
X144878213Y-83689707D01*
X144878210Y-83689711D01*
X144790609Y-83820814D01*
X144790602Y-83820827D01*
X144730264Y-83966498D01*
X144730261Y-83966510D01*
X144699500Y-84121153D01*
X116669472Y-84121153D01*
X116714688Y-84042836D01*
X116750500Y-83909183D01*
X116750500Y-83770817D01*
X116714688Y-83637164D01*
X116645505Y-83517335D01*
X116547665Y-83419495D01*
X116547664Y-83419494D01*
X116547661Y-83419492D01*
X116427838Y-83350313D01*
X116427837Y-83350312D01*
X116427836Y-83350312D01*
X116294183Y-83314500D01*
X116155817Y-83314500D01*
X116022164Y-83350312D01*
X116022161Y-83350313D01*
X115902338Y-83419492D01*
X115902333Y-83419496D01*
X115804496Y-83517333D01*
X115804492Y-83517338D01*
X115735313Y-83637161D01*
X115735312Y-83637164D01*
X115699500Y-83770817D01*
X115699500Y-83909183D01*
X115732808Y-84033489D01*
X115735312Y-84042835D01*
X115735313Y-84042838D01*
X115804492Y-84162661D01*
X115809441Y-84169110D01*
X115806813Y-84171125D01*
X115832911Y-84218919D01*
X115827927Y-84288611D01*
X115786055Y-84344544D01*
X115759197Y-84359838D01*
X115701328Y-84383807D01*
X115701315Y-84383814D01*
X115537537Y-84493248D01*
X115537533Y-84493251D01*
X115398251Y-84632533D01*
X115398248Y-84632537D01*
X115288814Y-84796315D01*
X115288807Y-84796328D01*
X115213430Y-84978307D01*
X115213430Y-84978309D01*
X115205138Y-85020000D01*
X113914862Y-85020000D01*
X113906569Y-84978309D01*
X113906569Y-84978307D01*
X113831192Y-84796328D01*
X113831185Y-84796315D01*
X113721751Y-84632537D01*
X113721748Y-84632533D01*
X113582466Y-84493251D01*
X113582462Y-84493248D01*
X113418684Y-84383814D01*
X113418671Y-84383807D01*
X113236693Y-84308430D01*
X113236681Y-84308427D01*
X113043495Y-84270000D01*
X112795000Y-84270000D01*
X112795000Y-84970000D01*
X112295000Y-84970000D01*
X112295000Y-84270000D01*
X112046504Y-84270000D01*
X111853318Y-84308427D01*
X111853306Y-84308430D01*
X111671328Y-84383807D01*
X111671315Y-84383814D01*
X111507537Y-84493248D01*
X111507533Y-84493251D01*
X111368251Y-84632533D01*
X111368248Y-84632537D01*
X111258814Y-84796315D01*
X111258807Y-84796328D01*
X111183430Y-84978307D01*
X111183430Y-84978309D01*
X111175138Y-85020000D01*
X110100500Y-85020000D01*
X110100500Y-82326153D01*
X118344500Y-82326153D01*
X118344500Y-82483846D01*
X118375261Y-82638489D01*
X118375264Y-82638501D01*
X118435602Y-82784172D01*
X118435609Y-82784185D01*
X118523210Y-82915288D01*
X118523213Y-82915292D01*
X118634707Y-83026786D01*
X118634711Y-83026789D01*
X118765814Y-83114390D01*
X118765827Y-83114397D01*
X118911498Y-83174735D01*
X118911503Y-83174737D01*
X119066153Y-83205499D01*
X119066156Y-83205500D01*
X119066158Y-83205500D01*
X119223844Y-83205500D01*
X119223845Y-83205499D01*
X119378497Y-83174737D01*
X119507849Y-83121158D01*
X119507861Y-83121153D01*
X141199500Y-83121153D01*
X141199500Y-83278846D01*
X141230261Y-83433489D01*
X141230264Y-83433501D01*
X141290602Y-83579172D01*
X141290609Y-83579185D01*
X141378210Y-83710288D01*
X141378213Y-83710292D01*
X141489707Y-83821786D01*
X141489711Y-83821789D01*
X141620814Y-83909390D01*
X141620827Y-83909397D01*
X141758683Y-83966498D01*
X141766503Y-83969737D01*
X141921153Y-84000499D01*
X141921156Y-84000500D01*
X141921158Y-84000500D01*
X142078844Y-84000500D01*
X142078845Y-84000499D01*
X142089179Y-83998443D01*
X142114287Y-83993450D01*
X142114292Y-83993449D01*
X142199800Y-83976439D01*
X142233497Y-83969737D01*
X142379179Y-83909394D01*
X142510289Y-83821789D01*
X142621789Y-83710289D01*
X142709394Y-83579179D01*
X142769737Y-83433497D01*
X142800500Y-83278842D01*
X142800500Y-83201153D01*
X162319500Y-83201153D01*
X162319500Y-83358846D01*
X162350261Y-83513489D01*
X162350264Y-83513501D01*
X162410602Y-83659172D01*
X162410609Y-83659185D01*
X162464500Y-83739838D01*
X162485378Y-83806516D01*
X162475959Y-83856181D01*
X162430264Y-83966498D01*
X162430261Y-83966510D01*
X162399500Y-84121153D01*
X162399500Y-84278846D01*
X162430261Y-84433489D01*
X162430264Y-84433501D01*
X162490602Y-84579172D01*
X162490609Y-84579185D01*
X162578210Y-84710288D01*
X162578213Y-84710292D01*
X162689707Y-84821786D01*
X162689711Y-84821789D01*
X162820814Y-84909390D01*
X162820827Y-84909397D01*
X162966498Y-84969735D01*
X162966503Y-84969737D01*
X163121153Y-85000499D01*
X163121156Y-85000500D01*
X163121158Y-85000500D01*
X163278844Y-85000500D01*
X163278845Y-85000499D01*
X163433497Y-84969737D01*
X163579179Y-84909394D01*
X163710289Y-84821789D01*
X163821789Y-84710289D01*
X163909394Y-84579179D01*
X163969737Y-84433497D01*
X164000500Y-84278842D01*
X164000500Y-84121158D01*
X164000500Y-84121155D01*
X164000499Y-84121153D01*
X163984921Y-84042838D01*
X163969737Y-83966503D01*
X163946080Y-83909390D01*
X163909397Y-83820827D01*
X163909389Y-83820813D01*
X163884763Y-83783958D01*
X163884762Y-83783957D01*
X163855498Y-83740161D01*
X163849546Y-83721153D01*
X174799500Y-83721153D01*
X174799500Y-83878846D01*
X174830261Y-84033489D01*
X174830264Y-84033501D01*
X174890602Y-84179172D01*
X174890609Y-84179185D01*
X174978210Y-84310288D01*
X174978213Y-84310292D01*
X175089707Y-84421786D01*
X175089711Y-84421789D01*
X175220814Y-84509390D01*
X175220827Y-84509397D01*
X175366498Y-84569735D01*
X175366503Y-84569737D01*
X175521153Y-84600499D01*
X175521156Y-84600500D01*
X175521158Y-84600500D01*
X175678844Y-84600500D01*
X175678845Y-84600499D01*
X175833497Y-84569737D01*
X175979179Y-84509394D01*
X176110289Y-84421789D01*
X176221789Y-84310289D01*
X176309394Y-84179179D01*
X176369737Y-84033497D01*
X176400500Y-83878842D01*
X176400500Y-83721158D01*
X176400500Y-83721155D01*
X176400499Y-83721153D01*
X176388173Y-83659185D01*
X176369737Y-83566503D01*
X176369735Y-83566498D01*
X176309397Y-83420827D01*
X176309390Y-83420814D01*
X176221789Y-83289711D01*
X176221786Y-83289707D01*
X176110292Y-83178213D01*
X176110288Y-83178210D01*
X175979185Y-83090609D01*
X175979172Y-83090602D01*
X175833501Y-83030264D01*
X175833489Y-83030261D01*
X175678845Y-82999500D01*
X175678842Y-82999500D01*
X175521158Y-82999500D01*
X175521155Y-82999500D01*
X175366510Y-83030261D01*
X175366498Y-83030264D01*
X175220827Y-83090602D01*
X175220814Y-83090609D01*
X175089711Y-83178210D01*
X175089707Y-83178213D01*
X174978213Y-83289707D01*
X174978210Y-83289711D01*
X174890609Y-83420814D01*
X174890602Y-83420827D01*
X174830264Y-83566498D01*
X174830261Y-83566510D01*
X174799500Y-83721153D01*
X163849546Y-83721153D01*
X163834621Y-83673485D01*
X163844039Y-83623821D01*
X163889737Y-83513497D01*
X163920500Y-83358842D01*
X163920500Y-83201158D01*
X163920500Y-83201155D01*
X163920499Y-83201153D01*
X163915936Y-83178213D01*
X163889737Y-83046503D01*
X163883010Y-83030263D01*
X163829397Y-82900827D01*
X163829390Y-82900814D01*
X163741789Y-82769711D01*
X163741786Y-82769707D01*
X163630292Y-82658213D01*
X163630288Y-82658210D01*
X163499185Y-82570609D01*
X163499172Y-82570602D01*
X163353501Y-82510264D01*
X163353489Y-82510261D01*
X163198845Y-82479500D01*
X163198842Y-82479500D01*
X163041158Y-82479500D01*
X163041155Y-82479500D01*
X162886510Y-82510261D01*
X162886498Y-82510264D01*
X162740827Y-82570602D01*
X162740814Y-82570609D01*
X162609711Y-82658210D01*
X162609707Y-82658213D01*
X162498213Y-82769707D01*
X162498210Y-82769711D01*
X162410609Y-82900814D01*
X162410602Y-82900827D01*
X162350264Y-83046498D01*
X162350261Y-83046510D01*
X162319500Y-83201153D01*
X142800500Y-83201153D01*
X142800500Y-83121158D01*
X142800500Y-83121155D01*
X142800499Y-83121153D01*
X142782419Y-83030261D01*
X142769737Y-82966503D01*
X142748523Y-82915288D01*
X142709397Y-82820827D01*
X142709390Y-82820814D01*
X142621789Y-82689711D01*
X142621786Y-82689707D01*
X142510292Y-82578213D01*
X142510288Y-82578210D01*
X142379185Y-82490609D01*
X142379172Y-82490602D01*
X142233501Y-82430264D01*
X142233489Y-82430261D01*
X142078845Y-82399500D01*
X142078842Y-82399500D01*
X141921158Y-82399500D01*
X141921155Y-82399500D01*
X141766510Y-82430261D01*
X141766498Y-82430264D01*
X141620827Y-82490602D01*
X141620814Y-82490609D01*
X141489711Y-82578210D01*
X141489707Y-82578213D01*
X141378213Y-82689707D01*
X141378210Y-82689711D01*
X141290609Y-82820814D01*
X141290602Y-82820827D01*
X141230264Y-82966498D01*
X141230261Y-82966510D01*
X141199500Y-83121153D01*
X119507861Y-83121153D01*
X119524172Y-83114397D01*
X119524172Y-83114396D01*
X119524179Y-83114394D01*
X119655289Y-83026789D01*
X119766789Y-82915289D01*
X119854394Y-82784179D01*
X119860389Y-82769707D01*
X119868067Y-82751166D01*
X119914737Y-82638497D01*
X119945500Y-82483842D01*
X119945500Y-82326158D01*
X119945500Y-82326155D01*
X119945499Y-82326153D01*
X119914738Y-82171510D01*
X119914737Y-82171503D01*
X119914735Y-82171498D01*
X119854397Y-82025827D01*
X119854390Y-82025814D01*
X119766789Y-81894711D01*
X119766786Y-81894707D01*
X119655292Y-81783213D01*
X119655288Y-81783210D01*
X119524185Y-81695609D01*
X119524172Y-81695602D01*
X119378501Y-81635264D01*
X119378489Y-81635261D01*
X119223845Y-81604500D01*
X119223842Y-81604500D01*
X119066158Y-81604500D01*
X119066155Y-81604500D01*
X118911510Y-81635261D01*
X118911498Y-81635264D01*
X118765827Y-81695602D01*
X118765814Y-81695609D01*
X118634711Y-81783210D01*
X118634707Y-81783213D01*
X118523213Y-81894707D01*
X118523210Y-81894711D01*
X118435609Y-82025814D01*
X118435602Y-82025827D01*
X118375264Y-82171498D01*
X118375261Y-82171510D01*
X118344500Y-82326153D01*
X110100500Y-82326153D01*
X110100500Y-79451153D01*
X118344500Y-79451153D01*
X118344500Y-79608846D01*
X118375261Y-79763489D01*
X118375264Y-79763501D01*
X118435602Y-79909172D01*
X118435609Y-79909185D01*
X118523210Y-80040288D01*
X118523213Y-80040292D01*
X118634707Y-80151786D01*
X118634711Y-80151789D01*
X118765814Y-80239390D01*
X118765827Y-80239397D01*
X118911498Y-80299735D01*
X118911503Y-80299737D01*
X119066153Y-80330499D01*
X119066156Y-80330500D01*
X119066158Y-80330500D01*
X119223844Y-80330500D01*
X119223845Y-80330499D01*
X119378497Y-80299737D01*
X119524179Y-80239394D01*
X119655289Y-80151789D01*
X119766789Y-80040289D01*
X119854394Y-79909179D01*
X119914737Y-79763497D01*
X119945500Y-79608842D01*
X119945500Y-79451158D01*
X119945500Y-79451155D01*
X119945499Y-79451153D01*
X119914738Y-79296510D01*
X119914737Y-79296503D01*
X119914735Y-79296498D01*
X119854397Y-79150827D01*
X119854390Y-79150814D01*
X119766789Y-79019711D01*
X119766786Y-79019707D01*
X119655292Y-78908213D01*
X119655288Y-78908210D01*
X119524185Y-78820609D01*
X119524172Y-78820602D01*
X119378501Y-78760264D01*
X119378489Y-78760261D01*
X119223845Y-78729500D01*
X119223842Y-78729500D01*
X119066158Y-78729500D01*
X119066155Y-78729500D01*
X118911510Y-78760261D01*
X118911498Y-78760264D01*
X118765827Y-78820602D01*
X118765814Y-78820609D01*
X118634711Y-78908210D01*
X118634707Y-78908213D01*
X118523213Y-79019707D01*
X118523210Y-79019711D01*
X118435609Y-79150814D01*
X118435602Y-79150827D01*
X118375264Y-79296498D01*
X118375261Y-79296510D01*
X118344500Y-79451153D01*
X110100500Y-79451153D01*
X110100500Y-76380000D01*
X111175138Y-76380000D01*
X111978012Y-76380000D01*
X111960795Y-76389940D01*
X111904940Y-76445795D01*
X111865444Y-76514204D01*
X111845000Y-76590504D01*
X111845000Y-76669496D01*
X111865444Y-76745796D01*
X111904940Y-76814205D01*
X111960795Y-76870060D01*
X111978012Y-76880000D01*
X111175138Y-76880000D01*
X111183430Y-76921690D01*
X111183430Y-76921692D01*
X111258807Y-77103671D01*
X111258814Y-77103684D01*
X111368248Y-77267462D01*
X111368251Y-77267466D01*
X111507533Y-77406748D01*
X111507537Y-77406751D01*
X111671315Y-77516185D01*
X111671328Y-77516192D01*
X111853306Y-77591569D01*
X111853318Y-77591572D01*
X112046504Y-77629999D01*
X112046508Y-77630000D01*
X112295000Y-77630000D01*
X112295000Y-76930000D01*
X112795000Y-76930000D01*
X112795000Y-77630000D01*
X113043492Y-77630000D01*
X113043495Y-77629999D01*
X113236681Y-77591572D01*
X113236693Y-77591569D01*
X113418671Y-77516192D01*
X113418684Y-77516185D01*
X113582462Y-77406751D01*
X113582466Y-77406748D01*
X113721748Y-77267466D01*
X113721751Y-77267462D01*
X113831185Y-77103684D01*
X113831192Y-77103671D01*
X113906569Y-76921692D01*
X113906569Y-76921690D01*
X113914862Y-76880000D01*
X113111988Y-76880000D01*
X113129205Y-76870060D01*
X113185060Y-76814205D01*
X113224556Y-76745796D01*
X113245000Y-76669496D01*
X113245000Y-76590504D01*
X113224556Y-76514204D01*
X113185060Y-76445795D01*
X113129205Y-76389940D01*
X113111988Y-76380000D01*
X113914862Y-76380000D01*
X115205138Y-76380000D01*
X116008012Y-76380000D01*
X115990795Y-76389940D01*
X115934940Y-76445795D01*
X115895444Y-76514204D01*
X115875000Y-76590504D01*
X115875000Y-76669496D01*
X115895444Y-76745796D01*
X115934940Y-76814205D01*
X115990795Y-76870060D01*
X116008012Y-76880000D01*
X115205138Y-76880000D01*
X115213430Y-76921690D01*
X115213430Y-76921692D01*
X115288807Y-77103671D01*
X115288814Y-77103684D01*
X115398248Y-77267462D01*
X115398251Y-77267466D01*
X115537533Y-77406748D01*
X115537537Y-77406751D01*
X115701315Y-77516185D01*
X115701322Y-77516189D01*
X115759196Y-77540160D01*
X115813600Y-77584000D01*
X115835666Y-77650294D01*
X115818388Y-77717994D01*
X115808774Y-77730378D01*
X115809441Y-77730890D01*
X115804492Y-77737338D01*
X115735313Y-77857161D01*
X115735312Y-77857164D01*
X115699500Y-77990817D01*
X115699500Y-78129182D01*
X115735312Y-78262835D01*
X115735313Y-78262838D01*
X115804492Y-78382661D01*
X115804494Y-78382664D01*
X115804495Y-78382665D01*
X115902335Y-78480505D01*
X116022164Y-78549688D01*
X116155817Y-78585500D01*
X116155819Y-78585500D01*
X116294181Y-78585500D01*
X116294183Y-78585500D01*
X116427836Y-78549688D01*
X116547665Y-78480505D01*
X116645505Y-78382665D01*
X116714688Y-78262836D01*
X116750500Y-78129183D01*
X116750500Y-77990817D01*
X116714688Y-77857164D01*
X116645505Y-77737335D01*
X116547665Y-77639495D01*
X116547664Y-77639494D01*
X116536999Y-77633337D01*
X116488784Y-77582769D01*
X116475000Y-77525950D01*
X116475000Y-76930000D01*
X116975000Y-76930000D01*
X116975000Y-77630000D01*
X117373492Y-77630000D01*
X117373495Y-77629999D01*
X117566681Y-77591572D01*
X117566693Y-77591569D01*
X117748671Y-77516192D01*
X117748684Y-77516185D01*
X117912462Y-77406751D01*
X117912466Y-77406748D01*
X118051748Y-77267466D01*
X118051751Y-77267462D01*
X118161185Y-77103684D01*
X118161192Y-77103671D01*
X118236569Y-76921692D01*
X118236569Y-76921690D01*
X118244862Y-76880000D01*
X117441988Y-76880000D01*
X117459205Y-76870060D01*
X117515060Y-76814205D01*
X117554556Y-76745796D01*
X117575000Y-76669496D01*
X117575000Y-76590504D01*
X117554556Y-76514204D01*
X117515060Y-76445795D01*
X117459205Y-76389940D01*
X117441988Y-76380000D01*
X118244862Y-76380000D01*
X118236569Y-76338309D01*
X118236569Y-76338307D01*
X118161192Y-76156328D01*
X118161185Y-76156315D01*
X118051751Y-75992537D01*
X118051748Y-75992533D01*
X117912466Y-75853251D01*
X117912462Y-75853248D01*
X117748684Y-75743814D01*
X117748671Y-75743807D01*
X117566693Y-75668430D01*
X117566681Y-75668427D01*
X117373495Y-75630000D01*
X116975000Y-75630000D01*
X116975000Y-76330000D01*
X116475000Y-76330000D01*
X116475000Y-75630000D01*
X116076504Y-75630000D01*
X115883318Y-75668427D01*
X115883306Y-75668430D01*
X115701328Y-75743807D01*
X115701315Y-75743814D01*
X115537537Y-75853248D01*
X115537533Y-75853251D01*
X115398251Y-75992533D01*
X115398248Y-75992537D01*
X115288814Y-76156315D01*
X115288807Y-76156328D01*
X115213430Y-76338307D01*
X115213430Y-76338309D01*
X115205138Y-76380000D01*
X113914862Y-76380000D01*
X113906569Y-76338309D01*
X113906569Y-76338307D01*
X113831192Y-76156328D01*
X113831185Y-76156315D01*
X113721751Y-75992537D01*
X113721748Y-75992533D01*
X113582466Y-75853251D01*
X113582462Y-75853248D01*
X113418684Y-75743814D01*
X113418671Y-75743807D01*
X113236693Y-75668430D01*
X113236681Y-75668427D01*
X113043495Y-75630000D01*
X112795000Y-75630000D01*
X112795000Y-76330000D01*
X112295000Y-76330000D01*
X112295000Y-75630000D01*
X112046504Y-75630000D01*
X111853318Y-75668427D01*
X111853306Y-75668430D01*
X111671328Y-75743807D01*
X111671315Y-75743814D01*
X111507537Y-75853248D01*
X111507533Y-75853251D01*
X111368251Y-75992533D01*
X111368248Y-75992537D01*
X111258814Y-76156315D01*
X111258807Y-76156328D01*
X111183430Y-76338307D01*
X111183430Y-76338309D01*
X111175138Y-76380000D01*
X110100500Y-76380000D01*
X110100500Y-76003750D01*
X110100726Y-75996263D01*
X110109110Y-75857664D01*
X110118271Y-75706201D01*
X110120076Y-75691340D01*
X110124275Y-75668430D01*
X110171780Y-75409197D01*
X110175364Y-75394663D01*
X110252096Y-75148422D01*
X110260696Y-75120822D01*
X110265998Y-75106841D01*
X110383731Y-74845249D01*
X110390676Y-74832016D01*
X110539080Y-74586526D01*
X110547567Y-74574230D01*
X110724480Y-74348417D01*
X110734395Y-74337226D01*
X110937226Y-74134395D01*
X110948417Y-74124480D01*
X111174230Y-73947567D01*
X111186526Y-73939080D01*
X111432016Y-73790676D01*
X111445249Y-73783731D01*
X111706841Y-73665998D01*
X111720822Y-73660696D01*
X111994668Y-73575362D01*
X112009197Y-73571780D01*
X112291344Y-73520075D01*
X112306201Y-73518271D01*
X112596264Y-73500726D01*
X112603751Y-73500500D01*
X113742865Y-73500500D01*
X113783091Y-73507206D01*
X138400000Y-81950000D01*
X167300000Y-81850000D01*
X171055196Y-76889778D01*
X175599500Y-76889778D01*
X175599500Y-77110221D01*
X175633985Y-77327952D01*
X175702103Y-77537603D01*
X175702104Y-77537606D01*
X175759523Y-77650294D01*
X175800589Y-77730890D01*
X175802187Y-77734025D01*
X175931752Y-77912358D01*
X175931756Y-77912363D01*
X176087636Y-78068243D01*
X176087641Y-78068247D01*
X176189606Y-78142328D01*
X176265978Y-78197815D01*
X176393586Y-78262835D01*
X176462393Y-78297895D01*
X176462396Y-78297896D01*
X176567221Y-78331955D01*
X176672049Y-78366015D01*
X176889778Y-78400500D01*
X176889779Y-78400500D01*
X177110221Y-78400500D01*
X177110222Y-78400500D01*
X177327951Y-78366015D01*
X177537606Y-78297895D01*
X177734022Y-78197815D01*
X177912365Y-78068242D01*
X177962536Y-78018070D01*
X178023857Y-77984586D01*
X178093548Y-77989570D01*
X178149482Y-78031441D01*
X178166398Y-78062419D01*
X178196202Y-78142328D01*
X178196206Y-78142335D01*
X178282452Y-78257544D01*
X178282455Y-78257547D01*
X178397664Y-78343793D01*
X178397671Y-78343797D01*
X178532517Y-78394091D01*
X178532516Y-78394091D01*
X178539444Y-78394835D01*
X178592127Y-78400500D01*
X180487872Y-78400499D01*
X180547483Y-78394091D01*
X180682331Y-78343796D01*
X180797546Y-78257546D01*
X180883796Y-78142331D01*
X180934091Y-78007483D01*
X180940500Y-77947873D01*
X180940499Y-76889778D01*
X186059500Y-76889778D01*
X186059500Y-77110221D01*
X186093985Y-77327952D01*
X186162103Y-77537603D01*
X186162104Y-77537606D01*
X186219523Y-77650294D01*
X186260589Y-77730890D01*
X186262187Y-77734025D01*
X186391752Y-77912358D01*
X186391756Y-77912363D01*
X186547636Y-78068243D01*
X186547641Y-78068247D01*
X186649606Y-78142328D01*
X186725978Y-78197815D01*
X186853586Y-78262835D01*
X186922393Y-78297895D01*
X186922396Y-78297896D01*
X187027221Y-78331955D01*
X187132049Y-78366015D01*
X187349778Y-78400500D01*
X187349779Y-78400500D01*
X187570221Y-78400500D01*
X187570222Y-78400500D01*
X187787951Y-78366015D01*
X187997606Y-78297895D01*
X188194022Y-78197815D01*
X188372365Y-78068242D01*
X188422536Y-78018070D01*
X188483857Y-77984586D01*
X188553548Y-77989570D01*
X188609482Y-78031441D01*
X188626398Y-78062419D01*
X188656202Y-78142328D01*
X188656206Y-78142335D01*
X188742452Y-78257544D01*
X188742455Y-78257547D01*
X188857664Y-78343793D01*
X188857671Y-78343797D01*
X188992517Y-78394091D01*
X188992516Y-78394091D01*
X188999444Y-78394835D01*
X189052127Y-78400500D01*
X190947872Y-78400499D01*
X191007483Y-78394091D01*
X191142331Y-78343796D01*
X191257546Y-78257546D01*
X191343796Y-78142331D01*
X191394091Y-78007483D01*
X191400500Y-77947873D01*
X191400499Y-76052128D01*
X191394091Y-75992517D01*
X191373601Y-75937581D01*
X191343797Y-75857671D01*
X191343793Y-75857664D01*
X191257547Y-75742455D01*
X191257544Y-75742452D01*
X191142335Y-75656206D01*
X191142328Y-75656202D01*
X191007482Y-75605908D01*
X191007483Y-75605908D01*
X190947883Y-75599501D01*
X190947881Y-75599500D01*
X190947873Y-75599500D01*
X190947864Y-75599500D01*
X189052129Y-75599500D01*
X189052123Y-75599501D01*
X188992516Y-75605908D01*
X188857671Y-75656202D01*
X188857664Y-75656206D01*
X188742455Y-75742452D01*
X188742452Y-75742455D01*
X188656206Y-75857664D01*
X188656203Y-75857669D01*
X188626398Y-75937581D01*
X188584526Y-75993514D01*
X188519062Y-76017931D01*
X188450789Y-76003079D01*
X188422535Y-75981928D01*
X188372363Y-75931756D01*
X188372358Y-75931752D01*
X188194025Y-75802187D01*
X188194024Y-75802186D01*
X188194022Y-75802185D01*
X188079464Y-75743814D01*
X187997606Y-75702104D01*
X187997603Y-75702103D01*
X187787952Y-75633985D01*
X187679086Y-75616742D01*
X187570222Y-75599500D01*
X187349778Y-75599500D01*
X187277201Y-75610995D01*
X187132047Y-75633985D01*
X186922396Y-75702103D01*
X186922393Y-75702104D01*
X186725974Y-75802187D01*
X186547641Y-75931752D01*
X186547636Y-75931756D01*
X186391756Y-76087636D01*
X186391752Y-76087641D01*
X186262187Y-76265974D01*
X186162104Y-76462393D01*
X186162103Y-76462396D01*
X186093985Y-76672047D01*
X186059500Y-76889778D01*
X180940499Y-76889778D01*
X180940499Y-76052128D01*
X180934091Y-75992517D01*
X180913601Y-75937581D01*
X180883797Y-75857671D01*
X180883793Y-75857664D01*
X180797547Y-75742455D01*
X180797544Y-75742452D01*
X180682335Y-75656206D01*
X180682328Y-75656202D01*
X180547482Y-75605908D01*
X180547483Y-75605908D01*
X180487883Y-75599501D01*
X180487881Y-75599500D01*
X180487873Y-75599500D01*
X180487864Y-75599500D01*
X178592129Y-75599500D01*
X178592123Y-75599501D01*
X178532516Y-75605908D01*
X178397671Y-75656202D01*
X178397664Y-75656206D01*
X178282455Y-75742452D01*
X178282452Y-75742455D01*
X178196206Y-75857664D01*
X178196203Y-75857669D01*
X178166398Y-75937581D01*
X178124526Y-75993514D01*
X178059062Y-76017931D01*
X177990789Y-76003079D01*
X177962535Y-75981928D01*
X177912363Y-75931756D01*
X177912358Y-75931752D01*
X177734025Y-75802187D01*
X177734024Y-75802186D01*
X177734022Y-75802185D01*
X177619464Y-75743814D01*
X177537606Y-75702104D01*
X177537603Y-75702103D01*
X177327952Y-75633985D01*
X177219086Y-75616742D01*
X177110222Y-75599500D01*
X176889778Y-75599500D01*
X176817201Y-75610995D01*
X176672047Y-75633985D01*
X176462396Y-75702103D01*
X176462393Y-75702104D01*
X176265974Y-75802187D01*
X176087641Y-75931752D01*
X176087636Y-75931756D01*
X175931756Y-76087636D01*
X175931752Y-76087641D01*
X175802187Y-76265974D01*
X175702104Y-76462393D01*
X175702103Y-76462396D01*
X175633985Y-76672047D01*
X175599500Y-76889778D01*
X171055196Y-76889778D01*
X173962873Y-73049040D01*
X174019030Y-73007474D01*
X174061506Y-72999888D01*
X186696772Y-72977040D01*
X186763844Y-72996603D01*
G37*
%TD.AperFunction*%
%TA.AperFunction,Conductor*%
G36*
X112901444Y-102513999D02*
G01*
X112940486Y-102559056D01*
X112944951Y-102567820D01*
X113069890Y-102739786D01*
X113220213Y-102890109D01*
X113392179Y-103015048D01*
X113392181Y-103015049D01*
X113392184Y-103015051D01*
X113401493Y-103019794D01*
X113452290Y-103067766D01*
X113469087Y-103135587D01*
X113446552Y-103201722D01*
X113401505Y-103240760D01*
X113392446Y-103245376D01*
X113392440Y-103245380D01*
X113338282Y-103284727D01*
X113338282Y-103284728D01*
X113970591Y-103917037D01*
X113907007Y-103934075D01*
X113792993Y-103999901D01*
X113699901Y-104092993D01*
X113634075Y-104207007D01*
X113617037Y-104270591D01*
X112946818Y-103600372D01*
X112913333Y-103539049D01*
X112910499Y-103512691D01*
X112910499Y-103502129D01*
X112910498Y-103502123D01*
X112904091Y-103442516D01*
X112853797Y-103307671D01*
X112853793Y-103307664D01*
X112767547Y-103192455D01*
X112767544Y-103192452D01*
X112652335Y-103106206D01*
X112652328Y-103106202D01*
X112520917Y-103057189D01*
X112464983Y-103015318D01*
X112440566Y-102949853D01*
X112455418Y-102881580D01*
X112476563Y-102853332D01*
X112590104Y-102739792D01*
X112715051Y-102567816D01*
X112719514Y-102559054D01*
X112767488Y-102508259D01*
X112835308Y-102491463D01*
X112901444Y-102513999D01*
G37*
%TD.AperFunction*%
%TD*%
M02*
