%TF.GenerationSoftware,KiCad,Pcbnew,9.0.6*%
%TF.CreationDate,2026-06-26T23:27:14-07:00*%
%TF.ProjectId,convention_badge_pcb_v2,636f6e76-656e-4746-996f-6e5f62616467,rev?*%
%TF.SameCoordinates,Original*%
%TF.FileFunction,Legend,Top*%
%TF.FilePolarity,Positive*%
%FSLAX46Y46*%
G04 Gerber Fmt 4.6, Leading zero omitted, Abs format (unit mm)*
G04 Created by KiCad (PCBNEW 9.0.6) date 2026-06-26 23:27:14*
%MOMM*%
%LPD*%
G01*
G04 APERTURE LIST*
%ADD10C,0.300000*%
%ADD11C,0.150000*%
%ADD12C,0.000000*%
%ADD13C,0.100000*%
%ADD14C,0.120000*%
G04 APERTURE END LIST*
D10*
X143678572Y-76649757D02*
X143535715Y-76578328D01*
X143535715Y-76578328D02*
X143321429Y-76578328D01*
X143321429Y-76578328D02*
X143107143Y-76649757D01*
X143107143Y-76649757D02*
X142964286Y-76792614D01*
X142964286Y-76792614D02*
X142892857Y-76935471D01*
X142892857Y-76935471D02*
X142821429Y-77221185D01*
X142821429Y-77221185D02*
X142821429Y-77435471D01*
X142821429Y-77435471D02*
X142892857Y-77721185D01*
X142892857Y-77721185D02*
X142964286Y-77864042D01*
X142964286Y-77864042D02*
X143107143Y-78006900D01*
X143107143Y-78006900D02*
X143321429Y-78078328D01*
X143321429Y-78078328D02*
X143464286Y-78078328D01*
X143464286Y-78078328D02*
X143678572Y-78006900D01*
X143678572Y-78006900D02*
X143750000Y-77935471D01*
X143750000Y-77935471D02*
X143750000Y-77435471D01*
X143750000Y-77435471D02*
X143464286Y-77435471D01*
X144607143Y-76578328D02*
X144607143Y-76935471D01*
X144250000Y-76792614D02*
X144607143Y-76935471D01*
X144607143Y-76935471D02*
X144964286Y-76792614D01*
X144392857Y-77221185D02*
X144607143Y-76935471D01*
X144607143Y-76935471D02*
X144821429Y-77221185D01*
X145750000Y-76578328D02*
X145750000Y-76935471D01*
X145392857Y-76792614D02*
X145750000Y-76935471D01*
X145750000Y-76935471D02*
X146107143Y-76792614D01*
X145535714Y-77221185D02*
X145750000Y-76935471D01*
X145750000Y-76935471D02*
X145964286Y-77221185D01*
X146892857Y-76578328D02*
X146892857Y-76935471D01*
X146535714Y-76792614D02*
X146892857Y-76935471D01*
X146892857Y-76935471D02*
X147250000Y-76792614D01*
X146678571Y-77221185D02*
X146892857Y-76935471D01*
X146892857Y-76935471D02*
X147107143Y-77221185D01*
D11*
X110877619Y-94854819D02*
X110877619Y-93854819D01*
X110877619Y-93854819D02*
X111115714Y-93854819D01*
X111115714Y-93854819D02*
X111258571Y-93902438D01*
X111258571Y-93902438D02*
X111353809Y-93997676D01*
X111353809Y-93997676D02*
X111401428Y-94092914D01*
X111401428Y-94092914D02*
X111449047Y-94283390D01*
X111449047Y-94283390D02*
X111449047Y-94426247D01*
X111449047Y-94426247D02*
X111401428Y-94616723D01*
X111401428Y-94616723D02*
X111353809Y-94711961D01*
X111353809Y-94711961D02*
X111258571Y-94807200D01*
X111258571Y-94807200D02*
X111115714Y-94854819D01*
X111115714Y-94854819D02*
X110877619Y-94854819D01*
X111877619Y-94854819D02*
X111877619Y-93854819D01*
X112306190Y-94807200D02*
X112449047Y-94854819D01*
X112449047Y-94854819D02*
X112687142Y-94854819D01*
X112687142Y-94854819D02*
X112782380Y-94807200D01*
X112782380Y-94807200D02*
X112829999Y-94759580D01*
X112829999Y-94759580D02*
X112877618Y-94664342D01*
X112877618Y-94664342D02*
X112877618Y-94569104D01*
X112877618Y-94569104D02*
X112829999Y-94473866D01*
X112829999Y-94473866D02*
X112782380Y-94426247D01*
X112782380Y-94426247D02*
X112687142Y-94378628D01*
X112687142Y-94378628D02*
X112496666Y-94331009D01*
X112496666Y-94331009D02*
X112401428Y-94283390D01*
X112401428Y-94283390D02*
X112353809Y-94235771D01*
X112353809Y-94235771D02*
X112306190Y-94140533D01*
X112306190Y-94140533D02*
X112306190Y-94045295D01*
X112306190Y-94045295D02*
X112353809Y-93950057D01*
X112353809Y-93950057D02*
X112401428Y-93902438D01*
X112401428Y-93902438D02*
X112496666Y-93854819D01*
X112496666Y-93854819D02*
X112734761Y-93854819D01*
X112734761Y-93854819D02*
X112877618Y-93902438D01*
X113306190Y-94854819D02*
X113306190Y-93854819D01*
X113306190Y-93854819D02*
X113687142Y-93854819D01*
X113687142Y-93854819D02*
X113782380Y-93902438D01*
X113782380Y-93902438D02*
X113829999Y-93950057D01*
X113829999Y-93950057D02*
X113877618Y-94045295D01*
X113877618Y-94045295D02*
X113877618Y-94188152D01*
X113877618Y-94188152D02*
X113829999Y-94283390D01*
X113829999Y-94283390D02*
X113782380Y-94331009D01*
X113782380Y-94331009D02*
X113687142Y-94378628D01*
X113687142Y-94378628D02*
X113306190Y-94378628D01*
X114829999Y-94854819D02*
X114258571Y-94854819D01*
X114544285Y-94854819D02*
X114544285Y-93854819D01*
X114544285Y-93854819D02*
X114449047Y-93997676D01*
X114449047Y-93997676D02*
X114353809Y-94092914D01*
X114353809Y-94092914D02*
X114258571Y-94140533D01*
X153166667Y-123357200D02*
X153309524Y-123404819D01*
X153309524Y-123404819D02*
X153547619Y-123404819D01*
X153547619Y-123404819D02*
X153642857Y-123357200D01*
X153642857Y-123357200D02*
X153690476Y-123309580D01*
X153690476Y-123309580D02*
X153738095Y-123214342D01*
X153738095Y-123214342D02*
X153738095Y-123119104D01*
X153738095Y-123119104D02*
X153690476Y-123023866D01*
X153690476Y-123023866D02*
X153642857Y-122976247D01*
X153642857Y-122976247D02*
X153547619Y-122928628D01*
X153547619Y-122928628D02*
X153357143Y-122881009D01*
X153357143Y-122881009D02*
X153261905Y-122833390D01*
X153261905Y-122833390D02*
X153214286Y-122785771D01*
X153214286Y-122785771D02*
X153166667Y-122690533D01*
X153166667Y-122690533D02*
X153166667Y-122595295D01*
X153166667Y-122595295D02*
X153214286Y-122500057D01*
X153214286Y-122500057D02*
X153261905Y-122452438D01*
X153261905Y-122452438D02*
X153357143Y-122404819D01*
X153357143Y-122404819D02*
X153595238Y-122404819D01*
X153595238Y-122404819D02*
X153738095Y-122452438D01*
X154071429Y-122404819D02*
X154309524Y-123404819D01*
X154309524Y-123404819D02*
X154500000Y-122690533D01*
X154500000Y-122690533D02*
X154690476Y-123404819D01*
X154690476Y-123404819D02*
X154928572Y-122404819D01*
X155738095Y-122738152D02*
X155738095Y-123404819D01*
X155500000Y-122357200D02*
X155261905Y-123071485D01*
X155261905Y-123071485D02*
X155880952Y-123071485D01*
X175116667Y-123357200D02*
X175259524Y-123404819D01*
X175259524Y-123404819D02*
X175497619Y-123404819D01*
X175497619Y-123404819D02*
X175592857Y-123357200D01*
X175592857Y-123357200D02*
X175640476Y-123309580D01*
X175640476Y-123309580D02*
X175688095Y-123214342D01*
X175688095Y-123214342D02*
X175688095Y-123119104D01*
X175688095Y-123119104D02*
X175640476Y-123023866D01*
X175640476Y-123023866D02*
X175592857Y-122976247D01*
X175592857Y-122976247D02*
X175497619Y-122928628D01*
X175497619Y-122928628D02*
X175307143Y-122881009D01*
X175307143Y-122881009D02*
X175211905Y-122833390D01*
X175211905Y-122833390D02*
X175164286Y-122785771D01*
X175164286Y-122785771D02*
X175116667Y-122690533D01*
X175116667Y-122690533D02*
X175116667Y-122595295D01*
X175116667Y-122595295D02*
X175164286Y-122500057D01*
X175164286Y-122500057D02*
X175211905Y-122452438D01*
X175211905Y-122452438D02*
X175307143Y-122404819D01*
X175307143Y-122404819D02*
X175545238Y-122404819D01*
X175545238Y-122404819D02*
X175688095Y-122452438D01*
X176021429Y-122404819D02*
X176259524Y-123404819D01*
X176259524Y-123404819D02*
X176450000Y-122690533D01*
X176450000Y-122690533D02*
X176640476Y-123404819D01*
X176640476Y-123404819D02*
X176878572Y-122404819D01*
X177735714Y-122404819D02*
X177259524Y-122404819D01*
X177259524Y-122404819D02*
X177211905Y-122881009D01*
X177211905Y-122881009D02*
X177259524Y-122833390D01*
X177259524Y-122833390D02*
X177354762Y-122785771D01*
X177354762Y-122785771D02*
X177592857Y-122785771D01*
X177592857Y-122785771D02*
X177688095Y-122833390D01*
X177688095Y-122833390D02*
X177735714Y-122881009D01*
X177735714Y-122881009D02*
X177783333Y-122976247D01*
X177783333Y-122976247D02*
X177783333Y-123214342D01*
X177783333Y-123214342D02*
X177735714Y-123309580D01*
X177735714Y-123309580D02*
X177688095Y-123357200D01*
X177688095Y-123357200D02*
X177592857Y-123404819D01*
X177592857Y-123404819D02*
X177354762Y-123404819D01*
X177354762Y-123404819D02*
X177259524Y-123357200D01*
X177259524Y-123357200D02*
X177211905Y-123309580D01*
X131266667Y-123357200D02*
X131409524Y-123404819D01*
X131409524Y-123404819D02*
X131647619Y-123404819D01*
X131647619Y-123404819D02*
X131742857Y-123357200D01*
X131742857Y-123357200D02*
X131790476Y-123309580D01*
X131790476Y-123309580D02*
X131838095Y-123214342D01*
X131838095Y-123214342D02*
X131838095Y-123119104D01*
X131838095Y-123119104D02*
X131790476Y-123023866D01*
X131790476Y-123023866D02*
X131742857Y-122976247D01*
X131742857Y-122976247D02*
X131647619Y-122928628D01*
X131647619Y-122928628D02*
X131457143Y-122881009D01*
X131457143Y-122881009D02*
X131361905Y-122833390D01*
X131361905Y-122833390D02*
X131314286Y-122785771D01*
X131314286Y-122785771D02*
X131266667Y-122690533D01*
X131266667Y-122690533D02*
X131266667Y-122595295D01*
X131266667Y-122595295D02*
X131314286Y-122500057D01*
X131314286Y-122500057D02*
X131361905Y-122452438D01*
X131361905Y-122452438D02*
X131457143Y-122404819D01*
X131457143Y-122404819D02*
X131695238Y-122404819D01*
X131695238Y-122404819D02*
X131838095Y-122452438D01*
X132171429Y-122404819D02*
X132409524Y-123404819D01*
X132409524Y-123404819D02*
X132600000Y-122690533D01*
X132600000Y-122690533D02*
X132790476Y-123404819D01*
X132790476Y-123404819D02*
X133028572Y-122404819D01*
X133314286Y-122404819D02*
X133933333Y-122404819D01*
X133933333Y-122404819D02*
X133600000Y-122785771D01*
X133600000Y-122785771D02*
X133742857Y-122785771D01*
X133742857Y-122785771D02*
X133838095Y-122833390D01*
X133838095Y-122833390D02*
X133885714Y-122881009D01*
X133885714Y-122881009D02*
X133933333Y-122976247D01*
X133933333Y-122976247D02*
X133933333Y-123214342D01*
X133933333Y-123214342D02*
X133885714Y-123309580D01*
X133885714Y-123309580D02*
X133838095Y-123357200D01*
X133838095Y-123357200D02*
X133742857Y-123404819D01*
X133742857Y-123404819D02*
X133457143Y-123404819D01*
X133457143Y-123404819D02*
X133361905Y-123357200D01*
X133361905Y-123357200D02*
X133314286Y-123309580D01*
X135366666Y-84934819D02*
X135366666Y-85649104D01*
X135366666Y-85649104D02*
X135319047Y-85791961D01*
X135319047Y-85791961D02*
X135223809Y-85887200D01*
X135223809Y-85887200D02*
X135080952Y-85934819D01*
X135080952Y-85934819D02*
X134985714Y-85934819D01*
X135795238Y-85030057D02*
X135842857Y-84982438D01*
X135842857Y-84982438D02*
X135938095Y-84934819D01*
X135938095Y-84934819D02*
X136176190Y-84934819D01*
X136176190Y-84934819D02*
X136271428Y-84982438D01*
X136271428Y-84982438D02*
X136319047Y-85030057D01*
X136319047Y-85030057D02*
X136366666Y-85125295D01*
X136366666Y-85125295D02*
X136366666Y-85220533D01*
X136366666Y-85220533D02*
X136319047Y-85363390D01*
X136319047Y-85363390D02*
X135747619Y-85934819D01*
X135747619Y-85934819D02*
X136366666Y-85934819D01*
X187991905Y-81414819D02*
X187991905Y-80414819D01*
X187991905Y-80414819D02*
X188230000Y-80414819D01*
X188230000Y-80414819D02*
X188372857Y-80462438D01*
X188372857Y-80462438D02*
X188468095Y-80557676D01*
X188468095Y-80557676D02*
X188515714Y-80652914D01*
X188515714Y-80652914D02*
X188563333Y-80843390D01*
X188563333Y-80843390D02*
X188563333Y-80986247D01*
X188563333Y-80986247D02*
X188515714Y-81176723D01*
X188515714Y-81176723D02*
X188468095Y-81271961D01*
X188468095Y-81271961D02*
X188372857Y-81367200D01*
X188372857Y-81367200D02*
X188230000Y-81414819D01*
X188230000Y-81414819D02*
X187991905Y-81414819D01*
X189468095Y-80414819D02*
X188991905Y-80414819D01*
X188991905Y-80414819D02*
X188944286Y-80891009D01*
X188944286Y-80891009D02*
X188991905Y-80843390D01*
X188991905Y-80843390D02*
X189087143Y-80795771D01*
X189087143Y-80795771D02*
X189325238Y-80795771D01*
X189325238Y-80795771D02*
X189420476Y-80843390D01*
X189420476Y-80843390D02*
X189468095Y-80891009D01*
X189468095Y-80891009D02*
X189515714Y-80986247D01*
X189515714Y-80986247D02*
X189515714Y-81224342D01*
X189515714Y-81224342D02*
X189468095Y-81319580D01*
X189468095Y-81319580D02*
X189420476Y-81367200D01*
X189420476Y-81367200D02*
X189325238Y-81414819D01*
X189325238Y-81414819D02*
X189087143Y-81414819D01*
X189087143Y-81414819D02*
X188991905Y-81367200D01*
X188991905Y-81367200D02*
X188944286Y-81319580D01*
X168666666Y-87054819D02*
X168666666Y-87769104D01*
X168666666Y-87769104D02*
X168619047Y-87911961D01*
X168619047Y-87911961D02*
X168523809Y-88007200D01*
X168523809Y-88007200D02*
X168380952Y-88054819D01*
X168380952Y-88054819D02*
X168285714Y-88054819D01*
X169571428Y-87388152D02*
X169571428Y-88054819D01*
X169333333Y-87007200D02*
X169095238Y-87721485D01*
X169095238Y-87721485D02*
X169714285Y-87721485D01*
X177511905Y-81454819D02*
X177511905Y-80454819D01*
X177511905Y-80454819D02*
X177750000Y-80454819D01*
X177750000Y-80454819D02*
X177892857Y-80502438D01*
X177892857Y-80502438D02*
X177988095Y-80597676D01*
X177988095Y-80597676D02*
X178035714Y-80692914D01*
X178035714Y-80692914D02*
X178083333Y-80883390D01*
X178083333Y-80883390D02*
X178083333Y-81026247D01*
X178083333Y-81026247D02*
X178035714Y-81216723D01*
X178035714Y-81216723D02*
X177988095Y-81311961D01*
X177988095Y-81311961D02*
X177892857Y-81407200D01*
X177892857Y-81407200D02*
X177750000Y-81454819D01*
X177750000Y-81454819D02*
X177511905Y-81454819D01*
X178940476Y-80788152D02*
X178940476Y-81454819D01*
X178702381Y-80407200D02*
X178464286Y-81121485D01*
X178464286Y-81121485D02*
X179083333Y-81121485D01*
X159874819Y-114033333D02*
X160589104Y-114033333D01*
X160589104Y-114033333D02*
X160731961Y-114080952D01*
X160731961Y-114080952D02*
X160827200Y-114176190D01*
X160827200Y-114176190D02*
X160874819Y-114319047D01*
X160874819Y-114319047D02*
X160874819Y-114414285D01*
X159874819Y-113080952D02*
X159874819Y-113557142D01*
X159874819Y-113557142D02*
X160351009Y-113604761D01*
X160351009Y-113604761D02*
X160303390Y-113557142D01*
X160303390Y-113557142D02*
X160255771Y-113461904D01*
X160255771Y-113461904D02*
X160255771Y-113223809D01*
X160255771Y-113223809D02*
X160303390Y-113128571D01*
X160303390Y-113128571D02*
X160351009Y-113080952D01*
X160351009Y-113080952D02*
X160446247Y-113033333D01*
X160446247Y-113033333D02*
X160684342Y-113033333D01*
X160684342Y-113033333D02*
X160779580Y-113080952D01*
X160779580Y-113080952D02*
X160827200Y-113128571D01*
X160827200Y-113128571D02*
X160874819Y-113223809D01*
X160874819Y-113223809D02*
X160874819Y-113461904D01*
X160874819Y-113461904D02*
X160827200Y-113557142D01*
X160827200Y-113557142D02*
X160779580Y-113604761D01*
D12*
%TO.C,G\u002A\u002A\u002A*%
G36*
X190077637Y-119072045D02*
G01*
X190141245Y-119102455D01*
X190197084Y-119151430D01*
X190228556Y-119195409D01*
X190248171Y-119233102D01*
X190258770Y-119268311D01*
X190262887Y-119311670D01*
X190263308Y-119341214D01*
X190262114Y-119389688D01*
X190256906Y-119422772D01*
X190245245Y-119449519D01*
X190227011Y-119475929D01*
X190202764Y-119507226D01*
X190182894Y-119531517D01*
X190176924Y-119538184D01*
X190171105Y-119555878D01*
X190165469Y-119594872D01*
X190160351Y-119651972D01*
X190156085Y-119723985D01*
X190155089Y-119746381D01*
X190152645Y-119817693D01*
X190150665Y-119900302D01*
X190149151Y-119990721D01*
X190148104Y-120085464D01*
X190147526Y-120181044D01*
X190147419Y-120273973D01*
X190147784Y-120360765D01*
X190148624Y-120437933D01*
X190149939Y-120501991D01*
X190151732Y-120549451D01*
X190154004Y-120576826D01*
X190154681Y-120580255D01*
X190157844Y-120589747D01*
X190163726Y-120596763D01*
X190175643Y-120601676D01*
X190196912Y-120604862D01*
X190230851Y-120606695D01*
X190280777Y-120607548D01*
X190350005Y-120607796D01*
X190398897Y-120607811D01*
X190635727Y-120607811D01*
X190643284Y-120567530D01*
X190645631Y-120541651D01*
X190647176Y-120496522D01*
X190647840Y-120437376D01*
X190647544Y-120369445D01*
X190646900Y-120328044D01*
X190642960Y-120128838D01*
X190590542Y-120085324D01*
X190542322Y-120038052D01*
X190514249Y-119990453D01*
X190502830Y-119935780D01*
X190502167Y-119915863D01*
X190636837Y-119915863D01*
X190646701Y-119953317D01*
X190671764Y-119979904D01*
X190705230Y-119992683D01*
X190740304Y-119988712D01*
X190765062Y-119971380D01*
X190783203Y-119936157D01*
X190782538Y-119898151D01*
X190765965Y-119864342D01*
X190736382Y-119841712D01*
X190708961Y-119836258D01*
X190678463Y-119846930D01*
X190652097Y-119873201D01*
X190637673Y-119906452D01*
X190636837Y-119915863D01*
X190502167Y-119915863D01*
X190502121Y-119914485D01*
X190512767Y-119847709D01*
X190542003Y-119790447D01*
X190585775Y-119745408D01*
X190640031Y-119715303D01*
X190700716Y-119702843D01*
X190763779Y-119710737D01*
X190791059Y-119721273D01*
X190849861Y-119761191D01*
X190890492Y-119813720D01*
X190912310Y-119874360D01*
X190914670Y-119938614D01*
X190896930Y-120001982D01*
X190858445Y-120059966D01*
X190841855Y-120076458D01*
X190789923Y-120123348D01*
X190786095Y-120340459D01*
X190785301Y-120434996D01*
X190786620Y-120507271D01*
X190790022Y-120556580D01*
X190795479Y-120582218D01*
X190795819Y-120582893D01*
X190800665Y-120590529D01*
X190807946Y-120596414D01*
X190820541Y-120600739D01*
X190841333Y-120603693D01*
X190873201Y-120605467D01*
X190919027Y-120606250D01*
X190981692Y-120606232D01*
X191064075Y-120605605D01*
X191130313Y-120604951D01*
X191451254Y-120601687D01*
X191457586Y-120430231D01*
X191460890Y-120357049D01*
X191464938Y-120304090D01*
X191470320Y-120267085D01*
X191477630Y-120241765D01*
X191485859Y-120226151D01*
X191513320Y-120195268D01*
X191549865Y-120174075D01*
X191599722Y-120161231D01*
X191667118Y-120155391D01*
X191710901Y-120154677D01*
X191775116Y-120153405D01*
X191818607Y-120148746D01*
X191845052Y-120139430D01*
X191852753Y-120130457D01*
X192011875Y-120130457D01*
X192014108Y-120169522D01*
X192040673Y-120208018D01*
X192040773Y-120208118D01*
X192079368Y-120234639D01*
X192118197Y-120236776D01*
X192157951Y-120214509D01*
X192168637Y-120204606D01*
X192197078Y-120166414D01*
X192201711Y-120130938D01*
X192182658Y-120095672D01*
X192174375Y-120086762D01*
X192134886Y-120061483D01*
X192091876Y-120056425D01*
X192052252Y-120071481D01*
X192033869Y-120088971D01*
X192011875Y-120130457D01*
X191852753Y-120130457D01*
X191858131Y-120124190D01*
X191861524Y-120102752D01*
X191866940Y-120077788D01*
X191880393Y-120043837D01*
X191884825Y-120034782D01*
X191928721Y-119972822D01*
X191984815Y-119929026D01*
X192048856Y-119903721D01*
X192116588Y-119897230D01*
X192183757Y-119909880D01*
X192246110Y-119941995D01*
X192299391Y-119993902D01*
X192305766Y-120002597D01*
X192342940Y-120073572D01*
X192355658Y-120145859D01*
X192343918Y-120219366D01*
X192312471Y-120286439D01*
X192269129Y-120335755D01*
X192211803Y-120370664D01*
X192146546Y-120389812D01*
X192079412Y-120391842D01*
X192016455Y-120375398D01*
X191987551Y-120359216D01*
X191966215Y-120345117D01*
X191946891Y-120335719D01*
X191924217Y-120330211D01*
X191892834Y-120327780D01*
X191847381Y-120327614D01*
X191786819Y-120328803D01*
X191634957Y-120332256D01*
X191627514Y-120454725D01*
X191624864Y-120509898D01*
X191623817Y-120558240D01*
X191624458Y-120592953D01*
X191625657Y-120604260D01*
X191641280Y-120628372D01*
X191677375Y-120656554D01*
X191698376Y-120669214D01*
X191789474Y-120734043D01*
X191864200Y-120815440D01*
X191914499Y-120899278D01*
X191953375Y-120981340D01*
X191959499Y-121330376D01*
X191961414Y-121420927D01*
X191963793Y-121503814D01*
X191966490Y-121575782D01*
X191969364Y-121633580D01*
X191972271Y-121673954D01*
X191975068Y-121693651D01*
X191975530Y-121694720D01*
X191990474Y-121702378D01*
X192024842Y-121707305D01*
X192080596Y-121709707D01*
X192119918Y-121710029D01*
X192202516Y-121707327D01*
X192265449Y-121698278D01*
X192313048Y-121681462D01*
X192349640Y-121655463D01*
X192374132Y-121626773D01*
X192390592Y-121599927D01*
X192403227Y-121569152D01*
X192412431Y-121531129D01*
X192418596Y-121482543D01*
X192422117Y-121420074D01*
X192423388Y-121340406D01*
X192422801Y-121240221D01*
X192422517Y-121218961D01*
X192418756Y-120954590D01*
X192376723Y-120888360D01*
X192343534Y-120818486D01*
X192327679Y-120744430D01*
X192329148Y-120695070D01*
X192487963Y-120695070D01*
X192488319Y-120728346D01*
X192489497Y-120739566D01*
X192501799Y-120789891D01*
X192522997Y-120818586D01*
X192557675Y-120834329D01*
X192603517Y-120840221D01*
X192648978Y-120835588D01*
X192671659Y-120827269D01*
X192692964Y-120807289D01*
X192712170Y-120776061D01*
X192713882Y-120772158D01*
X192724522Y-120739275D01*
X192722431Y-120711733D01*
X192714139Y-120689016D01*
X192683951Y-120642260D01*
X192643426Y-120614767D01*
X192597398Y-120607631D01*
X192550700Y-120621948D01*
X192520385Y-120645136D01*
X192497383Y-120671212D01*
X192487963Y-120695070D01*
X192329148Y-120695070D01*
X192329813Y-120672738D01*
X192349056Y-120612872D01*
X192396396Y-120543901D01*
X192455756Y-120493076D01*
X192523383Y-120461139D01*
X192595525Y-120448830D01*
X192668428Y-120456890D01*
X192738340Y-120486060D01*
X192790297Y-120525765D01*
X192842985Y-120591258D01*
X192872386Y-120663257D01*
X192878167Y-120739720D01*
X192859996Y-120818606D01*
X192843885Y-120854411D01*
X192808186Y-120906888D01*
X192762114Y-120951559D01*
X192711728Y-120983826D01*
X192663083Y-120999088D01*
X192652512Y-120999711D01*
X192620478Y-121004069D01*
X192598785Y-121014407D01*
X192593468Y-121028239D01*
X192589435Y-121058941D01*
X192586594Y-121108289D01*
X192584855Y-121178060D01*
X192584125Y-121270031D01*
X192584089Y-121300252D01*
X192584089Y-121571401D01*
X192547021Y-121645580D01*
X192497377Y-121722450D01*
X192432481Y-121789348D01*
X192358929Y-121839772D01*
X192341303Y-121848437D01*
X192309095Y-121860689D01*
X192272147Y-121869129D01*
X192224466Y-121874653D01*
X192160060Y-121878153D01*
X192137078Y-121878928D01*
X192071225Y-121881594D01*
X192025807Y-121885267D01*
X191996773Y-121890553D01*
X191980066Y-121898056D01*
X191974807Y-121903161D01*
X191968144Y-121921769D01*
X191963466Y-121958956D01*
X191960638Y-122016563D01*
X191959527Y-122096427D01*
X191959499Y-122114175D01*
X191960317Y-122198901D01*
X191962859Y-122260957D01*
X191967253Y-122302117D01*
X191973625Y-122324153D01*
X191974807Y-122325982D01*
X191981267Y-122331892D01*
X191992615Y-122336575D01*
X192011505Y-122340180D01*
X192040589Y-122342857D01*
X192082520Y-122344753D01*
X192139949Y-122346018D01*
X192215530Y-122346800D01*
X192311914Y-122347249D01*
X192355828Y-122347366D01*
X192448106Y-122347328D01*
X192532354Y-122346810D01*
X192605487Y-122345869D01*
X192664418Y-122344564D01*
X192706060Y-122342952D01*
X192727327Y-122341089D01*
X192729357Y-122340421D01*
X192731529Y-122326655D01*
X192733882Y-122291493D01*
X192736299Y-122238033D01*
X192738665Y-122169370D01*
X192740862Y-122088601D01*
X192742775Y-121998823D01*
X192743298Y-121969280D01*
X192745102Y-121865352D01*
X192746782Y-121783026D01*
X192748584Y-121719411D01*
X192749925Y-121689914D01*
X192878718Y-121689914D01*
X192890634Y-121726975D01*
X192898282Y-121736620D01*
X192929786Y-121755788D01*
X192966454Y-121756928D01*
X192998432Y-121740482D01*
X193005911Y-121731797D01*
X193020355Y-121704982D01*
X193024976Y-121686836D01*
X193014699Y-121658001D01*
X192988982Y-121636729D01*
X192955493Y-121625237D01*
X192921901Y-121625745D01*
X192895875Y-121640471D01*
X192890691Y-121647989D01*
X192878718Y-121689914D01*
X192749925Y-121689914D01*
X192750757Y-121671618D01*
X192753550Y-121636759D01*
X192757211Y-121611942D01*
X192761987Y-121594278D01*
X192768127Y-121580879D01*
X192775880Y-121568854D01*
X192777942Y-121565943D01*
X192825195Y-121519136D01*
X192883614Y-121491634D01*
X192948601Y-121483996D01*
X193015556Y-121496782D01*
X193078340Y-121529442D01*
X193111910Y-121564611D01*
X193139737Y-121613655D01*
X193156533Y-121665956D01*
X193159153Y-121691658D01*
X193149813Y-121743625D01*
X193125455Y-121797375D01*
X193091576Y-121842134D01*
X193075307Y-121856035D01*
X193033671Y-121876213D01*
X192980482Y-121888944D01*
X192971303Y-121890058D01*
X192905550Y-121896844D01*
X192898012Y-121959584D01*
X192895357Y-121994047D01*
X192893097Y-122046907D01*
X192891414Y-122112069D01*
X192890488Y-122183438D01*
X192890367Y-122216384D01*
X192889479Y-122301951D01*
X192886327Y-122366584D01*
X192880019Y-122413807D01*
X192869661Y-122447143D01*
X192854360Y-122470112D01*
X192833223Y-122486239D01*
X192820302Y-122492785D01*
X192798000Y-122497035D01*
X192751855Y-122500509D01*
X192682505Y-122503184D01*
X192590588Y-122505042D01*
X192476745Y-122506061D01*
X192396748Y-122506263D01*
X192295815Y-122506659D01*
X192204316Y-122507697D01*
X192125033Y-122509297D01*
X192060746Y-122511381D01*
X192014236Y-122513869D01*
X191988283Y-122516685D01*
X191984206Y-122517931D01*
X191975936Y-122534797D01*
X191969391Y-122569652D01*
X191964835Y-122616032D01*
X191962535Y-122667476D01*
X191962755Y-122717521D01*
X191965761Y-122759705D01*
X191971819Y-122787565D01*
X191973032Y-122790156D01*
X191977099Y-122795518D01*
X191984490Y-122799937D01*
X191997406Y-122803504D01*
X192018046Y-122806310D01*
X192048611Y-122808445D01*
X192091299Y-122810000D01*
X192148312Y-122811065D01*
X192221847Y-122811731D01*
X192314107Y-122812089D01*
X192427289Y-122812229D01*
X192509354Y-122812247D01*
X193033855Y-122812247D01*
X193081464Y-122774400D01*
X193148073Y-122730497D01*
X193213616Y-122707331D01*
X193269213Y-122702025D01*
X193337979Y-122712905D01*
X193406179Y-122742600D01*
X193465484Y-122786693D01*
X193496404Y-122822533D01*
X193515035Y-122851702D01*
X193526063Y-122877980D01*
X193531445Y-122909504D01*
X193533138Y-122954409D01*
X193533221Y-122975619D01*
X193529505Y-123043616D01*
X193516103Y-123095845D01*
X193489632Y-123140209D01*
X193446710Y-123184610D01*
X193441946Y-123188859D01*
X193383051Y-123226140D01*
X193316402Y-123244316D01*
X193246482Y-123244836D01*
X193177774Y-123229150D01*
X193114758Y-123198710D01*
X193061917Y-123154966D01*
X193023732Y-123099368D01*
X193006884Y-123048058D01*
X192998029Y-123013827D01*
X192987416Y-122989263D01*
X193153047Y-122989263D01*
X193159710Y-123014376D01*
X193185185Y-123057883D01*
X193223707Y-123084197D01*
X193269505Y-123091809D01*
X193316810Y-123079208D01*
X193342455Y-123062219D01*
X193368205Y-123035331D01*
X193378721Y-123005555D01*
X193380135Y-122979216D01*
X193371821Y-122924410D01*
X193345902Y-122885850D01*
X193300915Y-122861361D01*
X193300840Y-122861336D01*
X193251111Y-122855623D01*
X193208600Y-122873098D01*
X193174401Y-122913234D01*
X193167903Y-122925457D01*
X193154007Y-122960361D01*
X193153047Y-122989263D01*
X192987416Y-122989263D01*
X192987380Y-122989179D01*
X192985640Y-122986765D01*
X192976739Y-122982740D01*
X192956098Y-122979429D01*
X192921905Y-122976775D01*
X192872348Y-122974724D01*
X192805616Y-122973222D01*
X192719895Y-122972213D01*
X192613376Y-122971642D01*
X192484244Y-122971456D01*
X192478922Y-122971456D01*
X192355891Y-122971497D01*
X192255073Y-122971691D01*
X192174184Y-122972145D01*
X192110944Y-122972966D01*
X192063070Y-122974260D01*
X192028281Y-122976134D01*
X192004294Y-122978694D01*
X191988829Y-122982048D01*
X191979603Y-122986302D01*
X191974334Y-122991562D01*
X191972176Y-122995145D01*
X191967294Y-123016133D01*
X191963284Y-123055966D01*
X191960551Y-123109001D01*
X191959500Y-123169593D01*
X191959499Y-123171849D01*
X191960076Y-123238945D01*
X191962129Y-123285789D01*
X191966137Y-123316605D01*
X191972580Y-123335615D01*
X191979132Y-123344499D01*
X191988252Y-123350835D01*
X192003299Y-123355626D01*
X192027314Y-123359051D01*
X192063336Y-123361292D01*
X192114407Y-123362530D01*
X192183565Y-123362944D01*
X192273851Y-123362716D01*
X192284771Y-123362661D01*
X192376161Y-123362297D01*
X192446490Y-123362439D01*
X192499188Y-123363345D01*
X192537689Y-123365276D01*
X192565422Y-123368490D01*
X192585819Y-123373248D01*
X192602312Y-123379808D01*
X192617235Y-123387801D01*
X192654186Y-123414890D01*
X192690545Y-123450538D01*
X192700434Y-123462540D01*
X192738056Y-123504740D01*
X192777303Y-123530652D01*
X192825617Y-123543636D01*
X192887517Y-123547059D01*
X192934046Y-123546009D01*
X192963763Y-123541438D01*
X192984311Y-123531212D01*
X193001409Y-123515278D01*
X193055258Y-123473042D01*
X193117031Y-123449824D01*
X193180954Y-123446839D01*
X193240548Y-123464935D01*
X193286376Y-123497538D01*
X193326686Y-123541918D01*
X193354795Y-123589848D01*
X193362745Y-123615336D01*
X193362861Y-123677273D01*
X193343359Y-123739433D01*
X193307963Y-123794892D01*
X193260397Y-123836726D01*
X193237199Y-123848772D01*
X193171089Y-123864105D01*
X193102186Y-123859015D01*
X193069662Y-123848658D01*
X193047267Y-123837429D01*
X193026490Y-123821419D01*
X193002915Y-123796205D01*
X192972123Y-123757367D01*
X192952931Y-123731848D01*
X192937103Y-123715213D01*
X192916086Y-123705870D01*
X192882509Y-123701507D01*
X192852420Y-123700295D01*
X192789468Y-123693913D01*
X192734485Y-123676282D01*
X192681296Y-123644343D01*
X192679479Y-123642787D01*
X193079275Y-123642787D01*
X193081350Y-123668440D01*
X193087138Y-123684015D01*
X193111310Y-123718025D01*
X193143878Y-123733884D01*
X193178217Y-123731002D01*
X193207701Y-123708792D01*
X193216101Y-123695465D01*
X193225012Y-123654352D01*
X193213878Y-123614621D01*
X193189338Y-123588160D01*
X193152683Y-123575974D01*
X193118315Y-123587717D01*
X193092410Y-123616019D01*
X193079275Y-123642787D01*
X192679479Y-123642787D01*
X192623728Y-123595035D01*
X192606887Y-123578600D01*
X192537834Y-123509851D01*
X192258139Y-123513146D01*
X191978444Y-123516441D01*
X191966607Y-123550120D01*
X191961950Y-123598520D01*
X191966588Y-123617478D01*
X191978406Y-123651157D01*
X192214860Y-123657280D01*
X192451314Y-123663404D01*
X192493208Y-123709150D01*
X192535101Y-123754896D01*
X192535268Y-124021445D01*
X192535649Y-124101377D01*
X192536620Y-124174320D01*
X192538076Y-124236257D01*
X192539916Y-124283171D01*
X192542035Y-124311047D01*
X192542841Y-124315629D01*
X192554101Y-124334478D01*
X192579737Y-124349702D01*
X192619217Y-124362933D01*
X192665555Y-124378433D01*
X192708773Y-124396606D01*
X192728098Y-124406784D01*
X192771724Y-124445659D01*
X192807326Y-124501261D01*
X192830762Y-124566132D01*
X192836938Y-124602773D01*
X192838607Y-124645474D01*
X192832210Y-124681177D01*
X192815172Y-124721881D01*
X192808557Y-124735005D01*
X192762754Y-124801860D01*
X192704399Y-124847809D01*
X192632416Y-124873582D01*
X192597515Y-124878599D01*
X192523439Y-124878314D01*
X192462358Y-124861045D01*
X192407802Y-124824677D01*
X192394160Y-124812096D01*
X192343855Y-124747563D01*
X192316001Y-124675213D01*
X192312783Y-124624262D01*
X192467956Y-124624262D01*
X192474437Y-124657126D01*
X192499744Y-124702501D01*
X192536295Y-124728560D01*
X192579115Y-124734085D01*
X192623234Y-124717858D01*
X192646265Y-124699206D01*
X192675235Y-124656858D01*
X192683821Y-124612164D01*
X192672492Y-124570697D01*
X192641718Y-124538028D01*
X192632200Y-124532478D01*
X192581852Y-124517169D01*
X192536057Y-124522008D01*
X192499011Y-124543681D01*
X192474911Y-124578871D01*
X192467956Y-124624262D01*
X192312783Y-124624262D01*
X192311135Y-124598164D01*
X192329789Y-124519532D01*
X192340008Y-124496191D01*
X192349603Y-124475375D01*
X192356947Y-124455104D01*
X192362401Y-124431733D01*
X192366322Y-124401616D01*
X192369069Y-124361110D01*
X192371003Y-124306567D01*
X192372482Y-124234344D01*
X192373676Y-124154420D01*
X192374495Y-124072382D01*
X192374635Y-123997256D01*
X192374137Y-123932950D01*
X192373044Y-123883373D01*
X192371395Y-123852431D01*
X192370381Y-123845187D01*
X192366986Y-123834306D01*
X192360660Y-123826595D01*
X192347666Y-123821509D01*
X192324269Y-123818501D01*
X192286731Y-123817026D01*
X192231317Y-123816537D01*
X192174016Y-123816490D01*
X192095603Y-123816588D01*
X192038474Y-123818601D01*
X191999430Y-123825107D01*
X191975271Y-123838684D01*
X191962797Y-123861910D01*
X191958807Y-123897362D01*
X191960102Y-123947619D01*
X191962147Y-123987171D01*
X191963810Y-124045124D01*
X191964034Y-124118487D01*
X191962881Y-124198223D01*
X191960413Y-124275292D01*
X191960125Y-124281871D01*
X191956394Y-124354829D01*
X191952177Y-124408807D01*
X191946582Y-124449318D01*
X191938714Y-124481871D01*
X191927677Y-124511978D01*
X191919938Y-124529479D01*
X191872856Y-124608040D01*
X191807999Y-124682369D01*
X191731910Y-124745329D01*
X191707306Y-124761277D01*
X191671198Y-124786291D01*
X191644507Y-124810613D01*
X191634017Y-124826679D01*
X191632098Y-124847267D01*
X191630909Y-124887316D01*
X191630511Y-124941806D01*
X191630968Y-125005712D01*
X191631446Y-125035053D01*
X191634957Y-125218756D01*
X191788042Y-125222337D01*
X191859693Y-125223215D01*
X191914437Y-125221511D01*
X191959790Y-125216515D01*
X192003268Y-125207517D01*
X192034506Y-125199065D01*
X192084986Y-125185544D01*
X192120974Y-125179380D01*
X192151111Y-125179881D01*
X192184040Y-125186355D01*
X192186283Y-125186916D01*
X192261861Y-125216714D01*
X192325472Y-125263046D01*
X192373892Y-125322118D01*
X192403896Y-125390136D01*
X192412513Y-125453104D01*
X192402787Y-125518777D01*
X192376926Y-125586662D01*
X192339533Y-125646137D01*
X192319268Y-125668179D01*
X192258078Y-125710813D01*
X192190369Y-125733510D01*
X192120098Y-125737698D01*
X192051222Y-125724805D01*
X191987699Y-125696259D01*
X191933486Y-125653488D01*
X191892539Y-125597919D01*
X191868817Y-125530980D01*
X191865254Y-125504357D01*
X191861262Y-125452004D01*
X191859628Y-125441154D01*
X192013606Y-125441154D01*
X192014954Y-125483710D01*
X192031273Y-125527219D01*
X192057929Y-125560702D01*
X192066658Y-125566810D01*
X192110232Y-125579641D01*
X192158956Y-125575634D01*
X192201525Y-125556095D01*
X192208276Y-125550465D01*
X192240744Y-125507157D01*
X192249803Y-125457965D01*
X192241360Y-125415262D01*
X192223148Y-125378120D01*
X192195272Y-125356845D01*
X192152137Y-125348094D01*
X192127771Y-125347348D01*
X192074988Y-125357293D01*
X192037100Y-125386590D01*
X192015089Y-125434432D01*
X192013606Y-125441154D01*
X191859628Y-125441154D01*
X191856067Y-125417509D01*
X191845200Y-125397168D01*
X191824193Y-125387282D01*
X191788576Y-125384148D01*
X191733880Y-125384065D01*
X191720058Y-125384089D01*
X191639163Y-125381700D01*
X191578575Y-125373848D01*
X191534512Y-125359504D01*
X191503192Y-125337640D01*
X191489595Y-125321423D01*
X191482180Y-125307124D01*
X191476798Y-125286142D01*
X191473151Y-125254805D01*
X191470940Y-125209444D01*
X191469866Y-125146389D01*
X191469624Y-125076067D01*
X191469269Y-124990859D01*
X191467516Y-124927055D01*
X191463329Y-124881567D01*
X191455672Y-124851307D01*
X191443511Y-124833187D01*
X191425810Y-124824119D01*
X191401534Y-124821016D01*
X191384023Y-124820733D01*
X191361233Y-124820341D01*
X191342861Y-124820748D01*
X191328433Y-124824324D01*
X191317475Y-124833441D01*
X191309514Y-124850468D01*
X191304076Y-124877777D01*
X191300688Y-124917739D01*
X191298877Y-124972725D01*
X191298169Y-125045106D01*
X191298090Y-125137253D01*
X191298168Y-125250683D01*
X191298168Y-125665766D01*
X191354084Y-125665766D01*
X191406344Y-125670422D01*
X191449157Y-125687232D01*
X191492829Y-125720461D01*
X191498273Y-125725435D01*
X191543202Y-125782125D01*
X191565973Y-125846651D01*
X191565698Y-125915386D01*
X191554601Y-125955832D01*
X191528480Y-126000521D01*
X191488375Y-126043043D01*
X191443149Y-126074776D01*
X191423663Y-126083182D01*
X191360114Y-126092219D01*
X191295425Y-126080975D01*
X191236243Y-126052081D01*
X191189216Y-126008166D01*
X191173882Y-125984376D01*
X191168439Y-125972773D01*
X191163940Y-125958806D01*
X191160296Y-125940179D01*
X191157417Y-125914597D01*
X191156180Y-125895040D01*
X191285866Y-125895040D01*
X191299512Y-125927878D01*
X191313140Y-125940626D01*
X191350021Y-125957819D01*
X191381546Y-125951789D01*
X191407501Y-125927422D01*
X191428451Y-125893614D01*
X191428876Y-125865872D01*
X191408332Y-125836242D01*
X191402062Y-125829782D01*
X191373102Y-125808216D01*
X191346190Y-125806448D01*
X191343890Y-125807081D01*
X191309734Y-125827347D01*
X191289833Y-125859098D01*
X191285866Y-125895040D01*
X191156180Y-125895040D01*
X191155214Y-125879765D01*
X191153599Y-125833388D01*
X191152482Y-125773170D01*
X191151773Y-125696817D01*
X191151385Y-125602032D01*
X191151227Y-125486521D01*
X191151205Y-125400463D01*
X191151123Y-125269574D01*
X191150827Y-125161034D01*
X191150244Y-125072699D01*
X191149300Y-125002423D01*
X191147922Y-124948064D01*
X191146036Y-124907476D01*
X191143568Y-124878516D01*
X191140444Y-124859038D01*
X191136592Y-124846899D01*
X191131960Y-124839978D01*
X191117908Y-124831158D01*
X191093891Y-124825375D01*
X191055578Y-124822102D01*
X190998637Y-124820813D01*
X190973753Y-124820733D01*
X190916257Y-124821363D01*
X190866669Y-124823073D01*
X190830801Y-124825589D01*
X190815418Y-124828166D01*
X190809403Y-124832970D01*
X190804757Y-124844054D01*
X190801308Y-124864207D01*
X190798888Y-124896219D01*
X190797324Y-124942879D01*
X190796447Y-125006975D01*
X190796086Y-125091297D01*
X190796046Y-125145131D01*
X190796046Y-125454663D01*
X190839023Y-125487443D01*
X190883622Y-125533357D01*
X190915612Y-125589970D01*
X190930310Y-125648486D01*
X190930762Y-125659643D01*
X190919772Y-125722357D01*
X190889780Y-125778052D01*
X190845255Y-125823328D01*
X190790665Y-125854785D01*
X190730477Y-125869023D01*
X190669160Y-125862642D01*
X190665489Y-125861512D01*
X190596665Y-125828548D01*
X190545905Y-125780915D01*
X190514874Y-125721159D01*
X190506630Y-125661851D01*
X190636837Y-125661851D01*
X190646148Y-125684233D01*
X190668393Y-125710117D01*
X190695039Y-125731206D01*
X190716442Y-125739248D01*
X190737895Y-125731099D01*
X190763855Y-125711272D01*
X190765986Y-125709187D01*
X190786563Y-125682830D01*
X190795984Y-125659356D01*
X190796046Y-125657927D01*
X190785887Y-125629398D01*
X190761277Y-125601654D01*
X190731020Y-125583178D01*
X190715196Y-125580038D01*
X190688696Y-125589944D01*
X190661402Y-125613843D01*
X190641672Y-125643009D01*
X190636837Y-125661851D01*
X190506630Y-125661851D01*
X190505237Y-125651828D01*
X190507944Y-125620638D01*
X190517492Y-125580962D01*
X190535985Y-125547339D01*
X190568855Y-125510095D01*
X190571575Y-125507362D01*
X190602425Y-125475004D01*
X190626829Y-125446685D01*
X190637765Y-125431341D01*
X190641046Y-125413345D01*
X190643952Y-125374675D01*
X190646340Y-125319151D01*
X190648064Y-125250594D01*
X190648976Y-125172822D01*
X190649084Y-125134708D01*
X190648864Y-125043459D01*
X190648071Y-124973638D01*
X190646506Y-124922182D01*
X190643968Y-124886027D01*
X190640256Y-124862110D01*
X190635172Y-124847368D01*
X190629839Y-124839978D01*
X190609497Y-124831942D01*
X190569805Y-124825786D01*
X190515835Y-124821506D01*
X190452658Y-124819098D01*
X190385346Y-124818560D01*
X190318970Y-124819886D01*
X190258601Y-124823073D01*
X190209312Y-124828118D01*
X190176174Y-124835017D01*
X190165870Y-124840315D01*
X190161349Y-124846841D01*
X190157609Y-124857937D01*
X190154593Y-124875667D01*
X190152247Y-124902095D01*
X190150517Y-124939285D01*
X190149347Y-124989300D01*
X190148684Y-125054206D01*
X190148473Y-125136065D01*
X190148657Y-125236942D01*
X190149184Y-125358901D01*
X190149687Y-125450843D01*
X190153086Y-126041787D01*
X190199117Y-126100860D01*
X190243627Y-126172613D01*
X190264248Y-126243616D01*
X190262975Y-126307044D01*
X190238992Y-126382754D01*
X190195003Y-126447748D01*
X190134443Y-126498412D01*
X190060746Y-126531133D01*
X190046464Y-126534812D01*
X190002418Y-126543773D01*
X189970670Y-126545510D01*
X189940000Y-126539630D01*
X189911185Y-126530068D01*
X189841166Y-126493579D01*
X189785226Y-126441474D01*
X189745310Y-126377994D01*
X189723362Y-126307375D01*
X189722101Y-126261813D01*
X189877531Y-126261813D01*
X189885129Y-126313847D01*
X189909547Y-126350111D01*
X189942792Y-126370479D01*
X189973745Y-126383180D01*
X189993738Y-126386806D01*
X190014223Y-126382163D01*
X190029331Y-126376574D01*
X190076307Y-126348212D01*
X190103654Y-126309093D01*
X190110186Y-126263840D01*
X190094716Y-126217076D01*
X190076543Y-126192545D01*
X190034098Y-126157636D01*
X189991843Y-126147088D01*
X189948597Y-126160808D01*
X189922163Y-126180226D01*
X189892623Y-126210734D01*
X189879588Y-126239145D01*
X189877531Y-126261813D01*
X189722101Y-126261813D01*
X189721327Y-126233857D01*
X189741149Y-126161680D01*
X189741670Y-126160526D01*
X189772294Y-126109139D01*
X189812538Y-126063557D01*
X189856191Y-126029800D01*
X189892116Y-126014732D01*
X189929664Y-126003315D01*
X189960198Y-125988824D01*
X189987753Y-125971373D01*
X189987753Y-125403487D01*
X189987684Y-125269744D01*
X189987430Y-125158440D01*
X189986923Y-125067522D01*
X189986093Y-124994933D01*
X189984870Y-124938622D01*
X189983187Y-124896532D01*
X189980973Y-124866610D01*
X189978160Y-124846802D01*
X189974678Y-124835053D01*
X189970458Y-124829309D01*
X189968381Y-124828166D01*
X189948405Y-124825240D01*
X189908379Y-124823034D01*
X189852373Y-124821518D01*
X189784457Y-124820659D01*
X189708702Y-124820425D01*
X189629177Y-124820784D01*
X189549953Y-124821705D01*
X189475099Y-124823154D01*
X189408687Y-124825101D01*
X189354787Y-124827513D01*
X189317468Y-124830359D01*
X189301123Y-124833410D01*
X189294138Y-124838248D01*
X189288680Y-124846255D01*
X189284563Y-124860214D01*
X189281603Y-124882910D01*
X189279611Y-124917126D01*
X189278404Y-124965644D01*
X189277795Y-125031249D01*
X189277597Y-125116724D01*
X189277602Y-125185508D01*
X189277901Y-125275536D01*
X189278661Y-125358557D01*
X189279810Y-125431116D01*
X189281281Y-125489760D01*
X189283001Y-125531034D01*
X189284903Y-125551485D01*
X189285025Y-125551992D01*
X189296919Y-125570982D01*
X189324287Y-125586678D01*
X189360548Y-125598902D01*
X189427144Y-125628557D01*
X189478642Y-125671967D01*
X189513929Y-125725138D01*
X189531889Y-125784078D01*
X189531406Y-125844792D01*
X189511365Y-125903286D01*
X189470650Y-125955568D01*
X189462246Y-125963003D01*
X189400330Y-126000894D01*
X189334653Y-126016424D01*
X189269405Y-126010398D01*
X189208775Y-125983620D01*
X189156954Y-125936897D01*
X189131753Y-125899479D01*
X189102417Y-125846339D01*
X189110332Y-125805029D01*
X189252941Y-125805029D01*
X189261952Y-125844861D01*
X189285024Y-125872834D01*
X189316217Y-125885761D01*
X189349587Y-125880454D01*
X189368412Y-125866965D01*
X189382562Y-125839592D01*
X189387177Y-125802915D01*
X189381778Y-125768815D01*
X189372960Y-125753944D01*
X189350844Y-125743403D01*
X189320299Y-125739248D01*
X189280456Y-125746529D01*
X189258724Y-125769718D01*
X189252941Y-125805029D01*
X189110332Y-125805029D01*
X189122649Y-125740744D01*
X189128884Y-125696086D01*
X189134102Y-125634761D01*
X189138300Y-125560196D01*
X189141476Y-125475817D01*
X189143626Y-125385049D01*
X189144748Y-125291319D01*
X189144837Y-125198052D01*
X189143891Y-125108674D01*
X189141907Y-125026612D01*
X189138882Y-124955290D01*
X189134812Y-124898135D01*
X189129694Y-124858573D01*
X189123526Y-124840030D01*
X189123474Y-124839978D01*
X189111036Y-124831952D01*
X189089898Y-124826422D01*
X189056099Y-124822980D01*
X189005676Y-124821219D01*
X188936097Y-124820733D01*
X188855663Y-124821767D01*
X188798738Y-124824916D01*
X188764420Y-124830254D01*
X188753269Y-124835429D01*
X188747487Y-124850523D01*
X188743232Y-124883772D01*
X188740401Y-124936865D01*
X188738894Y-125011488D01*
X188738573Y-125081577D01*
X188738061Y-125181648D01*
X188735271Y-125259997D01*
X188728317Y-125319394D01*
X188715316Y-125362606D01*
X188694384Y-125392404D01*
X188663636Y-125411555D01*
X188621189Y-125422829D01*
X188565158Y-125428995D01*
X188499759Y-125432547D01*
X188352797Y-125439199D01*
X188344062Y-125518402D01*
X188324894Y-125598013D01*
X188287930Y-125663690D01*
X188235594Y-125713130D01*
X188170308Y-125744033D01*
X188095886Y-125754113D01*
X188020148Y-125742629D01*
X187954302Y-125711918D01*
X187901112Y-125665444D01*
X187863340Y-125606671D01*
X187843750Y-125539063D01*
X187844826Y-125481139D01*
X188001980Y-125481139D01*
X188002452Y-125522352D01*
X188022149Y-125562567D01*
X188035734Y-125576977D01*
X188076420Y-125600525D01*
X188117574Y-125599899D01*
X188156721Y-125575150D01*
X188157403Y-125574472D01*
X188183000Y-125535052D01*
X188188788Y-125493070D01*
X188176913Y-125454288D01*
X188149524Y-125424472D01*
X188108766Y-125409383D01*
X188095612Y-125408582D01*
X188050589Y-125418547D01*
X188018702Y-125444635D01*
X188001980Y-125481139D01*
X187844826Y-125481139D01*
X187845106Y-125466084D01*
X187849563Y-125445363D01*
X187875668Y-125379200D01*
X187918582Y-125324157D01*
X187971049Y-125282165D01*
X188002799Y-125262658D01*
X188029966Y-125253455D01*
X188063212Y-125252214D01*
X188095612Y-125254810D01*
X188134385Y-125257838D01*
X188191070Y-125261266D01*
X188259097Y-125264741D01*
X188331895Y-125267911D01*
X188360065Y-125268985D01*
X188433775Y-125271384D01*
X188486937Y-125272196D01*
X188523462Y-125271175D01*
X188547261Y-125268073D01*
X188562243Y-125262645D01*
X188571324Y-125255663D01*
X188579305Y-125244245D01*
X188584921Y-125225975D01*
X188588551Y-125196959D01*
X188590573Y-125153304D01*
X188591369Y-125091113D01*
X188591423Y-125049487D01*
X188590622Y-124983317D01*
X188588542Y-124925019D01*
X188585458Y-124879371D01*
X188581645Y-124851154D01*
X188579650Y-124845226D01*
X188569325Y-124837289D01*
X188547461Y-124831256D01*
X188510611Y-124826658D01*
X188455326Y-124823026D01*
X188399098Y-124820631D01*
X188329857Y-124817728D01*
X188279387Y-124814282D01*
X188241971Y-124809279D01*
X188211892Y-124801711D01*
X188183433Y-124790565D01*
X188156749Y-124777774D01*
X188068589Y-124720902D01*
X187991098Y-124645410D01*
X187929422Y-124556540D01*
X187917897Y-124534521D01*
X187900730Y-124498236D01*
X187888803Y-124467283D01*
X187880891Y-124435429D01*
X187875765Y-124396444D01*
X187872202Y-124344097D01*
X187869701Y-124289584D01*
X187862922Y-124128785D01*
X187636355Y-124128785D01*
X187409788Y-124128785D01*
X187406299Y-124343105D01*
X187405515Y-124414851D01*
X187405527Y-124479512D01*
X187406277Y-124532502D01*
X187407709Y-124569235D01*
X187409294Y-124583784D01*
X187422406Y-124604975D01*
X187449563Y-124632366D01*
X187475388Y-124652968D01*
X187532502Y-124706831D01*
X187569552Y-124769010D01*
X187587673Y-124835922D01*
X187588002Y-124903988D01*
X187571672Y-124969623D01*
X187539819Y-125029248D01*
X187493579Y-125079280D01*
X187434086Y-125116137D01*
X187362476Y-125136238D01*
X187321391Y-125138882D01*
X187245193Y-125127385D01*
X187178040Y-125095994D01*
X187122908Y-125048257D01*
X187082775Y-124987725D01*
X187060616Y-124917947D01*
X187060176Y-124890443D01*
X187209621Y-124890443D01*
X187217082Y-124913194D01*
X187238105Y-124939072D01*
X187249284Y-124950480D01*
X187278540Y-124977152D01*
X187301028Y-124988625D01*
X187325442Y-124988694D01*
X187333500Y-124987249D01*
X187371195Y-124972632D01*
X187400983Y-124951432D01*
X187422279Y-124919738D01*
X187435791Y-124880995D01*
X187436172Y-124878815D01*
X187438222Y-124846889D01*
X187428721Y-124822510D01*
X187406117Y-124796807D01*
X187361681Y-124766437D01*
X187315390Y-124757957D01*
X187272179Y-124769725D01*
X187236981Y-124800097D01*
X187214731Y-124847431D01*
X187211803Y-124861516D01*
X187209621Y-124890443D01*
X187060176Y-124890443D01*
X187059409Y-124842473D01*
X187061560Y-124829016D01*
X187078014Y-124766950D01*
X187104343Y-124716972D01*
X187145782Y-124670416D01*
X187170863Y-124648182D01*
X187232208Y-124596455D01*
X187232500Y-124362620D01*
X187233172Y-124264056D01*
X187235262Y-124186712D01*
X187239292Y-124127327D01*
X187245787Y-124082646D01*
X187255270Y-124049407D01*
X187268265Y-124024355D01*
X187285295Y-124004229D01*
X187290935Y-123998963D01*
X187303302Y-123988437D01*
X187316092Y-123980404D01*
X187332783Y-123974389D01*
X187356851Y-123969915D01*
X187391773Y-123966503D01*
X187441024Y-123963679D01*
X187508081Y-123960964D01*
X187588471Y-123958154D01*
X187689638Y-123954077D01*
X187766832Y-123949569D01*
X187820572Y-123944584D01*
X187851377Y-123939079D01*
X187859572Y-123934890D01*
X187863844Y-123916023D01*
X187866868Y-123878180D01*
X187868702Y-123826324D01*
X187869405Y-123765417D01*
X187869033Y-123700421D01*
X187867646Y-123636298D01*
X187865302Y-123578010D01*
X187862058Y-123530519D01*
X187857972Y-123498787D01*
X187854349Y-123488274D01*
X187837465Y-123483323D01*
X187800389Y-123479305D01*
X187747228Y-123476216D01*
X187682088Y-123474052D01*
X187609076Y-123472809D01*
X187532300Y-123472483D01*
X187455865Y-123473070D01*
X187383880Y-123474566D01*
X187320450Y-123476967D01*
X187269683Y-123480270D01*
X187235685Y-123484469D01*
X187222913Y-123488886D01*
X187216666Y-123507579D01*
X187210771Y-123543981D01*
X187206232Y-123591313D01*
X187205197Y-123608293D01*
X187195154Y-123693323D01*
X187174146Y-123757448D01*
X187140853Y-123802277D01*
X187093955Y-123829423D01*
X187032132Y-123840493D01*
X187014442Y-123840938D01*
X186971154Y-123843866D01*
X186948172Y-123852166D01*
X186945421Y-123856292D01*
X186939678Y-123877019D01*
X186930489Y-123910607D01*
X186926908Y-123923769D01*
X186907548Y-123968133D01*
X186877460Y-124010756D01*
X186870486Y-124018186D01*
X186813551Y-124059871D01*
X186751375Y-124078864D01*
X186687717Y-124075251D01*
X186626339Y-124049120D01*
X186580862Y-124011491D01*
X186541333Y-123953909D01*
X186523734Y-123890383D01*
X186525181Y-123867575D01*
X186656606Y-123867575D01*
X186666490Y-123903240D01*
X186691416Y-123927556D01*
X186724296Y-123938235D01*
X186758038Y-123932984D01*
X186785553Y-123909516D01*
X186785712Y-123909274D01*
X186797808Y-123886592D01*
X186796976Y-123866767D01*
X186785680Y-123841917D01*
X186769763Y-123816636D01*
X186756498Y-123804443D01*
X186755268Y-123804243D01*
X186734915Y-123800216D01*
X186725912Y-123797172D01*
X186703675Y-123800073D01*
X186679962Y-123818534D01*
X186661992Y-123845222D01*
X186656606Y-123867575D01*
X186525181Y-123867575D01*
X186527853Y-123825446D01*
X186553479Y-123763628D01*
X186594729Y-123714428D01*
X186645510Y-123678249D01*
X186698925Y-123661839D01*
X186760784Y-123664083D01*
X186804768Y-123674028D01*
X186885578Y-123689556D01*
X186961876Y-123691301D01*
X187011765Y-123683108D01*
X187025664Y-123678069D01*
X187034873Y-123669020D01*
X187040707Y-123651212D01*
X187044481Y-123619899D01*
X187047511Y-123570333D01*
X187048505Y-123550500D01*
X187054209Y-123478534D01*
X187064605Y-123426032D01*
X187081954Y-123388086D01*
X187095868Y-123373262D01*
X188046480Y-123373262D01*
X188046522Y-123547948D01*
X188046708Y-123703081D01*
X188047096Y-123839896D01*
X188047744Y-123959628D01*
X188048710Y-124063511D01*
X188050053Y-124152781D01*
X188051831Y-124228674D01*
X188054103Y-124292423D01*
X188056928Y-124345264D01*
X188060363Y-124388433D01*
X188064468Y-124423164D01*
X188069300Y-124450692D01*
X188074919Y-124472252D01*
X188081382Y-124489080D01*
X188088748Y-124502410D01*
X188097076Y-124513478D01*
X188106423Y-124523519D01*
X188116850Y-124533767D01*
X188128413Y-124545457D01*
X188133304Y-124550742D01*
X188197046Y-124607797D01*
X188268496Y-124644490D01*
X188285359Y-124650081D01*
X188301198Y-124651239D01*
X188340052Y-124652371D01*
X188400445Y-124653469D01*
X188480897Y-124654522D01*
X188579933Y-124655522D01*
X188696072Y-124656458D01*
X188827839Y-124657322D01*
X188973754Y-124658103D01*
X189132341Y-124658792D01*
X189302121Y-124659380D01*
X189481617Y-124659858D01*
X189669350Y-124660215D01*
X189863844Y-124660442D01*
X189902864Y-124660471D01*
X190135582Y-124660599D01*
X190345061Y-124660648D01*
X190532558Y-124660607D01*
X190699328Y-124660460D01*
X190846625Y-124660195D01*
X190975706Y-124659798D01*
X191087827Y-124659257D01*
X191184241Y-124658556D01*
X191266206Y-124657684D01*
X191334976Y-124656626D01*
X191391806Y-124655370D01*
X191437953Y-124653901D01*
X191474671Y-124652206D01*
X191503217Y-124650273D01*
X191524845Y-124648087D01*
X191540811Y-124645635D01*
X191552371Y-124642904D01*
X191552589Y-124642839D01*
X191635732Y-124606420D01*
X191703057Y-124551312D01*
X191754370Y-124477676D01*
X191757425Y-124471696D01*
X191794166Y-124398216D01*
X191797443Y-122739580D01*
X191797942Y-122498520D01*
X191798403Y-122280715D01*
X191798771Y-122084924D01*
X191798991Y-121909910D01*
X191799009Y-121754432D01*
X191798770Y-121617251D01*
X191798219Y-121497128D01*
X191797303Y-121392823D01*
X191795965Y-121303098D01*
X191794152Y-121226712D01*
X191791808Y-121162427D01*
X191788880Y-121109003D01*
X191785312Y-121065201D01*
X191781051Y-121029782D01*
X191776040Y-121001506D01*
X191770226Y-120979133D01*
X191763554Y-120961426D01*
X191755969Y-120947143D01*
X191747417Y-120935047D01*
X191737843Y-120923897D01*
X191727193Y-120912454D01*
X191716351Y-120900553D01*
X191677412Y-120863346D01*
X191631674Y-120829283D01*
X191608954Y-120815989D01*
X191593223Y-120808209D01*
X191577880Y-120801829D01*
X191560333Y-120796651D01*
X191537991Y-120792476D01*
X191508263Y-120789108D01*
X191468559Y-120786348D01*
X191416287Y-120783998D01*
X191348857Y-120781860D01*
X191263678Y-120779737D01*
X191158159Y-120777430D01*
X191083848Y-120775872D01*
X190981753Y-120774059D01*
X190864845Y-120772541D01*
X190734987Y-120771307D01*
X190594041Y-120770350D01*
X190443869Y-120769659D01*
X190286334Y-120769224D01*
X190123298Y-120769038D01*
X189956624Y-120769090D01*
X189788175Y-120769371D01*
X189619812Y-120769872D01*
X189453399Y-120770584D01*
X189290798Y-120771496D01*
X189133871Y-120772601D01*
X188984482Y-120773887D01*
X188844492Y-120775348D01*
X188715764Y-120776971D01*
X188600160Y-120778750D01*
X188499543Y-120780674D01*
X188415776Y-120782733D01*
X188350721Y-120784919D01*
X188306241Y-120787223D01*
X188284198Y-120789634D01*
X188283267Y-120789891D01*
X188201711Y-120828036D01*
X188134105Y-120884052D01*
X188084266Y-120954765D01*
X188083641Y-120955984D01*
X188046625Y-121028602D01*
X188046625Y-122719532D01*
X188046589Y-122960289D01*
X188046521Y-123177787D01*
X188046480Y-123373262D01*
X187095868Y-123373262D01*
X187108516Y-123359787D01*
X187146550Y-123336229D01*
X187147351Y-123335819D01*
X187162507Y-123329335D01*
X187181527Y-123324286D01*
X187207455Y-123320499D01*
X187243333Y-123317800D01*
X187292203Y-123316013D01*
X187357107Y-123314966D01*
X187441090Y-123314483D01*
X187521761Y-123314387D01*
X187623031Y-123314402D01*
X187702455Y-123314085D01*
X187762682Y-123312877D01*
X187806359Y-123310218D01*
X187836133Y-123305546D01*
X187854652Y-123298301D01*
X187864563Y-123287924D01*
X187868514Y-123273853D01*
X187869153Y-123255529D01*
X187869045Y-123240887D01*
X187869271Y-123221106D01*
X187868335Y-123205226D01*
X187863823Y-123192820D01*
X187853316Y-123183461D01*
X187834398Y-123176723D01*
X187804652Y-123172177D01*
X187761661Y-123169396D01*
X187703008Y-123167954D01*
X187626276Y-123167424D01*
X187529049Y-123167378D01*
X187453240Y-123167406D01*
X187343089Y-123167485D01*
X187254844Y-123167813D01*
X187185917Y-123168528D01*
X187133719Y-123169768D01*
X187095664Y-123171671D01*
X187069162Y-123174373D01*
X187051627Y-123178012D01*
X187040470Y-123182727D01*
X187033104Y-123188654D01*
X187032033Y-123189802D01*
X187016016Y-123216203D01*
X187011765Y-123234572D01*
X187003257Y-123261435D01*
X186981887Y-123295368D01*
X186953881Y-123328093D01*
X186925467Y-123351334D01*
X186922765Y-123352860D01*
X186855259Y-123376458D01*
X186788000Y-123376207D01*
X186724156Y-123352424D01*
X186692061Y-123329778D01*
X186647440Y-123277941D01*
X186623568Y-123218218D01*
X186620998Y-123171466D01*
X186751025Y-123171466D01*
X186760751Y-123206210D01*
X186779910Y-123235100D01*
X186794125Y-123244937D01*
X186809817Y-123251285D01*
X186811956Y-123252167D01*
X186823623Y-123249061D01*
X186845963Y-123241065D01*
X186878542Y-123217616D01*
X186891515Y-123182840D01*
X186882767Y-123142557D01*
X186882189Y-123141407D01*
X186855851Y-123112085D01*
X186821394Y-123101671D01*
X186786217Y-123110124D01*
X186757721Y-123137403D01*
X186755009Y-123142111D01*
X186751025Y-123171466D01*
X186620998Y-123171466D01*
X186620102Y-123155176D01*
X186636699Y-123093381D01*
X186673016Y-123037402D01*
X186716881Y-122999303D01*
X186765354Y-122978615D01*
X186822182Y-122971773D01*
X186876575Y-122979331D01*
X186901543Y-122989826D01*
X186913654Y-122994489D01*
X186933582Y-122998292D01*
X186963588Y-123001319D01*
X187005931Y-123003653D01*
X187062872Y-123005375D01*
X187136671Y-123006567D01*
X187229586Y-123007314D01*
X187343880Y-123007696D01*
X187393169Y-123007763D01*
X187512649Y-123007785D01*
X187609918Y-123007543D01*
X187687260Y-123006944D01*
X187746957Y-123005896D01*
X187791291Y-123004306D01*
X187822547Y-123002084D01*
X187843005Y-122999135D01*
X187854949Y-122995368D01*
X187860663Y-122990691D01*
X187861612Y-122988825D01*
X187864241Y-122970164D01*
X187866462Y-122931893D01*
X187868094Y-122878896D01*
X187868956Y-122816054D01*
X187869045Y-122787753D01*
X187868562Y-122722221D01*
X187867233Y-122664472D01*
X187865239Y-122619389D01*
X187862760Y-122591854D01*
X187861612Y-122586681D01*
X187857466Y-122581574D01*
X187847796Y-122577438D01*
X187830277Y-122574174D01*
X187802582Y-122571682D01*
X187762384Y-122569863D01*
X187707359Y-122568616D01*
X187635178Y-122567842D01*
X187543517Y-122567440D01*
X187430050Y-122567311D01*
X187410376Y-122567309D01*
X187294429Y-122567346D01*
X187200501Y-122567546D01*
X187126117Y-122568048D01*
X187068801Y-122568986D01*
X187026080Y-122570497D01*
X186995477Y-122572719D01*
X186974518Y-122575787D01*
X186960728Y-122579839D01*
X186951632Y-122585009D01*
X186944755Y-122591436D01*
X186943258Y-122593072D01*
X186898392Y-122630372D01*
X186840464Y-122662031D01*
X186780904Y-122682141D01*
X186765709Y-122684867D01*
X186687775Y-122683649D01*
X186614408Y-122659126D01*
X186556022Y-122618700D01*
X186501651Y-122555277D01*
X186470123Y-122483277D01*
X186461034Y-122411627D01*
X186617416Y-122411627D01*
X186624722Y-122462992D01*
X186648879Y-122499532D01*
X186683638Y-122522383D01*
X186710039Y-122535531D01*
X186726176Y-122540550D01*
X186742537Y-122537598D01*
X186769607Y-122526832D01*
X186777163Y-122523781D01*
X186820284Y-122495515D01*
X186845694Y-122456068D01*
X186853547Y-122411020D01*
X186843996Y-122365946D01*
X186817195Y-122326425D01*
X186773298Y-122298034D01*
X186770925Y-122297108D01*
X186726695Y-122292120D01*
X186683422Y-122306734D01*
X186646994Y-122336558D01*
X186623296Y-122377202D01*
X186617416Y-122411627D01*
X186461034Y-122411627D01*
X186460925Y-122410768D01*
X186471446Y-122328670D01*
X186502207Y-122258447D01*
X186550918Y-122202368D01*
X186615289Y-122162701D01*
X186693030Y-122141715D01*
X186735405Y-122138938D01*
X186818973Y-122148519D01*
X186888122Y-122177844D01*
X186942654Y-122226781D01*
X186982369Y-122295199D01*
X186986376Y-122305364D01*
X187007015Y-122347233D01*
X187030670Y-122375531D01*
X187037886Y-122380364D01*
X187054747Y-122385083D01*
X187086495Y-122388832D01*
X187134929Y-122391677D01*
X187201847Y-122393686D01*
X187289049Y-122394928D01*
X187398332Y-122395469D01*
X187440405Y-122395505D01*
X187534869Y-122395271D01*
X187622378Y-122394601D01*
X187699663Y-122393556D01*
X187763454Y-122392197D01*
X187810480Y-122390584D01*
X187837472Y-122388777D01*
X187841681Y-122388084D01*
X187869428Y-122380650D01*
X187866175Y-122042277D01*
X187862922Y-121703905D01*
X187617985Y-121697503D01*
X187516987Y-121694698D01*
X187436811Y-121690418D01*
X187375053Y-121682069D01*
X187329311Y-121667056D01*
X187297184Y-121642785D01*
X187276270Y-121606662D01*
X187264166Y-121556091D01*
X187258471Y-121488479D01*
X187256782Y-121401231D01*
X187256702Y-121307277D01*
X187256359Y-121229483D01*
X187255400Y-121159296D01*
X187253933Y-121100667D01*
X187252064Y-121057547D01*
X187249898Y-121033889D01*
X187249268Y-121031329D01*
X187237035Y-121019144D01*
X187209141Y-121013153D01*
X187175179Y-121011957D01*
X187100768Y-121001277D01*
X187038796Y-120970237D01*
X186991363Y-120920337D01*
X186962834Y-120860506D01*
X186951269Y-120789685D01*
X186953043Y-120776156D01*
X187097056Y-120776156D01*
X187101610Y-120813729D01*
X187124753Y-120847636D01*
X187129762Y-120851859D01*
X187152126Y-120869441D01*
X187166013Y-120875457D01*
X187183190Y-120871849D01*
X187204660Y-120864225D01*
X187237527Y-120842420D01*
X187253685Y-120810274D01*
X187254329Y-120774162D01*
X187240651Y-120740460D01*
X187213845Y-120715542D01*
X187175105Y-120705786D01*
X187175000Y-120705786D01*
X187135744Y-120715750D01*
X187109098Y-120741352D01*
X187097056Y-120776156D01*
X186953043Y-120776156D01*
X186960183Y-120721716D01*
X186986909Y-120660490D01*
X187028782Y-120609899D01*
X187083135Y-120573833D01*
X187147304Y-120556185D01*
X187172069Y-120555086D01*
X187244145Y-120567908D01*
X187308486Y-120602324D01*
X187360414Y-120655626D01*
X187369593Y-120669432D01*
X187403882Y-120724930D01*
X187406835Y-121113833D01*
X187407815Y-121223862D01*
X187408989Y-121311845D01*
X187410489Y-121380229D01*
X187412445Y-121431463D01*
X187414988Y-121467993D01*
X187418246Y-121492268D01*
X187422352Y-121506735D01*
X187427434Y-121513842D01*
X187428158Y-121514344D01*
X187446111Y-121518238D01*
X187484040Y-121521600D01*
X187537429Y-121524189D01*
X187601763Y-121525766D01*
X187650353Y-121526138D01*
X187726762Y-121525921D01*
X187782120Y-121524900D01*
X187819862Y-121522762D01*
X187843427Y-121519195D01*
X187856250Y-121513888D01*
X187861612Y-121506954D01*
X187864084Y-121488690D01*
X187866209Y-121450439D01*
X187867837Y-121396708D01*
X187868820Y-121332003D01*
X187869045Y-121280990D01*
X187869874Y-121206696D01*
X187872162Y-121135829D01*
X187875613Y-121074234D01*
X187879930Y-121027760D01*
X187882826Y-121009498D01*
X187915200Y-120909673D01*
X187966301Y-120819538D01*
X188033100Y-120742264D01*
X188112571Y-120681024D01*
X188201687Y-120638988D01*
X188248698Y-120626207D01*
X188283421Y-120617232D01*
X188307284Y-120604360D01*
X188322291Y-120583318D01*
X188330444Y-120549831D01*
X188333745Y-120499624D01*
X188334239Y-120443642D01*
X188333344Y-120387345D01*
X188331065Y-120339532D01*
X188327766Y-120305875D01*
X188324544Y-120292799D01*
X188307599Y-120284715D01*
X188273258Y-120279178D01*
X188228498Y-120276302D01*
X188180294Y-120276203D01*
X188135623Y-120278994D01*
X188101462Y-120284790D01*
X188090305Y-120288955D01*
X188064490Y-120306040D01*
X188031540Y-120331916D01*
X188017986Y-120343601D01*
X187951177Y-120388669D01*
X187879384Y-120409888D01*
X187803753Y-120407126D01*
X187725432Y-120380249D01*
X187721293Y-120378182D01*
X187654777Y-120332352D01*
X187607828Y-120274182D01*
X187581122Y-120206924D01*
X187576017Y-120142430D01*
X187734330Y-120142430D01*
X187744506Y-120191703D01*
X187771406Y-120228304D01*
X187809585Y-120249977D01*
X187853600Y-120254466D01*
X187898004Y-120239518D01*
X187922486Y-120220365D01*
X187950132Y-120178327D01*
X187956993Y-120133424D01*
X187945322Y-120091102D01*
X187917374Y-120056805D01*
X187875406Y-120035976D01*
X187844552Y-120032208D01*
X187792409Y-120042062D01*
X187755825Y-120070340D01*
X187736724Y-120115117D01*
X187734330Y-120142430D01*
X187576017Y-120142430D01*
X187575336Y-120133831D01*
X187591147Y-120058154D01*
X187629232Y-119983146D01*
X187636821Y-119972273D01*
X187686111Y-119919745D01*
X187744555Y-119887787D01*
X187815620Y-119874877D01*
X187858270Y-119875162D01*
X187936102Y-119888234D01*
X187998750Y-119919120D01*
X188049551Y-119969993D01*
X188080498Y-120019896D01*
X188101323Y-120056886D01*
X188119827Y-120084849D01*
X188130017Y-120096042D01*
X188147948Y-120100038D01*
X188184251Y-120103211D01*
X188232807Y-120105131D01*
X188264615Y-120105502D01*
X188338932Y-120107613D01*
X188395829Y-120115555D01*
X188437524Y-120132133D01*
X188466237Y-120160155D01*
X188484185Y-120202424D01*
X188493589Y-120261748D01*
X188496667Y-120340931D01*
X188496408Y-120398602D01*
X188496334Y-120479884D01*
X188498516Y-120540174D01*
X188502881Y-120578234D01*
X188507584Y-120591491D01*
X188526002Y-120600606D01*
X188564266Y-120605948D01*
X188624526Y-120607804D01*
X188629296Y-120607811D01*
X188737463Y-120607811D01*
X188744633Y-120568008D01*
X188746418Y-120545351D01*
X188747775Y-120501884D01*
X188748668Y-120441290D01*
X188749062Y-120367249D01*
X188748920Y-120283442D01*
X188748250Y-120197541D01*
X188744696Y-119866875D01*
X188682564Y-119859291D01*
X188601497Y-119840364D01*
X188538391Y-119806074D01*
X188494150Y-119757293D01*
X188469678Y-119694894D01*
X188464819Y-119649079D01*
X188466064Y-119639344D01*
X188604045Y-119639344D01*
X188613697Y-119675593D01*
X188638618Y-119700668D01*
X188671975Y-119712868D01*
X188706934Y-119710494D01*
X188736661Y-119691845D01*
X188747798Y-119675117D01*
X188755835Y-119635983D01*
X188745627Y-119600513D01*
X188721887Y-119573783D01*
X188689326Y-119560868D01*
X188652655Y-119566846D01*
X188648981Y-119568659D01*
X188617874Y-119591386D01*
X188605260Y-119621207D01*
X188604045Y-119639344D01*
X188466064Y-119639344D01*
X188473891Y-119578129D01*
X188500769Y-119518944D01*
X188541624Y-119472657D01*
X188592630Y-119440402D01*
X188649960Y-119423311D01*
X188709788Y-119422517D01*
X188768286Y-119439155D01*
X188821629Y-119474357D01*
X188865989Y-119529257D01*
X188866503Y-119530128D01*
X188872676Y-119541599D01*
X188877794Y-119554628D01*
X188881989Y-119571585D01*
X188885396Y-119594839D01*
X188888147Y-119626761D01*
X188890374Y-119669721D01*
X188892212Y-119726087D01*
X188893793Y-119798229D01*
X188895249Y-119888519D01*
X188896715Y-119999324D01*
X188897782Y-120087319D01*
X188903905Y-120601687D01*
X189056991Y-120601687D01*
X189210077Y-120601687D01*
X189213387Y-120347821D01*
X189216696Y-120093955D01*
X189165438Y-120056824D01*
X189109698Y-120006598D01*
X189069585Y-119949930D01*
X189052423Y-119906219D01*
X189051412Y-119875724D01*
X189191707Y-119875724D01*
X189202325Y-119905136D01*
X189228374Y-119930970D01*
X189261147Y-119945488D01*
X189271311Y-119946480D01*
X189302990Y-119937962D01*
X189326422Y-119921986D01*
X189344771Y-119895326D01*
X189350916Y-119872999D01*
X189339989Y-119840737D01*
X189312441Y-119814228D01*
X189276124Y-119800259D01*
X189265882Y-119799518D01*
X189229640Y-119810477D01*
X189202469Y-119838331D01*
X189191707Y-119875539D01*
X189191707Y-119875724D01*
X189051412Y-119875724D01*
X189051406Y-119875539D01*
X189050584Y-119850744D01*
X189068608Y-119793452D01*
X189103024Y-119739974D01*
X189150361Y-119695942D01*
X189197873Y-119670258D01*
X189263447Y-119656313D01*
X189324651Y-119663313D01*
X189379097Y-119687790D01*
X189424399Y-119726278D01*
X189458173Y-119775309D01*
X189478031Y-119831414D01*
X189481587Y-119891126D01*
X189466457Y-119950978D01*
X189430253Y-120007501D01*
X189430064Y-120007714D01*
X189412046Y-120029280D01*
X189398486Y-120050392D01*
X189388753Y-120074840D01*
X189382216Y-120106411D01*
X189378246Y-120148893D01*
X189376212Y-120206076D01*
X189375483Y-120281747D01*
X189375410Y-120336075D01*
X189375760Y-120423739D01*
X189376936Y-120489789D01*
X189379125Y-120537096D01*
X189382514Y-120568531D01*
X189387290Y-120586965D01*
X189392250Y-120594294D01*
X189407988Y-120599221D01*
X189442487Y-120602730D01*
X189497103Y-120604869D01*
X189573191Y-120605685D01*
X189672108Y-120605226D01*
X189695360Y-120604979D01*
X189981630Y-120601687D01*
X189984830Y-120116489D01*
X189985510Y-119988709D01*
X189985674Y-119883515D01*
X189985276Y-119799006D01*
X189984268Y-119733279D01*
X189982604Y-119684431D01*
X189980237Y-119650561D01*
X189977120Y-119629766D01*
X189973206Y-119620144D01*
X189972584Y-119619574D01*
X189951751Y-119609113D01*
X189917947Y-119596873D01*
X189904325Y-119592745D01*
X189835330Y-119561065D01*
X189780508Y-119511394D01*
X189742048Y-119447101D01*
X189722141Y-119371556D01*
X189721756Y-119355463D01*
X189872793Y-119355463D01*
X189895427Y-119405989D01*
X189932472Y-119439391D01*
X189979245Y-119453475D01*
X190031061Y-119446047D01*
X190049233Y-119438108D01*
X190088722Y-119407398D01*
X190107698Y-119364950D01*
X190110222Y-119335882D01*
X190099633Y-119295039D01*
X190072550Y-119255854D01*
X190035993Y-119226831D01*
X190012810Y-119217915D01*
X189967513Y-119219031D01*
X189925596Y-119238760D01*
X189892374Y-119271879D01*
X189873163Y-119313167D01*
X189872793Y-119355463D01*
X189721756Y-119355463D01*
X189720667Y-119310002D01*
X189736719Y-119233455D01*
X189770487Y-119169724D01*
X189818329Y-119119629D01*
X189876606Y-119083993D01*
X189941677Y-119063635D01*
X190009901Y-119059379D01*
X190077637Y-119072045D01*
G37*
G36*
X189339469Y-121160172D02*
G01*
X189500587Y-121160485D01*
X189683005Y-121160978D01*
X189888151Y-121161561D01*
X189939804Y-121161701D01*
X191194069Y-121165043D01*
X191243057Y-121191525D01*
X191284256Y-121218534D01*
X191324098Y-121251784D01*
X191331226Y-121258883D01*
X191343151Y-121270868D01*
X191353783Y-121281473D01*
X191363198Y-121292094D01*
X191371468Y-121304130D01*
X191378667Y-121318977D01*
X191384870Y-121338031D01*
X191390150Y-121362690D01*
X191394581Y-121394349D01*
X191398236Y-121434407D01*
X191401190Y-121484260D01*
X191403517Y-121545304D01*
X191405290Y-121618937D01*
X191406583Y-121706555D01*
X191407470Y-121809556D01*
X191408024Y-121929335D01*
X191408321Y-122067290D01*
X191408433Y-122224818D01*
X191408434Y-122403315D01*
X191408398Y-122604178D01*
X191408390Y-122718603D01*
X191408390Y-124046383D01*
X191374169Y-124111889D01*
X191338255Y-124166309D01*
X191291865Y-124206806D01*
X191280220Y-124214324D01*
X191220491Y-124251253D01*
X189921360Y-124253469D01*
X189699998Y-124253775D01*
X189502110Y-124253891D01*
X189326676Y-124253807D01*
X189172676Y-124253515D01*
X189039090Y-124253004D01*
X188924900Y-124252265D01*
X188829085Y-124251290D01*
X188750625Y-124250068D01*
X188688502Y-124248590D01*
X188641695Y-124246848D01*
X188609186Y-124244831D01*
X188589953Y-124242530D01*
X188584870Y-124241222D01*
X188513670Y-124201588D01*
X188459730Y-124144864D01*
X188437227Y-124105510D01*
X188408147Y-124043057D01*
X188408095Y-122726519D01*
X188408182Y-122492587D01*
X188408466Y-122282529D01*
X188408954Y-122095727D01*
X188409651Y-121931562D01*
X188410563Y-121789414D01*
X188411697Y-121668665D01*
X188413058Y-121568697D01*
X188414654Y-121488890D01*
X188416490Y-121428626D01*
X188418571Y-121387285D01*
X188420905Y-121364250D01*
X188421606Y-121360993D01*
X188442546Y-121316432D01*
X188479759Y-121267934D01*
X188492069Y-121255032D01*
X188506769Y-121239911D01*
X188519900Y-121226446D01*
X188532893Y-121214544D01*
X188547176Y-121204114D01*
X188564179Y-121195063D01*
X188585331Y-121187298D01*
X188612061Y-121180729D01*
X188645798Y-121175262D01*
X188687972Y-121170806D01*
X188740012Y-121167269D01*
X188803347Y-121164558D01*
X188879406Y-121162581D01*
X188969618Y-121161246D01*
X189075414Y-121160461D01*
X189198221Y-121160134D01*
X189339469Y-121160172D01*
G37*
G36*
X145427526Y-73624821D02*
G01*
X145946366Y-73744911D01*
X146434939Y-73938129D01*
X146886819Y-74198804D01*
X147295583Y-74521266D01*
X147654805Y-74899843D01*
X147958061Y-75328864D01*
X148198926Y-75802658D01*
X148370977Y-76315553D01*
X148452404Y-76732710D01*
X148504077Y-77110833D01*
X149026826Y-77434284D01*
X149527954Y-77759838D01*
X149989129Y-78090379D01*
X150404642Y-78420495D01*
X150768783Y-78744774D01*
X151075845Y-79057806D01*
X151320118Y-79354176D01*
X151495894Y-79628475D01*
X151595969Y-79869837D01*
X151642200Y-80170981D01*
X151608861Y-80443482D01*
X151499339Y-80682289D01*
X151317022Y-80882356D01*
X151065296Y-81038633D01*
X150747549Y-81146073D01*
X150738209Y-81148222D01*
X150550355Y-81177868D01*
X150302614Y-81198446D01*
X150020940Y-81209263D01*
X149731285Y-81209625D01*
X149459602Y-81198838D01*
X149312394Y-81186336D01*
X148959468Y-81137744D01*
X148543899Y-81062890D01*
X148083820Y-80965734D01*
X147597366Y-80850237D01*
X147102672Y-80720362D01*
X146842470Y-80646799D01*
X146377809Y-80511961D01*
X146023115Y-80626980D01*
X145472243Y-80767266D01*
X144936759Y-80824364D01*
X144409528Y-80798341D01*
X143883415Y-80689265D01*
X143749406Y-80648437D01*
X143253868Y-80444776D01*
X142792850Y-80169880D01*
X142376013Y-79832593D01*
X142013030Y-79441777D01*
X142273671Y-79441777D01*
X142343768Y-79542111D01*
X142441674Y-79650964D01*
X142595477Y-79786341D01*
X142785347Y-79933484D01*
X142991453Y-80077640D01*
X143193966Y-80204050D01*
X143336273Y-80280644D01*
X143831283Y-80479889D01*
X144342604Y-80605808D01*
X144761620Y-80650598D01*
X144848446Y-80651001D01*
X144858728Y-80630308D01*
X144804744Y-80574025D01*
X144759643Y-80548133D01*
X145166573Y-80548133D01*
X145183955Y-80568297D01*
X145194058Y-80572857D01*
X145316723Y-80591273D01*
X145495204Y-80575822D01*
X145707162Y-80529118D01*
X145795743Y-80502456D01*
X145970288Y-80445835D01*
X145733107Y-80466463D01*
X145481049Y-80489996D01*
X145307613Y-80510464D01*
X145205290Y-80529349D01*
X145166573Y-80548133D01*
X144759643Y-80548133D01*
X144713240Y-80521494D01*
X144554927Y-80467792D01*
X144353141Y-80420250D01*
X143883255Y-80294383D01*
X143420819Y-80107644D01*
X143000102Y-79874192D01*
X142948261Y-79839796D01*
X142778690Y-79728200D01*
X142612109Y-79624357D01*
X142478215Y-79546633D01*
X142450956Y-79532221D01*
X142273671Y-79441777D01*
X142013030Y-79441777D01*
X142013017Y-79441763D01*
X141713524Y-79006234D01*
X141513507Y-78601191D01*
X141481142Y-78522221D01*
X141685645Y-78522221D01*
X141695392Y-78566706D01*
X141744522Y-78654093D01*
X141816702Y-78761450D01*
X141895602Y-78865840D01*
X141964889Y-78944329D01*
X142007367Y-78974023D01*
X141994677Y-78940045D01*
X141950366Y-78852470D01*
X141905379Y-78769185D01*
X141805472Y-78605626D01*
X141731462Y-78524071D01*
X141685645Y-78522221D01*
X141481142Y-78522221D01*
X141394043Y-78309700D01*
X140857548Y-77947342D01*
X140281369Y-77539521D01*
X139774682Y-77141818D01*
X139340095Y-76756749D01*
X138980216Y-76386833D01*
X138697652Y-76034583D01*
X138495012Y-75702518D01*
X138463638Y-75637295D01*
X138394697Y-75465062D01*
X138365674Y-75319972D01*
X138367877Y-75157921D01*
X138368264Y-75153194D01*
X138371065Y-75139592D01*
X138540513Y-75139592D01*
X138551999Y-75339181D01*
X138626774Y-75568306D01*
X138709381Y-75728879D01*
X138821350Y-75889526D01*
X138988820Y-76090320D01*
X139199057Y-76318656D01*
X139439329Y-76561927D01*
X139696902Y-76807529D01*
X139959045Y-77042854D01*
X140213023Y-77255296D01*
X140385738Y-77388527D01*
X141253223Y-77984130D01*
X142184024Y-78536382D01*
X143184108Y-79048659D01*
X143865288Y-79357968D01*
X144624879Y-79674380D01*
X145374731Y-79962015D01*
X146108297Y-80219261D01*
X146819029Y-80444502D01*
X147500381Y-80636124D01*
X148145806Y-80792512D01*
X148748757Y-80912053D01*
X149302688Y-80993131D01*
X149801052Y-81034133D01*
X150237301Y-81033444D01*
X150533697Y-81002363D01*
X150853018Y-80923324D01*
X151111902Y-80802932D01*
X151303968Y-80645578D01*
X151422834Y-80455656D01*
X151448150Y-80372921D01*
X151476569Y-80246180D01*
X151393521Y-80375553D01*
X151248972Y-80551943D01*
X151064492Y-80709234D01*
X150873335Y-80820036D01*
X150836211Y-80834569D01*
X150665268Y-80871102D01*
X150422394Y-80888846D01*
X150119578Y-80888915D01*
X149768811Y-80872422D01*
X149382081Y-80840480D01*
X148971378Y-80794203D01*
X148548691Y-80734704D01*
X148126010Y-80663096D01*
X147715324Y-80580494D01*
X147458064Y-80520839D01*
X146882400Y-80359977D01*
X146252270Y-80148593D01*
X145579017Y-79891915D01*
X144873981Y-79595172D01*
X144148505Y-79263591D01*
X143413930Y-78902400D01*
X142681599Y-78516827D01*
X141962852Y-78112102D01*
X141269033Y-77693451D01*
X141118845Y-77598714D01*
X140795786Y-77386107D01*
X140464643Y-77155363D01*
X140139818Y-76917478D01*
X139835709Y-76683446D01*
X139566716Y-76464262D01*
X139347239Y-76270920D01*
X139231681Y-76157789D01*
X139057969Y-75954566D01*
X138913038Y-75743164D01*
X138807720Y-75542437D01*
X138752849Y-75371237D01*
X138747450Y-75315006D01*
X138763650Y-75239333D01*
X139833765Y-75239333D01*
X139838041Y-75273813D01*
X139916419Y-75552104D01*
X140074087Y-75832757D01*
X140304994Y-76105662D01*
X140377466Y-76175193D01*
X140457464Y-76245596D01*
X140545493Y-76315081D01*
X140649586Y-76388315D01*
X140777775Y-76469962D01*
X140938090Y-76564689D01*
X141138565Y-76677161D01*
X141387229Y-76812043D01*
X141692116Y-76974001D01*
X142061257Y-77167701D01*
X142304754Y-77294757D01*
X142655000Y-77477689D01*
X142984069Y-77650384D01*
X143283508Y-77808345D01*
X143544863Y-77947075D01*
X143759681Y-78062078D01*
X143919508Y-78148858D01*
X144015890Y-78202918D01*
X144038843Y-78217111D01*
X144100967Y-78292615D01*
X144103195Y-78366587D01*
X144048202Y-78410417D01*
X144020490Y-78413412D01*
X143968971Y-78394079D01*
X143850762Y-78339336D01*
X143675430Y-78254070D01*
X143452540Y-78143169D01*
X143191660Y-78011520D01*
X142902355Y-77864008D01*
X142594191Y-77705522D01*
X142276734Y-77540947D01*
X141959551Y-77375171D01*
X141652207Y-77213081D01*
X141364269Y-77059563D01*
X141251905Y-76999078D01*
X141100993Y-76920540D01*
X140986982Y-76866949D01*
X140924417Y-76844795D01*
X140918081Y-76850099D01*
X140970321Y-76899334D01*
X141083971Y-76985215D01*
X141246719Y-77099622D01*
X141446257Y-77234435D01*
X141670272Y-77381533D01*
X141906455Y-77532797D01*
X142142496Y-77680105D01*
X142366082Y-77815338D01*
X142499740Y-77893397D01*
X143081934Y-78211992D01*
X143713758Y-78530070D01*
X144360249Y-78830302D01*
X144610232Y-78939424D01*
X144821767Y-79028224D01*
X144970416Y-79084919D01*
X145071557Y-79113648D01*
X145140568Y-79118551D01*
X145192825Y-79103768D01*
X145202518Y-79098867D01*
X145282159Y-79071614D01*
X145374149Y-79082519D01*
X145484341Y-79122658D01*
X145748922Y-79230829D01*
X145993661Y-79327822D01*
X146235869Y-79419955D01*
X146492856Y-79513545D01*
X146781934Y-79614911D01*
X147120414Y-79730370D01*
X147479626Y-79850901D01*
X147977756Y-80012695D01*
X148407928Y-80141982D01*
X148781054Y-80241150D01*
X149108048Y-80312592D01*
X149399824Y-80358696D01*
X149667295Y-80381853D01*
X149916129Y-80384594D01*
X150137211Y-80372013D01*
X150303749Y-80343649D01*
X150446894Y-80293479D01*
X150488693Y-80273885D01*
X150633741Y-80184503D01*
X150763320Y-80075012D01*
X150805786Y-80027030D01*
X150916867Y-79881395D01*
X150768472Y-79610986D01*
X150697514Y-79470236D01*
X150650759Y-79354922D01*
X150637708Y-79288706D01*
X150638250Y-79286672D01*
X150690663Y-79239189D01*
X150773250Y-79241456D01*
X150848443Y-79289843D01*
X150861401Y-79308234D01*
X150898555Y-79362435D01*
X150906452Y-79352707D01*
X150889353Y-79294586D01*
X150851523Y-79203610D01*
X150809002Y-79117246D01*
X150710541Y-78974062D01*
X150550169Y-78802906D01*
X150324020Y-78600225D01*
X150028232Y-78362465D01*
X149803810Y-78192634D01*
X149618164Y-78058375D01*
X149413276Y-77916213D01*
X149202587Y-77774787D01*
X148999536Y-77642739D01*
X148817564Y-77528710D01*
X148670111Y-77441341D01*
X148570617Y-77389273D01*
X148537394Y-77378438D01*
X148509384Y-77416640D01*
X148494034Y-77511850D01*
X148493039Y-77547406D01*
X148487309Y-77672782D01*
X148473171Y-77766204D01*
X148469627Y-77777387D01*
X148492955Y-77836605D01*
X148595611Y-77927793D01*
X148739151Y-78026422D01*
X148913091Y-78150211D01*
X149108062Y-78307507D01*
X149286987Y-78468084D01*
X149317528Y-78497879D01*
X149493461Y-78688333D01*
X149600691Y-78846862D01*
X149644497Y-78985876D01*
X149630156Y-79117782D01*
X149606520Y-79177326D01*
X149497302Y-79307839D01*
X149314983Y-79396687D01*
X149061842Y-79444111D01*
X148740160Y-79450355D01*
X148352216Y-79415660D01*
X147900291Y-79340270D01*
X147386666Y-79224426D01*
X146999697Y-79119044D01*
X147969117Y-79119044D01*
X147979136Y-79164294D01*
X147985307Y-79167398D01*
X148134489Y-79203328D01*
X148341237Y-79232706D01*
X148576948Y-79252709D01*
X148813019Y-79260515D01*
X148915452Y-79259184D01*
X149103576Y-79249639D01*
X149227310Y-79231923D01*
X149308453Y-79201114D01*
X149363132Y-79158071D01*
X149425969Y-79050405D01*
X149413513Y-78924068D01*
X149324155Y-78774210D01*
X149185813Y-78624018D01*
X149065963Y-78516906D01*
X148919551Y-78398493D01*
X148764398Y-78281659D01*
X148618326Y-78179283D01*
X148499156Y-78104246D01*
X148424709Y-78069427D01*
X148417033Y-78068421D01*
X148385305Y-78106154D01*
X148340901Y-78204187D01*
X148301588Y-78316383D01*
X148239945Y-78487274D01*
X148156153Y-78687706D01*
X148077068Y-78856393D01*
X148000882Y-79019389D01*
X147969117Y-79119044D01*
X146999697Y-79119044D01*
X146813619Y-79068370D01*
X146183431Y-78872347D01*
X145924995Y-78785911D01*
X145149720Y-78509716D01*
X144406773Y-78220953D01*
X143702836Y-77922983D01*
X143044595Y-77619170D01*
X142438734Y-77312877D01*
X141891938Y-77007465D01*
X141410890Y-76706299D01*
X141008562Y-76417256D01*
X141518049Y-76417256D01*
X141523133Y-76495903D01*
X141554812Y-76550278D01*
X141570106Y-76553436D01*
X141588579Y-76507192D01*
X141625024Y-76395387D01*
X141673945Y-76235456D01*
X141722885Y-76068975D01*
X141779138Y-75874403D01*
X141827936Y-75705821D01*
X141863460Y-75583315D01*
X141878713Y-75530964D01*
X141871875Y-75527560D01*
X141833655Y-75587680D01*
X141773252Y-75696604D01*
X141678935Y-75892786D01*
X141600713Y-76091869D01*
X141544959Y-76273482D01*
X141518049Y-76417256D01*
X141008562Y-76417256D01*
X141002276Y-76412740D01*
X140703176Y-76158942D01*
X140517649Y-75974331D01*
X140394879Y-75822461D01*
X140325492Y-75688796D01*
X140300112Y-75558794D01*
X140299675Y-75540608D01*
X140486895Y-75540608D01*
X140512067Y-75645550D01*
X140568254Y-75740453D01*
X140634882Y-75820674D01*
X140741677Y-75929812D01*
X140871891Y-76052933D01*
X141008776Y-76175103D01*
X141135586Y-76281386D01*
X141235571Y-76356850D01*
X141291984Y-76386559D01*
X141292840Y-76386587D01*
X141320884Y-76348814D01*
X141356276Y-76253010D01*
X141373192Y-76192124D01*
X141419598Y-76040027D01*
X141485629Y-75860347D01*
X141529804Y-75754256D01*
X141583079Y-75623932D01*
X141614169Y-75527962D01*
X141617113Y-75490514D01*
X141556028Y-75468877D01*
X141431568Y-75448585D01*
X141266605Y-75431243D01*
X141084011Y-75418456D01*
X140906659Y-75411832D01*
X140757421Y-75412975D01*
X140659942Y-75423307D01*
X140535123Y-75470206D01*
X140486895Y-75540608D01*
X140299675Y-75540608D01*
X140299490Y-75532934D01*
X140313665Y-75420207D01*
X140363676Y-75339938D01*
X140460752Y-75287226D01*
X140616122Y-75257167D01*
X140841016Y-75244859D01*
X140961756Y-75243803D01*
X141171199Y-75246456D01*
X141361349Y-75253628D01*
X141507929Y-75264140D01*
X141575119Y-75273606D01*
X141653438Y-75284051D01*
X141715147Y-75263787D01*
X141782698Y-75198753D01*
X141866393Y-75091198D01*
X141933620Y-75002808D01*
X141974776Y-74939839D01*
X141980387Y-74895758D01*
X141940976Y-74864032D01*
X141847071Y-74838127D01*
X141689195Y-74811510D01*
X141457874Y-74777648D01*
X141399151Y-74769016D01*
X141037826Y-74725000D01*
X140742488Y-74712541D01*
X140498008Y-74733898D01*
X140289252Y-74791330D01*
X140101090Y-74887097D01*
X139967758Y-74982738D01*
X139873196Y-75066904D01*
X139834008Y-75140148D01*
X139833765Y-75239333D01*
X138763650Y-75239333D01*
X138788232Y-75124501D01*
X138906020Y-74946988D01*
X139091573Y-74796000D01*
X139108974Y-74785528D01*
X139227624Y-74714573D01*
X139276949Y-74678975D01*
X139262304Y-74670947D01*
X139189043Y-74682698D01*
X139178268Y-74684743D01*
X138967594Y-74743289D01*
X138779577Y-74828985D01*
X138639444Y-74928997D01*
X138594219Y-74981870D01*
X138540513Y-75139592D01*
X138371065Y-75139592D01*
X138408585Y-74957405D01*
X138498475Y-74800747D01*
X138645293Y-74678462D01*
X138856398Y-74585794D01*
X139139148Y-74517985D01*
X139410042Y-74479750D01*
X139765856Y-74457727D01*
X140188098Y-74461978D01*
X140661354Y-74491558D01*
X141170213Y-74545522D01*
X141672481Y-74618499D01*
X142204555Y-74705903D01*
X142416370Y-74515463D01*
X142860383Y-74170378D01*
X143336407Y-73905143D01*
X143845568Y-73719334D01*
X144388993Y-73612526D01*
X144884842Y-73583531D01*
X145427526Y-73624821D01*
G37*
G36*
X149617244Y-78378594D02*
G01*
X149719837Y-78475099D01*
X149858499Y-78636765D01*
X149863008Y-78642317D01*
X150082642Y-78940118D01*
X150226675Y-79199701D01*
X150295759Y-79423147D01*
X150290549Y-79612533D01*
X150216035Y-79764515D01*
X150082447Y-79871090D01*
X149893433Y-79938173D01*
X149672810Y-79960323D01*
X149463327Y-79936546D01*
X149232809Y-79874836D01*
X149069800Y-79809285D01*
X148981520Y-79743245D01*
X148967402Y-79706210D01*
X148984244Y-79627620D01*
X149043417Y-79600231D01*
X149157890Y-79621093D01*
X149232335Y-79645953D01*
X149410362Y-79691706D01*
X149609073Y-79714832D01*
X149798346Y-79714327D01*
X149948064Y-79689190D01*
X149991596Y-79671217D01*
X150073543Y-79582010D01*
X150088220Y-79500774D01*
X150058379Y-79368576D01*
X149976663Y-79195215D01*
X149853684Y-78998978D01*
X149700055Y-78798147D01*
X149640734Y-78729851D01*
X149510550Y-78569780D01*
X149449069Y-78453765D01*
X149454135Y-78376693D01*
X149480998Y-78351131D01*
X149540904Y-78339766D01*
X149617244Y-78378594D01*
G37*
G36*
X113783880Y-120249151D02*
G01*
X113788803Y-120249978D01*
X113794263Y-120251700D01*
X113800571Y-120254612D01*
X113808040Y-120259008D01*
X113816979Y-120265184D01*
X113827701Y-120273433D01*
X113840516Y-120284050D01*
X113855736Y-120297329D01*
X113873671Y-120313565D01*
X113894634Y-120333053D01*
X113918934Y-120356086D01*
X113946883Y-120382960D01*
X113978793Y-120413969D01*
X114014974Y-120449408D01*
X114055738Y-120489570D01*
X114101396Y-120534751D01*
X114152259Y-120585245D01*
X114208638Y-120641346D01*
X114270844Y-120703350D01*
X114339189Y-120771550D01*
X114413983Y-120846241D01*
X114495539Y-120927717D01*
X114584166Y-121016274D01*
X114662652Y-121094696D01*
X114741678Y-121173653D01*
X114818672Y-121250577D01*
X114893286Y-121325122D01*
X114965174Y-121396942D01*
X115033988Y-121465689D01*
X115099382Y-121531016D01*
X115161008Y-121592578D01*
X115218520Y-121650028D01*
X115271569Y-121703018D01*
X115319811Y-121751203D01*
X115362896Y-121794235D01*
X115400479Y-121831769D01*
X115432212Y-121863456D01*
X115457748Y-121888952D01*
X115476740Y-121907908D01*
X115488841Y-121919979D01*
X115493704Y-121924817D01*
X115493787Y-121924897D01*
X115498109Y-121921844D01*
X115509991Y-121912715D01*
X115528578Y-121898185D01*
X115553017Y-121878927D01*
X115582452Y-121855617D01*
X115616029Y-121828929D01*
X115652893Y-121799537D01*
X115680995Y-121777078D01*
X115866999Y-121628275D01*
X115864302Y-121606184D01*
X115863403Y-121593128D01*
X115862710Y-121571761D01*
X115862271Y-121544557D01*
X115862134Y-121513993D01*
X115862155Y-121508579D01*
X116050867Y-121508579D01*
X116052301Y-121548012D01*
X116057552Y-121582850D01*
X116067567Y-121617174D01*
X116083298Y-121655059D01*
X116086684Y-121662306D01*
X116113610Y-121707419D01*
X116149120Y-121748817D01*
X116191194Y-121784768D01*
X116237811Y-121813544D01*
X116286268Y-121833210D01*
X116345249Y-121845493D01*
X116406264Y-121847815D01*
X116467104Y-121840130D01*
X116480298Y-121837079D01*
X116536859Y-121817538D01*
X116587767Y-121788927D01*
X116632510Y-121751663D01*
X116670577Y-121706159D01*
X116697472Y-121660977D01*
X116718813Y-121607015D01*
X116730243Y-121550822D01*
X116732015Y-121493778D01*
X116724382Y-121437265D01*
X116707597Y-121382665D01*
X116681914Y-121331359D01*
X116647585Y-121284728D01*
X116624070Y-121260606D01*
X116576259Y-121222880D01*
X116525217Y-121195399D01*
X116470492Y-121177983D01*
X116411631Y-121170454D01*
X116395604Y-121170093D01*
X116337831Y-121173626D01*
X116286126Y-121184904D01*
X116238441Y-121204560D01*
X116193331Y-121232790D01*
X116155904Y-121263141D01*
X116126177Y-121294585D01*
X116101306Y-121330502D01*
X116083841Y-121362996D01*
X116067084Y-121402152D01*
X116056707Y-121439850D01*
X116051706Y-121480525D01*
X116050867Y-121508579D01*
X115862155Y-121508579D01*
X115862197Y-121497791D01*
X115862607Y-121463607D01*
X115863500Y-121437549D01*
X115865176Y-121416953D01*
X115867933Y-121399161D01*
X115872069Y-121381509D01*
X115877317Y-121363219D01*
X115891563Y-121322595D01*
X115909988Y-121279917D01*
X115930609Y-121239411D01*
X115951442Y-121205303D01*
X115951517Y-121205194D01*
X115972376Y-121178172D01*
X115999116Y-121148324D01*
X116028656Y-121118827D01*
X116057913Y-121092857D01*
X116069271Y-121083845D01*
X116102066Y-121061773D01*
X116141587Y-121039599D01*
X116183961Y-121019215D01*
X116225313Y-121002512D01*
X116255362Y-120992990D01*
X116287303Y-120986508D01*
X116326014Y-120981703D01*
X116367994Y-120978745D01*
X116409743Y-120977802D01*
X116447760Y-120979044D01*
X116476731Y-120982313D01*
X116548957Y-121000091D01*
X116617641Y-121027268D01*
X116681753Y-121063091D01*
X116740265Y-121106808D01*
X116792147Y-121157667D01*
X116836369Y-121214913D01*
X116867132Y-121267958D01*
X116891451Y-121322449D01*
X116908382Y-121374937D01*
X116918689Y-121428806D01*
X116923139Y-121487439D01*
X116923431Y-121516670D01*
X116922791Y-121550945D01*
X116921133Y-121578153D01*
X116918027Y-121601995D01*
X116913043Y-121626178D01*
X116908711Y-121643381D01*
X116887003Y-121710347D01*
X116858512Y-121770485D01*
X116821861Y-121826303D01*
X116782912Y-121872606D01*
X116727883Y-121924406D01*
X116667275Y-121967390D01*
X116602005Y-122001213D01*
X116532989Y-122025530D01*
X116461146Y-122039996D01*
X116387391Y-122044265D01*
X116335402Y-122041033D01*
X116306541Y-122038235D01*
X116286899Y-122037418D01*
X116275090Y-122038571D01*
X116270767Y-122040525D01*
X116266454Y-122045463D01*
X116256264Y-122057757D01*
X116241059Y-122076339D01*
X116221699Y-122100141D01*
X116199044Y-122128093D01*
X116173956Y-122159127D01*
X116147295Y-122192174D01*
X116119921Y-122226166D01*
X116092697Y-122260033D01*
X116066481Y-122292707D01*
X116042135Y-122323119D01*
X116020520Y-122350200D01*
X116002496Y-122372883D01*
X115988924Y-122390097D01*
X115981025Y-122400298D01*
X115982214Y-122402979D01*
X115987262Y-122409409D01*
X115996388Y-122419809D01*
X116009810Y-122434402D01*
X116027748Y-122453409D01*
X116050419Y-122477054D01*
X116078043Y-122505557D01*
X116110838Y-122539141D01*
X116149024Y-122578028D01*
X116192818Y-122622440D01*
X116242439Y-122672599D01*
X116298107Y-122728728D01*
X116360040Y-122791048D01*
X116428457Y-122859781D01*
X116503576Y-122935150D01*
X116585616Y-123017376D01*
X116674796Y-123106683D01*
X116771334Y-123203291D01*
X116807086Y-123239053D01*
X116910525Y-123342555D01*
X117006453Y-123438617D01*
X117095018Y-123527395D01*
X117176374Y-123609042D01*
X117250671Y-123683712D01*
X117318061Y-123751557D01*
X117378696Y-123812732D01*
X117432726Y-123867390D01*
X117480303Y-123915685D01*
X117521579Y-123957770D01*
X117556704Y-123993800D01*
X117585832Y-124023926D01*
X117609112Y-124048304D01*
X117626696Y-124067087D01*
X117638736Y-124080427D01*
X117645383Y-124088480D01*
X117646811Y-124090748D01*
X117654274Y-124116340D01*
X117654250Y-124140498D01*
X117646202Y-124164487D01*
X117629596Y-124189572D01*
X117603899Y-124217018D01*
X117586891Y-124232532D01*
X117483873Y-124315994D01*
X117375850Y-124390102D01*
X117262677Y-124454917D01*
X117144209Y-124510496D01*
X117020301Y-124556900D01*
X116890806Y-124594188D01*
X116755580Y-124622419D01*
X116614477Y-124641652D01*
X116571936Y-124645597D01*
X116528675Y-124648204D01*
X116477518Y-124649660D01*
X116420934Y-124650025D01*
X116361388Y-124649356D01*
X116301347Y-124647714D01*
X116243278Y-124645157D01*
X116189648Y-124641743D01*
X116142922Y-124637532D01*
X116120513Y-124634823D01*
X115948990Y-124606762D01*
X115782771Y-124569791D01*
X115620537Y-124523516D01*
X115460966Y-124467541D01*
X115302738Y-124401471D01*
X115234010Y-124369487D01*
X115202688Y-124354569D01*
X115179809Y-124344018D01*
X115164153Y-124337399D01*
X115154502Y-124334280D01*
X115149636Y-124334229D01*
X115148336Y-124336811D01*
X115148694Y-124339177D01*
X115150579Y-124348092D01*
X115154098Y-124365732D01*
X115158886Y-124390222D01*
X115164575Y-124419686D01*
X115170800Y-124452248D01*
X115171069Y-124453663D01*
X115178750Y-124494003D01*
X115187657Y-124540711D01*
X115196985Y-124589559D01*
X115205926Y-124636320D01*
X115211748Y-124666723D01*
X115219489Y-124707155D01*
X115228530Y-124754432D01*
X115238154Y-124804803D01*
X115247644Y-124854515D01*
X115256283Y-124899817D01*
X115257090Y-124904056D01*
X115264311Y-124941888D01*
X115273082Y-124987741D01*
X115282911Y-125039041D01*
X115293303Y-125093217D01*
X115303765Y-125147695D01*
X115313805Y-125199904D01*
X115317078Y-125216904D01*
X115325576Y-125261179D01*
X115333519Y-125302841D01*
X115340649Y-125340515D01*
X115346709Y-125372827D01*
X115351440Y-125398403D01*
X115354584Y-125415868D01*
X115355786Y-125423099D01*
X115358661Y-125443205D01*
X116028162Y-125444675D01*
X116697664Y-125446145D01*
X116735421Y-125461706D01*
X116787867Y-125488514D01*
X116832362Y-125522541D01*
X116869222Y-125564079D01*
X116897052Y-125609953D01*
X116902653Y-125621418D01*
X116907501Y-125632428D01*
X116911651Y-125643821D01*
X116915157Y-125656433D01*
X116918074Y-125671102D01*
X116920456Y-125688666D01*
X116922357Y-125709963D01*
X116923833Y-125735829D01*
X116924938Y-125767102D01*
X116925726Y-125804619D01*
X116926251Y-125849219D01*
X116926569Y-125901738D01*
X116926734Y-125963014D01*
X116926800Y-126033885D01*
X116926812Y-126067121D01*
X116926778Y-126128620D01*
X116926651Y-126187259D01*
X116926438Y-126242097D01*
X116926147Y-126292187D01*
X116925787Y-126336587D01*
X116925365Y-126374352D01*
X116924890Y-126404538D01*
X116924370Y-126426201D01*
X116923813Y-126438398D01*
X116923582Y-126440412D01*
X116918095Y-126454265D01*
X116907885Y-126470779D01*
X116901586Y-126478843D01*
X116882913Y-126500658D01*
X114828806Y-126500658D01*
X112774700Y-126500658D01*
X112758037Y-126481680D01*
X112747220Y-126467534D01*
X112739772Y-126454457D01*
X112738428Y-126450665D01*
X112737973Y-126443436D01*
X112737579Y-126426285D01*
X112737250Y-126400082D01*
X112736987Y-126365693D01*
X112736796Y-126323985D01*
X112736792Y-126322290D01*
X112924612Y-126322290D01*
X114827320Y-126321126D01*
X116730027Y-126319962D01*
X116731421Y-126016426D01*
X116731707Y-125951475D01*
X116731907Y-125896422D01*
X116731992Y-125850377D01*
X116731939Y-125812450D01*
X116731720Y-125781752D01*
X116731310Y-125757394D01*
X116730685Y-125738484D01*
X116729817Y-125724135D01*
X116728681Y-125713455D01*
X116727251Y-125705556D01*
X116725502Y-125699548D01*
X116723408Y-125694540D01*
X116722031Y-125691755D01*
X116710452Y-125674636D01*
X116695214Y-125658607D01*
X116691391Y-125655473D01*
X116671534Y-125640327D01*
X114819494Y-125638955D01*
X114651102Y-125638833D01*
X114493163Y-125638725D01*
X114345340Y-125638632D01*
X114207300Y-125638555D01*
X114078707Y-125638497D01*
X113959225Y-125638457D01*
X113848519Y-125638439D01*
X113746255Y-125638442D01*
X113652096Y-125638469D01*
X113565707Y-125638520D01*
X113486754Y-125638598D01*
X113414900Y-125638703D01*
X113349811Y-125638837D01*
X113291152Y-125639001D01*
X113238586Y-125639196D01*
X113191780Y-125639424D01*
X113150397Y-125639687D01*
X113114102Y-125639985D01*
X113082560Y-125640320D01*
X113055436Y-125640693D01*
X113032394Y-125641106D01*
X113013100Y-125641560D01*
X112997217Y-125642056D01*
X112984412Y-125642596D01*
X112974347Y-125643181D01*
X112966689Y-125643813D01*
X112961102Y-125644492D01*
X112957250Y-125645220D01*
X112954799Y-125645999D01*
X112953848Y-125646499D01*
X112947911Y-125650421D01*
X112942837Y-125654366D01*
X112938558Y-125659162D01*
X112935008Y-125665638D01*
X112932117Y-125674624D01*
X112929819Y-125686950D01*
X112928045Y-125703443D01*
X112926727Y-125724934D01*
X112925799Y-125752252D01*
X112925191Y-125786226D01*
X112924836Y-125827686D01*
X112924667Y-125877460D01*
X112924614Y-125936377D01*
X112924612Y-126003965D01*
X112924612Y-126322290D01*
X112736792Y-126322290D01*
X112736677Y-126275825D01*
X112736634Y-126222081D01*
X112736671Y-126163620D01*
X112736790Y-126101310D01*
X112736994Y-126036016D01*
X112737001Y-126034083D01*
X112737114Y-126003965D01*
X112738521Y-125629539D01*
X112755790Y-125593084D01*
X112773901Y-125562023D01*
X112797751Y-125531322D01*
X112824475Y-125504227D01*
X112851205Y-125483986D01*
X112853094Y-125482856D01*
X112886040Y-125465814D01*
X112918553Y-125454337D01*
X112954509Y-125447324D01*
X112989339Y-125444128D01*
X113045975Y-125440752D01*
X113047870Y-125435185D01*
X113250806Y-125435185D01*
X113251811Y-125436259D01*
X113254382Y-125437237D01*
X113258984Y-125438121D01*
X113266079Y-125438918D01*
X113276130Y-125439631D01*
X113289602Y-125440266D01*
X113306956Y-125440826D01*
X113328657Y-125441317D01*
X113355167Y-125441743D01*
X113386950Y-125442108D01*
X113424470Y-125442418D01*
X113468189Y-125442676D01*
X113518571Y-125442887D01*
X113576078Y-125443057D01*
X113641175Y-125443189D01*
X113714325Y-125443288D01*
X113795991Y-125443358D01*
X113886635Y-125443405D01*
X113986722Y-125443433D01*
X114096715Y-125443446D01*
X114205092Y-125443449D01*
X114305886Y-125443429D01*
X114403741Y-125443373D01*
X114498114Y-125443282D01*
X114588465Y-125443157D01*
X114674251Y-125443001D01*
X114754930Y-125442816D01*
X114829960Y-125442603D01*
X114898801Y-125442366D01*
X114960909Y-125442105D01*
X115015743Y-125441822D01*
X115062761Y-125441520D01*
X115101421Y-125441201D01*
X115131181Y-125440866D01*
X115151500Y-125440517D01*
X115161836Y-125440157D01*
X115163091Y-125439979D01*
X115162107Y-125434046D01*
X115159312Y-125418764D01*
X115154939Y-125395376D01*
X115149224Y-125365126D01*
X115142402Y-125329255D01*
X115134706Y-125289008D01*
X115128222Y-125255237D01*
X115117538Y-125199651D01*
X115106499Y-125142122D01*
X115094921Y-125081693D01*
X115082624Y-125017408D01*
X115069423Y-124948310D01*
X115055136Y-124873444D01*
X115039581Y-124791852D01*
X115022575Y-124702579D01*
X115003935Y-124604667D01*
X114983479Y-124497162D01*
X114982387Y-124491420D01*
X114970215Y-124427535D01*
X114959873Y-124373503D01*
X114951212Y-124328574D01*
X114944079Y-124291997D01*
X114938324Y-124263022D01*
X114933797Y-124240897D01*
X114930345Y-124224873D01*
X114927820Y-124214198D01*
X114926068Y-124208122D01*
X114925005Y-124205943D01*
X114919885Y-124202556D01*
X114907647Y-124194785D01*
X114890344Y-124183927D01*
X114877213Y-124175741D01*
X114790431Y-124119422D01*
X114699852Y-124056266D01*
X114608001Y-123988177D01*
X114517404Y-123917059D01*
X114430588Y-123844815D01*
X114383826Y-123803918D01*
X114361745Y-123783623D01*
X114333883Y-123757084D01*
X114301849Y-123725912D01*
X114267255Y-123691721D01*
X114231709Y-123656123D01*
X114196824Y-123620730D01*
X114164208Y-123587155D01*
X114135474Y-123557010D01*
X114112903Y-123532650D01*
X114045623Y-123458484D01*
X113984056Y-123458484D01*
X113959732Y-123458645D01*
X113939943Y-123459085D01*
X113926826Y-123459733D01*
X113922488Y-123460460D01*
X113920805Y-123465811D01*
X113915986Y-123480346D01*
X113908379Y-123503037D01*
X113898329Y-123532858D01*
X113886184Y-123568781D01*
X113872290Y-123609779D01*
X113856993Y-123654826D01*
X113843755Y-123693747D01*
X113825091Y-123748595D01*
X113805452Y-123806334D01*
X113785553Y-123864866D01*
X113766106Y-123922089D01*
X113747825Y-123975907D01*
X113731423Y-124024219D01*
X113717614Y-124064925D01*
X113714744Y-124073391D01*
X113698992Y-124119815D01*
X113681744Y-124170564D01*
X113664062Y-124222518D01*
X113647009Y-124272557D01*
X113631645Y-124317564D01*
X113622916Y-124343088D01*
X113608186Y-124386160D01*
X113591842Y-124434029D01*
X113575139Y-124483016D01*
X113559332Y-124529440D01*
X113545675Y-124569621D01*
X113544756Y-124572329D01*
X113535117Y-124600699D01*
X113522568Y-124637586D01*
X113507685Y-124681299D01*
X113491043Y-124730146D01*
X113473219Y-124782437D01*
X113454790Y-124836479D01*
X113436332Y-124890582D01*
X113426211Y-124920238D01*
X113407562Y-124974892D01*
X113388265Y-125031486D01*
X113368960Y-125088141D01*
X113350288Y-125142977D01*
X113332886Y-125194115D01*
X113317397Y-125239676D01*
X113304458Y-125277781D01*
X113299495Y-125292419D01*
X113287216Y-125328590D01*
X113275925Y-125361719D01*
X113266131Y-125390328D01*
X113258339Y-125412943D01*
X113253056Y-125428085D01*
X113250905Y-125434009D01*
X113250806Y-125435185D01*
X113047870Y-125435185D01*
X113093701Y-125300509D01*
X113105857Y-125264780D01*
X113120832Y-125220760D01*
X113137970Y-125170372D01*
X113156618Y-125115538D01*
X113176122Y-125058183D01*
X113195827Y-125000228D01*
X113215081Y-124943597D01*
X113223939Y-124917541D01*
X113259369Y-124813325D01*
X113293332Y-124713445D01*
X113325652Y-124618412D01*
X113356157Y-124528737D01*
X113384673Y-124444928D01*
X113411026Y-124367497D01*
X113435042Y-124296953D01*
X113456548Y-124233808D01*
X113475370Y-124178571D01*
X113491334Y-124131752D01*
X113504267Y-124093863D01*
X113513994Y-124065412D01*
X113517730Y-124054512D01*
X113526445Y-124029062D01*
X113537871Y-123995606D01*
X113551255Y-123956355D01*
X113565845Y-123913521D01*
X113580885Y-123869315D01*
X113595623Y-123825948D01*
X113595853Y-123825271D01*
X113625171Y-123738985D01*
X113651219Y-123662424D01*
X113674168Y-123595088D01*
X113694191Y-123536477D01*
X113711461Y-123486092D01*
X113726151Y-123443435D01*
X113738433Y-123408005D01*
X113748479Y-123379303D01*
X113756463Y-123356830D01*
X113762556Y-123340087D01*
X113766932Y-123328574D01*
X113769762Y-123321792D01*
X113770169Y-123320938D01*
X113786316Y-123295835D01*
X113806545Y-123279448D01*
X113832688Y-123270684D01*
X113858217Y-123268440D01*
X113875153Y-123267804D01*
X113886724Y-123266668D01*
X113890125Y-123265545D01*
X113887202Y-123260618D01*
X113879342Y-123248870D01*
X113867907Y-123232240D01*
X113854258Y-123212667D01*
X113839759Y-123192087D01*
X113825770Y-123172438D01*
X113813654Y-123155659D01*
X113804773Y-123143687D01*
X113801890Y-123140011D01*
X113795147Y-123130604D01*
X113783867Y-123113543D01*
X113769047Y-123090433D01*
X113751682Y-123062881D01*
X113732768Y-123032495D01*
X113713299Y-123000880D01*
X113694273Y-122969643D01*
X113676684Y-122940391D01*
X113661528Y-122914731D01*
X113651624Y-122897515D01*
X113564090Y-122732482D01*
X113487280Y-122566367D01*
X113421180Y-122399130D01*
X113365776Y-122230727D01*
X113321053Y-122061115D01*
X113286998Y-121890252D01*
X113263598Y-121718096D01*
X113263405Y-121716245D01*
X113260476Y-121679590D01*
X113258324Y-121634952D01*
X113256933Y-121584477D01*
X113256290Y-121530311D01*
X113256349Y-121494398D01*
X113444681Y-121494398D01*
X113446394Y-121568740D01*
X113450117Y-121643990D01*
X113455783Y-121717742D01*
X113463320Y-121787587D01*
X113467150Y-121816033D01*
X113494122Y-121967676D01*
X113531421Y-122120392D01*
X113578730Y-122273483D01*
X113635736Y-122426248D01*
X113702122Y-122577989D01*
X113777575Y-122728006D01*
X113861779Y-122875600D01*
X113954419Y-123020070D01*
X114055179Y-123160718D01*
X114097364Y-123215340D01*
X114115725Y-123238514D01*
X114131819Y-123258627D01*
X114144434Y-123274183D01*
X114152358Y-123283682D01*
X114154391Y-123285878D01*
X114159232Y-123291134D01*
X114168834Y-123302579D01*
X114181284Y-123317925D01*
X114183691Y-123320938D01*
X114199776Y-123340531D01*
X114216671Y-123360175D01*
X114230029Y-123374878D01*
X114241260Y-123386775D01*
X114257823Y-123404456D01*
X114277722Y-123425786D01*
X114298964Y-123448629D01*
X114305139Y-123455284D01*
X114364136Y-123516591D01*
X114429734Y-123580669D01*
X114499841Y-123645681D01*
X114572363Y-123709784D01*
X114645210Y-123771140D01*
X114716287Y-123827908D01*
X114783503Y-123878250D01*
X114797599Y-123888304D01*
X114939667Y-123984531D01*
X115079558Y-124070885D01*
X115218223Y-124147815D01*
X115356613Y-124215770D01*
X115495680Y-124275202D01*
X115636375Y-124326560D01*
X115779649Y-124370294D01*
X115861334Y-124391616D01*
X116012668Y-124423956D01*
X116161511Y-124445998D01*
X116307707Y-124457727D01*
X116451097Y-124459128D01*
X116516324Y-124456284D01*
X116651993Y-124443231D01*
X116782631Y-124420913D01*
X116908061Y-124389394D01*
X117028111Y-124348732D01*
X117142606Y-124298990D01*
X117251371Y-124240229D01*
X117354232Y-124172510D01*
X117381371Y-124152393D01*
X117417808Y-124124702D01*
X116588787Y-123295667D01*
X116509800Y-123216720D01*
X116432805Y-123139843D01*
X116358151Y-123065382D01*
X116286187Y-122993683D01*
X116217261Y-122925089D01*
X116151723Y-122859947D01*
X116089922Y-122798602D01*
X116032206Y-122741398D01*
X115978925Y-122688682D01*
X115930427Y-122640797D01*
X115887061Y-122598090D01*
X115849176Y-122560906D01*
X115817121Y-122529589D01*
X115791245Y-122504484D01*
X115771897Y-122485938D01*
X115759426Y-122474295D01*
X115754180Y-122469901D01*
X115754049Y-122469879D01*
X115751243Y-122470239D01*
X115752488Y-122468554D01*
X115751601Y-122462474D01*
X115744721Y-122452583D01*
X115734483Y-122441548D01*
X115723523Y-122432034D01*
X115714475Y-122426706D01*
X115711047Y-122426635D01*
X115708094Y-122427109D01*
X115709336Y-122425403D01*
X115708449Y-122419322D01*
X115701570Y-122409432D01*
X115691332Y-122398397D01*
X115680372Y-122388882D01*
X115671323Y-122383555D01*
X115667896Y-122383483D01*
X115664943Y-122383958D01*
X115666185Y-122382251D01*
X115665298Y-122376171D01*
X115658418Y-122366280D01*
X115648181Y-122355245D01*
X115637220Y-122345731D01*
X115628172Y-122340403D01*
X115624744Y-122340332D01*
X115621791Y-122340807D01*
X115623033Y-122339100D01*
X115622147Y-122333020D01*
X115615267Y-122323129D01*
X115605029Y-122312094D01*
X115594069Y-122302580D01*
X115585020Y-122297252D01*
X115581593Y-122297181D01*
X115578640Y-122297655D01*
X115579882Y-122295948D01*
X115578995Y-122289868D01*
X115572116Y-122279978D01*
X115561878Y-122268943D01*
X115550917Y-122259428D01*
X115541869Y-122254100D01*
X115538441Y-122254029D01*
X115535488Y-122254504D01*
X115536731Y-122252797D01*
X115535844Y-122246717D01*
X115528964Y-122236826D01*
X115518726Y-122225791D01*
X115507766Y-122216277D01*
X115498718Y-122210949D01*
X115495290Y-122210878D01*
X115492337Y-122211352D01*
X115493579Y-122209646D01*
X115492640Y-122203620D01*
X115485775Y-122193720D01*
X115475616Y-122182644D01*
X115464793Y-122173088D01*
X115455936Y-122167748D01*
X115452654Y-122167695D01*
X115449666Y-122167674D01*
X115450517Y-122165801D01*
X115447146Y-122161454D01*
X115436544Y-122149939D01*
X115419131Y-122131674D01*
X115395327Y-122107079D01*
X115365553Y-122076575D01*
X115352222Y-122062991D01*
X115631305Y-122062991D01*
X115732930Y-122164722D01*
X115760057Y-122191678D01*
X115784762Y-122215849D01*
X115806012Y-122236254D01*
X115822773Y-122251913D01*
X115834013Y-122261846D01*
X115838687Y-122265075D01*
X115842900Y-122260697D01*
X115853075Y-122248841D01*
X115868434Y-122230450D01*
X115888198Y-122206471D01*
X115911589Y-122177846D01*
X115937829Y-122145521D01*
X115966139Y-122110439D01*
X115966504Y-122109986D01*
X116090188Y-121956275D01*
X116067593Y-121937520D01*
X116038155Y-121911291D01*
X116006771Y-121880341D01*
X115977603Y-121848840D01*
X115968406Y-121838120D01*
X115946275Y-121811661D01*
X115932728Y-121821938D01*
X115924314Y-121828525D01*
X115909108Y-121840629D01*
X115888700Y-121856976D01*
X115864681Y-121876292D01*
X115839151Y-121896890D01*
X115810114Y-121920357D01*
X115787841Y-121938353D01*
X115770702Y-121952186D01*
X115757067Y-121963163D01*
X115745305Y-121972589D01*
X115733788Y-121981771D01*
X115720884Y-121992016D01*
X115704965Y-122004632D01*
X115687122Y-122018767D01*
X115631305Y-122062991D01*
X115352222Y-122062991D01*
X115330228Y-122040580D01*
X115289772Y-121999515D01*
X115244605Y-121953799D01*
X115195149Y-121903852D01*
X115141821Y-121850093D01*
X115085044Y-121792943D01*
X115025236Y-121732820D01*
X114962818Y-121670145D01*
X114898211Y-121605338D01*
X114831833Y-121538817D01*
X114764105Y-121471004D01*
X114695447Y-121402316D01*
X114626280Y-121333175D01*
X114557023Y-121264000D01*
X114488096Y-121195210D01*
X114419920Y-121127225D01*
X114352914Y-121060465D01*
X114287499Y-120995350D01*
X114224095Y-120932299D01*
X114163121Y-120871732D01*
X114104998Y-120814069D01*
X114050147Y-120759729D01*
X113998986Y-120709133D01*
X113951936Y-120662699D01*
X113909418Y-120620847D01*
X113871851Y-120583998D01*
X113839655Y-120552571D01*
X113813250Y-120526985D01*
X113793057Y-120507660D01*
X113779495Y-120495017D01*
X113772986Y-120489474D01*
X113772463Y-120489265D01*
X113763465Y-120500386D01*
X113750123Y-120518043D01*
X113734162Y-120539856D01*
X113717312Y-120563445D01*
X113701299Y-120586430D01*
X113692303Y-120599703D01*
X113634511Y-120695397D01*
X113583711Y-120798782D01*
X113540153Y-120909126D01*
X113504088Y-121025695D01*
X113475766Y-121147758D01*
X113455438Y-121274583D01*
X113452302Y-121300913D01*
X113447566Y-121358077D01*
X113445048Y-121423375D01*
X113444681Y-121494398D01*
X113256349Y-121494398D01*
X113256382Y-121474598D01*
X113257194Y-121419484D01*
X113258713Y-121367115D01*
X113260924Y-121319636D01*
X113263814Y-121279192D01*
X113266381Y-121255065D01*
X113288154Y-121117371D01*
X113317054Y-120986809D01*
X113352995Y-120863639D01*
X113395887Y-120748122D01*
X113445644Y-120640521D01*
X113502177Y-120541095D01*
X113510484Y-120528065D01*
X113521468Y-120510801D01*
X113529737Y-120497290D01*
X113533891Y-120489838D01*
X113534126Y-120489145D01*
X113537300Y-120483579D01*
X113546032Y-120471133D01*
X113559136Y-120453352D01*
X113575425Y-120431775D01*
X113593714Y-120407945D01*
X113612818Y-120383403D01*
X113631549Y-120359691D01*
X113648722Y-120338352D01*
X113663151Y-120320926D01*
X113666915Y-120316521D01*
X113697415Y-120284802D01*
X113725493Y-120263231D01*
X113751548Y-120251542D01*
X113769226Y-120249097D01*
X113774403Y-120249005D01*
X113779184Y-120248925D01*
X113783880Y-120249151D01*
G37*
G36*
X116456992Y-120494167D02*
G01*
X116481733Y-120495716D01*
X116510689Y-120498121D01*
X116541702Y-120501179D01*
X116572614Y-120504690D01*
X116601268Y-120508453D01*
X116625504Y-120512265D01*
X116631562Y-120513382D01*
X116734686Y-120538572D01*
X116832908Y-120573366D01*
X116926107Y-120617700D01*
X117014165Y-120671509D01*
X117096962Y-120734728D01*
X117174379Y-120807292D01*
X117175241Y-120808184D01*
X117208225Y-120843030D01*
X117235137Y-120873182D01*
X117257982Y-120901102D01*
X117278760Y-120929249D01*
X117299476Y-120960086D01*
X117301866Y-120963793D01*
X117355489Y-121056635D01*
X117398651Y-121152024D01*
X117431429Y-121250184D01*
X117453897Y-121351338D01*
X117465971Y-121453379D01*
X117468156Y-121490967D01*
X117468605Y-121519784D01*
X117467043Y-121541746D01*
X117463192Y-121558772D01*
X117456776Y-121572778D01*
X117447520Y-121585681D01*
X117446778Y-121586569D01*
X117424017Y-121606164D01*
X117396409Y-121618412D01*
X117367063Y-121622324D01*
X117344935Y-121618944D01*
X117330574Y-121612375D01*
X117314235Y-121601833D01*
X117309294Y-121597977D01*
X117298173Y-121586974D01*
X117289854Y-121573742D01*
X117283799Y-121556421D01*
X117279467Y-121533153D01*
X117276321Y-121502077D01*
X117274778Y-121478913D01*
X117267169Y-121403280D01*
X117253025Y-121330587D01*
X117231714Y-121258754D01*
X117202602Y-121185702D01*
X117165056Y-121109352D01*
X117158576Y-121097338D01*
X117129787Y-121051472D01*
X117092856Y-121003491D01*
X117049667Y-120955261D01*
X117002107Y-120908645D01*
X116952060Y-120865507D01*
X116901413Y-120827712D01*
X116858687Y-120800831D01*
X116785225Y-120763751D01*
X116707363Y-120733134D01*
X116627408Y-120709624D01*
X116547664Y-120693861D01*
X116470436Y-120686488D01*
X116446298Y-120686005D01*
X116411665Y-120682473D01*
X116384346Y-120671440D01*
X116363320Y-120652250D01*
X116347562Y-120624247D01*
X116346729Y-120622190D01*
X116340612Y-120593023D01*
X116344507Y-120563940D01*
X116357859Y-120537190D01*
X116371504Y-120521976D01*
X116386671Y-120510212D01*
X116401491Y-120501752D01*
X116407604Y-120499601D01*
X116420829Y-120496529D01*
X116428786Y-120494443D01*
X116438623Y-120493676D01*
X116456992Y-120494167D01*
G37*
G36*
X116466624Y-119999005D02*
G01*
X116484841Y-119999210D01*
X116602984Y-120005922D01*
X116721197Y-120023035D01*
X116838595Y-120050204D01*
X116954290Y-120087085D01*
X117067396Y-120133333D01*
X117177026Y-120188604D01*
X117282293Y-120252554D01*
X117382311Y-120324837D01*
X117435342Y-120368520D01*
X117529253Y-120456553D01*
X117614705Y-120551104D01*
X117691469Y-120651715D01*
X117759317Y-120757926D01*
X117818018Y-120869279D01*
X117867344Y-120985317D01*
X117907065Y-121105580D01*
X117936951Y-121229611D01*
X117956773Y-121356950D01*
X117962916Y-121422782D01*
X117965637Y-121465998D01*
X117966699Y-121500146D01*
X117965968Y-121526837D01*
X117963309Y-121547683D01*
X117958589Y-121564296D01*
X117951672Y-121578287D01*
X117949689Y-121581406D01*
X117930216Y-121601683D01*
X117904526Y-121615481D01*
X117875759Y-121621690D01*
X117847051Y-121619205D01*
X117844518Y-121618499D01*
X117817629Y-121606975D01*
X117797697Y-121589471D01*
X117789080Y-121577319D01*
X117784404Y-121568553D01*
X117780905Y-121558305D01*
X117778278Y-121544607D01*
X117776220Y-121525490D01*
X117774425Y-121498983D01*
X117773116Y-121474044D01*
X117767987Y-121399773D01*
X117759916Y-121331667D01*
X117748268Y-121265350D01*
X117733181Y-121199516D01*
X117700055Y-121089064D01*
X117657317Y-120981645D01*
X117605575Y-120878276D01*
X117545437Y-120779972D01*
X117477511Y-120687751D01*
X117402405Y-120602629D01*
X117340624Y-120543066D01*
X117322069Y-120526380D01*
X117305734Y-120511611D01*
X117293802Y-120500738D01*
X117289367Y-120496625D01*
X117276155Y-120485443D01*
X117255928Y-120469958D01*
X117230782Y-120451645D01*
X117202812Y-120431977D01*
X117174114Y-120412429D01*
X117146783Y-120394476D01*
X117123784Y-120380114D01*
X117022982Y-120324918D01*
X116919871Y-120279558D01*
X116812611Y-120243302D01*
X116721936Y-120220217D01*
X116678008Y-120211096D01*
X116637470Y-120204063D01*
X116596979Y-120198690D01*
X116553193Y-120194550D01*
X116502770Y-120191216D01*
X116489267Y-120190486D01*
X116451537Y-120188112D01*
X116422866Y-120185126D01*
X116401528Y-120181027D01*
X116385794Y-120175314D01*
X116373936Y-120167484D01*
X116364228Y-120157037D01*
X116361526Y-120153387D01*
X116346661Y-120124344D01*
X116341467Y-120094123D01*
X116345635Y-120064657D01*
X116358858Y-120037875D01*
X116380825Y-120015710D01*
X116383867Y-120013565D01*
X116392943Y-120007620D01*
X116401094Y-120003481D01*
X116410431Y-120000851D01*
X116423059Y-119999427D01*
X116441088Y-119998912D01*
X116466624Y-119999005D01*
G37*
G36*
X116477679Y-119499806D02*
G01*
X116510874Y-119500936D01*
X116515789Y-119501113D01*
X116662422Y-119511744D01*
X116806812Y-119532919D01*
X116948888Y-119564614D01*
X117088577Y-119606805D01*
X117225808Y-119659471D01*
X117360508Y-119722586D01*
X117492605Y-119796128D01*
X117568783Y-119844063D01*
X117611754Y-119874110D01*
X117659826Y-119910881D01*
X117711223Y-119952789D01*
X117764170Y-119998245D01*
X117816892Y-120045663D01*
X117867613Y-120093453D01*
X117914557Y-120140027D01*
X117955950Y-120183799D01*
X117982454Y-120214037D01*
X118075124Y-120332501D01*
X118158286Y-120455917D01*
X118231834Y-120584095D01*
X118295663Y-120716846D01*
X118349668Y-120853982D01*
X118366531Y-120903913D01*
X118396535Y-121006603D01*
X118421586Y-121112935D01*
X118441253Y-121220337D01*
X118455108Y-121326236D01*
X118462721Y-121428060D01*
X118464119Y-121488620D01*
X118463475Y-121521464D01*
X118461065Y-121546053D01*
X118456276Y-121564859D01*
X118448492Y-121580353D01*
X118437916Y-121594086D01*
X118417694Y-121609663D01*
X118391711Y-121619119D01*
X118363606Y-121621622D01*
X118338254Y-121616805D01*
X118320899Y-121608523D01*
X118305624Y-121598109D01*
X118304030Y-121596690D01*
X118294194Y-121586700D01*
X118286665Y-121576391D01*
X118281055Y-121564101D01*
X118276972Y-121548165D01*
X118274027Y-121526919D01*
X118271829Y-121498699D01*
X118269988Y-121461841D01*
X118269463Y-121449246D01*
X118258568Y-121308378D01*
X118237460Y-121170964D01*
X118206142Y-121037021D01*
X118164619Y-120906564D01*
X118112894Y-120779608D01*
X118092986Y-120737248D01*
X118051158Y-120655297D01*
X118007850Y-120579031D01*
X117961626Y-120506366D01*
X117911052Y-120435218D01*
X117854693Y-120363501D01*
X117791115Y-120289131D01*
X117763064Y-120257869D01*
X117743126Y-120237272D01*
X117716537Y-120211779D01*
X117685201Y-120183065D01*
X117651022Y-120152806D01*
X117615904Y-120122677D01*
X117581750Y-120094355D01*
X117550466Y-120069513D01*
X117539654Y-120061280D01*
X117516239Y-120043897D01*
X117496099Y-120029301D01*
X117480682Y-120018513D01*
X117471433Y-120012550D01*
X117469406Y-120011765D01*
X117465561Y-120010472D01*
X117457148Y-120003657D01*
X117456580Y-120003131D01*
X117443886Y-119993302D01*
X117423211Y-119979628D01*
X117396231Y-119963069D01*
X117364622Y-119944585D01*
X117330063Y-119925137D01*
X117294230Y-119905683D01*
X117258800Y-119887185D01*
X117225449Y-119870601D01*
X117222989Y-119869418D01*
X117097826Y-119814907D01*
X116970879Y-119770654D01*
X116841351Y-119736462D01*
X116708445Y-119712135D01*
X116571362Y-119697477D01*
X116511250Y-119694111D01*
X116475376Y-119692526D01*
X116448476Y-119690992D01*
X116428739Y-119689261D01*
X116414356Y-119687082D01*
X116403514Y-119684208D01*
X116394406Y-119680388D01*
X116388415Y-119677200D01*
X116367094Y-119659830D01*
X116351033Y-119636210D01*
X116341902Y-119609625D01*
X116341225Y-119584209D01*
X116351295Y-119553397D01*
X116370367Y-119527926D01*
X116394875Y-119510504D01*
X116404198Y-119505912D01*
X116412812Y-119502638D01*
X116422592Y-119500536D01*
X116435413Y-119499461D01*
X116453150Y-119499267D01*
X116477679Y-119499806D01*
G37*
G36*
X116770482Y-121114822D02*
G01*
X116767785Y-121117519D01*
X116765088Y-121114822D01*
X116767785Y-121112126D01*
X116770482Y-121114822D01*
G37*
G36*
X117045572Y-120958399D02*
G01*
X117042875Y-120961096D01*
X117040178Y-120958399D01*
X117042875Y-120955702D01*
X117045572Y-120958399D01*
G37*
G36*
X117007814Y-120920641D02*
G01*
X117005117Y-120923338D01*
X117002420Y-120920641D01*
X117005117Y-120917944D01*
X117007814Y-120920641D01*
G37*
G36*
X117854661Y-120063007D02*
G01*
X117851964Y-120065704D01*
X117849267Y-120063007D01*
X117851964Y-120060310D01*
X117854661Y-120063007D01*
G37*
G36*
X114246124Y-123682332D02*
G01*
X114243427Y-123685028D01*
X114240730Y-123682332D01*
X114243427Y-123679635D01*
X114246124Y-123682332D01*
G37*
G36*
X155202459Y-79288594D02*
G01*
X155206274Y-79293495D01*
X155214725Y-79322695D01*
X155224517Y-79379572D01*
X155233738Y-79452710D01*
X155235044Y-79465270D01*
X155275255Y-79678372D01*
X155349480Y-79875818D01*
X155454614Y-80054523D01*
X155587551Y-80211404D01*
X155745185Y-80343376D01*
X155924411Y-80447354D01*
X156122124Y-80520254D01*
X156335217Y-80558992D01*
X156336392Y-80559102D01*
X156430065Y-80574737D01*
X156494728Y-80599981D01*
X156527883Y-80632270D01*
X156527035Y-80669042D01*
X156489687Y-80707733D01*
X156484518Y-80711179D01*
X156451942Y-80725751D01*
X156407389Y-80730973D01*
X156340349Y-80727461D01*
X156293282Y-80722408D01*
X156066881Y-80677301D01*
X155855123Y-80598594D01*
X155661358Y-80489138D01*
X155488935Y-80351786D01*
X155341204Y-80189387D01*
X155221514Y-80004794D01*
X155133216Y-79800856D01*
X155106956Y-79712664D01*
X155085074Y-79613129D01*
X155070193Y-79513928D01*
X155062888Y-79423694D01*
X155063736Y-79351059D01*
X155073311Y-79304656D01*
X155079176Y-79295869D01*
X155119235Y-79275771D01*
X155166750Y-79273226D01*
X155202459Y-79288594D01*
G37*
G36*
X156370263Y-72871179D02*
G01*
X156413679Y-72910584D01*
X156480736Y-72973850D01*
X156569420Y-73059008D01*
X156677713Y-73164088D01*
X156803599Y-73287118D01*
X156945063Y-73426130D01*
X157100087Y-73579152D01*
X157266657Y-73744215D01*
X157442756Y-73919347D01*
X157621762Y-74097976D01*
X157845056Y-74321381D01*
X158041818Y-74518733D01*
X158213466Y-74691504D01*
X158361419Y-74841166D01*
X158487092Y-74969193D01*
X158591903Y-75077056D01*
X158677271Y-75166229D01*
X158744613Y-75238183D01*
X158795346Y-75294391D01*
X158830887Y-75336326D01*
X158852655Y-75365460D01*
X158862066Y-75383266D01*
X158862703Y-75387062D01*
X158848194Y-75430618D01*
X158803621Y-75491537D01*
X158745067Y-75554469D01*
X158627431Y-75673161D01*
X158789868Y-75834754D01*
X158952305Y-75996348D01*
X159025393Y-75921500D01*
X159098480Y-75846651D01*
X159039433Y-75790081D01*
X159001885Y-75744573D01*
X158981567Y-75701392D01*
X158980386Y-75692005D01*
X158980712Y-75691270D01*
X159176085Y-75691270D01*
X159215761Y-75730946D01*
X159637173Y-76152359D01*
X160098261Y-76613447D01*
X160240358Y-76471350D01*
X160382455Y-76329254D01*
X159921999Y-75868485D01*
X159461543Y-75407717D01*
X159318814Y-75549494D01*
X159176085Y-75691270D01*
X158980712Y-75691270D01*
X158994058Y-75661165D01*
X159031243Y-75611466D01*
X159086194Y-75548511D01*
X159153165Y-75477901D01*
X159226411Y-75405240D01*
X159300185Y-75336130D01*
X159368741Y-75276173D01*
X159426333Y-75230973D01*
X159461543Y-75209577D01*
X159467214Y-75206131D01*
X159481534Y-75203380D01*
X159510944Y-75220935D01*
X159559894Y-75260275D01*
X159620706Y-75314938D01*
X159665801Y-75358443D01*
X159811833Y-75503415D01*
X159894503Y-75427212D01*
X159988099Y-75360335D01*
X160083215Y-75332188D01*
X160182211Y-75342606D01*
X160287448Y-75391424D01*
X160299034Y-75398822D01*
X160371169Y-75465245D01*
X160422883Y-75551210D01*
X160450725Y-75646107D01*
X160451242Y-75739324D01*
X160430705Y-75803560D01*
X160402383Y-75846541D01*
X160360379Y-75898056D01*
X160347381Y-75912241D01*
X160287268Y-75975756D01*
X160437997Y-76130645D01*
X160499281Y-76196825D01*
X160548571Y-76256154D01*
X160580121Y-76301319D01*
X160588726Y-76322417D01*
X160575257Y-76348073D01*
X160538645Y-76394455D01*
X160484587Y-76455779D01*
X160418777Y-76526264D01*
X160346909Y-76600128D01*
X160274680Y-76671589D01*
X160207784Y-76734864D01*
X160151915Y-76784172D01*
X160112770Y-76813730D01*
X160099018Y-76819614D01*
X160068803Y-76806795D01*
X160025386Y-76774446D01*
X160005776Y-76756566D01*
X159940727Y-76693517D01*
X159867779Y-76766466D01*
X159794830Y-76839414D01*
X159965374Y-77009959D01*
X160135918Y-77180503D01*
X160262555Y-77058900D01*
X160323066Y-77004421D01*
X160376751Y-76962560D01*
X160415106Y-76939698D01*
X160424606Y-76937297D01*
X160445494Y-76950910D01*
X160491595Y-76990285D01*
X160560606Y-77053228D01*
X160650222Y-77137545D01*
X160758139Y-77241043D01*
X160882053Y-77361526D01*
X161019658Y-77496802D01*
X161168651Y-77644675D01*
X161191948Y-77667915D01*
X161354083Y-77829921D01*
X161490495Y-77966701D01*
X161603352Y-78080611D01*
X161694825Y-78174010D01*
X161767081Y-78249255D01*
X161822290Y-78308703D01*
X161862620Y-78354712D01*
X161890241Y-78389638D01*
X161907320Y-78415840D01*
X161916028Y-78435675D01*
X161918532Y-78451500D01*
X161918269Y-78457374D01*
X161907098Y-78501022D01*
X161876791Y-78519385D01*
X161857143Y-78522575D01*
X161842270Y-78521848D01*
X161823674Y-78515014D01*
X161798941Y-78499838D01*
X161765660Y-78474084D01*
X161721417Y-78435518D01*
X161663800Y-78381905D01*
X161590398Y-78311010D01*
X161498797Y-78220599D01*
X161386585Y-78108436D01*
X161251350Y-77972287D01*
X161121401Y-77840992D01*
X160986772Y-77705224D01*
X160860214Y-77578346D01*
X160744444Y-77463028D01*
X160642180Y-77361943D01*
X160556139Y-77277761D01*
X160489037Y-77213155D01*
X160443593Y-77170795D01*
X160422523Y-77153352D01*
X160421643Y-77153050D01*
X160403747Y-77166465D01*
X160361475Y-77204633D01*
X160298060Y-77264441D01*
X160216736Y-77342776D01*
X160120735Y-77436525D01*
X160013292Y-77542574D01*
X159902178Y-77653266D01*
X159402250Y-78153482D01*
X160564229Y-79315462D01*
X161726209Y-80477441D01*
X162226425Y-79977513D01*
X162341291Y-79862353D01*
X162446866Y-79755814D01*
X162540043Y-79661085D01*
X162617714Y-79581355D01*
X162676773Y-79519813D01*
X162714113Y-79479647D01*
X162726641Y-79464137D01*
X162713356Y-79447079D01*
X162676037Y-79406352D01*
X162618495Y-79345924D01*
X162544535Y-79269764D01*
X162457967Y-79181838D01*
X162393205Y-79116716D01*
X162294976Y-79016860D01*
X162209457Y-78927046D01*
X162140078Y-78851083D01*
X162090273Y-78792780D01*
X162063474Y-78755948D01*
X162059769Y-78746568D01*
X162076740Y-78695849D01*
X162121104Y-78666825D01*
X162147712Y-78663320D01*
X162173315Y-78676968D01*
X162221117Y-78714936D01*
X162286660Y-78772765D01*
X162365490Y-78845992D01*
X162453150Y-78930158D01*
X162545186Y-79020800D01*
X162637140Y-79113458D01*
X162724558Y-79203671D01*
X162802984Y-79286977D01*
X162867962Y-79358916D01*
X162915036Y-79415027D01*
X162939751Y-79450848D01*
X162942394Y-79458951D01*
X162928897Y-79480175D01*
X162890745Y-79525169D01*
X162831452Y-79590397D01*
X162754528Y-79672326D01*
X162663486Y-79767419D01*
X162561836Y-79872142D01*
X162453092Y-79982961D01*
X162340763Y-80096339D01*
X162228362Y-80208744D01*
X162119401Y-80316639D01*
X162017391Y-80416490D01*
X161925844Y-80504762D01*
X161848271Y-80577920D01*
X161788185Y-80632429D01*
X161749097Y-80664755D01*
X161737316Y-80671987D01*
X161716854Y-80660812D01*
X161671464Y-80623898D01*
X161603550Y-80563643D01*
X161515516Y-80482448D01*
X161409762Y-80382714D01*
X161288694Y-80266840D01*
X161154713Y-80137227D01*
X161010223Y-79996274D01*
X160857626Y-79846383D01*
X160699326Y-79689953D01*
X160537725Y-79529384D01*
X160375227Y-79367077D01*
X160214234Y-79205431D01*
X160057149Y-79046848D01*
X159906376Y-78893726D01*
X159764317Y-78748467D01*
X159633376Y-78613470D01*
X159515954Y-78491136D01*
X159414456Y-78383865D01*
X159331284Y-78294056D01*
X159268841Y-78224111D01*
X159229530Y-78176429D01*
X159215754Y-78153411D01*
X159215753Y-78153339D01*
X159222658Y-78129346D01*
X159245173Y-78093875D01*
X159285995Y-78043808D01*
X159347823Y-77976024D01*
X159433355Y-77887404D01*
X159529497Y-77790581D01*
X159843240Y-77477297D01*
X159672364Y-77305625D01*
X159501488Y-77133954D01*
X159437076Y-77196384D01*
X159391570Y-77245475D01*
X159376294Y-77281722D01*
X159390163Y-77315906D01*
X159421699Y-77349189D01*
X159455621Y-77392731D01*
X159470688Y-77435163D01*
X159470734Y-77437010D01*
X159457280Y-77463481D01*
X159420707Y-77510640D01*
X159366698Y-77572678D01*
X159300934Y-77643785D01*
X159229100Y-77718151D01*
X159156878Y-77789967D01*
X159089950Y-77853423D01*
X159033999Y-77902709D01*
X158994708Y-77932016D01*
X158981076Y-77937606D01*
X158957747Y-77924588D01*
X158913439Y-77889251D01*
X158854754Y-77837167D01*
X158795591Y-77781055D01*
X158635203Y-77624504D01*
X158523368Y-77737518D01*
X158411533Y-77850532D01*
X158478841Y-77977428D01*
X158564080Y-78175661D01*
X158613597Y-78378775D01*
X158627289Y-78582320D01*
X158605052Y-78781848D01*
X158546783Y-78972908D01*
X158504137Y-79063808D01*
X158468641Y-79119511D01*
X158414565Y-79190453D01*
X158347031Y-79271237D01*
X158271164Y-79356468D01*
X158192086Y-79440750D01*
X158114921Y-79518688D01*
X158044791Y-79584885D01*
X157986821Y-79633947D01*
X157946134Y-79660477D01*
X157934600Y-79663629D01*
X157905782Y-79649419D01*
X157852531Y-79607946D01*
X157776831Y-79540947D01*
X157680667Y-79450159D01*
X157596556Y-79367747D01*
X157298443Y-79071866D01*
X157011193Y-79129723D01*
X156878598Y-79158123D01*
X156780778Y-79183725D01*
X156713584Y-79208598D01*
X156672868Y-79234809D01*
X156654480Y-79264426D01*
X156654271Y-79299518D01*
X156655898Y-79306792D01*
X156656332Y-79376511D01*
X156631196Y-79451427D01*
X156587006Y-79514175D01*
X156573619Y-79526025D01*
X156504430Y-79558211D01*
X156422004Y-79565141D01*
X156343082Y-79546862D01*
X156306206Y-79525280D01*
X156266315Y-79479148D01*
X156235381Y-79418625D01*
X156232382Y-79409512D01*
X156220268Y-79352789D01*
X156226732Y-79305294D01*
X156246620Y-79258711D01*
X156296281Y-79187965D01*
X156364255Y-79147812D01*
X156457246Y-79134380D01*
X156461864Y-79134343D01*
X156536636Y-79122703D01*
X156574589Y-79098246D01*
X156590417Y-79066815D01*
X156611763Y-79004928D01*
X156623458Y-78964559D01*
X156805735Y-78964559D01*
X156812123Y-78990585D01*
X156842824Y-78991266D01*
X156847375Y-78990203D01*
X156889027Y-78981194D01*
X156954608Y-78968243D01*
X157024756Y-78955108D01*
X157158007Y-78930819D01*
X157025282Y-78797069D01*
X156967073Y-78739619D01*
X156919103Y-78694527D01*
X156887994Y-78667898D01*
X156880267Y-78663320D01*
X156870842Y-78680756D01*
X156856624Y-78725793D01*
X156840311Y-78787529D01*
X156824601Y-78855058D01*
X156812192Y-78917477D01*
X156805783Y-78963881D01*
X156805735Y-78964559D01*
X156623458Y-78964559D01*
X156636208Y-78920547D01*
X156661333Y-78821632D01*
X156670089Y-78783955D01*
X156733184Y-78505471D01*
X156434777Y-78206598D01*
X156330297Y-78100879D01*
X156251599Y-78018502D01*
X156195775Y-77956056D01*
X156159917Y-77910131D01*
X156141116Y-77877318D01*
X156137978Y-77863696D01*
X156350113Y-77863696D01*
X156357608Y-77877073D01*
X156375632Y-77896305D01*
X156418808Y-77940640D01*
X156484539Y-78007453D01*
X156570226Y-78094124D01*
X156673268Y-78198031D01*
X156791068Y-78316551D01*
X156880267Y-78406129D01*
X156921026Y-78447061D01*
X157060542Y-78586941D01*
X157151131Y-78677649D01*
X157294753Y-78821114D01*
X157430219Y-78955897D01*
X157554978Y-79079496D01*
X157666479Y-79189408D01*
X157762171Y-79283134D01*
X157839502Y-79358170D01*
X157895923Y-79412015D01*
X157928882Y-79442167D01*
X157936507Y-79447876D01*
X157957498Y-79434880D01*
X157996433Y-79401029D01*
X158038576Y-79359963D01*
X158124857Y-79272049D01*
X157974012Y-79117041D01*
X157905373Y-79042756D01*
X157855022Y-78980533D01*
X157827256Y-78935949D01*
X157823166Y-78921243D01*
X157839896Y-78881001D01*
X157879320Y-78849401D01*
X157916102Y-78839845D01*
X157936483Y-78852572D01*
X157978474Y-78887032D01*
X158035526Y-78937644D01*
X158088049Y-78986424D01*
X158156604Y-79050536D01*
X158203178Y-79090923D01*
X158233864Y-79111257D01*
X158254754Y-79115214D01*
X158271941Y-79106466D01*
X158278204Y-79101087D01*
X158319596Y-79048639D01*
X158363010Y-78968962D01*
X158403471Y-78873427D01*
X158436008Y-78773403D01*
X158451912Y-78703996D01*
X158463549Y-78531262D01*
X158440148Y-78354254D01*
X158384874Y-78177595D01*
X158300895Y-78005909D01*
X158191377Y-77843822D01*
X158059487Y-77695957D01*
X157908390Y-77566939D01*
X157765357Y-77476612D01*
X158097761Y-77476612D01*
X158110865Y-77499555D01*
X158145556Y-77541235D01*
X158194898Y-77593456D01*
X158205857Y-77604387D01*
X158313953Y-77711140D01*
X158416282Y-77608811D01*
X158518610Y-77506483D01*
X158401995Y-77388638D01*
X158285380Y-77270793D01*
X158191570Y-77363192D01*
X158143944Y-77413033D01*
X158110179Y-77453961D01*
X158097761Y-77476612D01*
X157765357Y-77476612D01*
X157741255Y-77461391D01*
X157561246Y-77383938D01*
X157544194Y-77378400D01*
X157390729Y-77342976D01*
X157232039Y-77329472D01*
X157081737Y-77338377D01*
X156988232Y-77358379D01*
X156919828Y-77383543D01*
X156846225Y-77418136D01*
X156776327Y-77456946D01*
X156719037Y-77494761D01*
X156683259Y-77526367D01*
X156675753Y-77541316D01*
X156689145Y-77560645D01*
X156727196Y-77604234D01*
X156786716Y-77668711D01*
X156864515Y-77750709D01*
X156957403Y-77846858D01*
X157062192Y-77953788D01*
X157151390Y-78043769D01*
X157291696Y-78185769D01*
X157409094Y-78307039D01*
X157502455Y-78406351D01*
X157570650Y-78482478D01*
X157612550Y-78534194D01*
X157627025Y-78560272D01*
X157627027Y-78560443D01*
X157610499Y-78609517D01*
X157568846Y-78636793D01*
X157524309Y-78636701D01*
X157500366Y-78620499D01*
X157452433Y-78579618D01*
X157384021Y-78517353D01*
X157298642Y-78437000D01*
X157199807Y-78341853D01*
X157091025Y-78235209D01*
X156999792Y-78144424D01*
X156519662Y-77663531D01*
X156426667Y-77755128D01*
X156377026Y-77806585D01*
X156352945Y-77840235D01*
X156350113Y-77863696D01*
X156137978Y-77863696D01*
X156136371Y-77856723D01*
X156143116Y-77830015D01*
X156165596Y-77793745D01*
X156207178Y-77743905D01*
X156271231Y-77676487D01*
X156361121Y-77587483D01*
X156369129Y-77579698D01*
X156465907Y-77487375D01*
X156543743Y-77417784D01*
X156610403Y-77364926D01*
X156673652Y-77322799D01*
X156741258Y-77285406D01*
X156766311Y-77272854D01*
X156951798Y-77198459D01*
X157135042Y-77160061D01*
X157232039Y-77158845D01*
X157319954Y-77157743D01*
X157510445Y-77191585D01*
X157710429Y-77261669D01*
X157781818Y-77294025D01*
X157946415Y-77372618D01*
X158056075Y-77262958D01*
X158165735Y-77153298D01*
X158014065Y-77000732D01*
X157948251Y-76931014D01*
X157897952Y-76870745D01*
X157868250Y-76826344D01*
X157862521Y-76809441D01*
X158078147Y-76809441D01*
X158091544Y-76827732D01*
X158129545Y-76870184D01*
X158188870Y-76933371D01*
X158266237Y-77013863D01*
X158285380Y-77033473D01*
X158358362Y-77108235D01*
X158461965Y-77213059D01*
X158529267Y-77280541D01*
X158980388Y-77731342D01*
X159127491Y-77584239D01*
X159274593Y-77437137D01*
X158813853Y-76976709D01*
X158391360Y-76554503D01*
X158627169Y-76554503D01*
X158931267Y-76858601D01*
X159235364Y-77162699D01*
X159529653Y-76868410D01*
X159823941Y-76574122D01*
X159519851Y-76270507D01*
X159215761Y-75966892D01*
X158921465Y-76260697D01*
X158627169Y-76554503D01*
X158391360Y-76554503D01*
X158353113Y-76516282D01*
X158215630Y-76652711D01*
X158157147Y-76712686D01*
X158111033Y-76763668D01*
X158083368Y-76798727D01*
X158078147Y-76809441D01*
X157862521Y-76809441D01*
X157862394Y-76809066D01*
X157875860Y-76782746D01*
X157912466Y-76735745D01*
X157966518Y-76673869D01*
X158032328Y-76602920D01*
X158104203Y-76528703D01*
X158176453Y-76457021D01*
X158243386Y-76393679D01*
X158299312Y-76344479D01*
X158338539Y-76315227D01*
X158352102Y-76309652D01*
X158353113Y-76310081D01*
X158382317Y-76322471D01*
X158425734Y-76354820D01*
X158445344Y-76372700D01*
X158510393Y-76435748D01*
X158583337Y-76362804D01*
X158656281Y-76289860D01*
X158495019Y-76128598D01*
X158333756Y-75967335D01*
X158013372Y-76285598D01*
X157913609Y-76383145D01*
X157824840Y-76466914D01*
X157750804Y-76533573D01*
X157695239Y-76579792D01*
X157661883Y-76602237D01*
X157656249Y-76603861D01*
X157630956Y-76590229D01*
X157583426Y-76552306D01*
X157518113Y-76494547D01*
X157439470Y-76421408D01*
X157351951Y-76337346D01*
X157260008Y-76246818D01*
X157168096Y-76154279D01*
X157080667Y-76064185D01*
X157002176Y-75980994D01*
X156937075Y-75909160D01*
X156889817Y-75853142D01*
X156864857Y-75817394D01*
X156862085Y-75809179D01*
X156877145Y-75757306D01*
X156915129Y-75725634D01*
X156938852Y-75721235D01*
X156960555Y-75734563D01*
X157005613Y-75771995D01*
X157069834Y-75829706D01*
X157149030Y-75903868D01*
X157239011Y-75990655D01*
X157303960Y-76054672D01*
X157398286Y-76147681D01*
X157483945Y-76230700D01*
X157556887Y-76299920D01*
X157613065Y-76351536D01*
X157648430Y-76381740D01*
X157658566Y-76388108D01*
X157677607Y-76374596D01*
X157719945Y-76336652D01*
X157781735Y-76278168D01*
X157859130Y-76203034D01*
X157948285Y-76115140D01*
X158045355Y-76018376D01*
X158146494Y-75916634D01*
X158247857Y-75813803D01*
X158345597Y-75713774D01*
X158435870Y-75620437D01*
X158514830Y-75537683D01*
X158578632Y-75469403D01*
X158623429Y-75419486D01*
X158645376Y-75391823D01*
X158646950Y-75388191D01*
X158633389Y-75370672D01*
X158594073Y-75327575D01*
X158531048Y-75260995D01*
X158446363Y-75173026D01*
X158342067Y-75065763D01*
X158220206Y-74941301D01*
X158082829Y-74801733D01*
X157931984Y-74649155D01*
X157769719Y-74485660D01*
X157598081Y-74313345D01*
X157498755Y-74213896D01*
X156350560Y-73065404D01*
X155851187Y-73564488D01*
X155736377Y-73679690D01*
X155630869Y-73786438D01*
X155537777Y-73881515D01*
X155460215Y-73961703D01*
X155401296Y-74023784D01*
X155364133Y-74064541D01*
X155351815Y-74080609D01*
X155365243Y-74097474D01*
X155403760Y-74139348D01*
X155464718Y-74203501D01*
X155545468Y-74287203D01*
X155643362Y-74387725D01*
X155755750Y-74502337D01*
X155879985Y-74628310D01*
X156013417Y-74762914D01*
X156033398Y-74783013D01*
X156193197Y-74944036D01*
X156327097Y-75079798D01*
X156437171Y-75192541D01*
X156525488Y-75284509D01*
X156594120Y-75357946D01*
X156645138Y-75415094D01*
X156680614Y-75458197D01*
X156702618Y-75489498D01*
X156713221Y-75511241D01*
X156714981Y-75521256D01*
X156708406Y-75559851D01*
X156680673Y-75576237D01*
X156656139Y-75579736D01*
X156641277Y-75579147D01*
X156623370Y-75573245D01*
X156600063Y-75559859D01*
X156568997Y-75536821D01*
X156527815Y-75501962D01*
X156474160Y-75453113D01*
X156405675Y-75388105D01*
X156320001Y-75304771D01*
X156214782Y-75200939D01*
X156087659Y-75074443D01*
X155936277Y-74923113D01*
X155866680Y-74853414D01*
X155687567Y-74673230D01*
X155532322Y-74515479D01*
X155401639Y-74380895D01*
X155296214Y-74270212D01*
X155216743Y-74184163D01*
X155163920Y-74123483D01*
X155138442Y-74088905D01*
X155136062Y-74082437D01*
X155150167Y-74057865D01*
X155191902Y-74007265D01*
X155260396Y-73931564D01*
X155354776Y-73831690D01*
X155474173Y-73708568D01*
X155617715Y-73563126D01*
X155730125Y-73450496D01*
X155856497Y-73325016D01*
X155974995Y-73208584D01*
X156082620Y-73104060D01*
X156176371Y-73014302D01*
X156253247Y-72942167D01*
X156310248Y-72890516D01*
X156344374Y-72862205D01*
X156352505Y-72857606D01*
X156370263Y-72871179D01*
G37*
G36*
X155574337Y-79282107D02*
G01*
X155590657Y-79301654D01*
X155603726Y-79341460D01*
X155617031Y-79409597D01*
X155621803Y-79438069D01*
X155669967Y-79626849D01*
X155748110Y-79790842D01*
X155855867Y-79929471D01*
X155992879Y-80042158D01*
X156005227Y-80050120D01*
X156095151Y-80096879D01*
X156200526Y-80136454D01*
X156305336Y-80163728D01*
X156391698Y-80173591D01*
X156462376Y-80184518D01*
X156508301Y-80213213D01*
X156525291Y-80253544D01*
X156509168Y-80299379D01*
X156491002Y-80319264D01*
X156461669Y-80338444D01*
X156422450Y-80345370D01*
X156360817Y-80341677D01*
X156338995Y-80339106D01*
X156142804Y-80296147D01*
X155964403Y-80219874D01*
X155806962Y-80113043D01*
X155673652Y-79978414D01*
X155567643Y-79818746D01*
X155492106Y-79636796D01*
X155479091Y-79590995D01*
X155457904Y-79487035D01*
X155450909Y-79397310D01*
X155458127Y-79329376D01*
X155478226Y-79291861D01*
X155519563Y-79275502D01*
X155551281Y-79274749D01*
X155574337Y-79282107D01*
G37*
G36*
X156362777Y-73446658D02*
G01*
X156390450Y-73459797D01*
X156439536Y-73497247D01*
X156502896Y-73552566D01*
X156574729Y-73619947D01*
X156649236Y-73693581D01*
X156720614Y-73767661D01*
X156783065Y-73836380D01*
X156830787Y-73893930D01*
X156857979Y-73934504D01*
X156862085Y-73947270D01*
X156848608Y-73971872D01*
X156811439Y-74018329D01*
X156755472Y-74081685D01*
X156685598Y-74156986D01*
X156606712Y-74239277D01*
X156523706Y-74323603D01*
X156441473Y-74405009D01*
X156364907Y-74478540D01*
X156298901Y-74539241D01*
X156248347Y-74582157D01*
X156218139Y-74602333D01*
X156214308Y-74603243D01*
X156191212Y-74589775D01*
X156147055Y-74553091D01*
X156087413Y-74498769D01*
X156017866Y-74432386D01*
X155943990Y-74359521D01*
X155871364Y-74285751D01*
X155805566Y-74216655D01*
X155752174Y-74157810D01*
X155716766Y-74114796D01*
X155704865Y-74093800D01*
X155705091Y-74093438D01*
X155920618Y-74093438D01*
X155933679Y-74110778D01*
X155968998Y-74149359D01*
X156020776Y-74203000D01*
X156067801Y-74250271D01*
X156214984Y-74396471D01*
X156430658Y-74181466D01*
X156504860Y-74106300D01*
X156568035Y-74040028D01*
X156615392Y-73987858D01*
X156642141Y-73954998D01*
X156646332Y-73947004D01*
X156633069Y-73924551D01*
X156598321Y-73883380D01*
X156549654Y-73831099D01*
X156494631Y-73775317D01*
X156440818Y-73723644D01*
X156395777Y-73683688D01*
X156367074Y-73663059D01*
X156362777Y-73661776D01*
X156343677Y-73674827D01*
X156303190Y-73710092D01*
X156247288Y-73761738D01*
X156181947Y-73823934D01*
X156113141Y-73890848D01*
X156046842Y-73956647D01*
X155989025Y-74015500D01*
X155945665Y-74061574D01*
X155922734Y-74089037D01*
X155920618Y-74093438D01*
X155705091Y-74093438D01*
X155718158Y-74072533D01*
X155755388Y-74028057D01*
X155812576Y-73964730D01*
X155885747Y-73886905D01*
X155970924Y-73798939D01*
X156012986Y-73756326D01*
X156128435Y-73641955D01*
X156222608Y-73552706D01*
X156294236Y-73489708D01*
X156342051Y-73454089D01*
X156361439Y-73446023D01*
X156362777Y-73446658D01*
G37*
G36*
X155954497Y-79279892D02*
G01*
X155973817Y-79295869D01*
X155987916Y-79327464D01*
X156004945Y-79383806D01*
X156017300Y-79435160D01*
X156057768Y-79544720D01*
X156125110Y-79640602D01*
X156211997Y-79716263D01*
X156311099Y-79765161D01*
X156404661Y-79780882D01*
X156469917Y-79793708D01*
X156511634Y-79826006D01*
X156525073Y-79870068D01*
X156505496Y-79918187D01*
X156495760Y-79929083D01*
X156446162Y-79952723D01*
X156374501Y-79953335D01*
X156288416Y-79933512D01*
X156195546Y-79895852D01*
X156103530Y-79842949D01*
X156020006Y-79777399D01*
X156003954Y-79761964D01*
X155946515Y-79690647D01*
X155898986Y-79605574D01*
X155863947Y-79515463D01*
X155843977Y-79429029D01*
X155841658Y-79354991D01*
X155859570Y-79302065D01*
X155865699Y-79294888D01*
X155908996Y-79273241D01*
X155954497Y-79279892D01*
G37*
G36*
X157078015Y-74152468D02*
G01*
X157101275Y-74165616D01*
X157146029Y-74202321D01*
X157205995Y-74256583D01*
X157275498Y-74322743D01*
X157348866Y-74395144D01*
X157420425Y-74468130D01*
X157484502Y-74536043D01*
X157535423Y-74593225D01*
X157567516Y-74634019D01*
X157575536Y-74648845D01*
X157574209Y-74668022D01*
X157559901Y-74695905D01*
X157529660Y-74736002D01*
X157480537Y-74791819D01*
X157409583Y-74866864D01*
X157313849Y-74964643D01*
X157287954Y-74990777D01*
X157197535Y-75080314D01*
X157113773Y-75160322D01*
X157041415Y-75226502D01*
X156985206Y-75274550D01*
X156949893Y-75300166D01*
X156943465Y-75303007D01*
X156922394Y-75303601D01*
X156896135Y-75292984D01*
X156860204Y-75267603D01*
X156810114Y-75223908D01*
X156741377Y-75158348D01*
X156663967Y-75081810D01*
X156569477Y-74985077D01*
X156497769Y-74906332D01*
X156450948Y-74848040D01*
X156431121Y-74812663D01*
X156430579Y-74808698D01*
X156430745Y-74808362D01*
X156646332Y-74808362D01*
X156659354Y-74829890D01*
X156694327Y-74871712D01*
X156745116Y-74926741D01*
X156778200Y-74960704D01*
X156837211Y-75018132D01*
X156887244Y-75063076D01*
X156921201Y-75089344D01*
X156930542Y-75093591D01*
X156950784Y-75080352D01*
X156993189Y-75043830D01*
X157052525Y-74988818D01*
X157123561Y-74920110D01*
X157166189Y-74877749D01*
X157381361Y-74661908D01*
X157229688Y-74510235D01*
X157078015Y-74358562D01*
X156862173Y-74573734D01*
X156787941Y-74648929D01*
X156724734Y-74715231D01*
X156677340Y-74767434D01*
X156650550Y-74800332D01*
X156646332Y-74808362D01*
X156430745Y-74808362D01*
X156445067Y-74779447D01*
X156487775Y-74725438D01*
X156557576Y-74647940D01*
X156653339Y-74548220D01*
X156740882Y-74460244D01*
X156831991Y-74370899D01*
X156914889Y-74291729D01*
X156985234Y-74226709D01*
X157038687Y-74179813D01*
X157070907Y-74155015D01*
X157077405Y-74152123D01*
X157078015Y-74152468D01*
G37*
G36*
X157794544Y-74878107D02*
G01*
X157822168Y-74891569D01*
X157870545Y-74928904D01*
X157933343Y-74984056D01*
X158004780Y-75051237D01*
X158079076Y-75124660D01*
X158150452Y-75198537D01*
X158213128Y-75267081D01*
X158261323Y-75324505D01*
X158289258Y-75365020D01*
X158293900Y-75378383D01*
X158280497Y-75402765D01*
X158242861Y-75450173D01*
X158184852Y-75516253D01*
X158110327Y-75596652D01*
X158023147Y-75687015D01*
X157995610Y-75714905D01*
X157890363Y-75819881D01*
X157808344Y-75898990D01*
X157746149Y-75955164D01*
X157700370Y-75991333D01*
X157667601Y-76010430D01*
X157646420Y-76015444D01*
X157619394Y-76008482D01*
X157582166Y-75985420D01*
X157530797Y-75942991D01*
X157461344Y-75877932D01*
X157369869Y-75786977D01*
X157366100Y-75783163D01*
X157289606Y-75704208D01*
X157223927Y-75633538D01*
X157173671Y-75576347D01*
X157143448Y-75537830D01*
X157136680Y-75524663D01*
X157136900Y-75524315D01*
X157352433Y-75524315D01*
X157365385Y-75541385D01*
X157400341Y-75579782D01*
X157451447Y-75633215D01*
X157493809Y-75676307D01*
X157635185Y-75818633D01*
X157831941Y-75627733D01*
X157924200Y-75538828D01*
X157991199Y-75472742D01*
X158034465Y-75423636D01*
X158055524Y-75385672D01*
X158055903Y-75353011D01*
X158037130Y-75319816D01*
X158000730Y-75280246D01*
X157948232Y-75228464D01*
X157938823Y-75219040D01*
X157794544Y-75073792D01*
X157573488Y-75294221D01*
X157498494Y-75369578D01*
X157434398Y-75435084D01*
X157385895Y-75485851D01*
X157357679Y-75516992D01*
X157352433Y-75524315D01*
X157136900Y-75524315D01*
X157149969Y-75503677D01*
X157187186Y-75459459D01*
X157244357Y-75396351D01*
X157317507Y-75318692D01*
X157402662Y-75230824D01*
X157444801Y-75188141D01*
X157563793Y-75070263D01*
X157659284Y-74979920D01*
X157730649Y-74917666D01*
X157777262Y-74884058D01*
X157793991Y-74877838D01*
X157794544Y-74878107D01*
G37*
G36*
X160460437Y-77533253D02*
G01*
X160499091Y-77557944D01*
X160552794Y-77602901D01*
X160625290Y-77671238D01*
X160712356Y-77757995D01*
X160788850Y-77836950D01*
X160854529Y-77907620D01*
X160904785Y-77964811D01*
X160935008Y-78003328D01*
X160941776Y-78016495D01*
X160928127Y-78040609D01*
X160890483Y-78086305D01*
X160833800Y-78148697D01*
X160763036Y-78222897D01*
X160683146Y-78304017D01*
X160599087Y-78387171D01*
X160515815Y-78467472D01*
X160438287Y-78540031D01*
X160371459Y-78599962D01*
X160320287Y-78642377D01*
X160289728Y-78662390D01*
X160285803Y-78663320D01*
X160256899Y-78649580D01*
X160207864Y-78612220D01*
X160144504Y-78557036D01*
X160072628Y-78489820D01*
X159998042Y-78416367D01*
X159926554Y-78342470D01*
X159863971Y-78273924D01*
X159816100Y-78216521D01*
X159788749Y-78176056D01*
X159784584Y-78163322D01*
X160000309Y-78163322D01*
X160013454Y-78184927D01*
X160048917Y-78226945D01*
X160100736Y-78282600D01*
X160142900Y-78325401D01*
X160285491Y-78467040D01*
X160510422Y-78241470D01*
X160735352Y-78015900D01*
X160583672Y-77864219D01*
X160431991Y-77712539D01*
X160216150Y-77927711D01*
X160141900Y-78002984D01*
X160078682Y-78069465D01*
X160031288Y-78121921D01*
X160004512Y-78155121D01*
X160000309Y-78163322D01*
X159784584Y-78163322D01*
X159784556Y-78163235D01*
X159798833Y-78134558D01*
X159840531Y-78081522D01*
X159907947Y-78006053D01*
X159999381Y-77910075D01*
X160083898Y-77824589D01*
X160190647Y-77719150D01*
X160273970Y-77639695D01*
X160337113Y-77583444D01*
X160383325Y-77547619D01*
X160415853Y-77529440D01*
X160431991Y-77525951D01*
X160433088Y-77525714D01*
X160460437Y-77533253D01*
G37*
G36*
X161148569Y-78232449D02*
G01*
X161176242Y-78245588D01*
X161225328Y-78283039D01*
X161288688Y-78338358D01*
X161360521Y-78405738D01*
X161435027Y-78479372D01*
X161506406Y-78553452D01*
X161568856Y-78622171D01*
X161616578Y-78679721D01*
X161643771Y-78720295D01*
X161647877Y-78733062D01*
X161634400Y-78757663D01*
X161597231Y-78804120D01*
X161541263Y-78867476D01*
X161471390Y-78942778D01*
X161392503Y-79025069D01*
X161309497Y-79109395D01*
X161227265Y-79190801D01*
X161150699Y-79264332D01*
X161084692Y-79325032D01*
X161034138Y-79367948D01*
X161003930Y-79388124D01*
X161000099Y-79389035D01*
X160977004Y-79375567D01*
X160932846Y-79338883D01*
X160873205Y-79284560D01*
X160803657Y-79218178D01*
X160729781Y-79145312D01*
X160657156Y-79071542D01*
X160591358Y-79002446D01*
X160537966Y-78943602D01*
X160502558Y-78900587D01*
X160490657Y-78879592D01*
X160490883Y-78879230D01*
X160706409Y-78879230D01*
X160719471Y-78896570D01*
X160754789Y-78935150D01*
X160806568Y-78988792D01*
X160853592Y-79036062D01*
X161000775Y-79182263D01*
X161216449Y-78967257D01*
X161290652Y-78892092D01*
X161353827Y-78825820D01*
X161401184Y-78773649D01*
X161427932Y-78740789D01*
X161432124Y-78732796D01*
X161418860Y-78710343D01*
X161384113Y-78669171D01*
X161335446Y-78616890D01*
X161280423Y-78561109D01*
X161226609Y-78509436D01*
X161181568Y-78469480D01*
X161152865Y-78448850D01*
X161148569Y-78447567D01*
X161129469Y-78460618D01*
X161088981Y-78495883D01*
X161033080Y-78547530D01*
X160967739Y-78609726D01*
X160898932Y-78676640D01*
X160832634Y-78742439D01*
X160774817Y-78801291D01*
X160731456Y-78847365D01*
X160708525Y-78874829D01*
X160706409Y-78879230D01*
X160490883Y-78879230D01*
X160503950Y-78858324D01*
X160541179Y-78813849D01*
X160598368Y-78750521D01*
X160671539Y-78672697D01*
X160756716Y-78584731D01*
X160798777Y-78542117D01*
X160914227Y-78427747D01*
X161008400Y-78338498D01*
X161080028Y-78275499D01*
X161127842Y-78239881D01*
X161147231Y-78231814D01*
X161148569Y-78232449D01*
G37*
G36*
X161886300Y-78951203D02*
G01*
X161930797Y-78988047D01*
X161992599Y-79043916D01*
X162066666Y-79114279D01*
X162133130Y-79179725D01*
X162224129Y-79271895D01*
X162289495Y-79341237D01*
X162332366Y-79391587D01*
X162355882Y-79426782D01*
X162363182Y-79450657D01*
X162361847Y-79459223D01*
X162342599Y-79488767D01*
X162300471Y-79538751D01*
X162240462Y-79604248D01*
X162167570Y-79680328D01*
X162086794Y-79762060D01*
X162003132Y-79844515D01*
X161921583Y-79922764D01*
X161847145Y-79991876D01*
X161784817Y-80046922D01*
X161739598Y-80082972D01*
X161717057Y-80095135D01*
X161688183Y-80081377D01*
X161639197Y-80043971D01*
X161575902Y-79988718D01*
X161504099Y-79921420D01*
X161429592Y-79847878D01*
X161358181Y-79773894D01*
X161295669Y-79705270D01*
X161247858Y-79647806D01*
X161220550Y-79607306D01*
X161216371Y-79594489D01*
X161216514Y-79594200D01*
X161412651Y-79594200D01*
X161554290Y-79736791D01*
X161615404Y-79796419D01*
X161667555Y-79843802D01*
X161703966Y-79872980D01*
X161716369Y-79879382D01*
X161736598Y-79866143D01*
X161778992Y-79829622D01*
X161838320Y-79774612D01*
X161909350Y-79705904D01*
X161951980Y-79663541D01*
X162167152Y-79447700D01*
X162015472Y-79296019D01*
X161863792Y-79144339D01*
X161638221Y-79369270D01*
X161412651Y-79594200D01*
X161216514Y-79594200D01*
X161230858Y-79565238D01*
X161273567Y-79511229D01*
X161343367Y-79433731D01*
X161439131Y-79334011D01*
X161526674Y-79246036D01*
X161617839Y-79156676D01*
X161700863Y-79077496D01*
X161771391Y-79012471D01*
X161825068Y-78965579D01*
X161857538Y-78940796D01*
X161863792Y-78938070D01*
X161864148Y-78937915D01*
X161886300Y-78951203D01*
G37*
G36*
X169654771Y-74939643D02*
G01*
X170037398Y-75001678D01*
X170406811Y-75110272D01*
X170756898Y-75264458D01*
X171063319Y-75450393D01*
X171394785Y-75712181D01*
X171680438Y-76001792D01*
X171921107Y-76320440D01*
X172117623Y-76669341D01*
X172270817Y-77049709D01*
X172353156Y-77337129D01*
X172387882Y-77528432D01*
X172409788Y-77753082D01*
X172418696Y-77993932D01*
X172414430Y-78233838D01*
X172396809Y-78455654D01*
X172366669Y-78637843D01*
X172249018Y-79036992D01*
X172085254Y-79411190D01*
X171877787Y-79757343D01*
X171629025Y-80072355D01*
X171341376Y-80353132D01*
X171017249Y-80596580D01*
X170699984Y-80779377D01*
X170380777Y-80913312D01*
X170032905Y-81011621D01*
X169669469Y-81072427D01*
X169303573Y-81093856D01*
X168948320Y-81074031D01*
X168798264Y-81051666D01*
X168536111Y-80989260D01*
X168262263Y-80897333D01*
X167993516Y-80782948D01*
X167746663Y-80653173D01*
X167558741Y-80530268D01*
X167406038Y-80417460D01*
X167778072Y-80197791D01*
X168392364Y-79811833D01*
X168956411Y-79409093D01*
X169470017Y-78989749D01*
X169932986Y-78553979D01*
X170345122Y-78101959D01*
X170706229Y-77633868D01*
X170865873Y-77396526D01*
X170959575Y-77247167D01*
X171044645Y-77105594D01*
X171117142Y-76978949D01*
X171173129Y-76874373D01*
X171208665Y-76799010D01*
X171219811Y-76760001D01*
X171218597Y-76757004D01*
X171194493Y-76767175D01*
X171141759Y-76803134D01*
X171089302Y-76843328D01*
X170945672Y-76950295D01*
X170765063Y-77073016D01*
X170559074Y-77204361D01*
X170339302Y-77337196D01*
X170117346Y-77464388D01*
X169904806Y-77578805D01*
X169837318Y-77613243D01*
X169515609Y-77764855D01*
X169156216Y-77916932D01*
X168774798Y-78063735D01*
X168387013Y-78199524D01*
X168008518Y-78318562D01*
X167654970Y-78415110D01*
X167638101Y-78419275D01*
X167289847Y-78495832D01*
X166980169Y-78544494D01*
X166702310Y-78566153D01*
X166525987Y-78565834D01*
X166298063Y-78557294D01*
X166275408Y-78409619D01*
X166263563Y-78279790D01*
X166260015Y-78112666D01*
X166263956Y-77923786D01*
X166274578Y-77728689D01*
X166291074Y-77542917D01*
X166312636Y-77382009D01*
X166334288Y-77276605D01*
X166463065Y-76886259D01*
X166636229Y-76521791D01*
X166850674Y-76186424D01*
X167103288Y-75883382D01*
X167390964Y-75615888D01*
X167710594Y-75387167D01*
X168059067Y-75200442D01*
X168433275Y-75058936D01*
X168488736Y-75042576D01*
X168874328Y-74959124D01*
X169265044Y-74925135D01*
X169654771Y-74939643D01*
G37*
G36*
X169629367Y-78118139D02*
G01*
X169589592Y-78164979D01*
X169527088Y-78229890D01*
X169445284Y-78309292D01*
X169347608Y-78399604D01*
X169237488Y-78497247D01*
X169118354Y-78598640D01*
X169009302Y-78687709D01*
X168531325Y-79039788D01*
X168038398Y-79343817D01*
X167533397Y-79598285D01*
X167019198Y-79801681D01*
X166702232Y-79900032D01*
X166607963Y-79919131D01*
X166480025Y-79935593D01*
X166334140Y-79948425D01*
X166186031Y-79956635D01*
X166051421Y-79959227D01*
X165946032Y-79955209D01*
X165908139Y-79950206D01*
X165692888Y-79887418D01*
X165518174Y-79791237D01*
X165385112Y-79662489D01*
X165294817Y-79502000D01*
X165291584Y-79493527D01*
X165249163Y-79345113D01*
X165240591Y-79203527D01*
X165265129Y-79046460D01*
X165275482Y-79005411D01*
X165309156Y-78900646D01*
X165352685Y-78794689D01*
X165399471Y-78700857D01*
X165442915Y-78632470D01*
X165474689Y-78603328D01*
X165496476Y-78619384D01*
X165505310Y-78681473D01*
X165505391Y-78690168D01*
X165529234Y-78842174D01*
X165598528Y-78971289D01*
X165709918Y-79077020D01*
X165860050Y-79158877D01*
X166045571Y-79216367D01*
X166263125Y-79249000D01*
X166509359Y-79256284D01*
X166780918Y-79237727D01*
X167074448Y-79192837D01*
X167386596Y-79121125D01*
X167714007Y-79022097D01*
X167731096Y-79016291D01*
X167980536Y-78926003D01*
X168239976Y-78822918D01*
X168500502Y-78711250D01*
X168753199Y-78595217D01*
X168989152Y-78479037D01*
X169199448Y-78366924D01*
X169375171Y-78263097D01*
X169492600Y-78183080D01*
X169578029Y-78121839D01*
X169627014Y-78092989D01*
X169642984Y-78092949D01*
X169629367Y-78118139D01*
G37*
G36*
X173168698Y-73203548D02*
G01*
X173182159Y-73234885D01*
X173207580Y-73309473D01*
X173242762Y-73419784D01*
X173285501Y-73558286D01*
X173333598Y-73717451D01*
X173384850Y-73889749D01*
X173437056Y-74067651D01*
X173488015Y-74243626D01*
X173535525Y-74410145D01*
X173577384Y-74559679D01*
X173611392Y-74684698D01*
X173635347Y-74777672D01*
X173647047Y-74831072D01*
X173647410Y-74840899D01*
X173616836Y-74853690D01*
X173542608Y-74879278D01*
X173432540Y-74915136D01*
X173294445Y-74958733D01*
X173136135Y-75007541D01*
X173077061Y-75025489D01*
X172897743Y-75079784D01*
X172720976Y-75133350D01*
X172558556Y-75182609D01*
X172422282Y-75223982D01*
X172323948Y-75253892D01*
X172313820Y-75256979D01*
X172209361Y-75287240D01*
X172120924Y-75309974D01*
X172063967Y-75321289D01*
X172055945Y-75321881D01*
X172026959Y-75305837D01*
X171997337Y-75253063D01*
X171963559Y-75156592D01*
X171950848Y-75113795D01*
X171914339Y-74989858D01*
X171875762Y-74862977D01*
X171843322Y-74760122D01*
X171842642Y-74758034D01*
X171808845Y-74651821D01*
X171769513Y-74524487D01*
X171738773Y-74422410D01*
X171705137Y-74310363D01*
X171662579Y-74170631D01*
X171618285Y-74026754D01*
X171600411Y-73969207D01*
X171566887Y-73858728D01*
X171541456Y-73769283D01*
X171527149Y-73711899D01*
X171525472Y-73696588D01*
X171552877Y-73686209D01*
X171623204Y-73662811D01*
X171728010Y-73629042D01*
X171858852Y-73587550D01*
X172007290Y-73540985D01*
X172164881Y-73491993D01*
X172323183Y-73443225D01*
X172473753Y-73397328D01*
X172607188Y-73357237D01*
X172738438Y-73318178D01*
X172867827Y-73279656D01*
X172975717Y-73247516D01*
X173017220Y-73235144D01*
X173096725Y-73213687D01*
X173152386Y-73202897D01*
X173168698Y-73203548D01*
G37*
G36*
X128595463Y-71522727D02*
G01*
X129209630Y-72718814D01*
X130497847Y-72719858D01*
X131786065Y-72720902D01*
X131786065Y-72304508D01*
X131786065Y-71888115D01*
X131291597Y-71888115D01*
X130797130Y-71888115D01*
X130797130Y-71107377D01*
X130797130Y-70326639D01*
X132592827Y-70326639D01*
X134388524Y-70326639D01*
X134388524Y-71107377D01*
X134388524Y-71888115D01*
X133894056Y-71888115D01*
X133399589Y-71888115D01*
X133399589Y-72304508D01*
X133399589Y-72720902D01*
X134084221Y-72720902D01*
X134768852Y-72720902D01*
X135359426Y-73303576D01*
X135949999Y-73886250D01*
X135949999Y-75997970D01*
X135949999Y-78109690D01*
X135363631Y-78694394D01*
X134777264Y-79279098D01*
X134089386Y-79279098D01*
X133401508Y-79279098D01*
X133387536Y-80489242D01*
X133373565Y-81699385D01*
X132670901Y-81699385D01*
X131968237Y-81699385D01*
X131369671Y-80549982D01*
X131203109Y-80230919D01*
X131050978Y-79940986D01*
X130920315Y-79693471D01*
X130818157Y-79501666D01*
X130751540Y-79378862D01*
X130728997Y-79339838D01*
X130678386Y-79318890D01*
X130554549Y-79302709D01*
X130350736Y-79290981D01*
X130060197Y-79283397D01*
X129676185Y-79279643D01*
X129414755Y-79279098D01*
X128142622Y-79279098D01*
X128142622Y-79695492D01*
X128142622Y-80111885D01*
X128637089Y-80111885D01*
X129131556Y-80111885D01*
X129131556Y-80918647D01*
X129131556Y-81725410D01*
X127361884Y-81725410D01*
X125592212Y-81725410D01*
X125592212Y-80918647D01*
X125592212Y-80111885D01*
X126088869Y-80111885D01*
X126585525Y-80111885D01*
X126570324Y-79708504D01*
X126555122Y-79305123D01*
X124902561Y-79291379D01*
X123249999Y-79277636D01*
X123249999Y-78497629D01*
X123249999Y-77717623D01*
X123614343Y-77717623D01*
X123978688Y-77717623D01*
X125538741Y-77717623D01*
X126060655Y-77717623D01*
X126582569Y-77717623D01*
X128142622Y-77717623D01*
X129029379Y-77717623D01*
X129916137Y-77717623D01*
X133399589Y-77717623D01*
X133748073Y-77717623D01*
X133945154Y-77712513D01*
X134073501Y-77690560D01*
X134168248Y-77641825D01*
X134242540Y-77577762D01*
X134388524Y-77437901D01*
X134388524Y-76006122D01*
X134388524Y-74574344D01*
X134248663Y-74428360D01*
X134162530Y-74349428D01*
X134072705Y-74305432D01*
X133945430Y-74286404D01*
X133754196Y-74282377D01*
X133399589Y-74282377D01*
X133399589Y-76000000D01*
X133399589Y-77717623D01*
X129916137Y-77717623D01*
X129148864Y-76221209D01*
X128956845Y-75847438D01*
X128774906Y-75494657D01*
X128609828Y-75175906D01*
X128468389Y-74904226D01*
X128357369Y-74692658D01*
X128283546Y-74554244D01*
X128262733Y-74516598D01*
X128172651Y-74358806D01*
X130077637Y-74358806D01*
X130103726Y-74418378D01*
X130170435Y-74555879D01*
X130271248Y-74758597D01*
X130399645Y-75013817D01*
X130549106Y-75308826D01*
X130713114Y-75630909D01*
X130885149Y-75967354D01*
X131058692Y-76305446D01*
X131227224Y-76632472D01*
X131384226Y-76935717D01*
X131523179Y-77202469D01*
X131637565Y-77420012D01*
X131720864Y-77575634D01*
X131766557Y-77656621D01*
X131773052Y-77665335D01*
X131776189Y-77615382D01*
X131779054Y-77473552D01*
X131781552Y-77252066D01*
X131783591Y-76963145D01*
X131785076Y-76619010D01*
X131785913Y-76231881D01*
X131786050Y-76000000D01*
X131786065Y-75973975D01*
X131786065Y-74282377D01*
X130923437Y-74282377D01*
X130601001Y-74283583D01*
X130369174Y-74288012D01*
X130214484Y-74296882D01*
X130123461Y-74311410D01*
X130082633Y-74332813D01*
X130077637Y-74358806D01*
X128172651Y-74358806D01*
X128143876Y-74308402D01*
X128143249Y-76013012D01*
X128142622Y-77717623D01*
X126582569Y-77717623D01*
X126568846Y-76013012D01*
X126555122Y-74308402D01*
X126060655Y-74308402D01*
X125566188Y-74308402D01*
X125552464Y-76013012D01*
X125538741Y-77717623D01*
X123978688Y-77717623D01*
X123978688Y-76000000D01*
X123978688Y-74282377D01*
X123614343Y-74282377D01*
X123249999Y-74282377D01*
X123249999Y-73501639D01*
X123249999Y-72720902D01*
X124915573Y-72720902D01*
X126581147Y-72720902D01*
X126581147Y-72304508D01*
X126581147Y-71888115D01*
X126086679Y-71888115D01*
X125592212Y-71888115D01*
X125592212Y-71107377D01*
X125592212Y-70326639D01*
X126786754Y-70326639D01*
X127981295Y-70326639D01*
X128595463Y-71522727D01*
G37*
%TO.C,DISP1*%
D13*
X110100000Y-82010000D02*
X199100000Y-82010000D01*
X199100000Y-119010000D01*
X110100000Y-119010000D01*
X110100000Y-82010000D01*
D14*
X115480000Y-105780000D02*
X115480000Y-95400000D01*
X112830000Y-105780000D02*
X115480000Y-105780000D01*
X112830000Y-103130000D02*
X112830000Y-105780000D01*
X110180000Y-105780000D02*
X111560000Y-105780000D01*
X110180000Y-104400000D02*
X110180000Y-105780000D01*
X110180000Y-103130000D02*
X112830000Y-103130000D01*
X110180000Y-103130000D02*
X110180000Y-95400000D01*
X110180000Y-95400000D02*
X115480000Y-95400000D01*
%TO.C,SW4*%
X158000000Y-123750000D02*
X158000000Y-122250000D01*
X156750000Y-119750000D02*
X152250000Y-119750000D01*
X152250000Y-126250000D02*
X156750000Y-126250000D01*
X151000000Y-122250000D02*
X151000000Y-123750000D01*
%TO.C,SW5*%
X172950000Y-122250000D02*
X172950000Y-123750000D01*
X174200000Y-126250000D02*
X178700000Y-126250000D01*
X178700000Y-119750000D02*
X174200000Y-119750000D01*
X179950000Y-123750000D02*
X179950000Y-122250000D01*
%TO.C,SW3*%
X129250000Y-122250000D02*
X129250000Y-123750000D01*
X130500000Y-126250000D02*
X135000000Y-126250000D01*
X135000000Y-119750000D02*
X130500000Y-119750000D01*
X136250000Y-123750000D02*
X136250000Y-122250000D01*
%TO.C,J2*%
X134320000Y-86480000D02*
X135700000Y-86480000D01*
X134320000Y-87860000D02*
X134320000Y-86480000D01*
X134320000Y-89130000D02*
X134320000Y-94320000D01*
X134320000Y-89130000D02*
X137080000Y-89130000D01*
X134320000Y-94320000D02*
X137080000Y-94320000D01*
X137080000Y-89130000D02*
X137080000Y-94320000D01*
%TO.C,D5*%
X191290000Y-78545000D02*
X191290000Y-75455000D01*
X185740000Y-77000000D02*
G75*
G02*
X191290000Y-75455170I2990000J0D01*
G01*
X191290000Y-78544830D02*
G75*
G02*
X185740000Y-77000000I-2560000J1544830D01*
G01*
X191230000Y-77000000D02*
G75*
G02*
X186230000Y-77000000I-2500000J0D01*
G01*
X186230000Y-77000000D02*
G75*
G02*
X191230000Y-77000000I2500000J0D01*
G01*
%TO.C,J4*%
X165320000Y-86440000D02*
X166700000Y-86440000D01*
X165320000Y-87820000D02*
X165320000Y-86440000D01*
X165320000Y-89090000D02*
X165320000Y-104440000D01*
X165320000Y-89090000D02*
X168080000Y-89090000D01*
X165320000Y-104440000D02*
X168080000Y-104440000D01*
X168080000Y-89090000D02*
X168080000Y-104440000D01*
%TO.C,D4*%
X180830000Y-78545000D02*
X180830000Y-75455000D01*
X175280000Y-77000000D02*
G75*
G02*
X180830000Y-75455170I2990000J0D01*
G01*
X180830000Y-78544830D02*
G75*
G02*
X175280000Y-77000000I-2560000J1544830D01*
G01*
X180770000Y-77000000D02*
G75*
G02*
X175770000Y-77000000I-2500000J0D01*
G01*
X175770000Y-77000000D02*
G75*
G02*
X180770000Y-77000000I2500000J0D01*
G01*
%TO.C,J5*%
X141420000Y-112320000D02*
X141420000Y-115080000D01*
X156770000Y-112320000D02*
X141420000Y-112320000D01*
X156770000Y-112320000D02*
X156770000Y-115080000D01*
X156770000Y-115080000D02*
X141420000Y-115080000D01*
X158040000Y-112320000D02*
X159420000Y-112320000D01*
X159420000Y-112320000D02*
X159420000Y-113700000D01*
%TD*%
M02*
