M48
; DRILL file {KiCad 9.0.6} date 2026-06-26T23:27:16-0700
; FORMAT={-:-/ absolute / metric / decimal}
; #@! TF.CreationDate,2026-06-26T23:27:16-07:00
; #@! TF.GenerationSoftware,Kicad,Pcbnew,9.0.6
; #@! TF.FileFunction,Plated,1,4,PTH
FMAT,2
METRIC
; #@! TA.AperFunction,Plated,PTH,ViaDrill
T1C0.300
; #@! TA.AperFunction,Plated,PTH,ComponentDrill
T2C0.300
; #@! TA.AperFunction,Plated,PTH,ComponentDrill
T3C0.600
; #@! TA.AperFunction,Plated,PTH,ComponentDrill
T4C0.750
; #@! TA.AperFunction,Plated,PTH,ComponentDrill
T5C0.900
; #@! TA.AperFunction,Plated,PTH,ComponentDrill
T6C1.000
; #@! TA.AperFunction,Plated,PTH,ComponentDrill
T7C1.100
%
G90
G05
T1
X116.245Y-87.13
X117.895Y-98.365
X118.645Y-77.75
X119.0Y-85.75
X119.0Y-88.9
X119.145Y-79.53
X119.145Y-82.405
X119.4Y-105.9
X119.6Y-92.6
X120.6Y-94.2
X120.8Y-100.95
X121.54Y-107.46
X122.188Y-97.1
X122.2Y-106.8
X125.3Y-98.8
X125.4Y-101.0
X126.73Y-85.9
X126.925Y-88.275
X127.2Y-79.6
X127.2Y-93.2
X127.4Y-97.0
X128.1Y-108.0
X128.2Y-97.0
X135.6Y-101.9
X135.8Y-95.7
X136.2Y-96.6
X136.3Y-98.2
X137.8Y-100.7
X140.15Y-99.55
X141.9Y-92.4
X142.0Y-83.2
X142.7Y-93.8
X145.5Y-84.2
X145.8Y-94.7
X146.1Y-87.3
X146.6Y-89.5
X149.3Y-108.9
X149.9Y-88.9
X151.8Y-93.2
X151.9Y-86.9
X151.9Y-90.9
X153.9Y-88.9
X161.6Y-96.2
X162.804Y-94.019
X163.12Y-83.28
X163.2Y-84.2
X167.0Y-85.0
X167.5Y-84.4
X170.2Y-92.0
X172.5Y-111.3
X175.6Y-83.8
X182.05Y-88.85
X182.175Y-94.775
X183.8Y-78.2
X194.8Y-78.2
T2
X122.34Y-88.54
X122.34Y-89.54
X122.34Y-90.64
X123.84Y-88.54
X123.84Y-89.54
X123.84Y-90.64
X150.8Y-88.35
X150.8Y-89.45
X151.35Y-87.8
X151.35Y-88.9
X151.35Y-90.0
X151.9Y-88.35
X151.9Y-89.45
X152.45Y-87.8
X152.45Y-88.9
X152.45Y-90.0
X153.0Y-88.35
X153.0Y-89.45
T4
X122.05Y-112.7
X122.05Y-114.7
T5
X177.0Y-77.0
X179.54Y-77.0
X187.46Y-77.0
X190.0Y-77.0
T6
X111.56Y-96.78
X111.56Y-99.32
X111.56Y-101.86
X111.56Y-104.4
X114.1Y-96.78
X114.1Y-99.32
X114.1Y-101.86
X114.1Y-104.4
X135.7Y-87.86
X135.7Y-90.4
X135.7Y-92.94
X142.8Y-113.7
X145.34Y-113.7
X147.88Y-113.7
X150.42Y-113.7
X152.96Y-113.7
X155.5Y-113.7
X158.04Y-113.7
X166.7Y-87.82
X166.7Y-90.36
X166.7Y-92.9
X166.7Y-95.44
X166.7Y-97.98
X166.7Y-100.52
X166.7Y-103.06
T7
X129.5Y-120.75
X129.5Y-125.25
X136.0Y-120.75
X136.0Y-125.25
X151.25Y-120.75
X151.25Y-125.25
X157.75Y-120.75
X157.75Y-125.25
X173.2Y-120.75
X173.2Y-125.25
X179.7Y-120.75
X179.7Y-125.25
T3
G00X112.145Y-76.63
M15
G01X112.945Y-76.63
M16
G05
G00X112.145Y-85.27
M15
G01X112.945Y-85.27
M16
G05
G00X116.175Y-76.63
M15
G01X117.275Y-76.63
M16
G05
G00X116.175Y-85.27
M15
G01X117.275Y-85.27
M16
G05
M30
