%TF.GenerationSoftware,KiCad,Pcbnew,9.0.6*%
%TF.CreationDate,2026-06-26T23:27:14-07:00*%
%TF.ProjectId,convention_badge_pcb_v2,636f6e76-656e-4746-996f-6e5f62616467,rev?*%
%TF.SameCoordinates,Original*%
%TF.FileFunction,Copper,L2,Inr*%
%TF.FilePolarity,Positive*%
%FSLAX46Y46*%
G04 Gerber Fmt 4.6, Leading zero omitted, Abs format (unit mm)*
G04 Created by KiCad (PCBNEW 9.0.6) date 2026-06-26 23:27:14*
%MOMM*%
%LPD*%
G01*
G04 APERTURE LIST*
G04 Aperture macros list*
%AMRoundRect*
0 Rectangle with rounded corners*
0 $1 Rounding radius*
0 $2 $3 $4 $5 $6 $7 $8 $9 X,Y pos of 4 corners*
0 Add a 4 corners polygon primitive as box body*
4,1,4,$2,$3,$4,$5,$6,$7,$8,$9,$2,$3,0*
0 Add four circle primitives for the rounded corners*
1,1,$1+$1,$2,$3*
1,1,$1+$1,$4,$5*
1,1,$1+$1,$6,$7*
1,1,$1+$1,$8,$9*
0 Add four rect primitives between the rounded corners*
20,1,$1+$1,$2,$3,$4,$5,0*
20,1,$1+$1,$4,$5,$6,$7,0*
20,1,$1+$1,$6,$7,$8,$9,0*
20,1,$1+$1,$8,$9,$2,$3,0*%
G04 Aperture macros list end*
%TA.AperFunction,ComponentPad*%
%ADD10C,1.700000*%
%TD*%
%TA.AperFunction,ComponentPad*%
%ADD11R,1.700000X1.700000*%
%TD*%
%TA.AperFunction,HeatsinkPad*%
%ADD12O,2.100000X1.000000*%
%TD*%
%TA.AperFunction,HeatsinkPad*%
%ADD13O,1.800000X1.000000*%
%TD*%
%TA.AperFunction,HeatsinkPad*%
%ADD14C,0.600000*%
%TD*%
%TA.AperFunction,ComponentPad*%
%ADD15C,2.000000*%
%TD*%
%TA.AperFunction,ComponentPad*%
%ADD16R,1.800000X1.800000*%
%TD*%
%TA.AperFunction,ComponentPad*%
%ADD17C,1.800000*%
%TD*%
%TA.AperFunction,ComponentPad*%
%ADD18C,0.500000*%
%TD*%
%TA.AperFunction,ComponentPad*%
%ADD19RoundRect,0.250000X0.625000X-0.350000X0.625000X0.350000X-0.625000X0.350000X-0.625000X-0.350000X0*%
%TD*%
%TA.AperFunction,ComponentPad*%
%ADD20O,1.750000X1.200000*%
%TD*%
%TA.AperFunction,ViaPad*%
%ADD21C,0.600000*%
%TD*%
%TA.AperFunction,Conductor*%
%ADD22C,0.200000*%
%TD*%
G04 APERTURE END LIST*
D10*
%TO.N,/GPIO5*%
%TO.C,DISP1*%
X114100000Y-96780000D03*
%TO.N,/GPIO4*%
X111560000Y-96780000D03*
%TO.N,/GPIO6*%
X114100000Y-99320000D03*
%TO.N,/GPIO9*%
X111560000Y-99320000D03*
%TO.N,/GPIO8*%
X114100000Y-101860000D03*
%TO.N,/GPIO7*%
X111560000Y-101860000D03*
%TO.N,GND*%
X114100000Y-104400000D03*
D11*
%TO.N,+3.3V*%
X111560000Y-104400000D03*
%TD*%
D12*
%TO.N,GND*%
%TO.C,J1*%
X116725000Y-76630000D03*
D13*
X112545000Y-76630000D03*
D12*
X116725000Y-85270000D03*
D13*
X112545000Y-85270000D03*
%TD*%
D14*
%TO.N,GND*%
%TO.C,U1*%
X150800000Y-88350000D03*
X150800000Y-89450000D03*
X151350000Y-87800000D03*
X151350000Y-88900000D03*
X151350000Y-90000000D03*
X151900000Y-88350000D03*
X151900000Y-89450000D03*
X152450000Y-87800000D03*
X152450000Y-88900000D03*
X152450000Y-90000000D03*
X153000000Y-88350000D03*
X153000000Y-89450000D03*
%TD*%
D15*
%TO.N,GND*%
%TO.C,SW4*%
X157750000Y-125250000D03*
X151250000Y-125250000D03*
%TO.N,/GPIO20*%
X157750000Y-120750000D03*
X151250000Y-120750000D03*
%TD*%
%TO.N,/GPIO10*%
%TO.C,SW5*%
X173200000Y-120750000D03*
X179700000Y-120750000D03*
%TO.N,GND*%
X173200000Y-125250000D03*
X179700000Y-125250000D03*
%TD*%
%TO.N,/GPIO21*%
%TO.C,SW3*%
X129500000Y-120750000D03*
X136000000Y-120750000D03*
%TO.N,GND*%
X129500000Y-125250000D03*
X136000000Y-125250000D03*
%TD*%
D11*
%TO.N,/VUSB*%
%TO.C,J2*%
X135700000Y-87860000D03*
D10*
%TO.N,+3.3V*%
X135700000Y-90400000D03*
%TO.N,GND*%
X135700000Y-92940000D03*
%TD*%
D16*
%TO.N,Net-(D5-K)*%
%TO.C,D5*%
X190000000Y-77000000D03*
D17*
%TO.N,/GPIO1*%
X187460000Y-77000000D03*
%TD*%
D11*
%TO.N,/EN*%
%TO.C,J4*%
X166700000Y-87820000D03*
D10*
%TO.N,/GPIO4*%
X166700000Y-90360000D03*
%TO.N,/GPIO5*%
X166700000Y-92900000D03*
%TO.N,/GPIO6*%
X166700000Y-95440000D03*
%TO.N,/GPIO7*%
X166700000Y-97980000D03*
%TO.N,/GPIO8*%
X166700000Y-100520000D03*
%TO.N,/GPIO9*%
X166700000Y-103060000D03*
%TD*%
D16*
%TO.N,Net-(D4-K)*%
%TO.C,D4*%
X179540000Y-77000000D03*
D17*
%TO.N,/GPIO0*%
X177000000Y-77000000D03*
%TD*%
D11*
%TO.N,/GPIO0*%
%TO.C,J5*%
X158040000Y-113700000D03*
D10*
%TO.N,/GPIO1*%
X155500000Y-113700000D03*
%TO.N,/GPIO2*%
X152960000Y-113700000D03*
%TO.N,/GPIO3*%
X150420000Y-113700000D03*
%TO.N,/GPIO10*%
X147880000Y-113700000D03*
%TO.N,/GPIO20*%
X145340000Y-113700000D03*
%TO.N,/GPIO21*%
X142800000Y-113700000D03*
%TD*%
D18*
%TO.N,GND*%
%TO.C,U3*%
X122340000Y-90640000D03*
X123840000Y-90640000D03*
X122340000Y-89540000D03*
X123840000Y-89540000D03*
X122340000Y-88540000D03*
X123840000Y-88540000D03*
%TD*%
D19*
%TO.N,Net-(J3-Pin_1)*%
%TO.C,J3*%
X122050000Y-114700000D03*
D20*
%TO.N,/VBAT*%
X122050000Y-112700000D03*
%TD*%
D21*
%TO.N,GND*%
X119600000Y-92600000D03*
X119000000Y-88900000D03*
X128200000Y-97000000D03*
X127400000Y-97000000D03*
%TO.N,+3.3V*%
X175600000Y-83800000D03*
%TO.N,GND*%
X167000000Y-85000000D03*
X167500000Y-84400000D03*
%TO.N,+3.3V*%
X163200000Y-84200000D03*
X121540000Y-107460000D03*
%TO.N,Net-(U2-S1)*%
X117895396Y-98364641D03*
%TO.N,GND*%
X119000000Y-85750000D03*
X161600000Y-96200000D03*
X128100000Y-108000000D03*
X194800000Y-78200000D03*
X126730000Y-85900000D03*
X116245000Y-87130000D03*
X172500000Y-111300000D03*
X151900000Y-86900000D03*
X149900000Y-88900000D03*
X153900000Y-88900000D03*
X182175000Y-94775000D03*
X151900000Y-90900000D03*
X182050000Y-88850000D03*
X118645000Y-77750000D03*
X127200000Y-79600000D03*
X119400000Y-105900000D03*
X183800000Y-78200000D03*
%TO.N,/GPIO5*%
X136200000Y-96600000D03*
%TO.N,+3.3V*%
X122200000Y-106800000D03*
X142000000Y-83200000D03*
X163120000Y-83280000D03*
%TO.N,/VUSB*%
X119145000Y-79530000D03*
X119145000Y-82405000D03*
%TO.N,/GPIO8*%
X137800000Y-100700000D03*
%TO.N,/GPIO6*%
X136300000Y-98200000D03*
%TO.N,/GPIO4*%
X135800000Y-95700000D03*
%TO.N,/GPIO7*%
X140150000Y-99550000D03*
%TO.N,/GPIO10*%
X145800000Y-94700000D03*
%TO.N,/GPIO9*%
X162803573Y-94019252D03*
X135600000Y-101900000D03*
X170200000Y-92000000D03*
%TO.N,/GPIO2*%
X146100000Y-87300000D03*
%TO.N,Net-(U2-S1)*%
X120800000Y-100950000D03*
%TO.N,/GPIO1*%
X145500000Y-84200000D03*
%TO.N,/GPIO20*%
X142700000Y-93800000D03*
%TO.N,/GPIO21*%
X141900000Y-92400000D03*
%TO.N,/GPIO0*%
X151800000Y-93200000D03*
%TO.N,/GPIO3*%
X146600000Y-89500000D03*
X149300000Y-108900000D03*
%TO.N,Net-(U2-G2)*%
X122187500Y-97100000D03*
X125300000Y-98800000D03*
%TO.N,Net-(U2-G1)*%
X120600000Y-94200000D03*
X125400000Y-101000000D03*
%TO.N,/VBAT*%
X127200000Y-93200000D03*
X126925000Y-88275000D03*
%TD*%
D22*
%TO.N,/GPIO5*%
X135900000Y-96300000D02*
X114620000Y-96300000D01*
X136200000Y-96600000D02*
X135900000Y-96300000D01*
X114620000Y-96300000D02*
X114200000Y-96720000D01*
%TO.N,/GPIO6*%
X135800000Y-97700000D02*
X123200000Y-97700000D01*
X123200000Y-97700000D02*
X121640000Y-99260000D01*
X136300000Y-98200000D02*
X135800000Y-97700000D01*
X121640000Y-99260000D02*
X114200000Y-99260000D01*
%TO.N,/GPIO4*%
X112811000Y-95569000D02*
X111660000Y-96720000D01*
X135800000Y-95700000D02*
X135669000Y-95569000D01*
X135669000Y-95569000D02*
X112811000Y-95569000D01*
%TD*%
%TA.AperFunction,Conductor*%
%TO.N,+3.3V*%
G36*
X186764025Y-72996761D02*
G01*
X186774857Y-73004903D01*
X186774929Y-73004811D01*
X186986196Y-73166924D01*
X187213299Y-73298041D01*
X187213309Y-73298046D01*
X187455571Y-73398394D01*
X187455581Y-73398398D01*
X187708884Y-73466270D01*
X187968880Y-73500500D01*
X188034108Y-73500500D01*
X196534108Y-73500500D01*
X196596249Y-73500500D01*
X196603736Y-73500726D01*
X196893796Y-73518271D01*
X196908659Y-73520076D01*
X197190798Y-73571780D01*
X197205335Y-73575363D01*
X197479172Y-73660695D01*
X197493163Y-73666000D01*
X197754743Y-73783727D01*
X197767989Y-73790680D01*
X198013465Y-73939075D01*
X198025776Y-73947573D01*
X198251573Y-74124473D01*
X198262781Y-74134403D01*
X198465596Y-74337218D01*
X198475526Y-74348426D01*
X198595481Y-74501538D01*
X198652422Y-74574217D01*
X198660928Y-74586540D01*
X198809316Y-74832004D01*
X198816275Y-74845263D01*
X198933997Y-75106831D01*
X198939306Y-75120832D01*
X199024635Y-75394663D01*
X199028219Y-75409201D01*
X199079923Y-75691340D01*
X199081728Y-75706205D01*
X199099274Y-75996263D01*
X199099500Y-76003750D01*
X199099500Y-123996249D01*
X199099274Y-124003736D01*
X199081728Y-124293794D01*
X199079923Y-124308659D01*
X199028219Y-124590798D01*
X199024635Y-124605336D01*
X198939306Y-124879167D01*
X198933997Y-124893168D01*
X198816275Y-125154736D01*
X198809316Y-125167995D01*
X198660928Y-125413459D01*
X198652422Y-125425782D01*
X198475526Y-125651573D01*
X198465596Y-125662781D01*
X198262781Y-125865596D01*
X198251573Y-125875526D01*
X198025782Y-126052422D01*
X198013459Y-126060928D01*
X197767995Y-126209316D01*
X197754736Y-126216275D01*
X197493168Y-126333997D01*
X197479167Y-126339306D01*
X197205336Y-126424635D01*
X197190798Y-126428219D01*
X196908659Y-126479923D01*
X196893794Y-126481728D01*
X196603736Y-126499274D01*
X196596249Y-126499500D01*
X187968872Y-126499500D01*
X187737772Y-126529926D01*
X187708884Y-126533730D01*
X187473398Y-126596828D01*
X187455581Y-126601602D01*
X187455571Y-126601605D01*
X187213309Y-126701953D01*
X187213299Y-126701958D01*
X186986196Y-126833075D01*
X186778148Y-126992718D01*
X186778140Y-126992725D01*
X186592719Y-127178147D01*
X186592713Y-127178154D01*
X186579669Y-127195153D01*
X186523240Y-127236354D01*
X186480829Y-127243662D01*
X171667944Y-127187915D01*
X171600979Y-127167978D01*
X171580734Y-127151601D01*
X171421851Y-126992718D01*
X171401581Y-126977164D01*
X171213803Y-126833075D01*
X170986700Y-126701958D01*
X170986690Y-126701953D01*
X170744428Y-126601605D01*
X170744421Y-126601603D01*
X170744419Y-126601602D01*
X170491116Y-126533730D01*
X170433339Y-126526123D01*
X170231127Y-126499500D01*
X170231120Y-126499500D01*
X170165892Y-126499500D01*
X158921889Y-126499500D01*
X158854850Y-126479815D01*
X158809095Y-126427011D01*
X158799151Y-126357853D01*
X158828176Y-126294297D01*
X158834208Y-126287819D01*
X158894517Y-126227510D01*
X159033343Y-126036433D01*
X159140568Y-125825992D01*
X159213553Y-125601368D01*
X159241363Y-125425782D01*
X159250500Y-125368097D01*
X159250500Y-125131902D01*
X171699500Y-125131902D01*
X171699500Y-125368097D01*
X171736446Y-125601368D01*
X171809433Y-125825996D01*
X171916657Y-126036433D01*
X172055483Y-126227510D01*
X172222490Y-126394517D01*
X172413567Y-126533343D01*
X172414327Y-126533730D01*
X172624003Y-126640566D01*
X172624005Y-126640566D01*
X172624008Y-126640568D01*
X172744412Y-126679689D01*
X172848631Y-126713553D01*
X173081903Y-126750500D01*
X173081908Y-126750500D01*
X173318097Y-126750500D01*
X173551368Y-126713553D01*
X173775992Y-126640568D01*
X173986433Y-126533343D01*
X174177510Y-126394517D01*
X174344517Y-126227510D01*
X174483343Y-126036433D01*
X174590568Y-125825992D01*
X174663553Y-125601368D01*
X174691363Y-125425782D01*
X174700500Y-125368097D01*
X174700500Y-125131902D01*
X178199500Y-125131902D01*
X178199500Y-125368097D01*
X178236446Y-125601368D01*
X178309433Y-125825996D01*
X178416657Y-126036433D01*
X178555483Y-126227510D01*
X178722490Y-126394517D01*
X178913567Y-126533343D01*
X178914327Y-126533730D01*
X179124003Y-126640566D01*
X179124005Y-126640566D01*
X179124008Y-126640568D01*
X179244412Y-126679689D01*
X179348631Y-126713553D01*
X179581903Y-126750500D01*
X179581908Y-126750500D01*
X179818097Y-126750500D01*
X180051368Y-126713553D01*
X180275992Y-126640568D01*
X180486433Y-126533343D01*
X180677510Y-126394517D01*
X180844517Y-126227510D01*
X180983343Y-126036433D01*
X181090568Y-125825992D01*
X181163553Y-125601368D01*
X181191363Y-125425782D01*
X181200500Y-125368097D01*
X181200500Y-125131902D01*
X181163553Y-124898631D01*
X181090566Y-124674003D01*
X180983342Y-124463566D01*
X180844517Y-124272490D01*
X180677510Y-124105483D01*
X180486433Y-123966657D01*
X180275996Y-123859433D01*
X180051368Y-123786446D01*
X179818097Y-123749500D01*
X179818092Y-123749500D01*
X179581908Y-123749500D01*
X179581903Y-123749500D01*
X179348631Y-123786446D01*
X179124003Y-123859433D01*
X178913566Y-123966657D01*
X178872837Y-123996249D01*
X178722490Y-124105483D01*
X178722488Y-124105485D01*
X178722487Y-124105485D01*
X178555485Y-124272487D01*
X178555485Y-124272488D01*
X178555483Y-124272490D01*
X178540005Y-124293794D01*
X178416657Y-124463566D01*
X178309433Y-124674003D01*
X178236446Y-124898631D01*
X178199500Y-125131902D01*
X174700500Y-125131902D01*
X174663553Y-124898631D01*
X174590566Y-124674003D01*
X174483342Y-124463566D01*
X174344517Y-124272490D01*
X174177510Y-124105483D01*
X173986433Y-123966657D01*
X173775996Y-123859433D01*
X173551368Y-123786446D01*
X173318097Y-123749500D01*
X173318092Y-123749500D01*
X173081908Y-123749500D01*
X173081903Y-123749500D01*
X172848631Y-123786446D01*
X172624003Y-123859433D01*
X172413566Y-123966657D01*
X172372837Y-123996249D01*
X172222490Y-124105483D01*
X172222488Y-124105485D01*
X172222487Y-124105485D01*
X172055485Y-124272487D01*
X172055485Y-124272488D01*
X172055483Y-124272490D01*
X172040005Y-124293794D01*
X171916657Y-124463566D01*
X171809433Y-124674003D01*
X171736446Y-124898631D01*
X171699500Y-125131902D01*
X159250500Y-125131902D01*
X159213553Y-124898631D01*
X159140566Y-124674003D01*
X159033342Y-124463566D01*
X158894517Y-124272490D01*
X158727510Y-124105483D01*
X158536433Y-123966657D01*
X158325996Y-123859433D01*
X158101368Y-123786446D01*
X157868097Y-123749500D01*
X157868092Y-123749500D01*
X157631908Y-123749500D01*
X157631903Y-123749500D01*
X157398631Y-123786446D01*
X157174003Y-123859433D01*
X156963566Y-123966657D01*
X156922837Y-123996249D01*
X156772490Y-124105483D01*
X156772488Y-124105485D01*
X156772487Y-124105485D01*
X156605485Y-124272487D01*
X156605485Y-124272488D01*
X156605483Y-124272490D01*
X156590005Y-124293794D01*
X156466657Y-124463566D01*
X156359433Y-124674003D01*
X156286446Y-124898631D01*
X156249500Y-125131902D01*
X156249500Y-125368097D01*
X156286446Y-125601368D01*
X156359433Y-125825996D01*
X156466657Y-126036433D01*
X156605483Y-126227510D01*
X156605485Y-126227512D01*
X156665792Y-126287819D01*
X156699277Y-126349142D01*
X156694293Y-126418834D01*
X156652421Y-126474767D01*
X156586957Y-126499184D01*
X156578111Y-126499500D01*
X152421889Y-126499500D01*
X152354850Y-126479815D01*
X152309095Y-126427011D01*
X152299151Y-126357853D01*
X152328176Y-126294297D01*
X152334208Y-126287819D01*
X152394517Y-126227510D01*
X152533343Y-126036433D01*
X152640568Y-125825992D01*
X152713553Y-125601368D01*
X152741363Y-125425782D01*
X152750500Y-125368097D01*
X152750500Y-125131902D01*
X152713553Y-124898631D01*
X152640566Y-124674003D01*
X152533342Y-124463566D01*
X152394517Y-124272490D01*
X152227510Y-124105483D01*
X152036433Y-123966657D01*
X151825996Y-123859433D01*
X151601368Y-123786446D01*
X151368097Y-123749500D01*
X151368092Y-123749500D01*
X151131908Y-123749500D01*
X151131903Y-123749500D01*
X150898631Y-123786446D01*
X150674003Y-123859433D01*
X150463566Y-123966657D01*
X150422837Y-123996249D01*
X150272490Y-124105483D01*
X150272488Y-124105485D01*
X150272487Y-124105485D01*
X150105485Y-124272487D01*
X150105485Y-124272488D01*
X150105483Y-124272490D01*
X150090005Y-124293794D01*
X149966657Y-124463566D01*
X149859433Y-124674003D01*
X149786446Y-124898631D01*
X149749500Y-125131902D01*
X149749500Y-125368097D01*
X149786446Y-125601368D01*
X149859433Y-125825996D01*
X149966657Y-126036433D01*
X150105483Y-126227510D01*
X150105485Y-126227512D01*
X150165792Y-126287819D01*
X150199277Y-126349142D01*
X150194293Y-126418834D01*
X150152421Y-126474767D01*
X150086957Y-126499184D01*
X150078111Y-126499500D01*
X138968872Y-126499500D01*
X138737772Y-126529926D01*
X138708884Y-126533730D01*
X138473398Y-126596828D01*
X138455581Y-126601602D01*
X138455571Y-126601605D01*
X138213309Y-126701953D01*
X138213299Y-126701958D01*
X137986201Y-126833072D01*
X137778151Y-126992716D01*
X137747256Y-127023610D01*
X137685932Y-127057093D01*
X137659110Y-127059925D01*
X122476600Y-127002787D01*
X122409635Y-126982850D01*
X122401589Y-126977170D01*
X122213803Y-126833076D01*
X122213798Y-126833072D01*
X121986700Y-126701958D01*
X121986690Y-126701953D01*
X121744428Y-126601605D01*
X121744421Y-126601603D01*
X121744419Y-126601602D01*
X121491116Y-126533730D01*
X121433339Y-126526123D01*
X121231127Y-126499500D01*
X121231120Y-126499500D01*
X121165892Y-126499500D01*
X112603751Y-126499500D01*
X112596264Y-126499274D01*
X112306205Y-126481728D01*
X112291340Y-126479923D01*
X112009201Y-126428219D01*
X111994663Y-126424635D01*
X111720832Y-126339306D01*
X111706831Y-126333997D01*
X111445263Y-126216275D01*
X111432004Y-126209316D01*
X111186540Y-126060928D01*
X111174217Y-126052422D01*
X110948426Y-125875526D01*
X110937218Y-125865596D01*
X110734403Y-125662781D01*
X110724473Y-125651573D01*
X110685140Y-125601368D01*
X110547573Y-125425776D01*
X110539075Y-125413465D01*
X110390680Y-125167990D01*
X110383727Y-125154743D01*
X110373447Y-125131902D01*
X127999500Y-125131902D01*
X127999500Y-125368097D01*
X128036446Y-125601368D01*
X128109433Y-125825996D01*
X128216657Y-126036433D01*
X128355483Y-126227510D01*
X128522490Y-126394517D01*
X128713567Y-126533343D01*
X128714327Y-126533730D01*
X128924003Y-126640566D01*
X128924005Y-126640566D01*
X128924008Y-126640568D01*
X129044412Y-126679689D01*
X129148631Y-126713553D01*
X129381903Y-126750500D01*
X129381908Y-126750500D01*
X129618097Y-126750500D01*
X129851368Y-126713553D01*
X130075992Y-126640568D01*
X130286433Y-126533343D01*
X130477510Y-126394517D01*
X130644517Y-126227510D01*
X130783343Y-126036433D01*
X130890568Y-125825992D01*
X130963553Y-125601368D01*
X130991363Y-125425782D01*
X131000500Y-125368097D01*
X131000500Y-125131902D01*
X134499500Y-125131902D01*
X134499500Y-125368097D01*
X134536446Y-125601368D01*
X134609433Y-125825996D01*
X134716657Y-126036433D01*
X134855483Y-126227510D01*
X135022490Y-126394517D01*
X135213567Y-126533343D01*
X135214327Y-126533730D01*
X135424003Y-126640566D01*
X135424005Y-126640566D01*
X135424008Y-126640568D01*
X135544412Y-126679689D01*
X135648631Y-126713553D01*
X135881903Y-126750500D01*
X135881908Y-126750500D01*
X136118097Y-126750500D01*
X136351368Y-126713553D01*
X136575992Y-126640568D01*
X136786433Y-126533343D01*
X136977510Y-126394517D01*
X137144517Y-126227510D01*
X137283343Y-126036433D01*
X137390568Y-125825992D01*
X137463553Y-125601368D01*
X137491363Y-125425782D01*
X137500500Y-125368097D01*
X137500500Y-125131902D01*
X137463553Y-124898631D01*
X137390566Y-124674003D01*
X137283342Y-124463566D01*
X137144517Y-124272490D01*
X136977510Y-124105483D01*
X136786433Y-123966657D01*
X136575996Y-123859433D01*
X136351368Y-123786446D01*
X136118097Y-123749500D01*
X136118092Y-123749500D01*
X135881908Y-123749500D01*
X135881903Y-123749500D01*
X135648631Y-123786446D01*
X135424003Y-123859433D01*
X135213566Y-123966657D01*
X135172837Y-123996249D01*
X135022490Y-124105483D01*
X135022488Y-124105485D01*
X135022487Y-124105485D01*
X134855485Y-124272487D01*
X134855485Y-124272488D01*
X134855483Y-124272490D01*
X134840005Y-124293794D01*
X134716657Y-124463566D01*
X134609433Y-124674003D01*
X134536446Y-124898631D01*
X134499500Y-125131902D01*
X131000500Y-125131902D01*
X130963553Y-124898631D01*
X130890566Y-124674003D01*
X130783342Y-124463566D01*
X130644517Y-124272490D01*
X130477510Y-124105483D01*
X130286433Y-123966657D01*
X130075996Y-123859433D01*
X129851368Y-123786446D01*
X129618097Y-123749500D01*
X129618092Y-123749500D01*
X129381908Y-123749500D01*
X129381903Y-123749500D01*
X129148631Y-123786446D01*
X128924003Y-123859433D01*
X128713566Y-123966657D01*
X128672837Y-123996249D01*
X128522490Y-124105483D01*
X128522488Y-124105485D01*
X128522487Y-124105485D01*
X128355485Y-124272487D01*
X128355485Y-124272488D01*
X128355483Y-124272490D01*
X128340005Y-124293794D01*
X128216657Y-124463566D01*
X128109433Y-124674003D01*
X128036446Y-124898631D01*
X127999500Y-125131902D01*
X110373447Y-125131902D01*
X110266000Y-124893163D01*
X110260693Y-124879167D01*
X110196761Y-124674003D01*
X110175363Y-124605335D01*
X110171780Y-124590798D01*
X110120076Y-124308659D01*
X110118271Y-124293794D01*
X110100726Y-124003736D01*
X110100500Y-123996249D01*
X110100500Y-120631902D01*
X127999500Y-120631902D01*
X127999500Y-120868097D01*
X128036446Y-121101368D01*
X128109433Y-121325996D01*
X128216657Y-121536433D01*
X128355483Y-121727510D01*
X128522490Y-121894517D01*
X128713567Y-122033343D01*
X128812991Y-122084002D01*
X128924003Y-122140566D01*
X128924005Y-122140566D01*
X128924008Y-122140568D01*
X129044412Y-122179689D01*
X129148631Y-122213553D01*
X129381903Y-122250500D01*
X129381908Y-122250500D01*
X129618097Y-122250500D01*
X129851368Y-122213553D01*
X130075992Y-122140568D01*
X130286433Y-122033343D01*
X130477510Y-121894517D01*
X130644517Y-121727510D01*
X130783343Y-121536433D01*
X130890568Y-121325992D01*
X130963553Y-121101368D01*
X131000500Y-120868097D01*
X131000500Y-120631902D01*
X134499500Y-120631902D01*
X134499500Y-120868097D01*
X134536446Y-121101368D01*
X134609433Y-121325996D01*
X134716657Y-121536433D01*
X134855483Y-121727510D01*
X135022490Y-121894517D01*
X135213567Y-122033343D01*
X135312991Y-122084002D01*
X135424003Y-122140566D01*
X135424005Y-122140566D01*
X135424008Y-122140568D01*
X135544412Y-122179689D01*
X135648631Y-122213553D01*
X135881903Y-122250500D01*
X135881908Y-122250500D01*
X136118097Y-122250500D01*
X136351368Y-122213553D01*
X136575992Y-122140568D01*
X136786433Y-122033343D01*
X136977510Y-121894517D01*
X137144517Y-121727510D01*
X137283343Y-121536433D01*
X137390568Y-121325992D01*
X137463553Y-121101368D01*
X137500500Y-120868097D01*
X137500500Y-120631902D01*
X149749500Y-120631902D01*
X149749500Y-120868097D01*
X149786446Y-121101368D01*
X149859433Y-121325996D01*
X149966657Y-121536433D01*
X150105483Y-121727510D01*
X150272490Y-121894517D01*
X150463567Y-122033343D01*
X150562991Y-122084002D01*
X150674003Y-122140566D01*
X150674005Y-122140566D01*
X150674008Y-122140568D01*
X150794412Y-122179689D01*
X150898631Y-122213553D01*
X151131903Y-122250500D01*
X151131908Y-122250500D01*
X151368097Y-122250500D01*
X151601368Y-122213553D01*
X151825992Y-122140568D01*
X152036433Y-122033343D01*
X152227510Y-121894517D01*
X152394517Y-121727510D01*
X152533343Y-121536433D01*
X152640568Y-121325992D01*
X152713553Y-121101368D01*
X152750500Y-120868097D01*
X152750500Y-120631902D01*
X156249500Y-120631902D01*
X156249500Y-120868097D01*
X156286446Y-121101368D01*
X156359433Y-121325996D01*
X156466657Y-121536433D01*
X156605483Y-121727510D01*
X156772490Y-121894517D01*
X156963567Y-122033343D01*
X157062991Y-122084002D01*
X157174003Y-122140566D01*
X157174005Y-122140566D01*
X157174008Y-122140568D01*
X157294412Y-122179689D01*
X157398631Y-122213553D01*
X157631903Y-122250500D01*
X157631908Y-122250500D01*
X157868097Y-122250500D01*
X158101368Y-122213553D01*
X158325992Y-122140568D01*
X158536433Y-122033343D01*
X158727510Y-121894517D01*
X158894517Y-121727510D01*
X159033343Y-121536433D01*
X159140568Y-121325992D01*
X159213553Y-121101368D01*
X159250500Y-120868097D01*
X159250500Y-120631902D01*
X171699500Y-120631902D01*
X171699500Y-120868097D01*
X171736446Y-121101368D01*
X171809433Y-121325996D01*
X171916657Y-121536433D01*
X172055483Y-121727510D01*
X172222490Y-121894517D01*
X172413567Y-122033343D01*
X172512991Y-122084002D01*
X172624003Y-122140566D01*
X172624005Y-122140566D01*
X172624008Y-122140568D01*
X172744412Y-122179689D01*
X172848631Y-122213553D01*
X173081903Y-122250500D01*
X173081908Y-122250500D01*
X173318097Y-122250500D01*
X173551368Y-122213553D01*
X173775992Y-122140568D01*
X173986433Y-122033343D01*
X174177510Y-121894517D01*
X174344517Y-121727510D01*
X174483343Y-121536433D01*
X174590568Y-121325992D01*
X174663553Y-121101368D01*
X174700500Y-120868097D01*
X174700500Y-120631902D01*
X178199500Y-120631902D01*
X178199500Y-120868097D01*
X178236446Y-121101368D01*
X178309433Y-121325996D01*
X178416657Y-121536433D01*
X178555483Y-121727510D01*
X178722490Y-121894517D01*
X178913567Y-122033343D01*
X179012991Y-122084002D01*
X179124003Y-122140566D01*
X179124005Y-122140566D01*
X179124008Y-122140568D01*
X179244412Y-122179689D01*
X179348631Y-122213553D01*
X179581903Y-122250500D01*
X179581908Y-122250500D01*
X179818097Y-122250500D01*
X180051368Y-122213553D01*
X180275992Y-122140568D01*
X180486433Y-122033343D01*
X180677510Y-121894517D01*
X180844517Y-121727510D01*
X180983343Y-121536433D01*
X181090568Y-121325992D01*
X181163553Y-121101368D01*
X181200500Y-120868097D01*
X181200500Y-120631902D01*
X181163553Y-120398631D01*
X181090566Y-120174003D01*
X180983342Y-119963566D01*
X180844517Y-119772490D01*
X180677510Y-119605483D01*
X180486433Y-119466657D01*
X180275996Y-119359433D01*
X180051368Y-119286446D01*
X179818097Y-119249500D01*
X179818092Y-119249500D01*
X179581908Y-119249500D01*
X179581903Y-119249500D01*
X179348631Y-119286446D01*
X179124003Y-119359433D01*
X178913566Y-119466657D01*
X178804550Y-119545862D01*
X178722490Y-119605483D01*
X178722488Y-119605485D01*
X178722487Y-119605485D01*
X178555485Y-119772487D01*
X178555485Y-119772488D01*
X178555483Y-119772490D01*
X178495862Y-119854550D01*
X178416657Y-119963566D01*
X178309433Y-120174003D01*
X178236446Y-120398631D01*
X178199500Y-120631902D01*
X174700500Y-120631902D01*
X174663553Y-120398631D01*
X174590566Y-120174003D01*
X174483342Y-119963566D01*
X174344517Y-119772490D01*
X174177510Y-119605483D01*
X173986433Y-119466657D01*
X173775996Y-119359433D01*
X173551368Y-119286446D01*
X173318097Y-119249500D01*
X173318092Y-119249500D01*
X173081908Y-119249500D01*
X173081903Y-119249500D01*
X172848631Y-119286446D01*
X172624003Y-119359433D01*
X172413566Y-119466657D01*
X172304550Y-119545862D01*
X172222490Y-119605483D01*
X172222488Y-119605485D01*
X172222487Y-119605485D01*
X172055485Y-119772487D01*
X172055485Y-119772488D01*
X172055483Y-119772490D01*
X171995862Y-119854550D01*
X171916657Y-119963566D01*
X171809433Y-120174003D01*
X171736446Y-120398631D01*
X171699500Y-120631902D01*
X159250500Y-120631902D01*
X159213553Y-120398631D01*
X159140566Y-120174003D01*
X159033342Y-119963566D01*
X158894517Y-119772490D01*
X158727510Y-119605483D01*
X158536433Y-119466657D01*
X158325996Y-119359433D01*
X158101368Y-119286446D01*
X157868097Y-119249500D01*
X157868092Y-119249500D01*
X157631908Y-119249500D01*
X157631903Y-119249500D01*
X157398631Y-119286446D01*
X157174003Y-119359433D01*
X156963566Y-119466657D01*
X156854550Y-119545862D01*
X156772490Y-119605483D01*
X156772488Y-119605485D01*
X156772487Y-119605485D01*
X156605485Y-119772487D01*
X156605485Y-119772488D01*
X156605483Y-119772490D01*
X156545862Y-119854550D01*
X156466657Y-119963566D01*
X156359433Y-120174003D01*
X156286446Y-120398631D01*
X156249500Y-120631902D01*
X152750500Y-120631902D01*
X152713553Y-120398631D01*
X152640566Y-120174003D01*
X152533342Y-119963566D01*
X152394517Y-119772490D01*
X152227510Y-119605483D01*
X152036433Y-119466657D01*
X151825996Y-119359433D01*
X151601368Y-119286446D01*
X151368097Y-119249500D01*
X151368092Y-119249500D01*
X151131908Y-119249500D01*
X151131903Y-119249500D01*
X150898631Y-119286446D01*
X150674003Y-119359433D01*
X150463566Y-119466657D01*
X150354550Y-119545862D01*
X150272490Y-119605483D01*
X150272488Y-119605485D01*
X150272487Y-119605485D01*
X150105485Y-119772487D01*
X150105485Y-119772488D01*
X150105483Y-119772490D01*
X150045862Y-119854550D01*
X149966657Y-119963566D01*
X149859433Y-120174003D01*
X149786446Y-120398631D01*
X149749500Y-120631902D01*
X137500500Y-120631902D01*
X137463553Y-120398631D01*
X137390566Y-120174003D01*
X137283342Y-119963566D01*
X137144517Y-119772490D01*
X136977510Y-119605483D01*
X136786433Y-119466657D01*
X136575996Y-119359433D01*
X136351368Y-119286446D01*
X136118097Y-119249500D01*
X136118092Y-119249500D01*
X135881908Y-119249500D01*
X135881903Y-119249500D01*
X135648631Y-119286446D01*
X135424003Y-119359433D01*
X135213566Y-119466657D01*
X135104550Y-119545862D01*
X135022490Y-119605483D01*
X135022488Y-119605485D01*
X135022487Y-119605485D01*
X134855485Y-119772487D01*
X134855485Y-119772488D01*
X134855483Y-119772490D01*
X134795862Y-119854550D01*
X134716657Y-119963566D01*
X134609433Y-120174003D01*
X134536446Y-120398631D01*
X134499500Y-120631902D01*
X131000500Y-120631902D01*
X130963553Y-120398631D01*
X130890566Y-120174003D01*
X130783342Y-119963566D01*
X130644517Y-119772490D01*
X130477510Y-119605483D01*
X130286433Y-119466657D01*
X130075996Y-119359433D01*
X129851368Y-119286446D01*
X129618097Y-119249500D01*
X129618092Y-119249500D01*
X129381908Y-119249500D01*
X129381903Y-119249500D01*
X129148631Y-119286446D01*
X128924003Y-119359433D01*
X128713566Y-119466657D01*
X128604550Y-119545862D01*
X128522490Y-119605483D01*
X128522488Y-119605485D01*
X128522487Y-119605485D01*
X128355485Y-119772487D01*
X128355485Y-119772488D01*
X128355483Y-119772490D01*
X128295862Y-119854550D01*
X128216657Y-119963566D01*
X128109433Y-120174003D01*
X128036446Y-120398631D01*
X127999500Y-120631902D01*
X110100500Y-120631902D01*
X110100500Y-112613389D01*
X120674500Y-112613389D01*
X120674500Y-112786611D01*
X120701598Y-112957701D01*
X120755127Y-113122445D01*
X120833768Y-113276788D01*
X120935586Y-113416928D01*
X120935588Y-113416930D01*
X121043127Y-113524469D01*
X121076612Y-113585792D01*
X121071628Y-113655484D01*
X121029756Y-113711417D01*
X121020544Y-113717688D01*
X120956344Y-113757287D01*
X120832289Y-113881342D01*
X120740187Y-114030663D01*
X120740186Y-114030666D01*
X120685001Y-114197203D01*
X120685001Y-114197204D01*
X120685000Y-114197204D01*
X120674500Y-114299983D01*
X120674500Y-115100001D01*
X120674501Y-115100019D01*
X120685000Y-115202796D01*
X120685001Y-115202799D01*
X120740185Y-115369331D01*
X120740186Y-115369334D01*
X120832288Y-115518656D01*
X120956344Y-115642712D01*
X121105666Y-115734814D01*
X121272203Y-115789999D01*
X121374991Y-115800500D01*
X122725008Y-115800499D01*
X122827797Y-115789999D01*
X122994334Y-115734814D01*
X123143656Y-115642712D01*
X123267712Y-115518656D01*
X123359814Y-115369334D01*
X123414999Y-115202797D01*
X123425500Y-115100009D01*
X123425499Y-114299992D01*
X123414999Y-114197203D01*
X123359814Y-114030666D01*
X123267712Y-113881344D01*
X123143656Y-113757288D01*
X123143652Y-113757285D01*
X123079456Y-113717688D01*
X123063904Y-113700397D01*
X123045286Y-113686460D01*
X123040977Y-113674908D01*
X123032731Y-113665740D01*
X123028996Y-113642785D01*
X123020869Y-113620996D01*
X123023490Y-113608946D01*
X123021510Y-113596777D01*
X123022841Y-113593713D01*
X141449500Y-113593713D01*
X141449500Y-113806287D01*
X141482754Y-114016243D01*
X141487440Y-114030666D01*
X141548444Y-114218414D01*
X141644951Y-114407820D01*
X141769890Y-114579786D01*
X141920213Y-114730109D01*
X142092179Y-114855048D01*
X142092181Y-114855049D01*
X142092184Y-114855051D01*
X142281588Y-114951557D01*
X142483757Y-115017246D01*
X142693713Y-115050500D01*
X142693714Y-115050500D01*
X142906286Y-115050500D01*
X142906287Y-115050500D01*
X143116243Y-115017246D01*
X143318412Y-114951557D01*
X143507816Y-114855051D01*
X143594138Y-114792335D01*
X143679786Y-114730109D01*
X143679788Y-114730106D01*
X143679792Y-114730104D01*
X143830104Y-114579792D01*
X143830106Y-114579788D01*
X143830109Y-114579786D01*
X143955048Y-114407820D01*
X143955047Y-114407820D01*
X143955051Y-114407816D01*
X143959514Y-114399054D01*
X144007488Y-114348259D01*
X144075308Y-114331463D01*
X144141444Y-114353999D01*
X144180486Y-114399056D01*
X144184951Y-114407820D01*
X144309890Y-114579786D01*
X144460213Y-114730109D01*
X144632179Y-114855048D01*
X144632181Y-114855049D01*
X144632184Y-114855051D01*
X144821588Y-114951557D01*
X145023757Y-115017246D01*
X145233713Y-115050500D01*
X145233714Y-115050500D01*
X145446286Y-115050500D01*
X145446287Y-115050500D01*
X145656243Y-115017246D01*
X145858412Y-114951557D01*
X146047816Y-114855051D01*
X146134138Y-114792335D01*
X146219786Y-114730109D01*
X146219788Y-114730106D01*
X146219792Y-114730104D01*
X146370104Y-114579792D01*
X146370106Y-114579788D01*
X146370109Y-114579786D01*
X146495048Y-114407820D01*
X146495047Y-114407820D01*
X146495051Y-114407816D01*
X146499514Y-114399054D01*
X146547488Y-114348259D01*
X146615308Y-114331463D01*
X146681444Y-114353999D01*
X146720486Y-114399056D01*
X146724951Y-114407820D01*
X146849890Y-114579786D01*
X147000213Y-114730109D01*
X147172179Y-114855048D01*
X147172181Y-114855049D01*
X147172184Y-114855051D01*
X147361588Y-114951557D01*
X147563757Y-115017246D01*
X147773713Y-115050500D01*
X147773714Y-115050500D01*
X147986286Y-115050500D01*
X147986287Y-115050500D01*
X148196243Y-115017246D01*
X148398412Y-114951557D01*
X148587816Y-114855051D01*
X148674138Y-114792335D01*
X148759786Y-114730109D01*
X148759788Y-114730106D01*
X148759792Y-114730104D01*
X148910104Y-114579792D01*
X148910106Y-114579788D01*
X148910109Y-114579786D01*
X149035048Y-114407820D01*
X149035047Y-114407820D01*
X149035051Y-114407816D01*
X149039514Y-114399054D01*
X149087488Y-114348259D01*
X149155308Y-114331463D01*
X149221444Y-114353999D01*
X149260486Y-114399056D01*
X149264951Y-114407820D01*
X149389890Y-114579786D01*
X149540213Y-114730109D01*
X149712179Y-114855048D01*
X149712181Y-114855049D01*
X149712184Y-114855051D01*
X149901588Y-114951557D01*
X150103757Y-115017246D01*
X150313713Y-115050500D01*
X150313714Y-115050500D01*
X150526286Y-115050500D01*
X150526287Y-115050500D01*
X150736243Y-115017246D01*
X150938412Y-114951557D01*
X151127816Y-114855051D01*
X151214138Y-114792335D01*
X151299786Y-114730109D01*
X151299788Y-114730106D01*
X151299792Y-114730104D01*
X151450104Y-114579792D01*
X151450106Y-114579788D01*
X151450109Y-114579786D01*
X151575048Y-114407820D01*
X151575047Y-114407820D01*
X151575051Y-114407816D01*
X151579514Y-114399054D01*
X151627488Y-114348259D01*
X151695308Y-114331463D01*
X151761444Y-114353999D01*
X151800486Y-114399056D01*
X151804951Y-114407820D01*
X151929890Y-114579786D01*
X152080213Y-114730109D01*
X152252179Y-114855048D01*
X152252181Y-114855049D01*
X152252184Y-114855051D01*
X152441588Y-114951557D01*
X152643757Y-115017246D01*
X152853713Y-115050500D01*
X152853714Y-115050500D01*
X153066286Y-115050500D01*
X153066287Y-115050500D01*
X153276243Y-115017246D01*
X153478412Y-114951557D01*
X153667816Y-114855051D01*
X153754138Y-114792335D01*
X153839786Y-114730109D01*
X153839788Y-114730106D01*
X153839792Y-114730104D01*
X153990104Y-114579792D01*
X153990106Y-114579788D01*
X153990109Y-114579786D01*
X154115048Y-114407820D01*
X154115047Y-114407820D01*
X154115051Y-114407816D01*
X154119514Y-114399054D01*
X154167488Y-114348259D01*
X154235308Y-114331463D01*
X154301444Y-114353999D01*
X154340486Y-114399056D01*
X154344951Y-114407820D01*
X154469890Y-114579786D01*
X154620213Y-114730109D01*
X154792179Y-114855048D01*
X154792181Y-114855049D01*
X154792184Y-114855051D01*
X154981588Y-114951557D01*
X155183757Y-115017246D01*
X155393713Y-115050500D01*
X155393714Y-115050500D01*
X155606286Y-115050500D01*
X155606287Y-115050500D01*
X155816243Y-115017246D01*
X156018412Y-114951557D01*
X156207816Y-114855051D01*
X156379792Y-114730104D01*
X156493329Y-114616566D01*
X156554648Y-114583084D01*
X156624340Y-114588068D01*
X156680274Y-114629939D01*
X156697189Y-114660917D01*
X156746202Y-114792328D01*
X156746206Y-114792335D01*
X156832452Y-114907544D01*
X156832455Y-114907547D01*
X156947664Y-114993793D01*
X156947671Y-114993797D01*
X157082517Y-115044091D01*
X157082516Y-115044091D01*
X157089444Y-115044835D01*
X157142127Y-115050500D01*
X158937872Y-115050499D01*
X158997483Y-115044091D01*
X159132331Y-114993796D01*
X159247546Y-114907546D01*
X159333796Y-114792331D01*
X159384091Y-114657483D01*
X159390500Y-114597873D01*
X159390499Y-112802128D01*
X159384091Y-112742517D01*
X159382810Y-112739083D01*
X159333797Y-112607671D01*
X159333793Y-112607664D01*
X159247547Y-112492455D01*
X159247544Y-112492452D01*
X159132335Y-112406206D01*
X159132328Y-112406202D01*
X158997482Y-112355908D01*
X158997483Y-112355908D01*
X158937883Y-112349501D01*
X158937881Y-112349500D01*
X158937873Y-112349500D01*
X158937864Y-112349500D01*
X157142129Y-112349500D01*
X157142123Y-112349501D01*
X157082516Y-112355908D01*
X156947671Y-112406202D01*
X156947664Y-112406206D01*
X156832455Y-112492452D01*
X156832452Y-112492455D01*
X156746206Y-112607664D01*
X156746203Y-112607669D01*
X156697189Y-112739083D01*
X156655317Y-112795016D01*
X156589853Y-112819433D01*
X156521580Y-112804581D01*
X156493326Y-112783430D01*
X156379786Y-112669890D01*
X156207820Y-112544951D01*
X156018414Y-112448444D01*
X156018413Y-112448443D01*
X156018412Y-112448443D01*
X155816243Y-112382754D01*
X155816241Y-112382753D01*
X155816240Y-112382753D01*
X155654957Y-112357208D01*
X155606287Y-112349500D01*
X155393713Y-112349500D01*
X155345042Y-112357208D01*
X155183760Y-112382753D01*
X154981585Y-112448444D01*
X154792179Y-112544951D01*
X154620213Y-112669890D01*
X154469890Y-112820213D01*
X154344949Y-112992182D01*
X154340484Y-113000946D01*
X154292509Y-113051742D01*
X154224688Y-113068536D01*
X154158553Y-113045998D01*
X154119516Y-113000946D01*
X154115050Y-112992182D01*
X153990109Y-112820213D01*
X153839786Y-112669890D01*
X153667820Y-112544951D01*
X153478414Y-112448444D01*
X153478413Y-112448443D01*
X153478412Y-112448443D01*
X153276243Y-112382754D01*
X153276241Y-112382753D01*
X153276240Y-112382753D01*
X153114957Y-112357208D01*
X153066287Y-112349500D01*
X152853713Y-112349500D01*
X152805042Y-112357208D01*
X152643760Y-112382753D01*
X152441585Y-112448444D01*
X152252179Y-112544951D01*
X152080213Y-112669890D01*
X151929890Y-112820213D01*
X151804949Y-112992182D01*
X151800484Y-113000946D01*
X151752509Y-113051742D01*
X151684688Y-113068536D01*
X151618553Y-113045998D01*
X151579516Y-113000946D01*
X151575050Y-112992182D01*
X151450109Y-112820213D01*
X151299786Y-112669890D01*
X151127820Y-112544951D01*
X150938414Y-112448444D01*
X150938413Y-112448443D01*
X150938412Y-112448443D01*
X150736243Y-112382754D01*
X150736241Y-112382753D01*
X150736240Y-112382753D01*
X150574957Y-112357208D01*
X150526287Y-112349500D01*
X150313713Y-112349500D01*
X150265042Y-112357208D01*
X150103760Y-112382753D01*
X149901585Y-112448444D01*
X149712179Y-112544951D01*
X149540213Y-112669890D01*
X149389890Y-112820213D01*
X149264949Y-112992182D01*
X149260484Y-113000946D01*
X149212509Y-113051742D01*
X149144688Y-113068536D01*
X149078553Y-113045998D01*
X149039516Y-113000946D01*
X149035050Y-112992182D01*
X148910109Y-112820213D01*
X148759786Y-112669890D01*
X148587820Y-112544951D01*
X148398414Y-112448444D01*
X148398413Y-112448443D01*
X148398412Y-112448443D01*
X148196243Y-112382754D01*
X148196241Y-112382753D01*
X148196240Y-112382753D01*
X148034957Y-112357208D01*
X147986287Y-112349500D01*
X147773713Y-112349500D01*
X147725042Y-112357208D01*
X147563760Y-112382753D01*
X147361585Y-112448444D01*
X147172179Y-112544951D01*
X147000213Y-112669890D01*
X146849890Y-112820213D01*
X146724949Y-112992182D01*
X146720484Y-113000946D01*
X146672509Y-113051742D01*
X146604688Y-113068536D01*
X146538553Y-113045998D01*
X146499516Y-113000946D01*
X146495050Y-112992182D01*
X146370109Y-112820213D01*
X146219786Y-112669890D01*
X146047820Y-112544951D01*
X145858414Y-112448444D01*
X145858413Y-112448443D01*
X145858412Y-112448443D01*
X145656243Y-112382754D01*
X145656241Y-112382753D01*
X145656240Y-112382753D01*
X145494957Y-112357208D01*
X145446287Y-112349500D01*
X145233713Y-112349500D01*
X145185042Y-112357208D01*
X145023760Y-112382753D01*
X144821585Y-112448444D01*
X144632179Y-112544951D01*
X144460213Y-112669890D01*
X144309890Y-112820213D01*
X144184949Y-112992182D01*
X144180484Y-113000946D01*
X144132509Y-113051742D01*
X144064688Y-113068536D01*
X143998553Y-113045998D01*
X143959516Y-113000946D01*
X143955050Y-112992182D01*
X143830109Y-112820213D01*
X143679786Y-112669890D01*
X143507820Y-112544951D01*
X143318414Y-112448444D01*
X143318413Y-112448443D01*
X143318412Y-112448443D01*
X143116243Y-112382754D01*
X143116241Y-112382753D01*
X143116240Y-112382753D01*
X142954957Y-112357208D01*
X142906287Y-112349500D01*
X142693713Y-112349500D01*
X142645042Y-112357208D01*
X142483760Y-112382753D01*
X142281585Y-112448444D01*
X142092179Y-112544951D01*
X141920213Y-112669890D01*
X141769890Y-112820213D01*
X141644951Y-112992179D01*
X141548444Y-113181585D01*
X141548443Y-113181587D01*
X141548443Y-113181588D01*
X141515598Y-113282672D01*
X141482753Y-113383760D01*
X141464157Y-113501173D01*
X141449500Y-113593713D01*
X123022841Y-113593713D01*
X123030777Y-113575447D01*
X123035721Y-113552723D01*
X123047470Y-113537027D01*
X123049353Y-113532695D01*
X123056861Y-113524480D01*
X123164414Y-113416928D01*
X123266232Y-113276788D01*
X123344873Y-113122445D01*
X123398402Y-112957701D01*
X123425500Y-112786611D01*
X123425500Y-112613389D01*
X123398402Y-112442299D01*
X123344873Y-112277555D01*
X123266232Y-112123212D01*
X123164414Y-111983072D01*
X123041928Y-111860586D01*
X122901788Y-111758768D01*
X122747445Y-111680127D01*
X122582701Y-111626598D01*
X122582699Y-111626597D01*
X122582698Y-111626597D01*
X122451271Y-111605781D01*
X122411611Y-111599500D01*
X121688389Y-111599500D01*
X121648728Y-111605781D01*
X121517302Y-111626597D01*
X121352552Y-111680128D01*
X121198211Y-111758768D01*
X121118256Y-111816859D01*
X121058072Y-111860586D01*
X121058070Y-111860588D01*
X121058069Y-111860588D01*
X120935588Y-111983069D01*
X120935588Y-111983070D01*
X120935586Y-111983072D01*
X120916465Y-112009390D01*
X120833768Y-112123211D01*
X120755128Y-112277552D01*
X120701597Y-112442302D01*
X120675407Y-112607664D01*
X120674500Y-112613389D01*
X110100500Y-112613389D01*
X110100500Y-111221153D01*
X171699500Y-111221153D01*
X171699500Y-111378846D01*
X171730261Y-111533489D01*
X171730264Y-111533501D01*
X171790602Y-111679172D01*
X171790609Y-111679185D01*
X171878210Y-111810288D01*
X171878213Y-111810292D01*
X171989707Y-111921786D01*
X171989711Y-111921789D01*
X172120814Y-112009390D01*
X172120827Y-112009397D01*
X172266498Y-112069735D01*
X172266503Y-112069737D01*
X172421153Y-112100499D01*
X172421156Y-112100500D01*
X172421158Y-112100500D01*
X172578844Y-112100500D01*
X172578845Y-112100499D01*
X172733497Y-112069737D01*
X172879179Y-112009394D01*
X173010289Y-111921789D01*
X173121789Y-111810289D01*
X173209394Y-111679179D01*
X173269737Y-111533497D01*
X173300500Y-111378842D01*
X173300500Y-111221158D01*
X173300500Y-111221155D01*
X173300499Y-111221153D01*
X173269738Y-111066510D01*
X173269737Y-111066503D01*
X173269735Y-111066498D01*
X173209397Y-110920827D01*
X173209390Y-110920814D01*
X173121789Y-110789711D01*
X173121786Y-110789707D01*
X173010292Y-110678213D01*
X173010288Y-110678210D01*
X172879185Y-110590609D01*
X172879172Y-110590602D01*
X172733501Y-110530264D01*
X172733489Y-110530261D01*
X172578845Y-110499500D01*
X172578842Y-110499500D01*
X172421158Y-110499500D01*
X172421155Y-110499500D01*
X172266510Y-110530261D01*
X172266498Y-110530264D01*
X172120827Y-110590602D01*
X172120814Y-110590609D01*
X171989711Y-110678210D01*
X171989707Y-110678213D01*
X171878213Y-110789707D01*
X171878210Y-110789711D01*
X171790609Y-110920814D01*
X171790602Y-110920827D01*
X171730264Y-111066498D01*
X171730261Y-111066510D01*
X171699500Y-111221153D01*
X110100500Y-111221153D01*
X110100500Y-108821153D01*
X148499500Y-108821153D01*
X148499500Y-108978846D01*
X148530261Y-109133489D01*
X148530264Y-109133501D01*
X148590602Y-109279172D01*
X148590609Y-109279185D01*
X148678210Y-109410288D01*
X148678213Y-109410292D01*
X148789707Y-109521786D01*
X148789711Y-109521789D01*
X148920814Y-109609390D01*
X148920827Y-109609397D01*
X149066498Y-109669735D01*
X149066503Y-109669737D01*
X149221153Y-109700499D01*
X149221156Y-109700500D01*
X149221158Y-109700500D01*
X149378844Y-109700500D01*
X149378845Y-109700499D01*
X149533497Y-109669737D01*
X149679179Y-109609394D01*
X149810289Y-109521789D01*
X149921789Y-109410289D01*
X150009394Y-109279179D01*
X150069737Y-109133497D01*
X150100500Y-108978842D01*
X150100500Y-108821158D01*
X150100500Y-108821155D01*
X150100499Y-108821153D01*
X150078269Y-108709397D01*
X150069737Y-108666503D01*
X150051215Y-108621786D01*
X150009397Y-108520827D01*
X150009390Y-108520814D01*
X149921789Y-108389711D01*
X149921786Y-108389707D01*
X149810292Y-108278213D01*
X149810288Y-108278210D01*
X149679185Y-108190609D01*
X149679172Y-108190602D01*
X149533501Y-108130264D01*
X149533489Y-108130261D01*
X149378845Y-108099500D01*
X149378842Y-108099500D01*
X149221158Y-108099500D01*
X149221155Y-108099500D01*
X149066510Y-108130261D01*
X149066498Y-108130264D01*
X148920827Y-108190602D01*
X148920814Y-108190609D01*
X148789711Y-108278210D01*
X148789707Y-108278213D01*
X148678213Y-108389707D01*
X148678210Y-108389711D01*
X148590609Y-108520814D01*
X148590602Y-108520827D01*
X148530264Y-108666498D01*
X148530261Y-108666510D01*
X148499500Y-108821153D01*
X110100500Y-108821153D01*
X110100500Y-107921153D01*
X127299500Y-107921153D01*
X127299500Y-108078846D01*
X127330261Y-108233489D01*
X127330264Y-108233501D01*
X127390602Y-108379172D01*
X127390609Y-108379185D01*
X127478210Y-108510288D01*
X127478213Y-108510292D01*
X127589707Y-108621786D01*
X127589711Y-108621789D01*
X127720814Y-108709390D01*
X127720827Y-108709397D01*
X127866498Y-108769735D01*
X127866503Y-108769737D01*
X128021153Y-108800499D01*
X128021156Y-108800500D01*
X128021158Y-108800500D01*
X128178844Y-108800500D01*
X128178845Y-108800499D01*
X128333497Y-108769737D01*
X128479179Y-108709394D01*
X128610289Y-108621789D01*
X128721789Y-108510289D01*
X128809394Y-108379179D01*
X128869737Y-108233497D01*
X128900500Y-108078842D01*
X128900500Y-107921158D01*
X128900500Y-107921155D01*
X128900499Y-107921153D01*
X128869738Y-107766510D01*
X128869737Y-107766503D01*
X128869735Y-107766498D01*
X128809397Y-107620827D01*
X128809390Y-107620814D01*
X128721789Y-107489711D01*
X128721786Y-107489707D01*
X128610292Y-107378213D01*
X128610288Y-107378210D01*
X128479185Y-107290609D01*
X128479172Y-107290602D01*
X128333501Y-107230264D01*
X128333489Y-107230261D01*
X128178845Y-107199500D01*
X128178842Y-107199500D01*
X128021158Y-107199500D01*
X128021155Y-107199500D01*
X127866510Y-107230261D01*
X127866498Y-107230264D01*
X127720827Y-107290602D01*
X127720814Y-107290609D01*
X127589711Y-107378210D01*
X127589707Y-107378213D01*
X127478213Y-107489707D01*
X127478210Y-107489711D01*
X127390609Y-107620814D01*
X127390602Y-107620827D01*
X127330264Y-107766498D01*
X127330261Y-107766510D01*
X127299500Y-107921153D01*
X110100500Y-107921153D01*
X110100500Y-105821153D01*
X118599500Y-105821153D01*
X118599500Y-105978846D01*
X118630261Y-106133489D01*
X118630264Y-106133501D01*
X118690602Y-106279172D01*
X118690609Y-106279185D01*
X118778210Y-106410288D01*
X118778213Y-106410292D01*
X118889707Y-106521786D01*
X118889711Y-106521789D01*
X119020814Y-106609390D01*
X119020827Y-106609397D01*
X119166498Y-106669735D01*
X119166503Y-106669737D01*
X119321153Y-106700499D01*
X119321156Y-106700500D01*
X119321158Y-106700500D01*
X119478844Y-106700500D01*
X119478845Y-106700499D01*
X119633497Y-106669737D01*
X119779179Y-106609394D01*
X119910289Y-106521789D01*
X120021789Y-106410289D01*
X120109394Y-106279179D01*
X120169737Y-106133497D01*
X120200500Y-105978842D01*
X120200500Y-105821158D01*
X120200500Y-105821155D01*
X120200499Y-105821153D01*
X120169738Y-105666510D01*
X120169737Y-105666503D01*
X120163545Y-105651555D01*
X120109397Y-105520827D01*
X120109390Y-105520814D01*
X120021789Y-105389711D01*
X120021786Y-105389707D01*
X119910292Y-105278213D01*
X119910288Y-105278210D01*
X119779185Y-105190609D01*
X119779172Y-105190602D01*
X119633501Y-105130264D01*
X119633489Y-105130261D01*
X119478845Y-105099500D01*
X119478842Y-105099500D01*
X119321158Y-105099500D01*
X119321155Y-105099500D01*
X119166510Y-105130261D01*
X119166498Y-105130264D01*
X119020827Y-105190602D01*
X119020814Y-105190609D01*
X118889711Y-105278210D01*
X118889707Y-105278213D01*
X118778213Y-105389707D01*
X118778210Y-105389711D01*
X118690609Y-105520814D01*
X118690602Y-105520827D01*
X118630264Y-105666498D01*
X118630261Y-105666510D01*
X118599500Y-105821153D01*
X110100500Y-105821153D01*
X110100500Y-102486798D01*
X110120185Y-102419759D01*
X110172989Y-102374004D01*
X110242147Y-102364060D01*
X110305703Y-102393085D01*
X110334983Y-102430501D01*
X110366045Y-102491463D01*
X110404951Y-102567820D01*
X110529890Y-102739786D01*
X110680213Y-102890109D01*
X110852179Y-103015048D01*
X110852181Y-103015049D01*
X110852184Y-103015051D01*
X111041588Y-103111557D01*
X111243757Y-103177246D01*
X111453713Y-103210500D01*
X111453714Y-103210500D01*
X111666286Y-103210500D01*
X111666287Y-103210500D01*
X111876243Y-103177246D01*
X112078412Y-103111557D01*
X112267816Y-103015051D01*
X112352241Y-102953713D01*
X112439786Y-102890109D01*
X112439788Y-102890106D01*
X112439792Y-102890104D01*
X112590104Y-102739792D01*
X112590106Y-102739788D01*
X112590109Y-102739786D01*
X112715048Y-102567820D01*
X112715047Y-102567820D01*
X112715051Y-102567816D01*
X112719514Y-102559054D01*
X112767488Y-102508259D01*
X112835308Y-102491463D01*
X112901444Y-102513999D01*
X112940486Y-102559056D01*
X112944951Y-102567820D01*
X113069890Y-102739786D01*
X113220213Y-102890109D01*
X113392182Y-103015050D01*
X113400946Y-103019516D01*
X113451742Y-103067491D01*
X113468536Y-103135312D01*
X113445998Y-103201447D01*
X113400946Y-103240484D01*
X113392182Y-103244949D01*
X113220213Y-103369890D01*
X113069890Y-103520213D01*
X112944951Y-103692179D01*
X112848444Y-103881585D01*
X112782753Y-104083760D01*
X112749500Y-104293713D01*
X112749500Y-104506286D01*
X112782753Y-104716239D01*
X112848444Y-104918414D01*
X112944951Y-105107820D01*
X113069890Y-105279786D01*
X113220213Y-105430109D01*
X113392179Y-105555048D01*
X113392181Y-105555049D01*
X113392184Y-105555051D01*
X113581588Y-105651557D01*
X113783757Y-105717246D01*
X113993713Y-105750500D01*
X113993714Y-105750500D01*
X114206286Y-105750500D01*
X114206287Y-105750500D01*
X114416243Y-105717246D01*
X114618412Y-105651557D01*
X114807816Y-105555051D01*
X114854940Y-105520814D01*
X114979786Y-105430109D01*
X114979788Y-105430106D01*
X114979792Y-105430104D01*
X115130104Y-105279792D01*
X115130106Y-105279788D01*
X115130109Y-105279786D01*
X115255048Y-105107820D01*
X115255047Y-105107820D01*
X115255051Y-105107816D01*
X115351557Y-104918412D01*
X115417246Y-104716243D01*
X115450500Y-104506287D01*
X115450500Y-104293713D01*
X115417246Y-104083757D01*
X115351557Y-103881588D01*
X115255051Y-103692184D01*
X115255049Y-103692181D01*
X115255048Y-103692179D01*
X115130109Y-103520213D01*
X114979786Y-103369890D01*
X114807820Y-103244951D01*
X114807115Y-103244591D01*
X114799054Y-103240485D01*
X114748259Y-103192512D01*
X114731463Y-103124692D01*
X114753999Y-103058556D01*
X114799054Y-103019515D01*
X114807816Y-103015051D01*
X114892241Y-102953713D01*
X114979786Y-102890109D01*
X114979788Y-102890106D01*
X114979792Y-102890104D01*
X115130104Y-102739792D01*
X115130106Y-102739788D01*
X115130109Y-102739786D01*
X115255048Y-102567820D01*
X115255047Y-102567820D01*
X115255051Y-102567816D01*
X115351557Y-102378412D01*
X115417246Y-102176243D01*
X115450500Y-101966287D01*
X115450500Y-101821153D01*
X134799500Y-101821153D01*
X134799500Y-101978846D01*
X134830261Y-102133489D01*
X134830264Y-102133501D01*
X134890602Y-102279172D01*
X134890609Y-102279185D01*
X134978210Y-102410288D01*
X134978213Y-102410292D01*
X135089707Y-102521786D01*
X135089711Y-102521789D01*
X135220814Y-102609390D01*
X135220827Y-102609397D01*
X135366498Y-102669735D01*
X135366503Y-102669737D01*
X135521153Y-102700499D01*
X135521156Y-102700500D01*
X135521158Y-102700500D01*
X135678844Y-102700500D01*
X135678845Y-102700499D01*
X135833497Y-102669737D01*
X135979179Y-102609394D01*
X136110289Y-102521789D01*
X136221789Y-102410289D01*
X136309394Y-102279179D01*
X136369737Y-102133497D01*
X136400500Y-101978842D01*
X136400500Y-101821158D01*
X136400500Y-101821155D01*
X136400499Y-101821153D01*
X136380326Y-101719737D01*
X136369737Y-101666503D01*
X136351215Y-101621786D01*
X136309397Y-101520827D01*
X136309390Y-101520814D01*
X136221789Y-101389711D01*
X136221786Y-101389707D01*
X136110292Y-101278213D01*
X136110288Y-101278210D01*
X135979185Y-101190609D01*
X135979172Y-101190602D01*
X135833501Y-101130264D01*
X135833489Y-101130261D01*
X135678845Y-101099500D01*
X135678842Y-101099500D01*
X135521158Y-101099500D01*
X135521155Y-101099500D01*
X135366510Y-101130261D01*
X135366498Y-101130264D01*
X135220827Y-101190602D01*
X135220814Y-101190609D01*
X135089711Y-101278210D01*
X135089707Y-101278213D01*
X134978213Y-101389707D01*
X134978210Y-101389711D01*
X134890609Y-101520814D01*
X134890602Y-101520827D01*
X134830264Y-101666498D01*
X134830261Y-101666510D01*
X134799500Y-101821153D01*
X115450500Y-101821153D01*
X115450500Y-101753713D01*
X115417246Y-101543757D01*
X115351557Y-101341588D01*
X115255051Y-101152184D01*
X115255049Y-101152181D01*
X115255048Y-101152179D01*
X115130109Y-100980213D01*
X115021049Y-100871153D01*
X119999500Y-100871153D01*
X119999500Y-101028846D01*
X120030261Y-101183489D01*
X120030264Y-101183501D01*
X120090602Y-101329172D01*
X120090609Y-101329185D01*
X120178210Y-101460288D01*
X120178213Y-101460292D01*
X120289707Y-101571786D01*
X120289711Y-101571789D01*
X120420814Y-101659390D01*
X120420827Y-101659397D01*
X120563652Y-101718556D01*
X120566503Y-101719737D01*
X120721153Y-101750499D01*
X120721156Y-101750500D01*
X120721158Y-101750500D01*
X120878844Y-101750500D01*
X120878845Y-101750499D01*
X121033497Y-101719737D01*
X121179179Y-101659394D01*
X121310289Y-101571789D01*
X121421789Y-101460289D01*
X121509394Y-101329179D01*
X121569737Y-101183497D01*
X121600500Y-101028842D01*
X121600500Y-100921153D01*
X124599500Y-100921153D01*
X124599500Y-101078846D01*
X124630261Y-101233489D01*
X124630264Y-101233501D01*
X124690602Y-101379172D01*
X124690609Y-101379185D01*
X124778210Y-101510288D01*
X124778213Y-101510292D01*
X124889707Y-101621786D01*
X124889711Y-101621789D01*
X125020814Y-101709390D01*
X125020827Y-101709397D01*
X125120060Y-101750500D01*
X125166503Y-101769737D01*
X125321153Y-101800499D01*
X125321156Y-101800500D01*
X125321158Y-101800500D01*
X125478844Y-101800500D01*
X125478845Y-101800499D01*
X125633497Y-101769737D01*
X125779179Y-101709394D01*
X125910289Y-101621789D01*
X126021789Y-101510289D01*
X126109394Y-101379179D01*
X126169737Y-101233497D01*
X126200500Y-101078842D01*
X126200500Y-100921158D01*
X126200500Y-100921155D01*
X126200499Y-100921153D01*
X126182347Y-100829896D01*
X126169737Y-100766503D01*
X126169735Y-100766498D01*
X126126666Y-100662518D01*
X126109532Y-100621153D01*
X136999500Y-100621153D01*
X136999500Y-100778846D01*
X137030261Y-100933489D01*
X137030264Y-100933501D01*
X137090602Y-101079172D01*
X137090609Y-101079185D01*
X137178210Y-101210288D01*
X137178213Y-101210292D01*
X137289707Y-101321786D01*
X137289711Y-101321789D01*
X137420814Y-101409390D01*
X137420827Y-101409397D01*
X137566498Y-101469735D01*
X137566503Y-101469737D01*
X137721153Y-101500499D01*
X137721156Y-101500500D01*
X137721158Y-101500500D01*
X137878844Y-101500500D01*
X137878845Y-101500499D01*
X138033497Y-101469737D01*
X138179179Y-101409394D01*
X138310289Y-101321789D01*
X138421789Y-101210289D01*
X138509394Y-101079179D01*
X138569737Y-100933497D01*
X138600500Y-100778842D01*
X138600500Y-100621158D01*
X138600500Y-100621155D01*
X138600499Y-100621153D01*
X138574353Y-100489711D01*
X138569737Y-100466503D01*
X138569735Y-100466498D01*
X138509397Y-100320827D01*
X138509390Y-100320814D01*
X138421789Y-100189711D01*
X138421786Y-100189707D01*
X138310292Y-100078213D01*
X138310288Y-100078210D01*
X138179185Y-99990609D01*
X138179172Y-99990602D01*
X138033501Y-99930264D01*
X138033489Y-99930261D01*
X137878845Y-99899500D01*
X137878842Y-99899500D01*
X137721158Y-99899500D01*
X137721155Y-99899500D01*
X137566510Y-99930261D01*
X137566498Y-99930264D01*
X137420827Y-99990602D01*
X137420814Y-99990609D01*
X137289711Y-100078210D01*
X137289707Y-100078213D01*
X137178213Y-100189707D01*
X137178210Y-100189711D01*
X137090609Y-100320814D01*
X137090602Y-100320827D01*
X137030264Y-100466498D01*
X137030261Y-100466510D01*
X136999500Y-100621153D01*
X126109532Y-100621153D01*
X126109395Y-100620823D01*
X126109390Y-100620814D01*
X126021789Y-100489711D01*
X126021786Y-100489707D01*
X125910292Y-100378213D01*
X125910288Y-100378210D01*
X125779185Y-100290609D01*
X125779172Y-100290602D01*
X125633501Y-100230264D01*
X125633489Y-100230261D01*
X125478845Y-100199500D01*
X125478842Y-100199500D01*
X125321158Y-100199500D01*
X125321155Y-100199500D01*
X125166510Y-100230261D01*
X125166498Y-100230264D01*
X125020827Y-100290602D01*
X125020814Y-100290609D01*
X124889711Y-100378210D01*
X124889707Y-100378213D01*
X124778213Y-100489707D01*
X124778210Y-100489711D01*
X124690609Y-100620814D01*
X124690602Y-100620827D01*
X124630264Y-100766498D01*
X124630261Y-100766510D01*
X124599500Y-100921153D01*
X121600500Y-100921153D01*
X121600500Y-100871158D01*
X121600500Y-100871155D01*
X121600499Y-100871153D01*
X121579684Y-100766510D01*
X121569737Y-100716503D01*
X121546932Y-100661447D01*
X121509397Y-100570827D01*
X121509390Y-100570814D01*
X121421789Y-100439711D01*
X121421786Y-100439707D01*
X121310292Y-100328213D01*
X121310288Y-100328210D01*
X121179185Y-100240609D01*
X121179172Y-100240602D01*
X121033501Y-100180264D01*
X121033489Y-100180261D01*
X120878845Y-100149500D01*
X120878842Y-100149500D01*
X120721158Y-100149500D01*
X120721155Y-100149500D01*
X120566510Y-100180261D01*
X120566498Y-100180264D01*
X120420827Y-100240602D01*
X120420814Y-100240609D01*
X120289711Y-100328210D01*
X120289707Y-100328213D01*
X120178213Y-100439707D01*
X120178210Y-100439711D01*
X120090609Y-100570814D01*
X120090602Y-100570827D01*
X120030264Y-100716498D01*
X120030261Y-100716510D01*
X119999500Y-100871153D01*
X115021049Y-100871153D01*
X114979786Y-100829890D01*
X114807820Y-100704951D01*
X114807115Y-100704591D01*
X114799054Y-100700485D01*
X114748259Y-100652512D01*
X114731463Y-100584692D01*
X114753999Y-100518556D01*
X114799054Y-100479515D01*
X114807816Y-100475051D01*
X114892241Y-100413713D01*
X114979786Y-100350109D01*
X114979788Y-100350106D01*
X114979792Y-100350104D01*
X115130104Y-100199792D01*
X115130106Y-100199788D01*
X115130109Y-100199786D01*
X115255048Y-100027820D01*
X115255047Y-100027820D01*
X115255051Y-100027816D01*
X115305806Y-99928203D01*
X115353779Y-99877409D01*
X115416290Y-99860500D01*
X121553331Y-99860500D01*
X121553347Y-99860501D01*
X121560943Y-99860501D01*
X121719054Y-99860501D01*
X121719057Y-99860501D01*
X121871785Y-99819577D01*
X121934277Y-99783497D01*
X122008716Y-99740520D01*
X122120520Y-99628716D01*
X122120520Y-99628714D01*
X122130724Y-99618511D01*
X122130727Y-99618506D01*
X123412416Y-98336819D01*
X123473739Y-98303334D01*
X123500097Y-98300500D01*
X124454866Y-98300500D01*
X124521905Y-98320185D01*
X124567660Y-98372989D01*
X124577604Y-98442147D01*
X124569427Y-98471953D01*
X124530263Y-98566502D01*
X124530261Y-98566510D01*
X124499500Y-98721153D01*
X124499500Y-98878846D01*
X124530261Y-99033489D01*
X124530264Y-99033501D01*
X124590602Y-99179172D01*
X124590609Y-99179185D01*
X124678210Y-99310288D01*
X124678213Y-99310292D01*
X124789707Y-99421786D01*
X124789711Y-99421789D01*
X124920814Y-99509390D01*
X124920827Y-99509397D01*
X125066498Y-99569735D01*
X125066503Y-99569737D01*
X125221153Y-99600499D01*
X125221156Y-99600500D01*
X125221158Y-99600500D01*
X125378844Y-99600500D01*
X125378845Y-99600499D01*
X125533497Y-99569737D01*
X125679179Y-99509394D01*
X125736411Y-99471153D01*
X139349500Y-99471153D01*
X139349500Y-99628846D01*
X139380261Y-99783489D01*
X139380263Y-99783497D01*
X139440602Y-99929172D01*
X139440609Y-99929185D01*
X139528210Y-100060288D01*
X139528213Y-100060292D01*
X139639707Y-100171786D01*
X139639711Y-100171789D01*
X139770814Y-100259390D01*
X139770827Y-100259397D01*
X139846181Y-100290609D01*
X139916503Y-100319737D01*
X140069167Y-100350104D01*
X140071153Y-100350499D01*
X140071156Y-100350500D01*
X140071158Y-100350500D01*
X140228844Y-100350500D01*
X140228845Y-100350499D01*
X140383497Y-100319737D01*
X140529179Y-100259394D01*
X140660289Y-100171789D01*
X140771789Y-100060289D01*
X140859394Y-99929179D01*
X140859798Y-99928205D01*
X140919737Y-99783497D01*
X140919737Y-99783496D01*
X140950500Y-99628842D01*
X140950500Y-99471158D01*
X140950500Y-99471155D01*
X140950499Y-99471153D01*
X140919737Y-99316503D01*
X140889992Y-99244692D01*
X140859397Y-99170827D01*
X140859390Y-99170814D01*
X140771789Y-99039711D01*
X140771786Y-99039707D01*
X140660292Y-98928213D01*
X140660288Y-98928210D01*
X140529185Y-98840609D01*
X140529172Y-98840602D01*
X140383501Y-98780264D01*
X140383489Y-98780261D01*
X140228845Y-98749500D01*
X140228842Y-98749500D01*
X140071158Y-98749500D01*
X140071155Y-98749500D01*
X139916510Y-98780261D01*
X139916498Y-98780264D01*
X139770827Y-98840602D01*
X139770814Y-98840609D01*
X139639711Y-98928210D01*
X139639707Y-98928213D01*
X139528213Y-99039707D01*
X139528210Y-99039711D01*
X139440609Y-99170814D01*
X139440602Y-99170827D01*
X139380264Y-99316498D01*
X139380261Y-99316510D01*
X139349500Y-99471153D01*
X125736411Y-99471153D01*
X125810289Y-99421789D01*
X125810292Y-99421786D01*
X125854694Y-99377385D01*
X125921786Y-99310292D01*
X125921789Y-99310289D01*
X126009394Y-99179179D01*
X126012854Y-99170827D01*
X126027673Y-99135050D01*
X126069737Y-99033497D01*
X126100500Y-98878842D01*
X126100500Y-98721158D01*
X126100500Y-98721155D01*
X126100499Y-98721153D01*
X126088200Y-98659322D01*
X126069737Y-98566503D01*
X126030572Y-98471951D01*
X126023104Y-98402483D01*
X126054379Y-98340004D01*
X126114468Y-98304352D01*
X126145134Y-98300500D01*
X135402044Y-98300500D01*
X135469083Y-98320185D01*
X135514838Y-98372989D01*
X135523661Y-98400309D01*
X135530261Y-98433489D01*
X135530264Y-98433501D01*
X135590602Y-98579172D01*
X135590609Y-98579185D01*
X135678210Y-98710288D01*
X135678213Y-98710292D01*
X135789707Y-98821786D01*
X135789711Y-98821789D01*
X135920814Y-98909390D01*
X135920827Y-98909397D01*
X135966254Y-98928213D01*
X136066503Y-98969737D01*
X136221153Y-99000499D01*
X136221156Y-99000500D01*
X136221158Y-99000500D01*
X136378844Y-99000500D01*
X136378845Y-99000499D01*
X136533497Y-98969737D01*
X136679179Y-98909394D01*
X136810289Y-98821789D01*
X136921789Y-98710289D01*
X137009394Y-98579179D01*
X137069737Y-98433497D01*
X137100500Y-98278842D01*
X137100500Y-98121158D01*
X137100500Y-98121155D01*
X137100499Y-98121153D01*
X137085290Y-98044692D01*
X137069737Y-97966503D01*
X137042398Y-97900500D01*
X137009397Y-97820827D01*
X137009390Y-97820814D01*
X136921789Y-97689711D01*
X136921786Y-97689707D01*
X136810292Y-97578213D01*
X136810288Y-97578210D01*
X136679185Y-97490609D01*
X136679176Y-97490604D01*
X136664355Y-97484465D01*
X136609953Y-97440622D01*
X136587890Y-97374327D01*
X136605171Y-97306628D01*
X136642918Y-97266804D01*
X136710289Y-97221789D01*
X136821789Y-97110289D01*
X136909394Y-96979179D01*
X136969737Y-96833497D01*
X137000500Y-96678842D01*
X137000500Y-96521158D01*
X137000500Y-96521155D01*
X137000499Y-96521153D01*
X136969738Y-96366510D01*
X136969737Y-96366503D01*
X136950389Y-96319792D01*
X136909397Y-96220827D01*
X136909390Y-96220814D01*
X136884763Y-96183957D01*
X136842798Y-96121153D01*
X160799500Y-96121153D01*
X160799500Y-96278846D01*
X160830261Y-96433489D01*
X160830264Y-96433501D01*
X160890602Y-96579172D01*
X160890609Y-96579185D01*
X160978210Y-96710288D01*
X160978213Y-96710292D01*
X161089707Y-96821786D01*
X161089711Y-96821789D01*
X161220814Y-96909390D01*
X161220827Y-96909397D01*
X161366498Y-96969735D01*
X161366503Y-96969737D01*
X161521153Y-97000499D01*
X161521156Y-97000500D01*
X161521158Y-97000500D01*
X161678844Y-97000500D01*
X161678845Y-97000499D01*
X161833497Y-96969737D01*
X161979179Y-96909394D01*
X162110289Y-96821789D01*
X162221789Y-96710289D01*
X162309394Y-96579179D01*
X162369737Y-96433497D01*
X162400500Y-96278842D01*
X162400500Y-96121158D01*
X162400500Y-96121155D01*
X162400499Y-96121153D01*
X162390758Y-96072184D01*
X162369737Y-95966503D01*
X162369735Y-95966498D01*
X162309397Y-95820827D01*
X162309390Y-95820814D01*
X162221789Y-95689711D01*
X162221786Y-95689707D01*
X162110292Y-95578213D01*
X162110288Y-95578210D01*
X161979185Y-95490609D01*
X161979172Y-95490602D01*
X161833501Y-95430264D01*
X161833489Y-95430261D01*
X161678845Y-95399500D01*
X161678842Y-95399500D01*
X161521158Y-95399500D01*
X161521155Y-95399500D01*
X161366510Y-95430261D01*
X161366498Y-95430264D01*
X161220827Y-95490602D01*
X161220814Y-95490609D01*
X161089711Y-95578210D01*
X161089707Y-95578213D01*
X160978213Y-95689707D01*
X160978210Y-95689711D01*
X160890609Y-95820814D01*
X160890602Y-95820827D01*
X160830264Y-95966498D01*
X160830261Y-95966510D01*
X160799500Y-96121153D01*
X136842798Y-96121153D01*
X136821789Y-96089711D01*
X136821786Y-96089707D01*
X136710292Y-95978213D01*
X136710288Y-95978210D01*
X136647265Y-95936099D01*
X136602460Y-95882487D01*
X136593753Y-95813162D01*
X136594540Y-95808801D01*
X136600500Y-95778844D01*
X136600500Y-95621155D01*
X136600499Y-95621153D01*
X136582058Y-95528444D01*
X136569737Y-95466503D01*
X136565407Y-95456050D01*
X136509397Y-95320827D01*
X136509390Y-95320814D01*
X136421789Y-95189711D01*
X136421786Y-95189707D01*
X136310292Y-95078213D01*
X136310288Y-95078210D01*
X136179185Y-94990609D01*
X136179172Y-94990602D01*
X136033501Y-94930264D01*
X136033489Y-94930261D01*
X135878845Y-94899500D01*
X135878842Y-94899500D01*
X135721158Y-94899500D01*
X135721155Y-94899500D01*
X135566510Y-94930261D01*
X135566502Y-94930263D01*
X135533901Y-94943767D01*
X135496976Y-94959061D01*
X135449526Y-94968500D01*
X121262941Y-94968500D01*
X121195902Y-94948815D01*
X121150147Y-94896011D01*
X121140203Y-94826853D01*
X121169228Y-94763297D01*
X121175260Y-94756819D01*
X121221786Y-94710292D01*
X121221789Y-94710289D01*
X121281348Y-94621153D01*
X144999500Y-94621153D01*
X144999500Y-94778846D01*
X145030261Y-94933489D01*
X145030264Y-94933501D01*
X145090602Y-95079172D01*
X145090609Y-95079185D01*
X145178210Y-95210288D01*
X145178213Y-95210292D01*
X145289707Y-95321786D01*
X145289711Y-95321789D01*
X145420814Y-95409390D01*
X145420827Y-95409397D01*
X145533459Y-95456050D01*
X145566503Y-95469737D01*
X145721153Y-95500499D01*
X145721156Y-95500500D01*
X145721158Y-95500500D01*
X145878844Y-95500500D01*
X145878845Y-95500499D01*
X146033497Y-95469737D01*
X146179179Y-95409394D01*
X146310289Y-95321789D01*
X146421789Y-95210289D01*
X146509394Y-95079179D01*
X146569737Y-94933497D01*
X146600500Y-94778842D01*
X146600500Y-94621158D01*
X146600500Y-94621155D01*
X146600499Y-94621153D01*
X146584657Y-94541510D01*
X146569737Y-94466503D01*
X146546290Y-94409896D01*
X146509397Y-94320827D01*
X146509390Y-94320814D01*
X146421789Y-94189711D01*
X146421786Y-94189707D01*
X146310292Y-94078213D01*
X146310288Y-94078210D01*
X146179185Y-93990609D01*
X146179172Y-93990602D01*
X146033501Y-93930264D01*
X146033489Y-93930261D01*
X145878845Y-93899500D01*
X145878842Y-93899500D01*
X145721158Y-93899500D01*
X145721155Y-93899500D01*
X145566510Y-93930261D01*
X145566498Y-93930264D01*
X145420827Y-93990602D01*
X145420814Y-93990609D01*
X145289711Y-94078210D01*
X145289707Y-94078213D01*
X145178213Y-94189707D01*
X145178210Y-94189711D01*
X145090609Y-94320814D01*
X145090602Y-94320827D01*
X145030264Y-94466498D01*
X145030261Y-94466510D01*
X144999500Y-94621153D01*
X121281348Y-94621153D01*
X121309394Y-94579179D01*
X121369737Y-94433497D01*
X121400500Y-94278842D01*
X121400500Y-94121158D01*
X121400500Y-94121155D01*
X121400499Y-94121153D01*
X121391957Y-94078210D01*
X121369737Y-93966503D01*
X121358927Y-93940405D01*
X121309397Y-93820827D01*
X121309390Y-93820814D01*
X121221789Y-93689711D01*
X121221786Y-93689707D01*
X121110292Y-93578213D01*
X121110288Y-93578210D01*
X120979185Y-93490609D01*
X120979172Y-93490602D01*
X120833501Y-93430264D01*
X120833489Y-93430261D01*
X120678845Y-93399500D01*
X120678842Y-93399500D01*
X120521158Y-93399500D01*
X120521155Y-93399500D01*
X120366510Y-93430261D01*
X120366498Y-93430264D01*
X120220827Y-93490602D01*
X120220814Y-93490609D01*
X120089711Y-93578210D01*
X120089707Y-93578213D01*
X119978213Y-93689707D01*
X119978210Y-93689711D01*
X119890609Y-93820814D01*
X119890602Y-93820827D01*
X119830264Y-93966498D01*
X119830261Y-93966510D01*
X119799500Y-94121153D01*
X119799500Y-94278846D01*
X119830261Y-94433489D01*
X119830264Y-94433501D01*
X119890602Y-94579172D01*
X119890609Y-94579185D01*
X119978210Y-94710288D01*
X119978213Y-94710292D01*
X120024740Y-94756819D01*
X120058225Y-94818142D01*
X120053241Y-94887834D01*
X120011369Y-94943767D01*
X119945905Y-94968184D01*
X119937059Y-94968500D01*
X112897670Y-94968500D01*
X112897654Y-94968499D01*
X112890058Y-94968499D01*
X112731943Y-94968499D01*
X112649429Y-94990609D01*
X112579210Y-95009424D01*
X112579209Y-95009425D01*
X112529096Y-95038359D01*
X112529095Y-95038360D01*
X112485689Y-95063420D01*
X112442285Y-95088479D01*
X112442282Y-95088481D01*
X112330478Y-95200286D01*
X112074713Y-95456050D01*
X112013390Y-95489535D01*
X111948715Y-95486300D01*
X111876246Y-95462754D01*
X111718776Y-95437813D01*
X111666287Y-95429500D01*
X111453713Y-95429500D01*
X111405042Y-95437208D01*
X111243760Y-95462753D01*
X111041585Y-95528444D01*
X110852179Y-95624951D01*
X110680213Y-95749890D01*
X110529890Y-95900213D01*
X110404951Y-96072180D01*
X110334985Y-96209496D01*
X110287010Y-96260292D01*
X110219189Y-96277087D01*
X110153054Y-96254550D01*
X110109603Y-96199834D01*
X110100500Y-96153201D01*
X110100500Y-92521153D01*
X118799500Y-92521153D01*
X118799500Y-92678846D01*
X118830261Y-92833489D01*
X118830264Y-92833501D01*
X118890602Y-92979172D01*
X118890609Y-92979185D01*
X118978210Y-93110288D01*
X118978213Y-93110292D01*
X119089707Y-93221786D01*
X119089711Y-93221789D01*
X119220814Y-93309390D01*
X119220827Y-93309397D01*
X119299894Y-93342147D01*
X119366503Y-93369737D01*
X119485424Y-93393392D01*
X119521153Y-93400499D01*
X119521156Y-93400500D01*
X119521158Y-93400500D01*
X119678844Y-93400500D01*
X119678845Y-93400499D01*
X119833497Y-93369737D01*
X119978059Y-93309858D01*
X119979172Y-93309397D01*
X119979172Y-93309396D01*
X119979179Y-93309394D01*
X120110289Y-93221789D01*
X120210925Y-93121153D01*
X126399500Y-93121153D01*
X126399500Y-93278846D01*
X126430261Y-93433489D01*
X126430264Y-93433501D01*
X126490602Y-93579172D01*
X126490609Y-93579185D01*
X126578210Y-93710288D01*
X126578213Y-93710292D01*
X126689707Y-93821786D01*
X126689711Y-93821789D01*
X126820814Y-93909390D01*
X126820827Y-93909397D01*
X126958683Y-93966498D01*
X126966503Y-93969737D01*
X127121153Y-94000499D01*
X127121156Y-94000500D01*
X127121158Y-94000500D01*
X127278844Y-94000500D01*
X127278845Y-94000499D01*
X127433497Y-93969737D01*
X127579179Y-93909394D01*
X127710289Y-93821789D01*
X127821789Y-93710289D01*
X127909394Y-93579179D01*
X127969737Y-93433497D01*
X128000500Y-93278842D01*
X128000500Y-93121158D01*
X128000500Y-93121155D01*
X128000499Y-93121153D01*
X127980734Y-93021789D01*
X127969737Y-92966503D01*
X127946453Y-92910289D01*
X127932372Y-92876293D01*
X127909395Y-92820824D01*
X127909394Y-92820821D01*
X127909392Y-92820818D01*
X127909390Y-92820814D01*
X127821789Y-92689711D01*
X127821786Y-92689707D01*
X127710292Y-92578213D01*
X127710288Y-92578210D01*
X127579185Y-92490609D01*
X127579172Y-92490602D01*
X127433501Y-92430264D01*
X127433489Y-92430261D01*
X127278845Y-92399500D01*
X127278842Y-92399500D01*
X127121158Y-92399500D01*
X127121155Y-92399500D01*
X126966510Y-92430261D01*
X126966498Y-92430264D01*
X126820827Y-92490602D01*
X126820814Y-92490609D01*
X126689711Y-92578210D01*
X126689707Y-92578213D01*
X126578213Y-92689707D01*
X126578210Y-92689711D01*
X126490609Y-92820814D01*
X126490602Y-92820827D01*
X126430264Y-92966498D01*
X126430261Y-92966510D01*
X126399500Y-93121153D01*
X120210925Y-93121153D01*
X120221789Y-93110289D01*
X120264554Y-93046287D01*
X120264629Y-93046175D01*
X120309390Y-92979185D01*
X120309390Y-92979184D01*
X120309394Y-92979179D01*
X120369737Y-92833497D01*
X120400500Y-92678842D01*
X120400500Y-92521158D01*
X120400500Y-92521155D01*
X120400499Y-92521153D01*
X120394422Y-92490602D01*
X120369737Y-92366503D01*
X120350955Y-92321158D01*
X120309397Y-92220827D01*
X120309390Y-92220814D01*
X120221789Y-92089711D01*
X120221786Y-92089707D01*
X120110292Y-91978213D01*
X120110288Y-91978210D01*
X119979185Y-91890609D01*
X119979172Y-91890602D01*
X119833501Y-91830264D01*
X119833489Y-91830261D01*
X119678845Y-91799500D01*
X119678842Y-91799500D01*
X119521158Y-91799500D01*
X119521155Y-91799500D01*
X119366510Y-91830261D01*
X119366498Y-91830264D01*
X119220827Y-91890602D01*
X119220814Y-91890609D01*
X119089711Y-91978210D01*
X119089707Y-91978213D01*
X118978213Y-92089707D01*
X118978210Y-92089711D01*
X118890609Y-92220814D01*
X118890602Y-92220827D01*
X118830264Y-92366498D01*
X118830261Y-92366510D01*
X118799500Y-92521153D01*
X110100500Y-92521153D01*
X110100500Y-88821153D01*
X118199500Y-88821153D01*
X118199500Y-88978846D01*
X118230261Y-89133489D01*
X118230264Y-89133501D01*
X118290602Y-89279172D01*
X118290609Y-89279185D01*
X118378210Y-89410288D01*
X118378213Y-89410292D01*
X118489707Y-89521786D01*
X118489711Y-89521789D01*
X118620814Y-89609390D01*
X118620827Y-89609397D01*
X118724126Y-89652184D01*
X118766503Y-89669737D01*
X118921153Y-89700499D01*
X118921156Y-89700500D01*
X118921158Y-89700500D01*
X119078844Y-89700500D01*
X119078845Y-89700499D01*
X119233497Y-89669737D01*
X119379179Y-89609394D01*
X119510289Y-89521789D01*
X119621789Y-89410289D01*
X119709394Y-89279179D01*
X119769737Y-89133497D01*
X119800500Y-88978842D01*
X119800500Y-88821158D01*
X119800500Y-88821155D01*
X119800499Y-88821153D01*
X119788119Y-88758917D01*
X119769737Y-88666503D01*
X119764629Y-88654172D01*
X119747956Y-88613920D01*
X121589499Y-88613920D01*
X121618340Y-88758907D01*
X121618343Y-88758917D01*
X121674912Y-88895488D01*
X121674919Y-88895501D01*
X121725439Y-88971109D01*
X121746317Y-89037787D01*
X121727832Y-89105167D01*
X121725439Y-89108891D01*
X121674919Y-89184498D01*
X121674912Y-89184511D01*
X121618343Y-89321082D01*
X121618340Y-89321092D01*
X121589500Y-89466079D01*
X121589500Y-89466082D01*
X121589500Y-89613918D01*
X121589500Y-89613920D01*
X121589499Y-89613920D01*
X121618340Y-89758907D01*
X121618343Y-89758917D01*
X121674912Y-89895488D01*
X121674919Y-89895501D01*
X121758848Y-90021109D01*
X121779726Y-90087787D01*
X121761241Y-90155167D01*
X121758848Y-90158891D01*
X121674919Y-90284498D01*
X121674912Y-90284511D01*
X121618343Y-90421082D01*
X121618340Y-90421092D01*
X121589500Y-90566079D01*
X121589500Y-90566082D01*
X121589500Y-90713918D01*
X121589500Y-90713920D01*
X121589499Y-90713920D01*
X121618340Y-90858907D01*
X121618343Y-90858917D01*
X121674912Y-90995488D01*
X121674919Y-90995501D01*
X121757048Y-91118415D01*
X121757051Y-91118419D01*
X121861580Y-91222948D01*
X121861584Y-91222951D01*
X121984498Y-91305080D01*
X121984511Y-91305087D01*
X122121082Y-91361656D01*
X122121087Y-91361658D01*
X122121091Y-91361658D01*
X122121092Y-91361659D01*
X122266079Y-91390500D01*
X122266082Y-91390500D01*
X122413920Y-91390500D01*
X122511462Y-91371096D01*
X122558913Y-91361658D01*
X122695495Y-91305084D01*
X122818416Y-91222951D01*
X122922951Y-91118416D01*
X122986898Y-91022713D01*
X123040510Y-90977908D01*
X123109835Y-90969201D01*
X123172862Y-90999355D01*
X123193102Y-91022713D01*
X123257048Y-91118415D01*
X123257051Y-91118419D01*
X123361580Y-91222948D01*
X123361584Y-91222951D01*
X123484498Y-91305080D01*
X123484511Y-91305087D01*
X123621082Y-91361656D01*
X123621087Y-91361658D01*
X123621091Y-91361658D01*
X123621092Y-91361659D01*
X123766079Y-91390500D01*
X123766082Y-91390500D01*
X123913920Y-91390500D01*
X124011462Y-91371096D01*
X124058913Y-91361658D01*
X124195495Y-91305084D01*
X124318416Y-91222951D01*
X124422951Y-91118416D01*
X124505084Y-90995495D01*
X124561658Y-90858913D01*
X124578384Y-90774827D01*
X124590500Y-90713920D01*
X124590500Y-90566079D01*
X124561659Y-90421092D01*
X124561658Y-90421091D01*
X124561658Y-90421087D01*
X124505084Y-90284505D01*
X124422951Y-90161584D01*
X124421840Y-90160473D01*
X124417343Y-90152819D01*
X124409683Y-90122268D01*
X124400273Y-90092214D01*
X124401253Y-90088641D01*
X124400352Y-90085047D01*
X124410424Y-90055208D01*
X124418757Y-90024834D01*
X124421151Y-90021109D01*
X124422949Y-90018417D01*
X124422951Y-90018416D01*
X124505084Y-89895495D01*
X124561658Y-89758913D01*
X124575415Y-89689755D01*
X124590500Y-89613920D01*
X124590500Y-89466079D01*
X124561659Y-89321092D01*
X124561658Y-89321091D01*
X124561658Y-89321087D01*
X124530895Y-89246818D01*
X124505087Y-89184511D01*
X124505083Y-89184504D01*
X124495726Y-89170500D01*
X124454559Y-89108888D01*
X124433682Y-89042214D01*
X124452166Y-88974834D01*
X124454531Y-88971151D01*
X124505084Y-88895495D01*
X124561658Y-88758913D01*
X124582490Y-88654185D01*
X124590500Y-88613920D01*
X124590500Y-88466079D01*
X124561659Y-88321092D01*
X124561658Y-88321091D01*
X124561658Y-88321087D01*
X124515975Y-88210798D01*
X124509909Y-88196153D01*
X126124500Y-88196153D01*
X126124500Y-88353846D01*
X126155261Y-88508489D01*
X126155264Y-88508501D01*
X126215602Y-88654172D01*
X126215609Y-88654185D01*
X126303210Y-88785288D01*
X126303213Y-88785292D01*
X126414707Y-88896786D01*
X126414711Y-88896789D01*
X126545814Y-88984390D01*
X126545827Y-88984397D01*
X126650002Y-89027547D01*
X126691503Y-89044737D01*
X126806161Y-89067544D01*
X126846153Y-89075499D01*
X126846156Y-89075500D01*
X126846158Y-89075500D01*
X127003844Y-89075500D01*
X127003845Y-89075499D01*
X127158497Y-89044737D01*
X127304179Y-88984394D01*
X127435289Y-88896789D01*
X127546789Y-88785289D01*
X127634394Y-88654179D01*
X127694737Y-88508497D01*
X127725500Y-88353842D01*
X127725500Y-88196158D01*
X127725500Y-88196155D01*
X127725499Y-88196153D01*
X127717768Y-88157286D01*
X127694737Y-88041503D01*
X127688734Y-88027011D01*
X127634397Y-87895827D01*
X127634390Y-87895814D01*
X127546789Y-87764711D01*
X127546786Y-87764707D01*
X127435292Y-87653213D01*
X127435288Y-87653210D01*
X127304185Y-87565609D01*
X127304172Y-87565602D01*
X127158501Y-87505264D01*
X127158489Y-87505261D01*
X127003845Y-87474500D01*
X127003842Y-87474500D01*
X126846158Y-87474500D01*
X126846155Y-87474500D01*
X126691510Y-87505261D01*
X126691498Y-87505264D01*
X126545827Y-87565602D01*
X126545814Y-87565609D01*
X126414711Y-87653210D01*
X126414707Y-87653213D01*
X126303213Y-87764707D01*
X126303210Y-87764711D01*
X126215609Y-87895814D01*
X126215602Y-87895827D01*
X126155264Y-88041498D01*
X126155261Y-88041510D01*
X126124500Y-88196153D01*
X124509909Y-88196153D01*
X124505087Y-88184511D01*
X124505080Y-88184498D01*
X124422951Y-88061584D01*
X124422948Y-88061580D01*
X124318419Y-87957051D01*
X124318415Y-87957048D01*
X124195501Y-87874919D01*
X124195488Y-87874912D01*
X124058917Y-87818343D01*
X124058907Y-87818340D01*
X123913920Y-87789500D01*
X123913918Y-87789500D01*
X123766082Y-87789500D01*
X123766080Y-87789500D01*
X123621092Y-87818340D01*
X123621082Y-87818343D01*
X123484511Y-87874912D01*
X123484498Y-87874919D01*
X123361584Y-87957048D01*
X123361580Y-87957051D01*
X123257051Y-88061580D01*
X123257048Y-88061584D01*
X123193102Y-88157286D01*
X123139489Y-88202091D01*
X123070164Y-88210798D01*
X123007137Y-88180643D01*
X122986898Y-88157286D01*
X122922951Y-88061584D01*
X122922948Y-88061580D01*
X122818419Y-87957051D01*
X122818415Y-87957048D01*
X122695501Y-87874919D01*
X122695488Y-87874912D01*
X122558917Y-87818343D01*
X122558907Y-87818340D01*
X122413920Y-87789500D01*
X122413918Y-87789500D01*
X122266082Y-87789500D01*
X122266080Y-87789500D01*
X122121092Y-87818340D01*
X122121082Y-87818343D01*
X121984511Y-87874912D01*
X121984498Y-87874919D01*
X121861584Y-87957048D01*
X121861580Y-87957051D01*
X121757051Y-88061580D01*
X121757048Y-88061584D01*
X121674919Y-88184498D01*
X121674912Y-88184511D01*
X121618343Y-88321082D01*
X121618340Y-88321092D01*
X121589500Y-88466079D01*
X121589500Y-88466082D01*
X121589500Y-88613918D01*
X121589500Y-88613920D01*
X121589499Y-88613920D01*
X119747956Y-88613920D01*
X119709394Y-88520820D01*
X119621789Y-88389711D01*
X119621786Y-88389707D01*
X119510292Y-88278213D01*
X119510288Y-88278210D01*
X119379185Y-88190609D01*
X119379172Y-88190602D01*
X119233501Y-88130264D01*
X119233489Y-88130261D01*
X119078845Y-88099500D01*
X119078842Y-88099500D01*
X118921158Y-88099500D01*
X118921155Y-88099500D01*
X118766510Y-88130261D01*
X118766498Y-88130264D01*
X118620827Y-88190602D01*
X118620814Y-88190609D01*
X118489711Y-88278210D01*
X118489707Y-88278213D01*
X118378213Y-88389707D01*
X118378210Y-88389711D01*
X118290609Y-88520814D01*
X118290602Y-88520827D01*
X118230264Y-88666498D01*
X118230261Y-88666510D01*
X118199500Y-88821153D01*
X110100500Y-88821153D01*
X110100500Y-85368543D01*
X111144499Y-85368543D01*
X111182947Y-85561829D01*
X111182950Y-85561839D01*
X111258364Y-85743907D01*
X111258371Y-85743920D01*
X111367860Y-85907781D01*
X111367863Y-85907785D01*
X111507214Y-86047136D01*
X111507218Y-86047139D01*
X111671079Y-86156628D01*
X111671092Y-86156635D01*
X111853160Y-86232049D01*
X111853165Y-86232051D01*
X111853169Y-86232051D01*
X111853170Y-86232052D01*
X112046456Y-86270500D01*
X112046459Y-86270500D01*
X113043543Y-86270500D01*
X113173582Y-86244632D01*
X113236835Y-86232051D01*
X113418914Y-86156632D01*
X113582782Y-86047139D01*
X113722139Y-85907782D01*
X113831632Y-85743914D01*
X113907051Y-85561835D01*
X113943384Y-85379179D01*
X113945500Y-85368543D01*
X115174499Y-85368543D01*
X115212947Y-85561829D01*
X115212950Y-85561839D01*
X115288364Y-85743907D01*
X115288371Y-85743920D01*
X115397860Y-85907781D01*
X115397863Y-85907785D01*
X115537214Y-86047136D01*
X115537218Y-86047139D01*
X115701079Y-86156628D01*
X115701092Y-86156635D01*
X115832330Y-86210995D01*
X115886734Y-86254836D01*
X115908799Y-86321130D01*
X115891520Y-86388829D01*
X115853769Y-86428658D01*
X115734711Y-86508210D01*
X115734707Y-86508213D01*
X115623213Y-86619707D01*
X115623210Y-86619711D01*
X115535609Y-86750814D01*
X115535602Y-86750827D01*
X115475264Y-86896498D01*
X115475261Y-86896510D01*
X115444500Y-87051153D01*
X115444500Y-87208846D01*
X115475261Y-87363489D01*
X115475264Y-87363501D01*
X115535602Y-87509172D01*
X115535609Y-87509185D01*
X115623210Y-87640288D01*
X115623213Y-87640292D01*
X115734707Y-87751786D01*
X115734711Y-87751789D01*
X115865814Y-87839390D01*
X115865827Y-87839397D01*
X116002032Y-87895814D01*
X116011503Y-87899737D01*
X116166153Y-87930499D01*
X116166156Y-87930500D01*
X116166158Y-87930500D01*
X116323844Y-87930500D01*
X116323845Y-87930499D01*
X116478497Y-87899737D01*
X116623414Y-87839711D01*
X116624172Y-87839397D01*
X116624172Y-87839396D01*
X116624179Y-87839394D01*
X116755289Y-87751789D01*
X116866789Y-87640289D01*
X116954394Y-87509179D01*
X117014737Y-87363497D01*
X117045500Y-87208842D01*
X117045500Y-87051158D01*
X117045500Y-87051155D01*
X117031942Y-86982998D01*
X117031942Y-86982997D01*
X117027792Y-86962135D01*
X134349500Y-86962135D01*
X134349500Y-88757870D01*
X134349501Y-88757876D01*
X134355908Y-88817483D01*
X134406202Y-88952328D01*
X134406206Y-88952335D01*
X134492452Y-89067544D01*
X134492455Y-89067547D01*
X134607664Y-89153793D01*
X134607671Y-89153797D01*
X134635271Y-89164091D01*
X134742517Y-89204091D01*
X134802127Y-89210500D01*
X134812685Y-89210499D01*
X134879723Y-89230179D01*
X134900372Y-89246818D01*
X135570591Y-89917037D01*
X135507007Y-89934075D01*
X135392993Y-89999901D01*
X135299901Y-90092993D01*
X135234075Y-90207007D01*
X135217037Y-90270591D01*
X134584728Y-89638282D01*
X134584727Y-89638282D01*
X134545380Y-89692439D01*
X134448904Y-89881782D01*
X134383242Y-90083869D01*
X134383242Y-90083872D01*
X134350000Y-90293753D01*
X134350000Y-90506246D01*
X134383242Y-90716127D01*
X134383242Y-90716130D01*
X134448904Y-90918217D01*
X134545375Y-91107550D01*
X134584728Y-91161716D01*
X135217037Y-90529408D01*
X135234075Y-90592993D01*
X135299901Y-90707007D01*
X135392993Y-90800099D01*
X135507007Y-90865925D01*
X135570590Y-90882962D01*
X134938282Y-91515269D01*
X134938282Y-91515270D01*
X134992452Y-91554626D01*
X134992451Y-91554626D01*
X135001495Y-91559234D01*
X135052292Y-91607208D01*
X135069087Y-91675029D01*
X135046550Y-91741164D01*
X135001499Y-91780202D01*
X134992182Y-91784949D01*
X134820213Y-91909890D01*
X134669890Y-92060213D01*
X134544951Y-92232179D01*
X134448444Y-92421585D01*
X134382753Y-92623760D01*
X134358137Y-92779179D01*
X134349500Y-92833713D01*
X134349500Y-93046287D01*
X134356520Y-93090609D01*
X134381688Y-93249516D01*
X134382754Y-93256243D01*
X134429301Y-93399500D01*
X134448444Y-93458414D01*
X134544951Y-93647820D01*
X134669890Y-93819786D01*
X134820213Y-93970109D01*
X134992179Y-94095048D01*
X134992181Y-94095049D01*
X134992184Y-94095051D01*
X135181588Y-94191557D01*
X135383757Y-94257246D01*
X135593713Y-94290500D01*
X135593714Y-94290500D01*
X135806286Y-94290500D01*
X135806287Y-94290500D01*
X136016243Y-94257246D01*
X136218412Y-94191557D01*
X136407816Y-94095051D01*
X136492533Y-94033501D01*
X136579786Y-93970109D01*
X136579788Y-93970106D01*
X136579792Y-93970104D01*
X136730104Y-93819792D01*
X136730106Y-93819788D01*
X136730109Y-93819786D01*
X136855048Y-93647820D01*
X136855047Y-93647820D01*
X136855051Y-93647816D01*
X136951557Y-93458412D01*
X137017246Y-93256243D01*
X137050500Y-93046287D01*
X137050500Y-92833713D01*
X137017246Y-92623757D01*
X136951557Y-92421588D01*
X136900383Y-92321153D01*
X141099500Y-92321153D01*
X141099500Y-92478846D01*
X141130261Y-92633489D01*
X141130264Y-92633501D01*
X141190602Y-92779172D01*
X141190609Y-92779185D01*
X141278210Y-92910288D01*
X141278213Y-92910292D01*
X141389707Y-93021786D01*
X141389711Y-93021789D01*
X141520814Y-93109390D01*
X141520827Y-93109397D01*
X141666498Y-93169735D01*
X141666503Y-93169737D01*
X141821153Y-93200499D01*
X141821156Y-93200500D01*
X141905832Y-93200500D01*
X141972871Y-93220185D01*
X142018626Y-93272989D01*
X142028570Y-93342147D01*
X142008933Y-93393392D01*
X141990610Y-93420812D01*
X141990602Y-93420827D01*
X141930264Y-93566498D01*
X141930261Y-93566510D01*
X141899500Y-93721153D01*
X141899500Y-93878846D01*
X141930261Y-94033489D01*
X141930264Y-94033501D01*
X141990602Y-94179172D01*
X141990609Y-94179185D01*
X142078210Y-94310288D01*
X142078213Y-94310292D01*
X142189707Y-94421786D01*
X142189711Y-94421789D01*
X142320814Y-94509390D01*
X142320827Y-94509397D01*
X142443510Y-94560213D01*
X142466503Y-94569737D01*
X142621153Y-94600499D01*
X142621156Y-94600500D01*
X142621158Y-94600500D01*
X142778844Y-94600500D01*
X142778845Y-94600499D01*
X142933497Y-94569737D01*
X143079179Y-94509394D01*
X143210289Y-94421789D01*
X143321789Y-94310289D01*
X143409394Y-94179179D01*
X143469737Y-94033497D01*
X143500500Y-93878842D01*
X143500500Y-93721158D01*
X143500500Y-93721155D01*
X143500499Y-93721153D01*
X143484371Y-93640073D01*
X143469737Y-93566503D01*
X143469735Y-93566498D01*
X143409397Y-93420827D01*
X143409390Y-93420814D01*
X143321789Y-93289711D01*
X143321786Y-93289707D01*
X143210292Y-93178213D01*
X143210288Y-93178210D01*
X143124897Y-93121153D01*
X150999500Y-93121153D01*
X150999500Y-93278846D01*
X151030261Y-93433489D01*
X151030264Y-93433501D01*
X151090602Y-93579172D01*
X151090609Y-93579185D01*
X151178210Y-93710288D01*
X151178213Y-93710292D01*
X151289707Y-93821786D01*
X151289711Y-93821789D01*
X151420814Y-93909390D01*
X151420827Y-93909397D01*
X151558683Y-93966498D01*
X151566503Y-93969737D01*
X151721153Y-94000499D01*
X151721156Y-94000500D01*
X151721158Y-94000500D01*
X151878844Y-94000500D01*
X151878845Y-94000499D01*
X152033497Y-93969737D01*
X152104311Y-93940405D01*
X162003073Y-93940405D01*
X162003073Y-94098098D01*
X162033834Y-94252741D01*
X162033837Y-94252753D01*
X162094175Y-94398424D01*
X162094182Y-94398437D01*
X162181783Y-94529540D01*
X162181786Y-94529544D01*
X162293280Y-94641038D01*
X162293284Y-94641041D01*
X162424387Y-94728642D01*
X162424400Y-94728649D01*
X162545588Y-94778846D01*
X162570076Y-94788989D01*
X162716637Y-94818142D01*
X162724726Y-94819751D01*
X162724729Y-94819752D01*
X162724731Y-94819752D01*
X162882417Y-94819752D01*
X162882418Y-94819751D01*
X163037070Y-94788989D01*
X163149739Y-94742319D01*
X163182745Y-94728649D01*
X163182745Y-94728648D01*
X163182752Y-94728646D01*
X163313862Y-94641041D01*
X163425362Y-94529541D01*
X163512967Y-94398431D01*
X163573310Y-94252749D01*
X163604073Y-94098094D01*
X163604073Y-93940410D01*
X163604073Y-93940407D01*
X163604072Y-93940405D01*
X163582353Y-93831216D01*
X163573310Y-93785755D01*
X163570835Y-93779780D01*
X163512970Y-93640079D01*
X163512963Y-93640066D01*
X163425362Y-93508963D01*
X163425359Y-93508959D01*
X163313865Y-93397465D01*
X163313861Y-93397462D01*
X163182758Y-93309861D01*
X163182745Y-93309854D01*
X163037074Y-93249516D01*
X163037062Y-93249513D01*
X162882418Y-93218752D01*
X162882415Y-93218752D01*
X162724731Y-93218752D01*
X162724728Y-93218752D01*
X162570083Y-93249513D01*
X162570071Y-93249516D01*
X162424400Y-93309854D01*
X162424387Y-93309861D01*
X162293284Y-93397462D01*
X162293280Y-93397465D01*
X162181786Y-93508959D01*
X162181783Y-93508963D01*
X162094182Y-93640066D01*
X162094175Y-93640079D01*
X162033837Y-93785750D01*
X162033834Y-93785762D01*
X162003073Y-93940405D01*
X152104311Y-93940405D01*
X152179179Y-93909394D01*
X152310289Y-93821789D01*
X152421789Y-93710289D01*
X152509394Y-93579179D01*
X152569737Y-93433497D01*
X152600500Y-93278842D01*
X152600500Y-93121158D01*
X152600500Y-93121155D01*
X152600499Y-93121153D01*
X152580734Y-93021789D01*
X152569737Y-92966503D01*
X152514734Y-92833713D01*
X152509397Y-92820827D01*
X152509390Y-92820814D01*
X152421789Y-92689711D01*
X152421786Y-92689707D01*
X152310292Y-92578213D01*
X152310288Y-92578210D01*
X152179185Y-92490609D01*
X152179172Y-92490602D01*
X152033501Y-92430264D01*
X152033489Y-92430261D01*
X151878845Y-92399500D01*
X151878842Y-92399500D01*
X151721158Y-92399500D01*
X151721155Y-92399500D01*
X151566510Y-92430261D01*
X151566498Y-92430264D01*
X151420827Y-92490602D01*
X151420814Y-92490609D01*
X151289711Y-92578210D01*
X151289707Y-92578213D01*
X151178213Y-92689707D01*
X151178210Y-92689711D01*
X151090609Y-92820814D01*
X151090602Y-92820827D01*
X151030264Y-92966498D01*
X151030261Y-92966510D01*
X150999500Y-93121153D01*
X143124897Y-93121153D01*
X143079185Y-93090609D01*
X143079172Y-93090602D01*
X142933501Y-93030264D01*
X142933489Y-93030261D01*
X142778845Y-92999500D01*
X142778842Y-92999500D01*
X142694168Y-92999500D01*
X142627129Y-92979815D01*
X142581374Y-92927011D01*
X142571430Y-92857853D01*
X142591067Y-92806608D01*
X142609389Y-92779187D01*
X142609390Y-92779184D01*
X142609394Y-92779179D01*
X142669737Y-92633497D01*
X142700500Y-92478842D01*
X142700500Y-92321158D01*
X142700500Y-92321155D01*
X142700499Y-92321153D01*
X142680543Y-92220827D01*
X142669737Y-92166503D01*
X142637929Y-92089711D01*
X142609397Y-92020827D01*
X142609390Y-92020814D01*
X142521789Y-91889711D01*
X142521786Y-91889707D01*
X142410292Y-91778213D01*
X142410288Y-91778210D01*
X142279185Y-91690609D01*
X142279172Y-91690602D01*
X142133501Y-91630264D01*
X142133489Y-91630261D01*
X141978845Y-91599500D01*
X141978842Y-91599500D01*
X141821158Y-91599500D01*
X141821155Y-91599500D01*
X141666510Y-91630261D01*
X141666498Y-91630264D01*
X141520827Y-91690602D01*
X141520814Y-91690609D01*
X141389711Y-91778210D01*
X141389707Y-91778213D01*
X141278213Y-91889707D01*
X141278210Y-91889711D01*
X141190609Y-92020814D01*
X141190602Y-92020827D01*
X141130264Y-92166498D01*
X141130261Y-92166510D01*
X141099500Y-92321153D01*
X136900383Y-92321153D01*
X136855051Y-92232184D01*
X136855049Y-92232181D01*
X136855048Y-92232179D01*
X136730109Y-92060213D01*
X136579786Y-91909890D01*
X136407817Y-91784949D01*
X136398504Y-91780204D01*
X136347707Y-91732230D01*
X136330912Y-91664409D01*
X136353449Y-91598274D01*
X136398507Y-91559232D01*
X136407555Y-91554622D01*
X136461716Y-91515270D01*
X136461717Y-91515270D01*
X135829408Y-90882962D01*
X135892993Y-90865925D01*
X136007007Y-90800099D01*
X136100099Y-90707007D01*
X136165925Y-90592993D01*
X136182962Y-90529408D01*
X136815270Y-91161717D01*
X136815270Y-91161716D01*
X136854622Y-91107554D01*
X136951095Y-90918217D01*
X137016757Y-90716130D01*
X137016757Y-90716127D01*
X137050000Y-90506246D01*
X137050000Y-90293753D01*
X137016757Y-90083872D01*
X137016757Y-90083869D01*
X136951095Y-89881782D01*
X136854624Y-89692449D01*
X136815270Y-89638282D01*
X136815269Y-89638282D01*
X136182962Y-90270590D01*
X136165925Y-90207007D01*
X136100099Y-90092993D01*
X136007007Y-89999901D01*
X135892993Y-89934075D01*
X135829409Y-89917037D01*
X136325292Y-89421153D01*
X145799500Y-89421153D01*
X145799500Y-89578846D01*
X145830261Y-89733489D01*
X145830264Y-89733501D01*
X145890602Y-89879172D01*
X145890609Y-89879185D01*
X145978210Y-90010288D01*
X145978213Y-90010292D01*
X146089707Y-90121786D01*
X146089711Y-90121789D01*
X146220814Y-90209390D01*
X146220827Y-90209397D01*
X146327817Y-90253713D01*
X146366503Y-90269737D01*
X146487239Y-90293753D01*
X146521153Y-90300499D01*
X146521156Y-90300500D01*
X146521158Y-90300500D01*
X146678844Y-90300500D01*
X146678845Y-90300499D01*
X146833497Y-90269737D01*
X146979179Y-90209394D01*
X147110289Y-90121789D01*
X147221789Y-90010289D01*
X147309394Y-89879179D01*
X147369737Y-89733497D01*
X147400500Y-89578842D01*
X147400500Y-89421158D01*
X147400500Y-89421155D01*
X147400499Y-89421153D01*
X147381847Y-89327385D01*
X147369737Y-89266503D01*
X147354691Y-89230179D01*
X147309397Y-89120827D01*
X147309390Y-89120814D01*
X147221789Y-88989711D01*
X147221786Y-88989707D01*
X147110292Y-88878213D01*
X147110288Y-88878210D01*
X147024897Y-88821153D01*
X149099500Y-88821153D01*
X149099500Y-88978846D01*
X149130261Y-89133489D01*
X149130264Y-89133501D01*
X149190602Y-89279172D01*
X149190609Y-89279185D01*
X149278210Y-89410288D01*
X149278213Y-89410292D01*
X149389707Y-89521786D01*
X149389711Y-89521789D01*
X149520814Y-89609390D01*
X149520827Y-89609397D01*
X149624126Y-89652184D01*
X149666503Y-89669737D01*
X149821153Y-89700499D01*
X149821156Y-89700500D01*
X149954451Y-89700500D01*
X150021490Y-89720185D01*
X150067245Y-89772989D01*
X150069012Y-89777047D01*
X150090604Y-89829176D01*
X150090609Y-89829185D01*
X150178210Y-89960288D01*
X150178213Y-89960292D01*
X150289707Y-90071786D01*
X150289711Y-90071789D01*
X150420814Y-90159390D01*
X150420818Y-90159392D01*
X150420821Y-90159394D01*
X150528782Y-90204112D01*
X150583182Y-90247951D01*
X150595888Y-90271220D01*
X150640602Y-90379172D01*
X150640609Y-90379185D01*
X150728210Y-90510288D01*
X150728213Y-90510292D01*
X150839707Y-90621786D01*
X150839711Y-90621789D01*
X150970817Y-90709392D01*
X150970819Y-90709392D01*
X150970821Y-90709394D01*
X151022947Y-90730985D01*
X151022952Y-90730987D01*
X151077356Y-90774827D01*
X151099421Y-90841121D01*
X151099500Y-90845548D01*
X151099500Y-90978846D01*
X151130261Y-91133489D01*
X151130264Y-91133501D01*
X151190602Y-91279172D01*
X151190609Y-91279185D01*
X151278210Y-91410288D01*
X151278213Y-91410292D01*
X151389707Y-91521786D01*
X151389711Y-91521789D01*
X151520814Y-91609390D01*
X151520827Y-91609397D01*
X151615094Y-91648443D01*
X151666503Y-91669737D01*
X151781000Y-91692512D01*
X151821153Y-91700499D01*
X151821156Y-91700500D01*
X151821158Y-91700500D01*
X151978844Y-91700500D01*
X151978845Y-91700499D01*
X152133497Y-91669737D01*
X152251592Y-91620821D01*
X152279172Y-91609397D01*
X152279172Y-91609396D01*
X152279179Y-91609394D01*
X152410289Y-91521789D01*
X152521789Y-91410289D01*
X152609394Y-91279179D01*
X152669737Y-91133497D01*
X152700500Y-90978842D01*
X152700500Y-90845547D01*
X152720185Y-90778508D01*
X152772989Y-90732753D01*
X152777000Y-90731006D01*
X152829179Y-90709394D01*
X152960289Y-90621789D01*
X153071789Y-90510289D01*
X153159394Y-90379179D01*
X153204112Y-90271217D01*
X153247951Y-90216817D01*
X153271210Y-90204115D01*
X153379179Y-90159394D01*
X153510289Y-90071789D01*
X153621789Y-89960289D01*
X153709394Y-89829179D01*
X153730987Y-89777048D01*
X153774827Y-89722644D01*
X153841121Y-89700579D01*
X153845548Y-89700500D01*
X153978844Y-89700500D01*
X153978845Y-89700499D01*
X154133497Y-89669737D01*
X154279179Y-89609394D01*
X154410289Y-89521789D01*
X154521789Y-89410289D01*
X154609394Y-89279179D01*
X154669737Y-89133497D01*
X154700500Y-88978842D01*
X154700500Y-88821158D01*
X154700500Y-88821155D01*
X154700499Y-88821153D01*
X154688119Y-88758917D01*
X154669737Y-88666503D01*
X154664629Y-88654172D01*
X154609397Y-88520827D01*
X154609390Y-88520814D01*
X154521789Y-88389711D01*
X154521786Y-88389707D01*
X154410292Y-88278213D01*
X154410288Y-88278210D01*
X154279185Y-88190609D01*
X154279172Y-88190602D01*
X154133501Y-88130264D01*
X154133489Y-88130261D01*
X153978845Y-88099500D01*
X153978842Y-88099500D01*
X153845548Y-88099500D01*
X153778509Y-88079815D01*
X153732754Y-88027011D01*
X153730987Y-88022952D01*
X153725371Y-88009394D01*
X153709394Y-87970821D01*
X153709392Y-87970819D01*
X153709392Y-87970817D01*
X153621789Y-87839711D01*
X153621786Y-87839707D01*
X153510292Y-87728213D01*
X153510288Y-87728210D01*
X153379185Y-87640609D01*
X153379172Y-87640602D01*
X153271220Y-87595888D01*
X153216816Y-87552048D01*
X153204115Y-87528789D01*
X153159394Y-87420821D01*
X153159392Y-87420818D01*
X153159390Y-87420814D01*
X153071789Y-87289711D01*
X153071786Y-87289707D01*
X152960292Y-87178213D01*
X152960288Y-87178210D01*
X152829185Y-87090609D01*
X152829176Y-87090604D01*
X152777047Y-87069012D01*
X152761481Y-87056468D01*
X152743297Y-87048164D01*
X152734832Y-87034993D01*
X152722644Y-87025171D01*
X152716331Y-87006203D01*
X152705523Y-86989386D01*
X152701560Y-86961825D01*
X152700579Y-86958877D01*
X152700500Y-86954451D01*
X152700500Y-86922135D01*
X165349500Y-86922135D01*
X165349500Y-88717870D01*
X165349501Y-88717876D01*
X165355908Y-88777483D01*
X165406202Y-88912328D01*
X165406206Y-88912335D01*
X165492452Y-89027544D01*
X165492455Y-89027547D01*
X165607664Y-89113793D01*
X165607671Y-89113797D01*
X165739082Y-89162810D01*
X165795016Y-89204681D01*
X165819433Y-89270145D01*
X165804582Y-89338418D01*
X165783431Y-89366673D01*
X165669889Y-89480215D01*
X165544951Y-89652179D01*
X165448444Y-89841585D01*
X165382753Y-90043760D01*
X165356520Y-90209390D01*
X165349500Y-90253713D01*
X165349500Y-90466287D01*
X165382754Y-90676243D01*
X165442107Y-90858913D01*
X165448444Y-90878414D01*
X165544951Y-91067820D01*
X165669890Y-91239786D01*
X165820213Y-91390109D01*
X165992182Y-91515050D01*
X166000946Y-91519516D01*
X166051742Y-91567491D01*
X166068536Y-91635312D01*
X166045998Y-91701447D01*
X166000946Y-91740484D01*
X165992182Y-91744949D01*
X165820213Y-91869890D01*
X165669890Y-92020213D01*
X165544951Y-92192179D01*
X165448444Y-92381585D01*
X165382753Y-92583760D01*
X165362855Y-92709394D01*
X165349500Y-92793713D01*
X165349500Y-93006287D01*
X165353298Y-93030264D01*
X165380260Y-93200500D01*
X165382754Y-93216243D01*
X165441636Y-93397463D01*
X165448444Y-93418414D01*
X165544951Y-93607820D01*
X165669886Y-93779780D01*
X165669894Y-93779790D01*
X165820213Y-93930109D01*
X165992182Y-94055050D01*
X166000946Y-94059516D01*
X166051742Y-94107491D01*
X166068536Y-94175312D01*
X166045998Y-94241447D01*
X166000946Y-94280484D01*
X165992182Y-94284949D01*
X165820213Y-94409890D01*
X165669890Y-94560213D01*
X165544951Y-94732179D01*
X165448444Y-94921585D01*
X165382753Y-95123760D01*
X165349500Y-95333713D01*
X165349500Y-95546286D01*
X165381748Y-95749896D01*
X165382754Y-95756243D01*
X165429531Y-95900208D01*
X165448444Y-95958414D01*
X165544951Y-96147820D01*
X165669890Y-96319786D01*
X165820213Y-96470109D01*
X165992182Y-96595050D01*
X166000946Y-96599516D01*
X166051742Y-96647491D01*
X166068536Y-96715312D01*
X166045998Y-96781447D01*
X166000946Y-96820484D01*
X165992182Y-96824949D01*
X165820213Y-96949890D01*
X165669890Y-97100213D01*
X165544951Y-97272179D01*
X165448444Y-97461585D01*
X165382753Y-97663760D01*
X165349500Y-97873713D01*
X165349500Y-98086286D01*
X165381748Y-98289896D01*
X165382754Y-98296243D01*
X165430595Y-98443483D01*
X165448444Y-98498414D01*
X165544951Y-98687820D01*
X165669890Y-98859786D01*
X165820213Y-99010109D01*
X165992182Y-99135050D01*
X166000946Y-99139516D01*
X166051742Y-99187491D01*
X166068536Y-99255312D01*
X166045998Y-99321447D01*
X166000946Y-99360484D01*
X165992182Y-99364949D01*
X165820213Y-99489890D01*
X165669890Y-99640213D01*
X165544951Y-99812179D01*
X165448444Y-100001585D01*
X165382753Y-100203760D01*
X165373942Y-100259394D01*
X165349500Y-100413713D01*
X165349500Y-100626287D01*
X165359534Y-100689644D01*
X165381748Y-100829896D01*
X165382754Y-100836243D01*
X165445334Y-101028844D01*
X165448444Y-101038414D01*
X165544951Y-101227820D01*
X165669890Y-101399786D01*
X165820213Y-101550109D01*
X165992182Y-101675050D01*
X166000946Y-101679516D01*
X166051742Y-101727491D01*
X166068536Y-101795312D01*
X166045998Y-101861447D01*
X166000946Y-101900484D01*
X165992182Y-101904949D01*
X165820213Y-102029890D01*
X165669890Y-102180213D01*
X165544951Y-102352179D01*
X165448444Y-102541585D01*
X165382753Y-102743760D01*
X165349500Y-102953713D01*
X165349500Y-103166286D01*
X165381748Y-103369896D01*
X165382754Y-103376243D01*
X165429531Y-103520208D01*
X165448444Y-103578414D01*
X165544951Y-103767820D01*
X165669890Y-103939786D01*
X165820213Y-104090109D01*
X165992179Y-104215048D01*
X165992181Y-104215049D01*
X165992184Y-104215051D01*
X166181588Y-104311557D01*
X166383757Y-104377246D01*
X166593713Y-104410500D01*
X166593714Y-104410500D01*
X166806286Y-104410500D01*
X166806287Y-104410500D01*
X167016243Y-104377246D01*
X167218412Y-104311557D01*
X167407816Y-104215051D01*
X167429789Y-104199086D01*
X167579786Y-104090109D01*
X167579788Y-104090106D01*
X167579792Y-104090104D01*
X167730104Y-103939792D01*
X167730106Y-103939788D01*
X167730109Y-103939786D01*
X167855048Y-103767820D01*
X167855047Y-103767820D01*
X167855051Y-103767816D01*
X167951557Y-103578412D01*
X168017246Y-103376243D01*
X168050500Y-103166287D01*
X168050500Y-102953713D01*
X168017246Y-102743757D01*
X167951557Y-102541588D01*
X167855051Y-102352184D01*
X167855049Y-102352181D01*
X167855048Y-102352179D01*
X167730109Y-102180213D01*
X167579786Y-102029890D01*
X167407820Y-101904951D01*
X167407115Y-101904591D01*
X167399054Y-101900485D01*
X167348259Y-101852512D01*
X167331463Y-101784692D01*
X167353999Y-101718556D01*
X167399054Y-101679515D01*
X167407816Y-101675051D01*
X167429789Y-101659086D01*
X167579786Y-101550109D01*
X167579788Y-101550106D01*
X167579792Y-101550104D01*
X167730104Y-101399792D01*
X167730106Y-101399788D01*
X167730109Y-101399786D01*
X167850921Y-101233501D01*
X167855051Y-101227816D01*
X167951557Y-101038412D01*
X168017246Y-100836243D01*
X168050500Y-100626287D01*
X168050500Y-100413713D01*
X168017246Y-100203757D01*
X167951557Y-100001588D01*
X167855051Y-99812184D01*
X167855049Y-99812181D01*
X167855048Y-99812179D01*
X167730109Y-99640213D01*
X167579786Y-99489890D01*
X167407820Y-99364951D01*
X167407115Y-99364591D01*
X167399054Y-99360485D01*
X167348259Y-99312512D01*
X167331463Y-99244692D01*
X167353999Y-99178556D01*
X167399054Y-99139515D01*
X167407816Y-99135051D01*
X167429789Y-99119086D01*
X167579786Y-99010109D01*
X167579788Y-99010106D01*
X167579792Y-99010104D01*
X167730104Y-98859792D01*
X167730106Y-98859788D01*
X167730109Y-98859786D01*
X167855048Y-98687820D01*
X167855047Y-98687820D01*
X167855051Y-98687816D01*
X167951557Y-98498412D01*
X168017246Y-98296243D01*
X168050500Y-98086287D01*
X168050500Y-97873713D01*
X168017246Y-97663757D01*
X167951557Y-97461588D01*
X167855051Y-97272184D01*
X167855049Y-97272181D01*
X167855048Y-97272179D01*
X167730109Y-97100213D01*
X167579786Y-96949890D01*
X167407820Y-96824951D01*
X167401608Y-96821786D01*
X167399054Y-96820485D01*
X167348259Y-96772512D01*
X167331463Y-96704692D01*
X167353999Y-96638556D01*
X167399054Y-96599515D01*
X167407816Y-96595051D01*
X167509529Y-96521153D01*
X167579786Y-96470109D01*
X167579788Y-96470106D01*
X167579792Y-96470104D01*
X167730104Y-96319792D01*
X167730106Y-96319788D01*
X167730109Y-96319786D01*
X167855048Y-96147820D01*
X167855047Y-96147820D01*
X167855051Y-96147816D01*
X167951557Y-95958412D01*
X168017246Y-95756243D01*
X168050500Y-95546287D01*
X168050500Y-95333713D01*
X168017246Y-95123757D01*
X167951557Y-94921588D01*
X167855051Y-94732184D01*
X167855049Y-94732181D01*
X167855048Y-94732179D01*
X167828874Y-94696153D01*
X181374500Y-94696153D01*
X181374500Y-94853846D01*
X181405261Y-95008489D01*
X181405264Y-95008501D01*
X181465602Y-95154172D01*
X181465609Y-95154185D01*
X181553210Y-95285288D01*
X181553213Y-95285292D01*
X181664707Y-95396786D01*
X181664711Y-95396789D01*
X181795814Y-95484390D01*
X181795827Y-95484397D01*
X181941498Y-95544735D01*
X181941503Y-95544737D01*
X182096153Y-95575499D01*
X182096156Y-95575500D01*
X182096158Y-95575500D01*
X182253844Y-95575500D01*
X182253845Y-95575499D01*
X182408497Y-95544737D01*
X182539182Y-95490606D01*
X182554172Y-95484397D01*
X182554172Y-95484396D01*
X182554179Y-95484394D01*
X182685289Y-95396789D01*
X182796789Y-95285289D01*
X182884394Y-95154179D01*
X182944737Y-95008497D01*
X182975500Y-94853842D01*
X182975500Y-94696158D01*
X182975500Y-94696155D01*
X182975499Y-94696153D01*
X182950353Y-94569737D01*
X182944737Y-94541503D01*
X182944735Y-94541498D01*
X182884397Y-94395827D01*
X182884390Y-94395814D01*
X182796789Y-94264711D01*
X182796786Y-94264707D01*
X182685292Y-94153213D01*
X182685288Y-94153210D01*
X182554185Y-94065609D01*
X182554172Y-94065602D01*
X182408501Y-94005264D01*
X182408489Y-94005261D01*
X182253845Y-93974500D01*
X182253842Y-93974500D01*
X182096158Y-93974500D01*
X182096155Y-93974500D01*
X181941510Y-94005261D01*
X181941498Y-94005264D01*
X181795827Y-94065602D01*
X181795814Y-94065609D01*
X181664711Y-94153210D01*
X181664707Y-94153213D01*
X181553213Y-94264707D01*
X181553210Y-94264711D01*
X181465609Y-94395814D01*
X181465602Y-94395827D01*
X181405264Y-94541498D01*
X181405261Y-94541510D01*
X181374500Y-94696153D01*
X167828874Y-94696153D01*
X167730109Y-94560213D01*
X167579786Y-94409890D01*
X167407820Y-94284951D01*
X167407115Y-94284591D01*
X167399054Y-94280485D01*
X167348259Y-94232512D01*
X167331463Y-94164692D01*
X167353999Y-94098556D01*
X167399054Y-94059515D01*
X167407816Y-94055051D01*
X167437494Y-94033489D01*
X167579786Y-93930109D01*
X167579788Y-93930106D01*
X167579792Y-93930104D01*
X167730104Y-93779792D01*
X167730107Y-93779787D01*
X167730114Y-93779780D01*
X167855048Y-93607820D01*
X167855047Y-93607820D01*
X167855051Y-93607816D01*
X167951557Y-93418412D01*
X168017246Y-93216243D01*
X168050500Y-93006287D01*
X168050500Y-92793713D01*
X168017246Y-92583757D01*
X167951557Y-92381588D01*
X167855051Y-92192184D01*
X167855049Y-92192181D01*
X167855048Y-92192179D01*
X167730109Y-92020213D01*
X167631049Y-91921153D01*
X169399500Y-91921153D01*
X169399500Y-92078846D01*
X169430261Y-92233489D01*
X169430264Y-92233501D01*
X169490602Y-92379172D01*
X169490609Y-92379185D01*
X169578210Y-92510288D01*
X169578213Y-92510292D01*
X169689707Y-92621786D01*
X169689711Y-92621789D01*
X169820814Y-92709390D01*
X169820827Y-92709397D01*
X169966498Y-92769735D01*
X169966503Y-92769737D01*
X170087038Y-92793713D01*
X170121153Y-92800499D01*
X170121156Y-92800500D01*
X170121158Y-92800500D01*
X170278844Y-92800500D01*
X170278845Y-92800499D01*
X170433497Y-92769737D01*
X170579179Y-92709394D01*
X170710289Y-92621789D01*
X170821789Y-92510289D01*
X170909394Y-92379179D01*
X170969737Y-92233497D01*
X171000500Y-92078842D01*
X171000500Y-91921158D01*
X171000500Y-91921155D01*
X171000499Y-91921153D01*
X170982419Y-91830261D01*
X170969737Y-91766503D01*
X170959241Y-91741164D01*
X170909397Y-91620827D01*
X170909390Y-91620814D01*
X170821789Y-91489711D01*
X170821786Y-91489707D01*
X170710292Y-91378213D01*
X170710288Y-91378210D01*
X170579185Y-91290609D01*
X170579172Y-91290602D01*
X170433501Y-91230264D01*
X170433489Y-91230261D01*
X170278845Y-91199500D01*
X170278842Y-91199500D01*
X170121158Y-91199500D01*
X170121155Y-91199500D01*
X169966510Y-91230261D01*
X169966498Y-91230264D01*
X169820827Y-91290602D01*
X169820814Y-91290609D01*
X169689711Y-91378210D01*
X169689707Y-91378213D01*
X169578213Y-91489707D01*
X169578210Y-91489711D01*
X169490609Y-91620814D01*
X169490602Y-91620827D01*
X169430264Y-91766498D01*
X169430261Y-91766510D01*
X169399500Y-91921153D01*
X167631049Y-91921153D01*
X167579786Y-91869890D01*
X167407820Y-91744951D01*
X167407115Y-91744591D01*
X167399054Y-91740485D01*
X167348259Y-91692512D01*
X167331463Y-91624692D01*
X167353999Y-91558556D01*
X167399054Y-91519515D01*
X167407816Y-91515051D01*
X167442699Y-91489707D01*
X167579786Y-91390109D01*
X167579788Y-91390106D01*
X167579792Y-91390104D01*
X167730104Y-91239792D01*
X167730106Y-91239788D01*
X167730109Y-91239786D01*
X167855048Y-91067820D01*
X167855047Y-91067820D01*
X167855051Y-91067816D01*
X167951557Y-90878412D01*
X168017246Y-90676243D01*
X168050500Y-90466287D01*
X168050500Y-90253713D01*
X168017246Y-90043757D01*
X167951557Y-89841588D01*
X167855051Y-89652184D01*
X167855049Y-89652181D01*
X167855048Y-89652179D01*
X167730109Y-89480213D01*
X167616569Y-89366673D01*
X167583084Y-89305350D01*
X167588068Y-89235658D01*
X167629940Y-89179725D01*
X167660915Y-89162810D01*
X167792331Y-89113796D01*
X167907546Y-89027546D01*
X167993796Y-88912331D01*
X168044091Y-88777483D01*
X168044772Y-88771153D01*
X181249500Y-88771153D01*
X181249500Y-88928846D01*
X181280261Y-89083489D01*
X181280264Y-89083501D01*
X181340602Y-89229172D01*
X181340609Y-89229185D01*
X181428210Y-89360288D01*
X181428213Y-89360292D01*
X181539707Y-89471786D01*
X181539711Y-89471789D01*
X181670814Y-89559390D01*
X181670827Y-89559397D01*
X181816498Y-89619735D01*
X181816503Y-89619737D01*
X181971153Y-89650499D01*
X181971156Y-89650500D01*
X181971158Y-89650500D01*
X182128844Y-89650500D01*
X182128845Y-89650499D01*
X182283497Y-89619737D01*
X182429179Y-89559394D01*
X182560289Y-89471789D01*
X182671789Y-89360289D01*
X182759394Y-89229179D01*
X182819737Y-89083497D01*
X182850500Y-88928842D01*
X182850500Y-88771158D01*
X182850500Y-88771155D01*
X182850499Y-88771153D01*
X182829684Y-88666510D01*
X182819737Y-88616503D01*
X182780102Y-88520814D01*
X182759397Y-88470827D01*
X182759390Y-88470814D01*
X182671789Y-88339711D01*
X182671786Y-88339707D01*
X182560292Y-88228213D01*
X182560288Y-88228210D01*
X182429185Y-88140609D01*
X182429172Y-88140602D01*
X182283501Y-88080264D01*
X182283489Y-88080261D01*
X182128845Y-88049500D01*
X182128842Y-88049500D01*
X181971158Y-88049500D01*
X181971155Y-88049500D01*
X181816510Y-88080261D01*
X181816498Y-88080264D01*
X181670827Y-88140602D01*
X181670814Y-88140609D01*
X181539711Y-88228210D01*
X181539707Y-88228213D01*
X181428213Y-88339707D01*
X181428210Y-88339711D01*
X181340609Y-88470814D01*
X181340602Y-88470827D01*
X181280264Y-88616498D01*
X181280261Y-88616510D01*
X181249500Y-88771153D01*
X168044772Y-88771153D01*
X168050500Y-88717873D01*
X168050499Y-86922128D01*
X168044091Y-86862517D01*
X168028663Y-86821153D01*
X167993797Y-86727671D01*
X167993793Y-86727664D01*
X167907547Y-86612455D01*
X167907544Y-86612452D01*
X167792335Y-86526206D01*
X167792328Y-86526202D01*
X167657482Y-86475908D01*
X167657483Y-86475908D01*
X167597883Y-86469501D01*
X167597881Y-86469500D01*
X167597873Y-86469500D01*
X167597864Y-86469500D01*
X165802129Y-86469500D01*
X165802123Y-86469501D01*
X165742516Y-86475908D01*
X165607671Y-86526202D01*
X165607664Y-86526206D01*
X165492455Y-86612452D01*
X165492452Y-86612455D01*
X165406206Y-86727664D01*
X165406202Y-86727671D01*
X165355908Y-86862517D01*
X165352254Y-86896510D01*
X165349501Y-86922123D01*
X165349500Y-86922135D01*
X152700500Y-86922135D01*
X152700500Y-86821155D01*
X152700499Y-86821153D01*
X152686509Y-86750821D01*
X152669737Y-86666503D01*
X152647350Y-86612455D01*
X152609397Y-86520827D01*
X152609390Y-86520814D01*
X152521789Y-86389711D01*
X152521786Y-86389707D01*
X152410292Y-86278213D01*
X152410288Y-86278210D01*
X152279185Y-86190609D01*
X152279172Y-86190602D01*
X152133501Y-86130264D01*
X152133489Y-86130261D01*
X151978845Y-86099500D01*
X151978842Y-86099500D01*
X151821158Y-86099500D01*
X151821155Y-86099500D01*
X151666510Y-86130261D01*
X151666498Y-86130264D01*
X151520827Y-86190602D01*
X151520814Y-86190609D01*
X151389711Y-86278210D01*
X151389707Y-86278213D01*
X151278213Y-86389707D01*
X151278210Y-86389711D01*
X151190609Y-86520814D01*
X151190602Y-86520827D01*
X151130264Y-86666498D01*
X151130261Y-86666510D01*
X151099500Y-86821153D01*
X151099500Y-86954451D01*
X151079815Y-87021490D01*
X151027011Y-87067245D01*
X151022953Y-87069012D01*
X150970823Y-87090604D01*
X150970814Y-87090609D01*
X150839711Y-87178210D01*
X150839707Y-87178213D01*
X150728213Y-87289707D01*
X150728210Y-87289711D01*
X150640609Y-87420814D01*
X150640604Y-87420823D01*
X150595888Y-87528780D01*
X150552047Y-87583183D01*
X150528780Y-87595888D01*
X150420823Y-87640604D01*
X150420814Y-87640609D01*
X150289711Y-87728210D01*
X150289707Y-87728213D01*
X150178213Y-87839707D01*
X150178210Y-87839711D01*
X150090609Y-87970814D01*
X150090604Y-87970823D01*
X150069012Y-88022953D01*
X150025171Y-88077356D01*
X149958877Y-88099421D01*
X149954451Y-88099500D01*
X149821155Y-88099500D01*
X149666510Y-88130261D01*
X149666498Y-88130264D01*
X149520827Y-88190602D01*
X149520814Y-88190609D01*
X149389711Y-88278210D01*
X149389707Y-88278213D01*
X149278213Y-88389707D01*
X149278210Y-88389711D01*
X149190609Y-88520814D01*
X149190602Y-88520827D01*
X149130264Y-88666498D01*
X149130261Y-88666510D01*
X149099500Y-88821153D01*
X147024897Y-88821153D01*
X146979185Y-88790609D01*
X146979172Y-88790602D01*
X146833501Y-88730264D01*
X146833489Y-88730261D01*
X146678845Y-88699500D01*
X146678842Y-88699500D01*
X146521158Y-88699500D01*
X146521155Y-88699500D01*
X146366510Y-88730261D01*
X146366498Y-88730264D01*
X146220827Y-88790602D01*
X146220814Y-88790609D01*
X146089711Y-88878210D01*
X146089707Y-88878213D01*
X145978213Y-88989707D01*
X145978210Y-88989711D01*
X145890609Y-89120814D01*
X145890602Y-89120827D01*
X145830264Y-89266498D01*
X145830261Y-89266510D01*
X145799500Y-89421153D01*
X136325292Y-89421153D01*
X136419060Y-89327385D01*
X136499627Y-89246818D01*
X136560950Y-89213333D01*
X136587307Y-89210499D01*
X136597872Y-89210499D01*
X136657483Y-89204091D01*
X136792331Y-89153796D01*
X136907546Y-89067546D01*
X136993796Y-88952331D01*
X137044091Y-88817483D01*
X137050500Y-88757873D01*
X137050499Y-87221153D01*
X145299500Y-87221153D01*
X145299500Y-87378846D01*
X145330261Y-87533489D01*
X145330264Y-87533501D01*
X145390602Y-87679172D01*
X145390609Y-87679185D01*
X145478210Y-87810288D01*
X145478213Y-87810292D01*
X145589707Y-87921786D01*
X145589711Y-87921789D01*
X145720814Y-88009390D01*
X145720827Y-88009397D01*
X145866498Y-88069735D01*
X145866503Y-88069737D01*
X146015734Y-88099421D01*
X146021153Y-88100499D01*
X146021156Y-88100500D01*
X146021158Y-88100500D01*
X146178844Y-88100500D01*
X146178845Y-88100499D01*
X146333497Y-88069737D01*
X146479179Y-88009394D01*
X146610289Y-87921789D01*
X146721789Y-87810289D01*
X146809394Y-87679179D01*
X146869737Y-87533497D01*
X146900500Y-87378842D01*
X146900500Y-87221158D01*
X146900500Y-87221155D01*
X146900499Y-87221153D01*
X146870236Y-87069012D01*
X146869737Y-87066503D01*
X146869735Y-87066498D01*
X146809397Y-86920827D01*
X146809390Y-86920814D01*
X146721789Y-86789711D01*
X146721786Y-86789707D01*
X146610292Y-86678213D01*
X146610288Y-86678210D01*
X146479185Y-86590609D01*
X146479172Y-86590602D01*
X146333501Y-86530264D01*
X146333489Y-86530261D01*
X146178845Y-86499500D01*
X146178842Y-86499500D01*
X146021158Y-86499500D01*
X146021155Y-86499500D01*
X145866510Y-86530261D01*
X145866498Y-86530264D01*
X145720827Y-86590602D01*
X145720814Y-86590609D01*
X145589711Y-86678210D01*
X145589707Y-86678213D01*
X145478213Y-86789707D01*
X145478210Y-86789711D01*
X145390609Y-86920814D01*
X145390602Y-86920827D01*
X145330264Y-87066498D01*
X145330261Y-87066510D01*
X145299500Y-87221153D01*
X137050499Y-87221153D01*
X137050499Y-86962128D01*
X137044091Y-86902517D01*
X137013744Y-86821153D01*
X136993797Y-86767671D01*
X136993793Y-86767664D01*
X136907547Y-86652455D01*
X136907544Y-86652452D01*
X136792335Y-86566206D01*
X136792328Y-86566202D01*
X136657482Y-86515908D01*
X136657483Y-86515908D01*
X136597883Y-86509501D01*
X136597881Y-86509500D01*
X136597873Y-86509500D01*
X136597864Y-86509500D01*
X134802129Y-86509500D01*
X134802123Y-86509501D01*
X134742516Y-86515908D01*
X134607671Y-86566202D01*
X134607664Y-86566206D01*
X134492455Y-86652452D01*
X134492452Y-86652455D01*
X134406206Y-86767664D01*
X134406202Y-86767671D01*
X134355908Y-86902517D01*
X134350325Y-86954451D01*
X134349501Y-86962123D01*
X134349500Y-86962135D01*
X117027792Y-86962135D01*
X117026264Y-86954451D01*
X117014737Y-86896503D01*
X117000659Y-86862516D01*
X116954397Y-86750827D01*
X116954390Y-86750814D01*
X116866789Y-86619711D01*
X116866786Y-86619707D01*
X116755292Y-86508213D01*
X116755288Y-86508210D01*
X116739412Y-86497602D01*
X116694607Y-86443990D01*
X116685900Y-86374665D01*
X116716054Y-86311638D01*
X116775497Y-86274918D01*
X116808303Y-86270500D01*
X117373543Y-86270500D01*
X117503582Y-86244632D01*
X117566835Y-86232051D01*
X117748914Y-86156632D01*
X117912782Y-86047139D01*
X118024897Y-85935023D01*
X118086218Y-85901540D01*
X118155910Y-85906524D01*
X118211844Y-85948395D01*
X118226967Y-85978269D01*
X118227932Y-85977870D01*
X118290602Y-86129172D01*
X118290609Y-86129185D01*
X118378210Y-86260288D01*
X118378213Y-86260292D01*
X118489707Y-86371786D01*
X118489711Y-86371789D01*
X118620814Y-86459390D01*
X118620827Y-86459397D01*
X118741791Y-86509501D01*
X118766503Y-86519737D01*
X118921153Y-86550499D01*
X118921156Y-86550500D01*
X118921158Y-86550500D01*
X119078844Y-86550500D01*
X119078845Y-86550499D01*
X119233497Y-86519737D01*
X119379179Y-86459394D01*
X119510289Y-86371789D01*
X119621789Y-86260289D01*
X119709394Y-86129179D01*
X119769737Y-85983497D01*
X119800500Y-85828842D01*
X119800500Y-85821153D01*
X125929500Y-85821153D01*
X125929500Y-85978846D01*
X125960261Y-86133489D01*
X125960264Y-86133501D01*
X126020602Y-86279172D01*
X126020609Y-86279185D01*
X126108210Y-86410288D01*
X126108213Y-86410292D01*
X126219707Y-86521786D01*
X126219711Y-86521789D01*
X126350814Y-86609390D01*
X126350827Y-86609397D01*
X126454780Y-86652455D01*
X126496503Y-86669737D01*
X126651153Y-86700499D01*
X126651156Y-86700500D01*
X126651158Y-86700500D01*
X126808844Y-86700500D01*
X126808845Y-86700499D01*
X126963497Y-86669737D01*
X127101789Y-86612455D01*
X127109172Y-86609397D01*
X127109172Y-86609396D01*
X127109179Y-86609394D01*
X127240289Y-86521789D01*
X127351789Y-86410289D01*
X127439394Y-86279179D01*
X127499737Y-86133497D01*
X127530500Y-85978842D01*
X127530500Y-85821158D01*
X127530500Y-85821155D01*
X127530499Y-85821153D01*
X127508269Y-85709397D01*
X127499737Y-85666503D01*
X127456384Y-85561839D01*
X127439397Y-85520827D01*
X127439390Y-85520814D01*
X127351789Y-85389711D01*
X127351786Y-85389707D01*
X127240292Y-85278213D01*
X127240288Y-85278210D01*
X127109185Y-85190609D01*
X127109172Y-85190602D01*
X126963501Y-85130264D01*
X126963489Y-85130261D01*
X126808845Y-85099500D01*
X126808842Y-85099500D01*
X126651158Y-85099500D01*
X126651155Y-85099500D01*
X126496510Y-85130261D01*
X126496498Y-85130264D01*
X126350827Y-85190602D01*
X126350814Y-85190609D01*
X126219711Y-85278210D01*
X126219707Y-85278213D01*
X126108213Y-85389707D01*
X126108210Y-85389711D01*
X126020609Y-85520814D01*
X126020602Y-85520827D01*
X125960264Y-85666498D01*
X125960261Y-85666510D01*
X125929500Y-85821153D01*
X119800500Y-85821153D01*
X119800500Y-85671158D01*
X119800500Y-85671155D01*
X119800499Y-85671153D01*
X119770596Y-85520821D01*
X119769737Y-85516503D01*
X119739329Y-85443091D01*
X119709397Y-85370827D01*
X119709390Y-85370814D01*
X119621789Y-85239711D01*
X119621786Y-85239707D01*
X119510292Y-85128213D01*
X119510288Y-85128210D01*
X119379185Y-85040609D01*
X119379172Y-85040602D01*
X119233501Y-84980264D01*
X119233489Y-84980261D01*
X119078845Y-84949500D01*
X119078842Y-84949500D01*
X118921158Y-84949500D01*
X118921155Y-84949500D01*
X118766510Y-84980261D01*
X118766498Y-84980264D01*
X118620827Y-85040602D01*
X118620814Y-85040609D01*
X118489711Y-85128210D01*
X118467903Y-85150018D01*
X118406579Y-85183502D01*
X118336887Y-85178516D01*
X118280954Y-85136644D01*
X118258606Y-85086526D01*
X118241494Y-85000500D01*
X118237051Y-84978165D01*
X118237049Y-84978160D01*
X118161635Y-84796092D01*
X118161628Y-84796079D01*
X118052139Y-84632218D01*
X118052136Y-84632214D01*
X117912785Y-84492863D01*
X117912781Y-84492860D01*
X117748920Y-84383371D01*
X117748907Y-84383364D01*
X117566839Y-84307950D01*
X117566829Y-84307947D01*
X117373543Y-84269500D01*
X117373541Y-84269500D01*
X116798598Y-84269500D01*
X116792773Y-84267789D01*
X116786811Y-84268939D01*
X116759632Y-84258058D01*
X116731559Y-84249815D01*
X116727584Y-84245228D01*
X116721946Y-84242971D01*
X116704963Y-84219121D01*
X116685804Y-84197011D01*
X116684940Y-84191003D01*
X116681418Y-84186057D01*
X116680025Y-84156820D01*
X116675860Y-84127853D01*
X116678179Y-84121153D01*
X144699500Y-84121153D01*
X144699500Y-84278846D01*
X144730261Y-84433489D01*
X144730264Y-84433501D01*
X144790602Y-84579172D01*
X144790609Y-84579185D01*
X144878210Y-84710288D01*
X144878213Y-84710292D01*
X144989707Y-84821786D01*
X144989711Y-84821789D01*
X145120814Y-84909390D01*
X145120827Y-84909397D01*
X145217646Y-84949500D01*
X145266503Y-84969737D01*
X145421153Y-85000499D01*
X145421156Y-85000500D01*
X145421158Y-85000500D01*
X145578844Y-85000500D01*
X145578845Y-85000499D01*
X145733497Y-84969737D01*
X145850790Y-84921153D01*
X166199500Y-84921153D01*
X166199500Y-85078846D01*
X166230261Y-85233489D01*
X166230264Y-85233501D01*
X166290602Y-85379172D01*
X166290609Y-85379185D01*
X166378210Y-85510288D01*
X166378213Y-85510292D01*
X166489707Y-85621786D01*
X166489711Y-85621789D01*
X166620814Y-85709390D01*
X166620827Y-85709397D01*
X166766498Y-85769735D01*
X166766503Y-85769737D01*
X166921153Y-85800499D01*
X166921156Y-85800500D01*
X166921158Y-85800500D01*
X167078844Y-85800500D01*
X167078845Y-85800499D01*
X167233497Y-85769737D01*
X167379179Y-85709394D01*
X167510289Y-85621789D01*
X167621789Y-85510289D01*
X167709394Y-85379179D01*
X167712854Y-85370827D01*
X167751216Y-85278210D01*
X167769737Y-85233497D01*
X167773881Y-85212661D01*
X167806262Y-85150752D01*
X167848045Y-85122289D01*
X167879179Y-85109394D01*
X168010289Y-85021789D01*
X168121789Y-84910289D01*
X168209394Y-84779179D01*
X168269737Y-84633497D01*
X168300500Y-84478842D01*
X168300500Y-84321158D01*
X168300500Y-84321155D01*
X168300499Y-84321153D01*
X168293950Y-84288228D01*
X168269737Y-84166503D01*
X168250955Y-84121158D01*
X168209397Y-84020827D01*
X168209390Y-84020814D01*
X168121789Y-83889711D01*
X168121786Y-83889707D01*
X168010292Y-83778213D01*
X168010288Y-83778210D01*
X167879185Y-83690609D01*
X167879172Y-83690602D01*
X167733501Y-83630264D01*
X167733489Y-83630261D01*
X167578845Y-83599500D01*
X167578842Y-83599500D01*
X167421158Y-83599500D01*
X167421155Y-83599500D01*
X167266510Y-83630261D01*
X167266498Y-83630264D01*
X167120827Y-83690602D01*
X167120814Y-83690609D01*
X166989711Y-83778210D01*
X166989707Y-83778213D01*
X166878213Y-83889707D01*
X166878210Y-83889711D01*
X166790609Y-84020814D01*
X166790602Y-84020827D01*
X166730263Y-84166500D01*
X166730262Y-84166503D01*
X166726117Y-84187343D01*
X166693730Y-84249253D01*
X166651957Y-84277707D01*
X166620826Y-84290602D01*
X166620818Y-84290607D01*
X166489715Y-84378207D01*
X166489707Y-84378213D01*
X166378213Y-84489707D01*
X166378210Y-84489711D01*
X166290609Y-84620814D01*
X166290602Y-84620827D01*
X166230264Y-84766498D01*
X166230261Y-84766510D01*
X166199500Y-84921153D01*
X145850790Y-84921153D01*
X145879179Y-84909394D01*
X146010289Y-84821789D01*
X146121789Y-84710289D01*
X146209394Y-84579179D01*
X146269737Y-84433497D01*
X146300500Y-84278842D01*
X146300500Y-84121158D01*
X146300500Y-84121155D01*
X146300499Y-84121153D01*
X146293009Y-84083500D01*
X146269737Y-83966503D01*
X146269735Y-83966498D01*
X146209397Y-83820827D01*
X146209390Y-83820814D01*
X146121789Y-83689711D01*
X146121786Y-83689707D01*
X146010292Y-83578213D01*
X146010288Y-83578210D01*
X145879185Y-83490609D01*
X145879172Y-83490602D01*
X145733501Y-83430264D01*
X145733489Y-83430261D01*
X145578845Y-83399500D01*
X145578842Y-83399500D01*
X145421158Y-83399500D01*
X145421155Y-83399500D01*
X145266510Y-83430261D01*
X145266498Y-83430264D01*
X145120827Y-83490602D01*
X145120814Y-83490609D01*
X144989711Y-83578210D01*
X144989707Y-83578213D01*
X144878213Y-83689707D01*
X144878210Y-83689711D01*
X144790609Y-83820814D01*
X144790602Y-83820827D01*
X144730264Y-83966498D01*
X144730261Y-83966510D01*
X144699500Y-84121153D01*
X116678179Y-84121153D01*
X116678308Y-84120779D01*
X116678093Y-84116266D01*
X116691211Y-84083500D01*
X116708782Y-84053066D01*
X116710027Y-84050909D01*
X116714688Y-84042836D01*
X116750500Y-83909183D01*
X116750500Y-83770817D01*
X116714688Y-83637164D01*
X116645505Y-83517335D01*
X116547665Y-83419495D01*
X116547664Y-83419494D01*
X116547661Y-83419492D01*
X116427838Y-83350313D01*
X116427837Y-83350312D01*
X116427836Y-83350312D01*
X116294183Y-83314500D01*
X116155817Y-83314500D01*
X116022164Y-83350312D01*
X116022161Y-83350313D01*
X115902338Y-83419492D01*
X115902333Y-83419496D01*
X115804496Y-83517333D01*
X115804492Y-83517338D01*
X115735313Y-83637161D01*
X115735312Y-83637164D01*
X115699500Y-83770817D01*
X115699500Y-83909183D01*
X115729412Y-84020814D01*
X115735312Y-84042835D01*
X115735313Y-84042838D01*
X115804492Y-84162661D01*
X115809441Y-84169110D01*
X115806691Y-84171219D01*
X115832528Y-84218536D01*
X115827544Y-84288228D01*
X115785672Y-84344161D01*
X115758816Y-84359455D01*
X115701086Y-84383368D01*
X115701079Y-84383371D01*
X115537218Y-84492860D01*
X115537214Y-84492863D01*
X115397863Y-84632214D01*
X115397860Y-84632218D01*
X115288371Y-84796079D01*
X115288364Y-84796092D01*
X115212950Y-84978160D01*
X115212947Y-84978170D01*
X115174500Y-85171456D01*
X115174500Y-85171459D01*
X115174500Y-85368541D01*
X115174500Y-85368543D01*
X115174499Y-85368543D01*
X113945500Y-85368543D01*
X113945500Y-85171456D01*
X113907052Y-84978170D01*
X113907051Y-84978169D01*
X113907051Y-84978165D01*
X113907049Y-84978160D01*
X113831635Y-84796092D01*
X113831628Y-84796079D01*
X113722139Y-84632218D01*
X113722136Y-84632214D01*
X113582785Y-84492863D01*
X113582781Y-84492860D01*
X113418920Y-84383371D01*
X113418907Y-84383364D01*
X113236839Y-84307950D01*
X113236829Y-84307947D01*
X113043543Y-84269500D01*
X113043541Y-84269500D01*
X112046459Y-84269500D01*
X112046457Y-84269500D01*
X111853170Y-84307947D01*
X111853160Y-84307950D01*
X111671092Y-84383364D01*
X111671079Y-84383371D01*
X111507218Y-84492860D01*
X111507214Y-84492863D01*
X111367863Y-84632214D01*
X111367860Y-84632218D01*
X111258371Y-84796079D01*
X111258364Y-84796092D01*
X111182950Y-84978160D01*
X111182947Y-84978170D01*
X111144500Y-85171456D01*
X111144500Y-85171459D01*
X111144500Y-85368541D01*
X111144500Y-85368543D01*
X111144499Y-85368543D01*
X110100500Y-85368543D01*
X110100500Y-82326153D01*
X118344500Y-82326153D01*
X118344500Y-82483846D01*
X118375261Y-82638489D01*
X118375264Y-82638501D01*
X118435602Y-82784172D01*
X118435609Y-82784185D01*
X118523210Y-82915288D01*
X118523213Y-82915292D01*
X118634707Y-83026786D01*
X118634711Y-83026789D01*
X118765814Y-83114390D01*
X118765827Y-83114397D01*
X118911498Y-83174735D01*
X118911503Y-83174737D01*
X119066153Y-83205499D01*
X119066156Y-83205500D01*
X119066158Y-83205500D01*
X119223844Y-83205500D01*
X119223845Y-83205499D01*
X119378497Y-83174737D01*
X119524179Y-83114394D01*
X119655289Y-83026789D01*
X119766789Y-82915289D01*
X119854394Y-82784179D01*
X119914737Y-82638497D01*
X119945500Y-82483842D01*
X119945500Y-82326158D01*
X119945500Y-82326155D01*
X119945499Y-82326153D01*
X119914738Y-82171510D01*
X119914737Y-82171503D01*
X119914735Y-82171498D01*
X119854397Y-82025827D01*
X119854390Y-82025814D01*
X119766789Y-81894711D01*
X119766786Y-81894707D01*
X119655292Y-81783213D01*
X119655288Y-81783210D01*
X119524185Y-81695609D01*
X119524172Y-81695602D01*
X119378501Y-81635264D01*
X119378489Y-81635261D01*
X119223845Y-81604500D01*
X119223842Y-81604500D01*
X119066158Y-81604500D01*
X119066155Y-81604500D01*
X118911510Y-81635261D01*
X118911498Y-81635264D01*
X118765827Y-81695602D01*
X118765814Y-81695609D01*
X118634711Y-81783210D01*
X118634707Y-81783213D01*
X118523213Y-81894707D01*
X118523210Y-81894711D01*
X118435609Y-82025814D01*
X118435602Y-82025827D01*
X118375264Y-82171498D01*
X118375261Y-82171510D01*
X118344500Y-82326153D01*
X110100500Y-82326153D01*
X110100500Y-79451153D01*
X118344500Y-79451153D01*
X118344500Y-79608846D01*
X118375261Y-79763489D01*
X118375264Y-79763501D01*
X118435602Y-79909172D01*
X118435609Y-79909185D01*
X118523210Y-80040288D01*
X118523213Y-80040292D01*
X118634707Y-80151786D01*
X118634711Y-80151789D01*
X118765814Y-80239390D01*
X118765827Y-80239397D01*
X118911498Y-80299735D01*
X118911503Y-80299737D01*
X119066153Y-80330499D01*
X119066156Y-80330500D01*
X119066158Y-80330500D01*
X119223844Y-80330500D01*
X119223845Y-80330499D01*
X119378497Y-80299737D01*
X119524179Y-80239394D01*
X119655289Y-80151789D01*
X119766789Y-80040289D01*
X119854394Y-79909179D01*
X119914737Y-79763497D01*
X119945500Y-79608842D01*
X119945500Y-79521153D01*
X126399500Y-79521153D01*
X126399500Y-79678846D01*
X126430261Y-79833489D01*
X126430264Y-79833501D01*
X126490602Y-79979172D01*
X126490609Y-79979185D01*
X126578210Y-80110288D01*
X126578213Y-80110292D01*
X126689707Y-80221786D01*
X126689711Y-80221789D01*
X126820814Y-80309390D01*
X126820827Y-80309397D01*
X126966498Y-80369735D01*
X126966503Y-80369737D01*
X127121153Y-80400499D01*
X127121156Y-80400500D01*
X127121158Y-80400500D01*
X127278844Y-80400500D01*
X127278845Y-80400499D01*
X127433497Y-80369737D01*
X127579179Y-80309394D01*
X127710289Y-80221789D01*
X127821789Y-80110289D01*
X127909394Y-79979179D01*
X127969737Y-79833497D01*
X128000500Y-79678842D01*
X128000500Y-79521158D01*
X128000500Y-79521155D01*
X128000499Y-79521153D01*
X127969738Y-79366510D01*
X127969737Y-79366503D01*
X127940745Y-79296510D01*
X127909397Y-79220827D01*
X127909390Y-79220814D01*
X127821789Y-79089711D01*
X127821786Y-79089707D01*
X127710292Y-78978213D01*
X127710288Y-78978210D01*
X127579185Y-78890609D01*
X127579172Y-78890602D01*
X127433501Y-78830264D01*
X127433489Y-78830261D01*
X127278845Y-78799500D01*
X127278842Y-78799500D01*
X127121158Y-78799500D01*
X127121155Y-78799500D01*
X126966510Y-78830261D01*
X126966498Y-78830264D01*
X126820827Y-78890602D01*
X126820814Y-78890609D01*
X126689711Y-78978210D01*
X126689707Y-78978213D01*
X126578213Y-79089707D01*
X126578210Y-79089711D01*
X126490609Y-79220814D01*
X126490602Y-79220827D01*
X126430264Y-79366498D01*
X126430261Y-79366510D01*
X126399500Y-79521153D01*
X119945500Y-79521153D01*
X119945500Y-79451158D01*
X119945500Y-79451155D01*
X119945499Y-79451153D01*
X119914738Y-79296510D01*
X119914737Y-79296503D01*
X119914735Y-79296498D01*
X119854397Y-79150827D01*
X119854390Y-79150814D01*
X119766789Y-79019711D01*
X119766786Y-79019707D01*
X119655292Y-78908213D01*
X119655288Y-78908210D01*
X119524185Y-78820609D01*
X119524172Y-78820602D01*
X119378501Y-78760264D01*
X119378489Y-78760261D01*
X119223845Y-78729500D01*
X119223842Y-78729500D01*
X119066158Y-78729500D01*
X119053319Y-78732053D01*
X118969225Y-78748780D01*
X118969204Y-78748785D01*
X118911503Y-78760263D01*
X118888122Y-78769947D01*
X118888113Y-78769950D01*
X118765823Y-78820604D01*
X118765814Y-78820609D01*
X118634711Y-78908210D01*
X118634707Y-78908213D01*
X118523213Y-79019707D01*
X118523210Y-79019711D01*
X118435609Y-79150814D01*
X118435602Y-79150827D01*
X118375264Y-79296498D01*
X118375261Y-79296510D01*
X118344500Y-79451153D01*
X110100500Y-79451153D01*
X110100500Y-76728543D01*
X111144499Y-76728543D01*
X111182947Y-76921829D01*
X111182950Y-76921839D01*
X111258364Y-77103907D01*
X111258371Y-77103920D01*
X111367860Y-77267781D01*
X111367863Y-77267785D01*
X111507214Y-77407136D01*
X111507218Y-77407139D01*
X111671079Y-77516628D01*
X111671092Y-77516635D01*
X111834657Y-77584385D01*
X111853165Y-77592051D01*
X111853169Y-77592051D01*
X111853170Y-77592052D01*
X112046456Y-77630500D01*
X112046459Y-77630500D01*
X113043543Y-77630500D01*
X113173582Y-77604632D01*
X113236835Y-77592051D01*
X113418914Y-77516632D01*
X113582782Y-77407139D01*
X113722139Y-77267782D01*
X113831632Y-77103914D01*
X113907051Y-76921835D01*
X113945500Y-76728543D01*
X115174499Y-76728543D01*
X115212947Y-76921829D01*
X115212950Y-76921839D01*
X115288364Y-77103907D01*
X115288371Y-77103920D01*
X115397860Y-77267781D01*
X115397863Y-77267785D01*
X115537214Y-77407136D01*
X115537218Y-77407139D01*
X115701079Y-77516628D01*
X115701092Y-77516635D01*
X115758814Y-77540544D01*
X115813218Y-77584385D01*
X115835283Y-77650679D01*
X115818004Y-77718378D01*
X115808726Y-77730341D01*
X115809441Y-77730890D01*
X115804492Y-77737338D01*
X115735313Y-77857161D01*
X115735312Y-77857164D01*
X115699500Y-77990817D01*
X115699500Y-78129183D01*
X115734631Y-78260292D01*
X115735312Y-78262835D01*
X115735313Y-78262838D01*
X115804492Y-78382661D01*
X115804494Y-78382664D01*
X115804495Y-78382665D01*
X115902335Y-78480505D01*
X116022164Y-78549688D01*
X116155817Y-78585500D01*
X116155819Y-78585500D01*
X116294181Y-78585500D01*
X116294183Y-78585500D01*
X116427836Y-78549688D01*
X116547665Y-78480505D01*
X116645505Y-78382665D01*
X116714688Y-78262836D01*
X116750500Y-78129183D01*
X116750500Y-77990817D01*
X116714688Y-77857164D01*
X116698338Y-77828844D01*
X116691211Y-77816499D01*
X116674738Y-77748599D01*
X116697591Y-77682572D01*
X116752512Y-77639382D01*
X116798598Y-77630500D01*
X117373543Y-77630500D01*
X117503582Y-77604632D01*
X117566835Y-77592051D01*
X117673301Y-77547951D01*
X117742767Y-77540483D01*
X117805247Y-77571758D01*
X117840899Y-77631847D01*
X117843427Y-77665066D01*
X117844500Y-77665066D01*
X117844500Y-77828846D01*
X117875261Y-77983489D01*
X117875264Y-77983501D01*
X117935602Y-78129172D01*
X117935609Y-78129185D01*
X118023210Y-78260288D01*
X118023213Y-78260292D01*
X118134707Y-78371786D01*
X118134711Y-78371789D01*
X118265814Y-78459390D01*
X118265827Y-78459397D01*
X118411498Y-78519735D01*
X118411503Y-78519737D01*
X118562066Y-78549686D01*
X118566153Y-78550499D01*
X118566156Y-78550500D01*
X118566158Y-78550500D01*
X118723844Y-78550500D01*
X118754020Y-78544497D01*
X118878497Y-78519737D01*
X119024179Y-78459394D01*
X119155289Y-78371789D01*
X119266789Y-78260289D01*
X119354394Y-78129179D01*
X119357719Y-78121153D01*
X119394878Y-78031441D01*
X119414737Y-77983497D01*
X119445500Y-77828842D01*
X119445500Y-77671158D01*
X119445500Y-77671155D01*
X119445499Y-77671153D01*
X119439179Y-77639382D01*
X119414737Y-77516503D01*
X119414735Y-77516498D01*
X119354397Y-77370827D01*
X119354390Y-77370814D01*
X119266789Y-77239711D01*
X119266786Y-77239707D01*
X119155292Y-77128213D01*
X119155288Y-77128210D01*
X119024185Y-77040609D01*
X119024172Y-77040602D01*
X118878501Y-76980264D01*
X118878489Y-76980261D01*
X118723845Y-76949500D01*
X118723842Y-76949500D01*
X118566158Y-76949500D01*
X118566155Y-76949500D01*
X118411505Y-76980262D01*
X118411446Y-76980280D01*
X118411413Y-76980280D01*
X118405528Y-76981451D01*
X118405305Y-76980334D01*
X118341579Y-76980899D01*
X118282469Y-76943647D01*
X118252881Y-76880352D01*
X118253841Y-76837425D01*
X118275500Y-76728543D01*
X118275500Y-76531456D01*
X118237052Y-76338170D01*
X118237051Y-76338169D01*
X118237051Y-76338165D01*
X118237049Y-76338160D01*
X118161635Y-76156092D01*
X118161628Y-76156079D01*
X118052139Y-75992218D01*
X118052136Y-75992214D01*
X117912785Y-75852863D01*
X117912781Y-75852860D01*
X117748920Y-75743371D01*
X117748907Y-75743364D01*
X117566839Y-75667950D01*
X117566829Y-75667947D01*
X117373543Y-75629500D01*
X117373541Y-75629500D01*
X116076459Y-75629500D01*
X116076457Y-75629500D01*
X115883170Y-75667947D01*
X115883160Y-75667950D01*
X115701092Y-75743364D01*
X115701079Y-75743371D01*
X115537218Y-75852860D01*
X115537214Y-75852863D01*
X115397863Y-75992214D01*
X115397860Y-75992218D01*
X115288371Y-76156079D01*
X115288364Y-76156092D01*
X115212950Y-76338160D01*
X115212947Y-76338170D01*
X115174500Y-76531456D01*
X115174500Y-76531459D01*
X115174500Y-76728541D01*
X115174500Y-76728543D01*
X115174499Y-76728543D01*
X113945500Y-76728543D01*
X113945500Y-76728541D01*
X113945500Y-76531459D01*
X113945500Y-76531456D01*
X113907052Y-76338170D01*
X113907051Y-76338169D01*
X113907051Y-76338165D01*
X113907049Y-76338160D01*
X113831635Y-76156092D01*
X113831628Y-76156079D01*
X113722139Y-75992218D01*
X113722136Y-75992214D01*
X113582785Y-75852863D01*
X113582781Y-75852860D01*
X113418920Y-75743371D01*
X113418907Y-75743364D01*
X113236839Y-75667950D01*
X113236829Y-75667947D01*
X113043543Y-75629500D01*
X113043541Y-75629500D01*
X112046459Y-75629500D01*
X112046457Y-75629500D01*
X111853170Y-75667947D01*
X111853160Y-75667950D01*
X111671092Y-75743364D01*
X111671079Y-75743371D01*
X111507218Y-75852860D01*
X111507214Y-75852863D01*
X111367863Y-75992214D01*
X111367860Y-75992218D01*
X111258371Y-76156079D01*
X111258364Y-76156092D01*
X111182950Y-76338160D01*
X111182947Y-76338170D01*
X111144500Y-76531456D01*
X111144500Y-76531459D01*
X111144500Y-76728541D01*
X111144500Y-76728543D01*
X111144499Y-76728543D01*
X110100500Y-76728543D01*
X110100500Y-76003750D01*
X110100726Y-75996263D01*
X110112465Y-75802187D01*
X110118271Y-75706201D01*
X110120076Y-75691340D01*
X110124363Y-75667950D01*
X110171780Y-75409197D01*
X110175364Y-75394663D01*
X110252096Y-75148422D01*
X110260696Y-75120822D01*
X110265998Y-75106841D01*
X110383731Y-74845249D01*
X110390676Y-74832016D01*
X110539080Y-74586526D01*
X110547567Y-74574230D01*
X110724480Y-74348417D01*
X110734395Y-74337226D01*
X110937226Y-74134395D01*
X110948417Y-74124480D01*
X111174230Y-73947567D01*
X111186526Y-73939080D01*
X111432016Y-73790676D01*
X111445249Y-73783731D01*
X111706841Y-73665998D01*
X111720822Y-73660696D01*
X111994668Y-73575362D01*
X112009197Y-73571780D01*
X112291344Y-73520075D01*
X112306201Y-73518271D01*
X112596264Y-73500726D01*
X112603751Y-73500500D01*
X113695431Y-73500500D01*
X113735590Y-73507183D01*
X120159700Y-75706205D01*
X138400000Y-81950000D01*
X167300000Y-81850000D01*
X171027172Y-76889778D01*
X175599500Y-76889778D01*
X175599500Y-77110221D01*
X175633985Y-77327952D01*
X175702103Y-77537603D01*
X175702104Y-77537606D01*
X175759719Y-77650679D01*
X175800589Y-77730890D01*
X175802187Y-77734025D01*
X175931752Y-77912358D01*
X175931756Y-77912363D01*
X176087636Y-78068243D01*
X176087641Y-78068247D01*
X176171516Y-78129185D01*
X176265978Y-78197815D01*
X176388587Y-78260288D01*
X176462393Y-78297895D01*
X176462396Y-78297896D01*
X176567221Y-78331955D01*
X176672049Y-78366015D01*
X176889778Y-78400500D01*
X176889779Y-78400500D01*
X177110221Y-78400500D01*
X177110222Y-78400500D01*
X177327951Y-78366015D01*
X177537606Y-78297895D01*
X177734022Y-78197815D01*
X177912365Y-78068242D01*
X177962536Y-78018070D01*
X178023857Y-77984586D01*
X178093548Y-77989570D01*
X178149482Y-78031441D01*
X178166398Y-78062419D01*
X178196202Y-78142328D01*
X178196206Y-78142335D01*
X178282452Y-78257544D01*
X178282455Y-78257547D01*
X178397664Y-78343793D01*
X178397671Y-78343797D01*
X178532517Y-78394091D01*
X178532516Y-78394091D01*
X178539444Y-78394835D01*
X178592127Y-78400500D01*
X180487872Y-78400499D01*
X180547483Y-78394091D01*
X180682331Y-78343796D01*
X180797546Y-78257546D01*
X180883796Y-78142331D01*
X180891695Y-78121153D01*
X182999500Y-78121153D01*
X182999500Y-78278846D01*
X183030261Y-78433489D01*
X183030264Y-78433501D01*
X183090602Y-78579172D01*
X183090609Y-78579185D01*
X183178210Y-78710288D01*
X183178213Y-78710292D01*
X183289707Y-78821786D01*
X183289711Y-78821789D01*
X183420814Y-78909390D01*
X183420827Y-78909397D01*
X183566498Y-78969735D01*
X183566503Y-78969737D01*
X183721153Y-79000499D01*
X183721156Y-79000500D01*
X183721158Y-79000500D01*
X183878844Y-79000500D01*
X183878845Y-79000499D01*
X184033497Y-78969737D01*
X184179179Y-78909394D01*
X184310289Y-78821789D01*
X184421789Y-78710289D01*
X184509394Y-78579179D01*
X184569737Y-78433497D01*
X184600500Y-78278842D01*
X184600500Y-78121158D01*
X184600500Y-78121155D01*
X184600499Y-78121153D01*
X184577888Y-78007483D01*
X184569737Y-77966503D01*
X184569735Y-77966498D01*
X184509397Y-77820827D01*
X184509390Y-77820814D01*
X184421789Y-77689711D01*
X184421786Y-77689707D01*
X184310292Y-77578213D01*
X184310288Y-77578210D01*
X184179185Y-77490609D01*
X184179172Y-77490602D01*
X184033501Y-77430264D01*
X184033489Y-77430261D01*
X183878845Y-77399500D01*
X183878842Y-77399500D01*
X183721158Y-77399500D01*
X183721155Y-77399500D01*
X183566510Y-77430261D01*
X183566498Y-77430264D01*
X183420827Y-77490602D01*
X183420814Y-77490609D01*
X183289711Y-77578210D01*
X183289707Y-77578213D01*
X183178213Y-77689707D01*
X183178210Y-77689711D01*
X183090609Y-77820814D01*
X183090602Y-77820827D01*
X183030264Y-77966498D01*
X183030261Y-77966510D01*
X182999500Y-78121153D01*
X180891695Y-78121153D01*
X180910128Y-78071733D01*
X180910128Y-78071732D01*
X180925155Y-78031441D01*
X180934091Y-78007483D01*
X180940500Y-77947873D01*
X180940499Y-76889778D01*
X186059500Y-76889778D01*
X186059500Y-77110221D01*
X186093985Y-77327952D01*
X186162103Y-77537603D01*
X186162104Y-77537606D01*
X186219719Y-77650679D01*
X186260589Y-77730890D01*
X186262187Y-77734025D01*
X186391752Y-77912358D01*
X186391756Y-77912363D01*
X186547636Y-78068243D01*
X186547641Y-78068247D01*
X186631516Y-78129185D01*
X186725978Y-78197815D01*
X186848587Y-78260288D01*
X186922393Y-78297895D01*
X186922396Y-78297896D01*
X187027221Y-78331955D01*
X187132049Y-78366015D01*
X187349778Y-78400500D01*
X187349779Y-78400500D01*
X187570221Y-78400500D01*
X187570222Y-78400500D01*
X187787951Y-78366015D01*
X187997606Y-78297895D01*
X188194022Y-78197815D01*
X188372365Y-78068242D01*
X188422536Y-78018070D01*
X188483857Y-77984586D01*
X188553548Y-77989570D01*
X188609482Y-78031441D01*
X188626398Y-78062419D01*
X188656202Y-78142328D01*
X188656206Y-78142335D01*
X188742452Y-78257544D01*
X188742455Y-78257547D01*
X188857664Y-78343793D01*
X188857671Y-78343797D01*
X188992517Y-78394091D01*
X188992516Y-78394091D01*
X188999444Y-78394835D01*
X189052127Y-78400500D01*
X190947872Y-78400499D01*
X191007483Y-78394091D01*
X191142331Y-78343796D01*
X191257546Y-78257546D01*
X191343796Y-78142331D01*
X191351695Y-78121153D01*
X193999500Y-78121153D01*
X193999500Y-78278846D01*
X194030261Y-78433489D01*
X194030264Y-78433501D01*
X194090602Y-78579172D01*
X194090609Y-78579185D01*
X194178210Y-78710288D01*
X194178213Y-78710292D01*
X194289707Y-78821786D01*
X194289711Y-78821789D01*
X194420814Y-78909390D01*
X194420827Y-78909397D01*
X194566498Y-78969735D01*
X194566503Y-78969737D01*
X194721153Y-79000499D01*
X194721156Y-79000500D01*
X194721158Y-79000500D01*
X194878844Y-79000500D01*
X194878845Y-79000499D01*
X195033497Y-78969737D01*
X195179179Y-78909394D01*
X195310289Y-78821789D01*
X195421789Y-78710289D01*
X195509394Y-78579179D01*
X195569737Y-78433497D01*
X195600500Y-78278842D01*
X195600500Y-78121158D01*
X195600500Y-78121155D01*
X195600499Y-78121153D01*
X195577888Y-78007483D01*
X195569737Y-77966503D01*
X195569735Y-77966498D01*
X195509397Y-77820827D01*
X195509390Y-77820814D01*
X195421789Y-77689711D01*
X195421786Y-77689707D01*
X195310292Y-77578213D01*
X195310288Y-77578210D01*
X195179185Y-77490609D01*
X195179172Y-77490602D01*
X195033501Y-77430264D01*
X195033489Y-77430261D01*
X194878845Y-77399500D01*
X194878842Y-77399500D01*
X194721158Y-77399500D01*
X194721155Y-77399500D01*
X194566510Y-77430261D01*
X194566498Y-77430264D01*
X194420827Y-77490602D01*
X194420814Y-77490609D01*
X194289711Y-77578210D01*
X194289707Y-77578213D01*
X194178213Y-77689707D01*
X194178210Y-77689711D01*
X194090609Y-77820814D01*
X194090602Y-77820827D01*
X194030264Y-77966498D01*
X194030261Y-77966510D01*
X193999500Y-78121153D01*
X191351695Y-78121153D01*
X191370128Y-78071733D01*
X191370128Y-78071732D01*
X191385155Y-78031441D01*
X191394091Y-78007483D01*
X191400500Y-77947873D01*
X191400499Y-76052128D01*
X191394091Y-75992517D01*
X191393979Y-75992218D01*
X191343797Y-75857671D01*
X191343793Y-75857664D01*
X191257547Y-75742455D01*
X191257544Y-75742452D01*
X191142335Y-75656206D01*
X191142328Y-75656202D01*
X191007482Y-75605908D01*
X191007483Y-75605908D01*
X190947883Y-75599501D01*
X190947881Y-75599500D01*
X190947873Y-75599500D01*
X190947864Y-75599500D01*
X189052129Y-75599500D01*
X189052123Y-75599501D01*
X188992516Y-75605908D01*
X188857671Y-75656202D01*
X188857664Y-75656206D01*
X188742455Y-75742452D01*
X188742452Y-75742455D01*
X188656206Y-75857664D01*
X188656203Y-75857669D01*
X188626398Y-75937581D01*
X188584526Y-75993514D01*
X188519062Y-76017931D01*
X188450789Y-76003079D01*
X188422535Y-75981928D01*
X188372363Y-75931756D01*
X188372358Y-75931752D01*
X188194025Y-75802187D01*
X188194024Y-75802186D01*
X188194022Y-75802185D01*
X188131096Y-75770122D01*
X187997606Y-75702104D01*
X187997603Y-75702103D01*
X187787952Y-75633985D01*
X187679086Y-75616742D01*
X187570222Y-75599500D01*
X187349778Y-75599500D01*
X187277201Y-75610995D01*
X187132047Y-75633985D01*
X186922396Y-75702103D01*
X186922393Y-75702104D01*
X186725974Y-75802187D01*
X186547641Y-75931752D01*
X186547636Y-75931756D01*
X186391756Y-76087636D01*
X186391752Y-76087641D01*
X186262187Y-76265974D01*
X186162104Y-76462393D01*
X186162103Y-76462396D01*
X186093985Y-76672047D01*
X186059500Y-76889778D01*
X180940499Y-76889778D01*
X180940499Y-76052128D01*
X180934091Y-75992517D01*
X180933979Y-75992218D01*
X180883797Y-75857671D01*
X180883793Y-75857664D01*
X180797547Y-75742455D01*
X180797544Y-75742452D01*
X180682335Y-75656206D01*
X180682328Y-75656202D01*
X180547482Y-75605908D01*
X180547483Y-75605908D01*
X180487883Y-75599501D01*
X180487881Y-75599500D01*
X180487873Y-75599500D01*
X180487864Y-75599500D01*
X178592129Y-75599500D01*
X178592123Y-75599501D01*
X178532516Y-75605908D01*
X178397671Y-75656202D01*
X178397664Y-75656206D01*
X178282455Y-75742452D01*
X178282452Y-75742455D01*
X178196206Y-75857664D01*
X178196203Y-75857669D01*
X178166398Y-75937581D01*
X178124526Y-75993514D01*
X178059062Y-76017931D01*
X177990789Y-76003079D01*
X177962535Y-75981928D01*
X177912363Y-75931756D01*
X177912358Y-75931752D01*
X177734025Y-75802187D01*
X177734024Y-75802186D01*
X177734022Y-75802185D01*
X177671096Y-75770122D01*
X177537606Y-75702104D01*
X177537603Y-75702103D01*
X177327952Y-75633985D01*
X177219086Y-75616742D01*
X177110222Y-75599500D01*
X176889778Y-75599500D01*
X176817201Y-75610995D01*
X176672047Y-75633985D01*
X176462396Y-75702103D01*
X176462393Y-75702104D01*
X176265974Y-75802187D01*
X176087641Y-75931752D01*
X176087636Y-75931756D01*
X175931756Y-76087636D01*
X175931752Y-76087641D01*
X175802187Y-76265974D01*
X175702104Y-76462393D01*
X175702103Y-76462396D01*
X175633985Y-76672047D01*
X175599500Y-76889778D01*
X171027172Y-76889778D01*
X173912882Y-73049397D01*
X173968889Y-73007629D01*
X174011788Y-72999889D01*
X186696951Y-72977196D01*
X186764025Y-72996761D01*
G37*
%TD.AperFunction*%
%TD*%
M02*
